%TF.GenerationSoftware,Altium Limited,Altium Designer,26.3.0 (6)*%
G04 Layer_Color=8388736*
%FSLAX45Y45*%
%MOMM*%
%TF.SameCoordinates,DA275D67-A494-4C23-8084-13E0AEFBB134*%
%TF.FilePolarity,Negative*%
%TF.FileFunction,Soldermask,Top*%
%TF.Part,Single*%
G01*
G75*
%TA.AperFunction,SMDPad,CuDef*%
%ADD27R,1.02000X3.56000*%
%ADD28R,1.20000X0.90000*%
%ADD29R,1.05814X1.36213*%
%ADD30R,1.35000X1.00000*%
%ADD31R,1.25523X1.55620*%
%ADD32R,1.35464X1.46213*%
%ADD33R,1.05524X1.36213*%
%ADD34R,0.23928X0.70606*%
G04:AMPARAMS|DCode=35|XSize=0.70606mm|YSize=0.23928mm|CornerRadius=0.11964mm|HoleSize=0mm|Usage=FLASHONLY|Rotation=270.000|XOffset=0mm|YOffset=0mm|HoleType=Round|Shape=RoundedRectangle|*
%AMROUNDEDRECTD35*
21,1,0.70606,0.00000,0,0,270.0*
21,1,0.46678,0.23928,0,0,270.0*
1,1,0.23928,0.00000,-0.23339*
1,1,0.23928,0.00000,0.23339*
1,1,0.23928,0.00000,0.23339*
1,1,0.23928,0.00000,-0.23339*
%
%ADD35ROUNDEDRECTD35*%
G04:AMPARAMS|DCode=36|XSize=0.23928mm|YSize=0.70606mm|CornerRadius=0.11964mm|HoleSize=0mm|Usage=FLASHONLY|Rotation=270.000|XOffset=0mm|YOffset=0mm|HoleType=Round|Shape=RoundedRectangle|*
%AMROUNDEDRECTD36*
21,1,0.23928,0.46678,0,0,270.0*
21,1,0.00000,0.70606,0,0,270.0*
1,1,0.23928,-0.23339,0.00000*
1,1,0.23928,-0.23339,0.00000*
1,1,0.23928,0.23339,0.00000*
1,1,0.23928,0.23339,0.00000*
%
%ADD36ROUNDEDRECTD36*%
%ADD37R,2.80000X2.80000*%
%ADD38R,1.07950X1.32080*%
%ADD39R,1.30822X0.75872*%
%ADD40R,0.30000X1.20000*%
%ADD41R,1.20000X0.30000*%
%ADD42R,2.70000X5.60000*%
%ADD43R,1.90500X2.79000*%
%ADD44R,1.50822X1.40574*%
%ADD45R,0.95606X1.60981*%
%ADD46R,0.80000X1.05000*%
%ADD47R,2.70000X1.00000*%
%ADD48R,1.40000X0.95000*%
%ADD49R,2.70000X1.20000*%
%ADD50R,0.95000X1.70000*%
%ADD51R,0.95000X1.35000*%
%ADD52R,1.35000X0.95000*%
%ADD53R,0.90000X1.20000*%
%ADD61R,0.95000X1.40000*%
%ADD62R,1.20000X2.70000*%
%ADD63R,1.00000X2.70000*%
%ADD64R,1.40574X1.50822*%
%ADD65R,1.32080X1.07950*%
%ADD66R,1.55620X1.25523*%
%ADD67R,1.36213X1.05814*%
%TA.AperFunction,ComponentPad*%
%ADD79C,1.15000*%
%ADD80P,1.62635X4X90.0*%
%TA.AperFunction,SMDPad,CuDef*%
%ADD92R,2.95000X1.35000*%
%ADD93R,1.40000X0.75000*%
%ADD94R,0.60000X1.62500*%
%ADD95R,1.67500X0.85000*%
%ADD96R,4.05000X5.00000*%
%ADD97R,1.15000X1.50000*%
%ADD98R,1.35000X1.60000*%
%ADD99R,0.95000X1.40000*%
%ADD100R,1.00000X0.45000*%
%ADD101R,0.45000X1.00000*%
%ADD102R,2.78000X2.78000*%
%ADD103R,1.55000X2.05000*%
%ADD104R,1.45000X1.55000*%
%ADD105R,0.95000X1.65000*%
%ADD106R,1.15000X1.00000*%
%ADD107R,1.05000X1.55000*%
%ADD108R,1.70000X2.20000*%
%ADD109R,2.15000X1.95000*%
%ADD110R,1.50000X1.20000*%
%ADD111R,1.70000X1.65000*%
%TA.AperFunction,ConnectorPad*%
%ADD112R,0.75000X1.29000*%
%ADD113R,0.45000X1.29000*%
%TA.AperFunction,SMDPad,CuDef*%
%ADD114R,0.80000X2.91000*%
%ADD115R,1.20000X1.50000*%
%ADD116R,0.75000X1.40000*%
%TA.AperFunction,ComponentPad*%
%ADD117C,1.80000*%
%ADD118R,1.80000X1.80000*%
%ADD119P,1.90919X4X90.0*%
%ADD120C,1.35000*%
%ADD121O,1.15000X2.25000*%
%ADD122O,1.15000X1.95000*%
%ADD123C,0.80000*%
%ADD124P,1.90919X4X360.0*%
D27*
X10531500Y5905700D02*
D03*
X10731500Y6108700D02*
D03*
X10331500D02*
D03*
D28*
X12623800Y9420450D02*
D03*
Y9210450D02*
D03*
X8674100Y12832899D02*
D03*
Y13042900D02*
D03*
X11446800Y6527800D02*
D03*
Y6737800D02*
D03*
X6223000Y6524400D02*
D03*
Y6734400D02*
D03*
X9880600Y13049699D02*
D03*
Y12839700D02*
D03*
D29*
X10162401Y11544300D02*
D03*
X10337800D02*
D03*
X7527153Y4149065D02*
D03*
X7702551D02*
D03*
D30*
X10617200Y10796600D02*
D03*
Y10996600D02*
D03*
D31*
X8548996Y11658600D02*
D03*
X8343900D02*
D03*
D32*
X10562378Y12547600D02*
D03*
X10367222D02*
D03*
X10562378Y12776200D02*
D03*
X10367222D02*
D03*
D33*
X8398348Y12763500D02*
D03*
X8213252D02*
D03*
D34*
X9359346Y12474709D02*
D03*
D35*
X9259346D02*
D03*
X9159346D02*
D03*
X9109346D02*
D03*
X9209346Y12094103D02*
D03*
X9259346D02*
D03*
X9309346D02*
D03*
X9359346D02*
D03*
X9159346D02*
D03*
X9109346D02*
D03*
X9309346Y12474709D02*
D03*
X9209346D02*
D03*
D36*
X9044043Y12409406D02*
D03*
Y12359406D02*
D03*
Y12309406D02*
D03*
Y12259406D02*
D03*
Y12209406D02*
D03*
Y12159406D02*
D03*
X9424649Y12259406D02*
D03*
Y12309406D02*
D03*
Y12359406D02*
D03*
Y12409406D02*
D03*
Y12209406D02*
D03*
Y12159406D02*
D03*
D37*
X9234346Y12284406D02*
D03*
D38*
X7353300Y9753600D02*
D03*
X7194550D02*
D03*
D39*
X10617200Y10661771D02*
D03*
Y10496429D02*
D03*
D40*
X9534500Y5956300D02*
D03*
X9484500D02*
D03*
X9434500D02*
D03*
X9384500D02*
D03*
X9334500D02*
D03*
X9484500Y5106300D02*
D03*
X9034500Y5956300D02*
D03*
X9334500Y5106300D02*
D03*
X9284500D02*
D03*
X9084500Y5956300D02*
D03*
X9134500D02*
D03*
X9184500D02*
D03*
X9234500D02*
D03*
X9284500D02*
D03*
X9384500Y5106300D02*
D03*
X9434500D02*
D03*
X9234500D02*
D03*
X9184500D02*
D03*
X9134500D02*
D03*
X9534500D02*
D03*
X9034500D02*
D03*
X9084500D02*
D03*
X9584500D02*
D03*
Y5956300D02*
D03*
D41*
X8884500Y5556300D02*
D03*
Y5356300D02*
D03*
X9734500D02*
D03*
Y5706300D02*
D03*
X8884500Y5806300D02*
D03*
Y5706300D02*
D03*
Y5756300D02*
D03*
Y5606300D02*
D03*
Y5656300D02*
D03*
X9734500D02*
D03*
Y5306300D02*
D03*
Y5406300D02*
D03*
Y5256300D02*
D03*
Y5506300D02*
D03*
Y5556300D02*
D03*
Y5606300D02*
D03*
Y5456300D02*
D03*
X8884500Y5306300D02*
D03*
Y5506300D02*
D03*
X9734500Y5756300D02*
D03*
X8884500Y5256300D02*
D03*
Y5456300D02*
D03*
Y5406300D02*
D03*
X9734500Y5806300D02*
D03*
D42*
X9245600Y11328400D02*
D03*
X9775600D02*
D03*
D43*
X7194502Y5253965D02*
D03*
X7679602D02*
D03*
D44*
X9628046Y12241055D02*
D03*
Y12055806D02*
D03*
D45*
X8229600Y9753600D02*
D03*
X8489816D02*
D03*
X8229600Y10096500D02*
D03*
X8489816D02*
D03*
D46*
X9247046Y11941506D02*
D03*
X9432046D02*
D03*
X9524344Y12445322D02*
D03*
X9709344D02*
D03*
D47*
X11849100Y9401950D02*
D03*
Y9101950D02*
D03*
D48*
X8509000Y5693200D02*
D03*
Y5508200D02*
D03*
X8077200Y9597600D02*
D03*
Y9782600D02*
D03*
X8424413Y5151117D02*
D03*
Y5336117D02*
D03*
X8648700Y5161700D02*
D03*
Y5346700D02*
D03*
X8064500Y9931400D02*
D03*
Y10116400D02*
D03*
D49*
X12217400Y10220150D02*
D03*
Y9960150D02*
D03*
X12560300Y10220150D02*
D03*
Y9960150D02*
D03*
D50*
X9906600Y11823700D02*
D03*
X9626600D02*
D03*
D51*
X7477900Y9537700D02*
D03*
X7327900D02*
D03*
X8925700Y12141200D02*
D03*
X8775700D02*
D03*
X10045695Y6074717D02*
D03*
X9895695D02*
D03*
X7897000Y10198100D02*
D03*
X7747000D02*
D03*
X7258052Y4377665D02*
D03*
X7108052D02*
D03*
X7949000Y9448800D02*
D03*
X7799000D02*
D03*
D52*
X12649200Y9782950D02*
D03*
Y9632950D02*
D03*
D53*
X8407400Y12992101D02*
D03*
X8197400D02*
D03*
X11650000Y7289800D02*
D03*
X11440000D02*
D03*
X6416900D02*
D03*
X6206900D02*
D03*
X10635800Y5791200D02*
D03*
X10845800D02*
D03*
X6919752Y4390365D02*
D03*
X6709752D02*
D03*
D61*
X7581900Y10160000D02*
D03*
X7396900D02*
D03*
D62*
X7446752Y4441165D02*
D03*
X7706752D02*
D03*
X7446752Y4784065D02*
D03*
X7706752D02*
D03*
D63*
X6901252Y5152365D02*
D03*
X6601252D02*
D03*
D64*
X9245600Y11747500D02*
D03*
X9430849D02*
D03*
X9060270Y11916106D02*
D03*
X8875021D02*
D03*
D65*
X7556500Y10493375D02*
D03*
Y10334625D02*
D03*
D66*
X8953500Y11227748D02*
D03*
Y11022652D02*
D03*
D67*
X12852400Y10215949D02*
D03*
Y10040551D02*
D03*
D79*
X10936505Y10911105D02*
D03*
D80*
X10756900Y10731500D02*
D03*
D92*
X9918700Y12008900D02*
D03*
Y12298900D02*
D03*
D93*
X12143200Y9531350D02*
D03*
Y9436350D02*
D03*
X12393200D02*
D03*
Y9531350D02*
D03*
Y9626350D02*
D03*
X12143200D02*
D03*
X9929400Y10902700D02*
D03*
X9679400D02*
D03*
X9929400Y10712700D02*
D03*
Y10807700D02*
D03*
X9679400D02*
D03*
Y10712700D02*
D03*
D94*
X6757807Y6531373D02*
D03*
X6562807D02*
D03*
X6432807D02*
D03*
X6497807D02*
D03*
X6692807D02*
D03*
X6627807D02*
D03*
X6367807D02*
D03*
X6822807Y7118973D02*
D03*
X6757807D02*
D03*
X6692807D02*
D03*
X6627807D02*
D03*
X6562807D02*
D03*
X6497807D02*
D03*
X6432807D02*
D03*
X6367807D02*
D03*
X6822807Y6531373D02*
D03*
X6887807D02*
D03*
X6952807D02*
D03*
X6887807Y7118973D02*
D03*
X6952807D02*
D03*
X11663800Y7113700D02*
D03*
X11728800D02*
D03*
X11793800D02*
D03*
X11858800D02*
D03*
X11923800D02*
D03*
X11988800D02*
D03*
X12053800D02*
D03*
X11598800Y6526100D02*
D03*
X11988800D02*
D03*
X11923800D02*
D03*
X11793800D02*
D03*
X11728800D02*
D03*
X11663800D02*
D03*
X11858800D02*
D03*
X11598800Y7113700D02*
D03*
X12053800Y6526100D02*
D03*
X12118800D02*
D03*
X12183800D02*
D03*
X12118800Y7113700D02*
D03*
X12183800D02*
D03*
D95*
X8009200Y11087100D02*
D03*
Y11214100D02*
D03*
Y11341100D02*
D03*
Y11468100D02*
D03*
X8551600D02*
D03*
Y11214100D02*
D03*
Y11087100D02*
D03*
Y11341100D02*
D03*
D96*
X7880800Y9067800D02*
D03*
X7460800D02*
D03*
D97*
X9383100Y4699000D02*
D03*
X9563100D02*
D03*
X9385300Y4876800D02*
D03*
X9565300D02*
D03*
D98*
X8405800Y12395200D02*
D03*
X8205800D02*
D03*
D99*
X8385800Y12560300D02*
D03*
X8225800D02*
D03*
D100*
X7526600Y9892100D02*
D03*
Y9842100D02*
D03*
Y9942100D02*
D03*
Y9792100D02*
D03*
Y9742100D02*
D03*
Y9692100D02*
D03*
X7916600D02*
D03*
Y9742100D02*
D03*
Y9792100D02*
D03*
Y9842100D02*
D03*
Y9892100D02*
D03*
Y9942100D02*
D03*
D101*
X7846600Y10012100D02*
D03*
X7796600D02*
D03*
X7746600D02*
D03*
X7696600D02*
D03*
X7646600D02*
D03*
X7596600D02*
D03*
Y9622100D02*
D03*
X7696600D02*
D03*
X7746600D02*
D03*
X7796600D02*
D03*
X7846600D02*
D03*
X7646600D02*
D03*
D102*
X7721600Y9817100D02*
D03*
D103*
X9979300Y3104800D02*
D03*
X8664300Y3201800D02*
D03*
D104*
X9394300Y4519800D02*
D03*
X8824300D02*
D03*
D105*
X8964300Y3469800D02*
D03*
X8744300Y3489800D02*
D03*
X9514300D02*
D03*
X8854300D02*
D03*
X9294300D02*
D03*
X9074300D02*
D03*
X9404300Y3509800D02*
D03*
X9184300Y3469800D02*
D03*
D106*
X8963300Y4547300D02*
D03*
D107*
X10559800Y12331700D02*
D03*
X10369800D02*
D03*
Y12992101D02*
D03*
X10559800D02*
D03*
D108*
X11747500Y10180050D02*
D03*
Y9670050D02*
D03*
D109*
X10553700Y11544300D02*
D03*
X11293700D02*
D03*
D110*
X8724900Y11201400D02*
D03*
Y11056400D02*
D03*
X11463107Y7133793D02*
D03*
Y6988793D02*
D03*
X6228507Y7142673D02*
D03*
Y6997673D02*
D03*
X8851900Y5020200D02*
D03*
Y5165200D02*
D03*
X8712200Y5644100D02*
D03*
Y5499100D02*
D03*
X8496300Y3381900D02*
D03*
Y3526900D02*
D03*
X9334500Y6096000D02*
D03*
Y6241000D02*
D03*
D111*
X8318500Y3364400D02*
D03*
Y3544400D02*
D03*
D112*
X9593000Y12852400D02*
D03*
X8953000D02*
D03*
X9513000D02*
D03*
X9033000D02*
D03*
D113*
X9298000D02*
D03*
X9198000D02*
D03*
X9348000D02*
D03*
X9248000D02*
D03*
X9098000D02*
D03*
X9448000D02*
D03*
X9398000D02*
D03*
X9148000D02*
D03*
D114*
X11252200Y5054600D02*
D03*
X10998200D02*
D03*
X10744200D02*
D03*
X10871200D02*
D03*
X11125200D02*
D03*
Y4650600D02*
D03*
X10617200D02*
D03*
Y5054600D02*
D03*
X11379200Y4650600D02*
D03*
Y5054600D02*
D03*
X10871200Y4650600D02*
D03*
X10998200D02*
D03*
X11252200D02*
D03*
X10744200D02*
D03*
D115*
X10042663Y5859141D02*
D03*
X9897663D02*
D03*
X9822400Y5067300D02*
D03*
X9677400D02*
D03*
X7895700Y10401300D02*
D03*
X7750700D02*
D03*
D116*
X7011852Y4856265D02*
D03*
X6916852Y4606265D02*
D03*
X7106852D02*
D03*
X6916852Y4856265D02*
D03*
X7011852Y4606265D02*
D03*
X7106852Y4856265D02*
D03*
D117*
X5988800Y8064500D02*
D03*
X7388800D02*
D03*
X5638800D02*
D03*
X7038800D02*
D03*
X6688800D02*
D03*
X6338800D02*
D03*
X7738800D02*
D03*
X13258800D02*
D03*
X11158800D02*
D03*
X11508800D02*
D03*
X11858800D02*
D03*
X12208800D02*
D03*
X12558800D02*
D03*
X12908800D02*
D03*
D118*
X5288800D02*
D03*
X10808800D02*
D03*
D119*
X8316779Y8875579D02*
D03*
X10223500Y7251700D02*
D03*
D120*
X8458200Y9017000D02*
D03*
X10223500Y8877300D02*
D03*
X10082079Y7110279D02*
D03*
X8316779Y7253421D02*
D03*
D121*
X9705000Y12909399D02*
D03*
X8841000D02*
D03*
D122*
X9705000Y13327400D02*
D03*
X8841000D02*
D03*
D123*
X9562000Y12959399D02*
D03*
X8984000D02*
D03*
D124*
X10082079Y9018721D02*
D03*
X8458200Y7112000D02*
D03*
%TF.MD5,e9ed2fab2c84103cb8185b3b8e3203d5*%
M02*
