%TF.GenerationSoftware,Altium Limited,Altium Designer,26.3.0 (6)*%
G04 Layer_Physical_Order=3*
G04 Layer_Color=16440176*
%FSLAX45Y45*%
%MOMM*%
%TF.SameCoordinates,DA275D67-A494-4C23-8084-13E0AEFBB134*%
%TF.FilePolarity,Positive*%
%TF.FileFunction,Copper,L3,Inr,Signal*%
%TF.Part,Single*%
G01*
G75*
%TA.AperFunction,Conductor*%
%ADD69C,0.50800*%
%ADD70C,0.25400*%
%ADD74C,0.15800*%
%TA.AperFunction,ComponentPad*%
%ADD75C,1.65000*%
%ADD76R,1.65000X1.65000*%
%ADD77P,1.69706X4X90.0*%
%ADD78C,1.20000*%
%ADD79C,1.15000*%
%ADD80P,1.62635X4X90.0*%
%ADD81O,1.00000X2.10000*%
%ADD82O,1.00000X1.80000*%
%ADD83C,0.65000*%
%ADD84P,1.69706X4X360.0*%
%TA.AperFunction,ViaPad*%
%ADD85C,0.55000*%
%ADD86C,0.60000*%
G36*
X9547670Y12787979D02*
X9585770Y12749880D01*
X9641679D01*
X9644043Y12748900D01*
X9659957D01*
X9661970Y12749734D01*
Y12534209D01*
X9613557Y12510441D01*
Y12422066D01*
X9530844Y12339354D01*
X9387308D01*
X9386819Y12338865D01*
Y12381580D01*
X9450766Y12381593D01*
X9463453Y12394280D01*
X9473857D01*
Y12535243D01*
X9372600Y12636500D01*
X9100458D01*
X9003343Y12733615D01*
Y12911005D01*
X9064584D01*
X9067800Y12907790D01*
Y12788900D01*
X9410700D01*
X9423400Y12776200D01*
X9420670Y12773470D01*
Y12737180D01*
X9477435Y12793944D01*
Y12908244D01*
X9484170Y12914980D01*
X9547670D01*
Y12787979D01*
D02*
G37*
G36*
X7962900Y11506200D02*
X8089900D01*
Y11049000D01*
X7950200D01*
X7899400Y10998200D01*
X7416800D01*
Y11557000D01*
X7912100D01*
X7962900Y11506200D01*
D02*
G37*
G36*
X9599300Y10979183D02*
Y10977543D01*
X9605390Y10962842D01*
X9616642Y10951590D01*
X9631343Y10945500D01*
X9647257D01*
X9661958Y10951590D01*
X9664281Y10953913D01*
X9942286Y10845800D01*
X10020300D01*
Y10426700D01*
X10007600D01*
Y10337800D01*
X8559800D01*
X8369300Y10528300D01*
X7790868D01*
X7782358Y10536810D01*
X7767657Y10542900D01*
X7751743D01*
X7737042Y10536810D01*
X7728532Y10528300D01*
X6451600D01*
X4787900Y8864600D01*
Y7391400D01*
X6654800Y5524500D01*
X6985000D01*
Y4991100D01*
X6832600D01*
X6680200Y5143500D01*
Y5321300D01*
X6134100D01*
X4292600Y7162800D01*
X4292599Y9055099D01*
X6235700Y10998200D01*
X7403270D01*
X7407233Y10988633D01*
X7416800Y10984670D01*
X7899400D01*
X7908967Y10988633D01*
X7918534Y10998200D01*
X9550400D01*
X9599300Y10979183D01*
D02*
G37*
G36*
X13271500Y9029700D02*
X13627100Y8674100D01*
X13627100Y7848600D01*
X12166600Y6388100D01*
X12087568D01*
X12090310Y6390842D01*
X12096400Y6405543D01*
Y6421457D01*
X12090310Y6436158D01*
X12079058Y6447410D01*
X12064357Y6453500D01*
X12048444D01*
X12033742Y6447410D01*
X12022490Y6436158D01*
X12016400Y6421457D01*
Y6405543D01*
X12022490Y6390842D01*
X12025232Y6388100D01*
X6851303D01*
X6859317Y6396114D01*
X6865407Y6410816D01*
Y6426729D01*
X6859317Y6441431D01*
X6848065Y6452683D01*
X6833363Y6458772D01*
X6817450D01*
X6802749Y6452683D01*
X6791496Y6441431D01*
X6785407Y6426729D01*
Y6410816D01*
X6791496Y6396114D01*
X6799511Y6388100D01*
X5905500D01*
X4889500Y7404100D01*
Y8826500D01*
X5359400Y9296400D01*
X10363200D01*
X10554285Y9526256D01*
X10551800Y9520257D01*
Y9504343D01*
X10557890Y9489642D01*
X10569142Y9478390D01*
X10583843Y9472300D01*
X10599757D01*
X10614458Y9478390D01*
X10625710Y9489642D01*
X10631800Y9504343D01*
Y9520257D01*
X10625710Y9534958D01*
X10614458Y9546210D01*
X10599757Y9552300D01*
X10583843D01*
X10571783Y9547304D01*
X11239500Y10350500D01*
X13271500D01*
Y9029700D01*
D02*
G37*
G36*
X11188700Y6311900D02*
X11849100Y5651500D01*
Y4533900D01*
X10109200Y2794000D01*
X8382000D01*
X7493000Y3683000D01*
Y5753100D01*
X7505700Y5765800D01*
X7493000D01*
X7518400Y5778500D01*
X7505700Y5765800D01*
X8204200D01*
X8483600Y6045200D01*
X9448800D01*
X9715500Y6311900D01*
X11188700Y6311900D01*
D02*
G37*
%LPC*%
G36*
X9420670Y12635580D02*
Y12601130D01*
X9473857Y12547943D01*
Y12582393D01*
X9420670Y12635580D01*
D02*
G37*
G36*
X8961457Y10962000D02*
X8945543D01*
X8930842Y10955910D01*
X8919590Y10944658D01*
X8913500Y10929957D01*
Y10914043D01*
X8919590Y10899342D01*
X8930842Y10888090D01*
X8945543Y10882000D01*
X8961457D01*
X8976158Y10888090D01*
X8987410Y10899342D01*
X8993500Y10914043D01*
Y10929957D01*
X8987410Y10944658D01*
X8976158Y10955910D01*
X8961457Y10962000D01*
D02*
G37*
G36*
X7704157Y10695300D02*
X7688243D01*
X7673542Y10689210D01*
X7662290Y10677958D01*
X7656200Y10663257D01*
Y10647343D01*
X7662290Y10632642D01*
X7673542Y10621390D01*
X7688243Y10615300D01*
X7704157D01*
X7718858Y10621390D01*
X7730110Y10632642D01*
X7736200Y10647343D01*
Y10663257D01*
X7730110Y10677958D01*
X7718858Y10689210D01*
X7704157Y10695300D01*
D02*
G37*
G36*
X7564457Y10641325D02*
X7548543D01*
X7533842Y10635235D01*
X7522590Y10623983D01*
X7516500Y10609282D01*
Y10593368D01*
X7522590Y10578667D01*
X7533842Y10567415D01*
X7548543Y10561325D01*
X7564457D01*
X7579158Y10567415D01*
X7590410Y10578667D01*
X7596500Y10593368D01*
Y10609282D01*
X7590410Y10623983D01*
X7579158Y10635235D01*
X7564457Y10641325D01*
D02*
G37*
G36*
X12898953Y9935800D02*
X12882047D01*
X12866426Y9929330D01*
X12854469Y9917374D01*
X12852400Y9912377D01*
X12850330Y9917374D01*
X12838374Y9929330D01*
X12822754Y9935800D01*
X12805846D01*
X12790226Y9929330D01*
X12778270Y9917374D01*
X12771800Y9901754D01*
Y9884846D01*
X12778270Y9869226D01*
X12790226Y9857270D01*
X12805846Y9850800D01*
X12822754D01*
X12838374Y9857270D01*
X12850330Y9869226D01*
X12852400Y9874223D01*
X12854469Y9869226D01*
X12866426Y9857270D01*
X12882047Y9850800D01*
X12898953D01*
X12914574Y9857270D01*
X12926530Y9869226D01*
X12933000Y9884846D01*
Y9901754D01*
X12926530Y9917374D01*
X12914574Y9929330D01*
X12898953Y9935800D01*
D02*
G37*
G36*
X12089195Y9812284D02*
X12072287D01*
X12056667Y9805814D01*
X12044711Y9793859D01*
X12038241Y9778238D01*
Y9761330D01*
X12044711Y9745710D01*
X12056667Y9733754D01*
X12072287Y9727284D01*
X12089195D01*
X12104815Y9733754D01*
X12116771Y9745710D01*
X12123241Y9761330D01*
Y9778238D01*
X12116771Y9793859D01*
X12104815Y9805814D01*
X12089195Y9812284D01*
D02*
G37*
G36*
X12174473Y9809752D02*
X12157565D01*
X12141944Y9803281D01*
X12129989Y9791326D01*
X12123519Y9775705D01*
Y9758798D01*
X12129989Y9743177D01*
X12141944Y9731222D01*
X12157565Y9724751D01*
X12174473D01*
X12190093Y9731222D01*
X12202049Y9743177D01*
X12208519Y9758798D01*
Y9775705D01*
X12202049Y9791326D01*
X12190093Y9803281D01*
X12174473Y9809752D01*
D02*
G37*
G36*
X12466573Y9860552D02*
X12449665D01*
X12434044Y9854081D01*
X12422089Y9842126D01*
X12415619Y9826505D01*
Y9809598D01*
X12422089Y9793977D01*
X12434044Y9782022D01*
X12439042Y9779951D01*
X12434044Y9777881D01*
X12422089Y9765926D01*
X12415619Y9750305D01*
Y9733398D01*
X12422089Y9717777D01*
X12434044Y9705822D01*
X12449665Y9699351D01*
X12466573D01*
X12482193Y9705822D01*
X12494149Y9717777D01*
X12500619Y9733398D01*
Y9750305D01*
X12494149Y9765926D01*
X12482193Y9777881D01*
X12477196Y9779951D01*
X12482193Y9782022D01*
X12494149Y9793977D01*
X12500619Y9809598D01*
Y9826505D01*
X12494149Y9842126D01*
X12482193Y9854081D01*
X12466573Y9860552D01*
D02*
G37*
G36*
X11374954Y9770700D02*
X11358046D01*
X11342426Y9764230D01*
X11330470Y9752274D01*
X11324000Y9736654D01*
Y9719746D01*
X11330470Y9704126D01*
X11342426Y9692170D01*
X11358046Y9685700D01*
X11374954D01*
X11390574Y9692170D01*
X11402530Y9704126D01*
X11409000Y9719746D01*
Y9736654D01*
X11402530Y9752274D01*
X11390574Y9764230D01*
X11374954Y9770700D01*
D02*
G37*
G36*
Y9656400D02*
X11358046D01*
X11342426Y9649930D01*
X11330470Y9637974D01*
X11324000Y9622354D01*
Y9605446D01*
X11330470Y9589826D01*
X11342426Y9577870D01*
X11358046Y9571400D01*
X11374954D01*
X11390574Y9577870D01*
X11402530Y9589826D01*
X11409000Y9605446D01*
Y9622354D01*
X11402530Y9637974D01*
X11390574Y9649930D01*
X11374954Y9656400D01*
D02*
G37*
G36*
X10739457Y9641200D02*
X10723543D01*
X10708842Y9635110D01*
X10697590Y9623858D01*
X10691500Y9609157D01*
Y9593243D01*
X10697590Y9578542D01*
X10708842Y9567290D01*
X10723543Y9561200D01*
X10739457D01*
X10754158Y9567290D01*
X10765410Y9578542D01*
X10771500Y9593243D01*
Y9609157D01*
X10765410Y9623858D01*
X10754158Y9635110D01*
X10739457Y9641200D01*
D02*
G37*
G36*
X10904557Y9501500D02*
X10888643D01*
X10873942Y9495410D01*
X10862690Y9484158D01*
X10856600Y9469457D01*
Y9453543D01*
X10862690Y9438842D01*
X10873942Y9427590D01*
X10888643Y9421500D01*
X10904557D01*
X10919258Y9427590D01*
X10930510Y9438842D01*
X10936600Y9453543D01*
Y9469457D01*
X10930510Y9484158D01*
X10919258Y9495410D01*
X10904557Y9501500D01*
D02*
G37*
G36*
X11666557Y9488800D02*
X11650643D01*
X11635942Y9482710D01*
X11624690Y9471458D01*
X11618600Y9456757D01*
Y9440843D01*
X11624690Y9426142D01*
X11635942Y9414890D01*
X11650643Y9408800D01*
X11666557D01*
X11681258Y9414890D01*
X11692510Y9426142D01*
X11698600Y9440843D01*
Y9456757D01*
X11692510Y9471458D01*
X11681258Y9482710D01*
X11666557Y9488800D01*
D02*
G37*
G36*
X11488757D02*
X11472843D01*
X11458142Y9482710D01*
X11446890Y9471458D01*
X11440800Y9456757D01*
Y9440843D01*
X11446890Y9426142D01*
X11458142Y9414890D01*
X11472843Y9408800D01*
X11488757D01*
X11503458Y9414890D01*
X11514710Y9426142D01*
X11520800Y9440843D01*
Y9456757D01*
X11514710Y9471458D01*
X11503458Y9482710D01*
X11488757Y9488800D01*
D02*
G37*
G36*
X11272857D02*
X11256943D01*
X11242242Y9482710D01*
X11230990Y9471458D01*
X11224900Y9456757D01*
Y9440843D01*
X11230990Y9426142D01*
X11242242Y9414890D01*
X11256943Y9408800D01*
X11272857D01*
X11287558Y9414890D01*
X11298810Y9426142D01*
X11304900Y9440843D01*
Y9456757D01*
X11298810Y9471458D01*
X11287558Y9482710D01*
X11272857Y9488800D01*
D02*
G37*
G36*
X11082357D02*
X11066443D01*
X11051742Y9482710D01*
X11040490Y9471458D01*
X11034400Y9456757D01*
Y9440843D01*
X11040490Y9426142D01*
X11051742Y9414890D01*
X11066443Y9408800D01*
X11082357D01*
X11097058Y9414890D01*
X11108310Y9426142D01*
X11114400Y9440843D01*
Y9456757D01*
X11108310Y9471458D01*
X11097058Y9482710D01*
X11082357Y9488800D01*
D02*
G37*
G36*
X12878313Y9477628D02*
X12861404D01*
X12845786Y9471158D01*
X12833829Y9459202D01*
X12827359Y9443582D01*
Y9426674D01*
X12833829Y9411053D01*
X12845786Y9399098D01*
X12861404Y9392628D01*
X12878313D01*
X12893933Y9399098D01*
X12905888Y9411053D01*
X12912360Y9426674D01*
Y9443582D01*
X12905888Y9459202D01*
X12893933Y9471158D01*
X12878313Y9477628D01*
D02*
G37*
G36*
X12785656Y9474196D02*
X12768748D01*
X12753127Y9467726D01*
X12741172Y9455770D01*
X12734702Y9440150D01*
Y9423242D01*
X12741172Y9407621D01*
X12753127Y9395666D01*
X12768748Y9389196D01*
X12785656D01*
X12801276Y9395666D01*
X12813232Y9407621D01*
X12819702Y9423242D01*
Y9440150D01*
X12813232Y9455770D01*
X12801276Y9467726D01*
X12785656Y9474196D01*
D02*
G37*
G36*
X10739457Y9425300D02*
X10723543D01*
X10708842Y9419210D01*
X10697590Y9407958D01*
X10691500Y9393257D01*
Y9377343D01*
X10697590Y9362642D01*
X10708842Y9351390D01*
X10723543Y9345300D01*
X10739457D01*
X10754158Y9351390D01*
X10765410Y9362642D01*
X10771500Y9377343D01*
Y9393257D01*
X10765410Y9407958D01*
X10754158Y9419210D01*
X10739457Y9425300D01*
D02*
G37*
G36*
X11069657Y9336400D02*
X11053743D01*
X11039042Y9330310D01*
X11027790Y9319058D01*
X11021700Y9304357D01*
Y9288443D01*
X11027790Y9273742D01*
X11039042Y9262490D01*
X11053743Y9256400D01*
X11069657D01*
X11084358Y9262490D01*
X11095610Y9273742D01*
X11101700Y9288443D01*
Y9304357D01*
X11095610Y9319058D01*
X11084358Y9330310D01*
X11069657Y9336400D01*
D02*
G37*
G36*
X10879157D02*
X10863243D01*
X10848542Y9330310D01*
X10837290Y9319058D01*
X10831200Y9304357D01*
Y9288443D01*
X10837290Y9273742D01*
X10848542Y9262490D01*
X10863243Y9256400D01*
X10879157D01*
X10893858Y9262490D01*
X10905110Y9273742D01*
X10911200Y9288443D01*
Y9304357D01*
X10905110Y9319058D01*
X10893858Y9330310D01*
X10879157Y9336400D01*
D02*
G37*
G36*
X11857057Y9323700D02*
X11841143D01*
X11826442Y9317610D01*
X11815190Y9306358D01*
X11809100Y9291657D01*
Y9275743D01*
X11815190Y9261042D01*
X11826442Y9249790D01*
X11841143Y9243700D01*
X11857057D01*
X11871758Y9249790D01*
X11883010Y9261042D01*
X11889100Y9275743D01*
Y9291657D01*
X11883010Y9306358D01*
X11871758Y9317610D01*
X11857057Y9323700D01*
D02*
G37*
G36*
X11666557D02*
X11650643D01*
X11635942Y9317610D01*
X11624690Y9306358D01*
X11618600Y9291657D01*
Y9275743D01*
X11624690Y9261042D01*
X11635942Y9249790D01*
X11650643Y9243700D01*
X11666557D01*
X11681258Y9249790D01*
X11692510Y9261042D01*
X11698600Y9275743D01*
Y9291657D01*
X11692510Y9306358D01*
X11681258Y9317610D01*
X11666557Y9323700D01*
D02*
G37*
G36*
X11476057D02*
X11460143D01*
X11445442Y9317610D01*
X11434190Y9306358D01*
X11428100Y9291657D01*
Y9275743D01*
X11434190Y9261042D01*
X11445442Y9249790D01*
X11460143Y9243700D01*
X11476057D01*
X11490758Y9249790D01*
X11502010Y9261042D01*
X11508100Y9275743D01*
Y9291657D01*
X11502010Y9306358D01*
X11490758Y9317610D01*
X11476057Y9323700D01*
D02*
G37*
G36*
X11272857D02*
X11256943D01*
X11242242Y9317610D01*
X11230990Y9306358D01*
X11224900Y9291657D01*
Y9275743D01*
X11230990Y9261042D01*
X11242242Y9249790D01*
X11256943Y9243700D01*
X11272857D01*
X11287558Y9249790D01*
X11298810Y9261042D01*
X11304900Y9275743D01*
Y9291657D01*
X11298810Y9306358D01*
X11287558Y9317610D01*
X11272857Y9323700D01*
D02*
G37*
G36*
X7242407Y9272900D02*
X7226494D01*
X7211792Y9266810D01*
X7200540Y9255558D01*
X7194450Y9240857D01*
Y9224943D01*
X7200540Y9210242D01*
X7211792Y9198990D01*
X7226494Y9192900D01*
X7242407D01*
X7257108Y9198990D01*
X7268360Y9210242D01*
X7274450Y9224943D01*
Y9240857D01*
X7268360Y9255558D01*
X7257108Y9266810D01*
X7242407Y9272900D01*
D02*
G37*
G36*
X12670354Y9135700D02*
X12653446D01*
X12637826Y9129230D01*
X12625870Y9117274D01*
X12623800Y9112277D01*
X12621730Y9117274D01*
X12609774Y9129230D01*
X12594154Y9135700D01*
X12577246D01*
X12561626Y9129230D01*
X12549670Y9117274D01*
X12543200Y9101654D01*
Y9084746D01*
X12549670Y9069126D01*
X12561626Y9057170D01*
X12577246Y9050700D01*
X12594154D01*
X12609774Y9057170D01*
X12621730Y9069126D01*
X12623800Y9074123D01*
X12625870Y9069126D01*
X12637826Y9057170D01*
X12653446Y9050700D01*
X12670354D01*
X12685974Y9057170D01*
X12697930Y9069126D01*
X12704400Y9084746D01*
Y9101654D01*
X12697930Y9117274D01*
X12685974Y9129230D01*
X12670354Y9135700D01*
D02*
G37*
G36*
X9320127Y9078030D02*
X9221873D01*
X9221222Y9077760D01*
X9220547Y9077965D01*
X9122766Y9068334D01*
X9122145Y9068002D01*
X9121453Y9068140D01*
X9025087Y9048971D01*
X9024501Y9048579D01*
X9023799Y9048648D01*
X8929776Y9020127D01*
X8929231Y9019679D01*
X8928526D01*
X8837751Y8982080D01*
X8837253Y8981581D01*
X8836551Y8981512D01*
X8749899Y8935195D01*
X8749452Y8934650D01*
X8748760Y8934513D01*
X8667065Y8879926D01*
X8666674Y8879340D01*
X8665999Y8879135D01*
X8590048Y8816804D01*
X8589715Y8816182D01*
X8589064Y8815912D01*
X8519588Y8746436D01*
X8519318Y8745784D01*
X8518696Y8745452D01*
X8456365Y8669501D01*
X8456160Y8668826D01*
X8455574Y8668435D01*
X8400987Y8586739D01*
X8400849Y8586048D01*
X8400305Y8585601D01*
X8353988Y8498948D01*
X8353919Y8498247D01*
X8353420Y8497748D01*
X8315820Y8406974D01*
Y8406269D01*
X8315373Y8405724D01*
X8286851Y8311701D01*
X8286920Y8310999D01*
X8286529Y8310413D01*
X8267360Y8214047D01*
X8267498Y8213355D01*
X8267166Y8212733D01*
X8257535Y8114953D01*
X8257740Y8114278D01*
X8257470Y8113627D01*
Y8064500D01*
Y8015373D01*
X8257740Y8014722D01*
X8257535Y8014047D01*
X8267165Y7916266D01*
X8267498Y7915645D01*
X8267360Y7914953D01*
X8286529Y7818587D01*
X8286920Y7818001D01*
X8286851Y7817299D01*
X8315373Y7723276D01*
X8315820Y7722731D01*
Y7722026D01*
X8353420Y7631251D01*
X8353919Y7630753D01*
X8353988Y7630051D01*
X8400305Y7543399D01*
X8400849Y7542952D01*
X8400987Y7542260D01*
X8455574Y7460565D01*
X8456160Y7460174D01*
X8456365Y7459499D01*
X8518696Y7383548D01*
X8519318Y7383215D01*
X8519588Y7382564D01*
X8589064Y7313088D01*
X8589715Y7312818D01*
X8590048Y7312196D01*
X8665999Y7249865D01*
X8666674Y7249660D01*
X8667065Y7249074D01*
X8748760Y7194487D01*
X8749452Y7194349D01*
X8749899Y7193805D01*
X8836551Y7147488D01*
X8837253Y7147419D01*
X8837751Y7146920D01*
X8928526Y7109320D01*
X8929231D01*
X8929776Y7108873D01*
X9023799Y7080351D01*
X9024501Y7080420D01*
X9025087Y7080029D01*
X9121453Y7060860D01*
X9122145Y7060998D01*
X9122766Y7060666D01*
X9220547Y7051035D01*
X9221222Y7051240D01*
X9221873Y7050970D01*
X9320127D01*
X9320778Y7051240D01*
X9321453Y7051035D01*
X9419233Y7060665D01*
X9419855Y7060998D01*
X9420547Y7060860D01*
X9516913Y7080029D01*
X9517499Y7080420D01*
X9518201Y7080351D01*
X9612224Y7108873D01*
X9612769Y7109320D01*
X9613474D01*
X9704248Y7146920D01*
X9704747Y7147419D01*
X9705449Y7147488D01*
X9792101Y7193805D01*
X9792548Y7194349D01*
X9793239Y7194487D01*
X9874935Y7249074D01*
X9875326Y7249660D01*
X9876001Y7249865D01*
X9951952Y7312196D01*
X9952285Y7312818D01*
X9952936Y7313088D01*
X10022412Y7382564D01*
X10022682Y7383215D01*
X10023303Y7383548D01*
X10085635Y7459499D01*
X10085840Y7460174D01*
X10086426Y7460565D01*
X10141013Y7542260D01*
X10141150Y7542952D01*
X10141695Y7543399D01*
X10188012Y7630051D01*
X10188081Y7630753D01*
X10188580Y7631251D01*
X10226179Y7722026D01*
Y7722731D01*
X10226627Y7723276D01*
X10255148Y7817299D01*
X10255079Y7818001D01*
X10255471Y7818587D01*
X10274639Y7914953D01*
X10274502Y7915644D01*
X10274834Y7916266D01*
X10284465Y8014047D01*
X10284260Y8014722D01*
X10284530Y8015373D01*
Y8064500D01*
Y8113627D01*
X10284260Y8114278D01*
X10284465Y8114953D01*
X10274834Y8212733D01*
X10274502Y8213355D01*
X10274640Y8214047D01*
X10255471Y8310413D01*
X10255079Y8310999D01*
X10255148Y8311701D01*
X10226627Y8405724D01*
X10226179Y8406269D01*
Y8406974D01*
X10188580Y8497748D01*
X10188081Y8498247D01*
X10188012Y8498949D01*
X10141695Y8585601D01*
X10141150Y8586048D01*
X10141013Y8586739D01*
X10086426Y8668435D01*
X10085840Y8668826D01*
X10085635Y8669501D01*
X10023304Y8745452D01*
X10022682Y8745785D01*
X10022412Y8746436D01*
X9952936Y8815912D01*
X9952284Y8816182D01*
X9951952Y8816803D01*
X9876001Y8879135D01*
X9875326Y8879340D01*
X9874935Y8879926D01*
X9793239Y8934513D01*
X9792548Y8934650D01*
X9792101Y8935195D01*
X9705448Y8981512D01*
X9704747Y8981581D01*
X9704248Y8982080D01*
X9613474Y9019679D01*
X9612769D01*
X9612224Y9020127D01*
X9518201Y9048648D01*
X9517499Y9048579D01*
X9516913Y9048971D01*
X9420547Y9068139D01*
X9419855Y9068002D01*
X9419234Y9068334D01*
X9321453Y9077965D01*
X9320778Y9077760D01*
X9320127Y9078030D01*
D02*
G37*
G36*
X11933754Y9008700D02*
X11916846D01*
X11901226Y9002230D01*
X11889270Y8990274D01*
X11887200Y8985277D01*
X11885130Y8990274D01*
X11873174Y9002230D01*
X11857554Y9008700D01*
X11840646D01*
X11825026Y9002230D01*
X11813070Y8990274D01*
X11806600Y8974654D01*
Y8957746D01*
X11813070Y8942126D01*
X11825026Y8930170D01*
X11840646Y8923700D01*
X11857554D01*
X11873174Y8930170D01*
X11885130Y8942126D01*
X11887200Y8947123D01*
X11889270Y8942126D01*
X11901226Y8930170D01*
X11916846Y8923700D01*
X11933754D01*
X11949374Y8930170D01*
X11961330Y8942126D01*
X11967800Y8957746D01*
Y8974654D01*
X11961330Y8990274D01*
X11949374Y9002230D01*
X11933754Y9008700D01*
D02*
G37*
G36*
X8467745Y9089500D02*
X8448655D01*
X8430216Y9084559D01*
X8413684Y9075014D01*
X8400186Y9061516D01*
X8390641Y9044984D01*
X8385700Y9026545D01*
Y9007455D01*
X8390641Y8989016D01*
X8400186Y8972484D01*
X8413684Y8958986D01*
X8430216Y8949441D01*
X8448655Y8944500D01*
X8467745D01*
X8486184Y8949441D01*
X8502716Y8958986D01*
X8516214Y8972484D01*
X8525759Y8989016D01*
X8530700Y9007455D01*
Y9026545D01*
X8525759Y9044984D01*
X8516214Y9061516D01*
X8502716Y9075014D01*
X8486184Y9084559D01*
X8467745Y9089500D01*
D02*
G37*
G36*
X11768654Y9008700D02*
X11751746D01*
X11736126Y9002230D01*
X11724170Y8990274D01*
X11717700Y8974654D01*
Y8957746D01*
X11724170Y8942126D01*
X11736126Y8930170D01*
X11751746Y8923700D01*
X11768654D01*
X11784274Y8930170D01*
X11796230Y8942126D01*
X11802700Y8957746D01*
Y8974654D01*
X11796230Y8990274D01*
X11784274Y9002230D01*
X11768654Y9008700D01*
D02*
G37*
G36*
X10082079Y9121252D02*
X9979548Y9018721D01*
X10082079Y8916191D01*
X10184609Y9018721D01*
X10082079Y9121252D01*
D02*
G37*
G36*
X7242407Y8942700D02*
X7226494D01*
X7211792Y8936610D01*
X7200540Y8925358D01*
X7194450Y8910657D01*
Y8894743D01*
X7200540Y8880042D01*
X7211792Y8868790D01*
X7226494Y8862700D01*
X7242407D01*
X7257108Y8868790D01*
X7268360Y8880042D01*
X7274450Y8894743D01*
Y8910657D01*
X7268360Y8925358D01*
X7257108Y8936610D01*
X7242407Y8942700D01*
D02*
G37*
G36*
X10233045Y8949800D02*
X10213955D01*
X10195516Y8944859D01*
X10178984Y8935314D01*
X10165486Y8921816D01*
X10155941Y8905284D01*
X10151000Y8886845D01*
Y8867755D01*
X10155941Y8849316D01*
X10165486Y8832784D01*
X10178984Y8819286D01*
X10195516Y8809741D01*
X10213955Y8804800D01*
X10233045D01*
X10251484Y8809741D01*
X10268016Y8819286D01*
X10281514Y8832784D01*
X10291059Y8849316D01*
X10296000Y8867755D01*
Y8886845D01*
X10291059Y8905284D01*
X10281514Y8921816D01*
X10268016Y8935314D01*
X10251484Y8944859D01*
X10233045Y8949800D01*
D02*
G37*
G36*
X8316779Y8978109D02*
X8214248Y8875579D01*
X8316779Y8773048D01*
X8419309Y8875579D01*
X8316779Y8978109D01*
D02*
G37*
G36*
X7462857Y8828400D02*
X7446943D01*
X7432242Y8822310D01*
X7420990Y8811058D01*
X7414900Y8796357D01*
Y8780443D01*
X7420990Y8765742D01*
X7432242Y8754490D01*
X7446943Y8748400D01*
X7462857D01*
X7477558Y8754490D01*
X7488810Y8765742D01*
X7494900Y8780443D01*
Y8796357D01*
X7488810Y8811058D01*
X7477558Y8822310D01*
X7462857Y8828400D01*
D02*
G37*
G36*
X13271307Y8159500D02*
X13246294D01*
X13222131Y8153026D01*
X13200468Y8140519D01*
X13182780Y8122831D01*
X13170274Y8101169D01*
X13163800Y8077007D01*
Y8051993D01*
X13170274Y8027831D01*
X13182780Y8006169D01*
X13200468Y7988481D01*
X13222131Y7975974D01*
X13246294Y7969500D01*
X13271307D01*
X13295470Y7975974D01*
X13317131Y7988481D01*
X13334819Y8006169D01*
X13347327Y8027831D01*
X13353799Y8051993D01*
Y8077007D01*
X13347327Y8101169D01*
X13334819Y8122831D01*
X13317131Y8140519D01*
X13295470Y8153026D01*
X13271307Y8159500D01*
D02*
G37*
G36*
X12921307D02*
X12896294D01*
X12872131Y8153026D01*
X12850468Y8140519D01*
X12832780Y8122831D01*
X12820274Y8101169D01*
X12813800Y8077007D01*
Y8051993D01*
X12820274Y8027831D01*
X12832780Y8006169D01*
X12850468Y7988481D01*
X12872131Y7975974D01*
X12896294Y7969500D01*
X12921307D01*
X12945470Y7975974D01*
X12967133Y7988481D01*
X12984819Y8006169D01*
X12997327Y8027831D01*
X13003799Y8051993D01*
Y8077007D01*
X12997327Y8101169D01*
X12984819Y8122831D01*
X12967133Y8140519D01*
X12945470Y8153026D01*
X12921307Y8159500D01*
D02*
G37*
G36*
X12571307D02*
X12546293D01*
X12522131Y8153026D01*
X12500469Y8140519D01*
X12482781Y8122831D01*
X12470274Y8101169D01*
X12463800Y8077007D01*
Y8051993D01*
X12470274Y8027831D01*
X12482781Y8006169D01*
X12500469Y7988481D01*
X12522131Y7975974D01*
X12546293Y7969500D01*
X12571307D01*
X12595469Y7975974D01*
X12617131Y7988481D01*
X12634819Y8006169D01*
X12647326Y8027831D01*
X12653800Y8051993D01*
Y8077007D01*
X12647326Y8101169D01*
X12634819Y8122831D01*
X12617131Y8140519D01*
X12595469Y8153026D01*
X12571307Y8159500D01*
D02*
G37*
G36*
X12221307D02*
X12196293D01*
X12172131Y8153026D01*
X12150469Y8140519D01*
X12132781Y8122831D01*
X12120274Y8101169D01*
X12113800Y8077007D01*
Y8051993D01*
X12120274Y8027831D01*
X12132781Y8006169D01*
X12150469Y7988481D01*
X12172131Y7975974D01*
X12196293Y7969500D01*
X12221307D01*
X12245469Y7975974D01*
X12267131Y7988481D01*
X12284819Y8006169D01*
X12297326Y8027831D01*
X12303800Y8051993D01*
Y8077007D01*
X12297326Y8101169D01*
X12284819Y8122831D01*
X12267131Y8140519D01*
X12245469Y8153026D01*
X12221307Y8159500D01*
D02*
G37*
G36*
X11871307D02*
X11846293D01*
X11822131Y8153026D01*
X11800469Y8140519D01*
X11782781Y8122831D01*
X11770274Y8101169D01*
X11763800Y8077007D01*
Y8051993D01*
X11770274Y8027831D01*
X11782781Y8006169D01*
X11800469Y7988481D01*
X11822131Y7975974D01*
X11846293Y7969500D01*
X11871307D01*
X11895469Y7975974D01*
X11917131Y7988481D01*
X11934819Y8006169D01*
X11947326Y8027831D01*
X11953800Y8051993D01*
Y8077007D01*
X11947326Y8101169D01*
X11934819Y8122831D01*
X11917131Y8140519D01*
X11895469Y8153026D01*
X11871307Y8159500D01*
D02*
G37*
G36*
X11521307D02*
X11496293D01*
X11472131Y8153026D01*
X11450469Y8140519D01*
X11432781Y8122831D01*
X11420274Y8101169D01*
X11413800Y8077007D01*
Y8051993D01*
X11420274Y8027831D01*
X11432781Y8006169D01*
X11450469Y7988481D01*
X11472131Y7975974D01*
X11496293Y7969500D01*
X11521307D01*
X11545469Y7975974D01*
X11567132Y7988481D01*
X11584819Y8006169D01*
X11597326Y8027831D01*
X11603800Y8051993D01*
Y8077007D01*
X11597326Y8101169D01*
X11584819Y8122831D01*
X11567132Y8140519D01*
X11545469Y8153026D01*
X11521307Y8159500D01*
D02*
G37*
G36*
X11171307D02*
X11146293D01*
X11122131Y8153026D01*
X11100469Y8140519D01*
X11082781Y8122831D01*
X11070274Y8101169D01*
X11063800Y8077007D01*
Y8051993D01*
X11070274Y8027831D01*
X11082781Y8006169D01*
X11100469Y7988481D01*
X11122131Y7975974D01*
X11146293Y7969500D01*
X11171307D01*
X11195469Y7975974D01*
X11217131Y7988481D01*
X11234819Y8006169D01*
X11247326Y8027831D01*
X11253800Y8051993D01*
Y8077007D01*
X11247326Y8101169D01*
X11234819Y8122831D01*
X11217131Y8140519D01*
X11195469Y8153026D01*
X11171307Y8159500D01*
D02*
G37*
G36*
X7751307D02*
X7726293D01*
X7702131Y8153026D01*
X7680469Y8140519D01*
X7662781Y8122831D01*
X7650274Y8101169D01*
X7643800Y8077007D01*
Y8051993D01*
X7650274Y8027831D01*
X7662781Y8006169D01*
X7680469Y7988481D01*
X7702131Y7975974D01*
X7726293Y7969500D01*
X7751307D01*
X7775469Y7975974D01*
X7797131Y7988481D01*
X7814819Y8006169D01*
X7827326Y8027831D01*
X7833800Y8051993D01*
Y8077007D01*
X7827326Y8101169D01*
X7814819Y8122831D01*
X7797131Y8140519D01*
X7775469Y8153026D01*
X7751307Y8159500D01*
D02*
G37*
G36*
X7401307D02*
X7376293D01*
X7352131Y8153026D01*
X7330469Y8140519D01*
X7312781Y8122831D01*
X7300274Y8101169D01*
X7293800Y8077007D01*
Y8051993D01*
X7300274Y8027831D01*
X7312781Y8006169D01*
X7330469Y7988481D01*
X7352131Y7975974D01*
X7376293Y7969500D01*
X7401307D01*
X7425469Y7975974D01*
X7447131Y7988481D01*
X7464819Y8006169D01*
X7477326Y8027831D01*
X7483800Y8051993D01*
Y8077007D01*
X7477326Y8101169D01*
X7464819Y8122831D01*
X7447131Y8140519D01*
X7425469Y8153026D01*
X7401307Y8159500D01*
D02*
G37*
G36*
X7051307D02*
X7026293D01*
X7002131Y8153026D01*
X6980469Y8140519D01*
X6962781Y8122831D01*
X6950274Y8101169D01*
X6943800Y8077007D01*
Y8051993D01*
X6950274Y8027831D01*
X6962781Y8006169D01*
X6980469Y7988481D01*
X7002131Y7975974D01*
X7026293Y7969500D01*
X7051307D01*
X7075469Y7975974D01*
X7097131Y7988481D01*
X7114819Y8006169D01*
X7127326Y8027831D01*
X7133800Y8051993D01*
Y8077007D01*
X7127326Y8101169D01*
X7114819Y8122831D01*
X7097131Y8140519D01*
X7075469Y8153026D01*
X7051307Y8159500D01*
D02*
G37*
G36*
X6701307D02*
X6676293D01*
X6652131Y8153026D01*
X6630469Y8140519D01*
X6612781Y8122831D01*
X6600274Y8101169D01*
X6593800Y8077007D01*
Y8051993D01*
X6600274Y8027831D01*
X6612781Y8006169D01*
X6630469Y7988481D01*
X6652131Y7975974D01*
X6676293Y7969500D01*
X6701307D01*
X6725469Y7975974D01*
X6747131Y7988481D01*
X6764819Y8006169D01*
X6777326Y8027831D01*
X6783800Y8051993D01*
Y8077007D01*
X6777326Y8101169D01*
X6764819Y8122831D01*
X6747131Y8140519D01*
X6725469Y8153026D01*
X6701307Y8159500D01*
D02*
G37*
G36*
X6351307D02*
X6326293D01*
X6302131Y8153026D01*
X6280469Y8140519D01*
X6262781Y8122831D01*
X6250274Y8101169D01*
X6243800Y8077007D01*
Y8051993D01*
X6250274Y8027831D01*
X6262781Y8006169D01*
X6280469Y7988481D01*
X6302131Y7975974D01*
X6326293Y7969500D01*
X6351307D01*
X6375469Y7975974D01*
X6397131Y7988481D01*
X6414819Y8006169D01*
X6427326Y8027831D01*
X6433800Y8051993D01*
Y8077007D01*
X6427326Y8101169D01*
X6414819Y8122831D01*
X6397131Y8140519D01*
X6375469Y8153026D01*
X6351307Y8159500D01*
D02*
G37*
G36*
X6001307D02*
X5976293D01*
X5952131Y8153026D01*
X5930469Y8140519D01*
X5912781Y8122831D01*
X5900274Y8101169D01*
X5893800Y8077007D01*
Y8051993D01*
X5900274Y8027831D01*
X5912781Y8006169D01*
X5930469Y7988481D01*
X5952131Y7975974D01*
X5976293Y7969500D01*
X6001307D01*
X6025469Y7975974D01*
X6047131Y7988481D01*
X6064819Y8006169D01*
X6077326Y8027831D01*
X6083800Y8051993D01*
Y8077007D01*
X6077326Y8101169D01*
X6064819Y8122831D01*
X6047131Y8140519D01*
X6025469Y8153026D01*
X6001307Y8159500D01*
D02*
G37*
G36*
X5651307D02*
X5626293D01*
X5602131Y8153026D01*
X5580469Y8140519D01*
X5562781Y8122831D01*
X5550274Y8101169D01*
X5543800Y8077007D01*
Y8051993D01*
X5550274Y8027831D01*
X5562781Y8006169D01*
X5580469Y7988481D01*
X5602131Y7975974D01*
X5626293Y7969500D01*
X5651307D01*
X5675469Y7975974D01*
X5697131Y7988481D01*
X5714819Y8006169D01*
X5727326Y8027831D01*
X5733800Y8051993D01*
Y8077007D01*
X5727326Y8101169D01*
X5714819Y8122831D01*
X5697131Y8140519D01*
X5675469Y8153026D01*
X5651307Y8159500D01*
D02*
G37*
G36*
X8326323Y7325921D02*
X8307234D01*
X8288795Y7320981D01*
X8272263Y7311436D01*
X8258764Y7297937D01*
X8249219Y7281405D01*
X8244279Y7262966D01*
Y7243877D01*
X8249219Y7225437D01*
X8258764Y7208905D01*
X8272263Y7195407D01*
X8288795Y7185862D01*
X8307234Y7180921D01*
X8326323D01*
X8344763Y7185862D01*
X8361295Y7195407D01*
X8374793Y7208905D01*
X8384338Y7225437D01*
X8389279Y7243877D01*
Y7262966D01*
X8384338Y7281405D01*
X8374793Y7297937D01*
X8361295Y7311436D01*
X8344763Y7320981D01*
X8326323Y7325921D01*
D02*
G37*
G36*
X10223500Y7354230D02*
X10120970Y7251700D01*
X10223500Y7149170D01*
X10326030Y7251700D01*
X10223500Y7354230D01*
D02*
G37*
G36*
X7023863Y7157272D02*
X7007950D01*
X6993249Y7151183D01*
X6981996Y7139931D01*
X6975907Y7125229D01*
Y7109316D01*
X6981996Y7094614D01*
X6993249Y7083362D01*
X7007950Y7077273D01*
X7023863D01*
X7038565Y7083362D01*
X7049817Y7094614D01*
X7055907Y7109316D01*
Y7125229D01*
X7049817Y7139931D01*
X7038565Y7151183D01*
X7023863Y7157272D01*
D02*
G37*
G36*
X12252503Y7152491D02*
X12236589D01*
X12221888Y7146402D01*
X12210636Y7135149D01*
X12204546Y7120448D01*
Y7104535D01*
X12210636Y7089833D01*
X12221888Y7078581D01*
X12236589Y7072491D01*
X12252503D01*
X12267204Y7078581D01*
X12278456Y7089833D01*
X12284546Y7104535D01*
Y7120448D01*
X12278456Y7135149D01*
X12267204Y7146402D01*
X12252503Y7152491D01*
D02*
G37*
G36*
X10091623Y7182779D02*
X10072534D01*
X10054095Y7177838D01*
X10037563Y7168293D01*
X10024064Y7154795D01*
X10014519Y7138263D01*
X10009579Y7119823D01*
Y7100734D01*
X10014519Y7082295D01*
X10024064Y7065763D01*
X10037563Y7052264D01*
X10054095Y7042719D01*
X10072534Y7037779D01*
X10091623D01*
X10110063Y7042719D01*
X10126595Y7052264D01*
X10140093Y7065763D01*
X10149638Y7082295D01*
X10154579Y7100734D01*
Y7119823D01*
X10149638Y7138263D01*
X10140093Y7154795D01*
X10126595Y7168293D01*
X10110063Y7177838D01*
X10091623Y7182779D01*
D02*
G37*
G36*
X8458200Y7214530D02*
X8355670Y7112000D01*
X8458200Y7009470D01*
X8560730Y7112000D01*
X8458200Y7214530D01*
D02*
G37*
G36*
X9164657Y6986900D02*
X9148743D01*
X9134042Y6980810D01*
X9122790Y6969558D01*
X9116700Y6954857D01*
Y6938943D01*
X9122790Y6924242D01*
X9134042Y6912990D01*
X9148743Y6906900D01*
X9164657D01*
X9179358Y6912990D01*
X9190610Y6924242D01*
X9196700Y6938943D01*
Y6954857D01*
X9190610Y6969558D01*
X9179358Y6980810D01*
X9164657Y6986900D01*
D02*
G37*
G36*
X9349346Y6977978D02*
X9333433D01*
X9318731Y6971888D01*
X9307479Y6960636D01*
X9301390Y6945935D01*
Y6930021D01*
X9307479Y6915320D01*
X9318731Y6904068D01*
X9333433Y6897978D01*
X9349346D01*
X9364048Y6904068D01*
X9375300Y6915320D01*
X9381389Y6930021D01*
Y6945935D01*
X9375300Y6960636D01*
X9364048Y6971888D01*
X9349346Y6977978D01*
D02*
G37*
G36*
X6287263Y6941372D02*
X6271350D01*
X6256649Y6935283D01*
X6245396Y6924031D01*
X6239307Y6909329D01*
Y6893416D01*
X6245396Y6878714D01*
X6256649Y6867462D01*
X6271350Y6861373D01*
X6287263D01*
X6301965Y6867462D01*
X6313217Y6878714D01*
X6319307Y6893416D01*
Y6909329D01*
X6313217Y6924031D01*
X6301965Y6935283D01*
X6287263Y6941372D01*
D02*
G37*
G36*
X11521863Y6932493D02*
X11505950D01*
X11491249Y6926403D01*
X11479997Y6915151D01*
X11473907Y6900450D01*
Y6884537D01*
X11479997Y6869835D01*
X11491249Y6858583D01*
X11505950Y6852493D01*
X11521863D01*
X11536565Y6858583D01*
X11547817Y6869835D01*
X11553907Y6884537D01*
Y6900450D01*
X11547817Y6915151D01*
X11536565Y6926403D01*
X11521863Y6932493D01*
D02*
G37*
G36*
X9126557Y6656700D02*
X9110643D01*
X9095942Y6650610D01*
X9084690Y6639358D01*
X9078600Y6624657D01*
Y6608743D01*
X9084690Y6594042D01*
X9095942Y6582790D01*
X9110643Y6576700D01*
X9126557D01*
X9141258Y6582790D01*
X9152510Y6594042D01*
X9158600Y6608743D01*
Y6624657D01*
X9152510Y6639358D01*
X9141258Y6650610D01*
X9126557Y6656700D01*
D02*
G37*
G36*
X9532957Y6580500D02*
X9517043D01*
X9502342Y6574410D01*
X9491090Y6563158D01*
X9485000Y6548457D01*
Y6532543D01*
X9491090Y6517842D01*
X9502342Y6506590D01*
X9517043Y6500500D01*
X9532957D01*
X9547658Y6506590D01*
X9558910Y6517842D01*
X9565000Y6532543D01*
Y6548457D01*
X9558910Y6563158D01*
X9547658Y6574410D01*
X9532957Y6580500D01*
D02*
G37*
G36*
X7020652Y6571581D02*
X7004739D01*
X6990038Y6565491D01*
X6978785Y6554239D01*
X6972696Y6539538D01*
Y6523624D01*
X6978785Y6508923D01*
X6990038Y6497671D01*
X7004739Y6491581D01*
X7020652D01*
X7035354Y6497671D01*
X7046606Y6508923D01*
X7052696Y6523624D01*
Y6539538D01*
X7046606Y6554239D01*
X7035354Y6565491D01*
X7020652Y6571581D01*
D02*
G37*
G36*
X12254857Y6567800D02*
X12238944D01*
X12224242Y6561710D01*
X12212990Y6550458D01*
X12206900Y6535757D01*
Y6519843D01*
X12212990Y6505142D01*
X12224242Y6493890D01*
X12238944Y6487800D01*
X12254857D01*
X12269558Y6493890D01*
X12280810Y6505142D01*
X12286900Y6519843D01*
Y6535757D01*
X12280810Y6550458D01*
X12269558Y6561710D01*
X12254857Y6567800D01*
D02*
G37*
G36*
X10155257Y6059800D02*
X10139343D01*
X10124642Y6053710D01*
X10113390Y6042458D01*
X10107300Y6027757D01*
Y6011843D01*
X10113390Y5997142D01*
X10124642Y5985890D01*
X10139343Y5979800D01*
X10155257D01*
X10169958Y5985890D01*
X10181210Y5997142D01*
X10187300Y6011843D01*
Y6027757D01*
X10181210Y6042458D01*
X10169958Y6053710D01*
X10155257Y6059800D01*
D02*
G37*
G36*
X8732857Y6021700D02*
X8716943D01*
X8702242Y6015610D01*
X8690990Y6004358D01*
X8684900Y5989657D01*
Y5973743D01*
X8690990Y5959042D01*
X8702242Y5947790D01*
X8716943Y5941700D01*
X8732857D01*
X8747558Y5947790D01*
X8758810Y5959042D01*
X8764900Y5973743D01*
Y5989657D01*
X8758810Y6004358D01*
X8747558Y6015610D01*
X8732857Y6021700D01*
D02*
G37*
G36*
X10155257Y5958200D02*
X10139343D01*
X10124642Y5952110D01*
X10113390Y5940858D01*
X10107300Y5926157D01*
Y5910243D01*
X10113390Y5895542D01*
X10124642Y5884290D01*
X10139343Y5878200D01*
X10155257D01*
X10169958Y5884290D01*
X10181210Y5895542D01*
X10187300Y5910243D01*
Y5926157D01*
X10181210Y5940858D01*
X10169958Y5952110D01*
X10155257Y5958200D01*
D02*
G37*
G36*
X10739457Y5932800D02*
X10723543D01*
X10708842Y5926710D01*
X10697590Y5915458D01*
X10691500Y5900757D01*
Y5884843D01*
X10697590Y5870142D01*
X10708842Y5858890D01*
X10723543Y5852800D01*
X10739457D01*
X10754158Y5858890D01*
X10765410Y5870142D01*
X10771500Y5884843D01*
Y5900757D01*
X10765410Y5915458D01*
X10754158Y5926710D01*
X10739457Y5932800D01*
D02*
G37*
G36*
X9291657Y5907400D02*
X9275743D01*
X9261042Y5901310D01*
X9249790Y5890058D01*
X9243700Y5875357D01*
Y5859443D01*
X9249790Y5844742D01*
X9261042Y5833490D01*
X9275743Y5827400D01*
X9291657D01*
X9306358Y5833490D01*
X9317610Y5844742D01*
X9323700Y5859443D01*
Y5875357D01*
X9317610Y5890058D01*
X9306358Y5901310D01*
X9291657Y5907400D01*
D02*
G37*
G36*
X8986857Y5856600D02*
X8970943D01*
X8956242Y5850510D01*
X8944990Y5839258D01*
X8938900Y5824557D01*
Y5808643D01*
X8944990Y5793942D01*
X8956242Y5782690D01*
X8970943Y5776600D01*
X8986857D01*
X9001558Y5782690D01*
X9012810Y5793942D01*
X9018900Y5808643D01*
Y5824557D01*
X9012810Y5839258D01*
X9001558Y5850510D01*
X8986857Y5856600D01*
D02*
G37*
G36*
X8734793Y5845625D02*
X8718880D01*
X8704178Y5839535D01*
X8692926Y5828283D01*
X8686837Y5813581D01*
Y5797668D01*
X8692926Y5782967D01*
X8704178Y5771714D01*
X8718880Y5765625D01*
X8734793D01*
X8746223Y5770359D01*
X8735122Y5759258D01*
X8732395Y5752675D01*
X8725003Y5760067D01*
X8710302Y5766157D01*
X8694389D01*
X8679687Y5760067D01*
X8668435Y5748815D01*
X8662345Y5734113D01*
Y5718200D01*
X8668435Y5703499D01*
X8679687Y5692246D01*
X8694389Y5686157D01*
X8710302D01*
X8725003Y5692246D01*
X8736255Y5703499D01*
X8738982Y5710082D01*
X8746374Y5702690D01*
X8761076Y5696600D01*
X8776989D01*
X8791691Y5702690D01*
X8802943Y5713942D01*
X8809032Y5728644D01*
Y5744557D01*
X8802943Y5759258D01*
X8791691Y5770510D01*
X8776989Y5776600D01*
X8761076D01*
X8749646Y5771866D01*
X8760747Y5782967D01*
X8766836Y5797668D01*
Y5813581D01*
X8760747Y5828283D01*
X8749495Y5839535D01*
X8734793Y5845625D01*
D02*
G37*
G36*
X9124507Y5896408D02*
X9108594D01*
X9093892Y5890319D01*
X9082640Y5879066D01*
X9076551Y5864365D01*
Y5848452D01*
X9082640Y5833750D01*
X9093892Y5822498D01*
X9095491Y5821836D01*
X9085222Y5811567D01*
X9079132Y5796865D01*
Y5780952D01*
X9085222Y5766251D01*
X9096474Y5754999D01*
X9111176Y5748909D01*
X9127089D01*
X9141790Y5754999D01*
X9153042Y5766251D01*
X9159132Y5780952D01*
Y5796865D01*
X9153042Y5811567D01*
X9141790Y5822819D01*
X9140192Y5823481D01*
X9150461Y5833750D01*
X9156550Y5848452D01*
Y5864365D01*
X9150461Y5879066D01*
X9139209Y5890319D01*
X9124507Y5896408D01*
D02*
G37*
G36*
X9863157Y5767700D02*
X9847243D01*
X9832542Y5761610D01*
X9821290Y5750358D01*
X9815200Y5735657D01*
Y5719743D01*
X9821290Y5705042D01*
X9832542Y5693790D01*
X9847243Y5687700D01*
X9863157D01*
X9877858Y5693790D01*
X9889110Y5705042D01*
X9895200Y5719743D01*
Y5735657D01*
X9889110Y5750358D01*
X9877858Y5761610D01*
X9863157Y5767700D01*
D02*
G37*
G36*
X8389945Y5712339D02*
X8374032D01*
X8359331Y5706249D01*
X8348079Y5694997D01*
X8341989Y5680295D01*
Y5664382D01*
X8348079Y5649681D01*
X8359331Y5638429D01*
X8374032Y5632339D01*
X8389945D01*
X8404647Y5638429D01*
X8415899Y5649681D01*
X8421989Y5664382D01*
Y5680295D01*
X8415899Y5694997D01*
X8404647Y5706249D01*
X8389945Y5712339D01*
D02*
G37*
G36*
X8986857Y5704200D02*
X8970943D01*
X8956242Y5698110D01*
X8944990Y5686858D01*
X8938900Y5672157D01*
Y5656243D01*
X8944990Y5641542D01*
X8956082Y5630450D01*
X8944990Y5619358D01*
X8938900Y5604657D01*
Y5588743D01*
X8944990Y5574042D01*
X8956242Y5562790D01*
X8970943Y5556700D01*
X8986857D01*
X9001558Y5562790D01*
X9012810Y5574042D01*
X9018900Y5588743D01*
Y5604657D01*
X9012810Y5619358D01*
X9001718Y5630450D01*
X9012810Y5641542D01*
X9018900Y5656243D01*
Y5672157D01*
X9012810Y5686858D01*
X9001558Y5698110D01*
X8986857Y5704200D01*
D02*
G37*
G36*
Y5551800D02*
X8970943D01*
X8956242Y5545710D01*
X8944990Y5534458D01*
X8938900Y5519757D01*
Y5503843D01*
X8944990Y5489142D01*
X8956242Y5477890D01*
X8970943Y5471800D01*
X8986857D01*
X9001558Y5477890D01*
X9012810Y5489142D01*
X9018900Y5503843D01*
Y5519757D01*
X9012810Y5534458D01*
X9001558Y5545710D01*
X8986857Y5551800D01*
D02*
G37*
G36*
X10942657Y5450200D02*
X10926743D01*
X10912042Y5444110D01*
X10900790Y5432858D01*
X10894700Y5418157D01*
Y5402243D01*
X10896711Y5397389D01*
X10891857Y5399400D01*
X10875943D01*
X10861242Y5393310D01*
X10849990Y5382058D01*
X10843900Y5367357D01*
Y5351443D01*
X10849990Y5336742D01*
X10861242Y5325490D01*
X10875943Y5319400D01*
X10891857D01*
X10906558Y5325490D01*
X10917810Y5336742D01*
X10923900Y5351443D01*
Y5367357D01*
X10921889Y5372211D01*
X10926743Y5370200D01*
X10942657D01*
X10957358Y5376290D01*
X10968610Y5387542D01*
X10974700Y5402243D01*
Y5418157D01*
X10968610Y5432858D01*
X10957358Y5444110D01*
X10942657Y5450200D01*
D02*
G37*
G36*
X8986857Y5348600D02*
X8970943D01*
X8956242Y5342510D01*
X8944990Y5331258D01*
X8938900Y5316557D01*
Y5300643D01*
X8944990Y5285942D01*
X8956242Y5274690D01*
X8970943Y5268600D01*
X8986857D01*
X9001558Y5274690D01*
X9012810Y5285942D01*
X9018900Y5300643D01*
Y5316557D01*
X9012810Y5331258D01*
X9001558Y5342510D01*
X8986857Y5348600D01*
D02*
G37*
G36*
X9469457Y5259700D02*
X9453543D01*
X9438842Y5253610D01*
X9427590Y5242358D01*
X9421682Y5228096D01*
X9419719Y5232836D01*
X9408467Y5244088D01*
X9393766Y5250177D01*
X9377852D01*
X9363151Y5244088D01*
X9351899Y5232836D01*
X9350808Y5230203D01*
X9341096Y5239915D01*
X9326395Y5246005D01*
X9310482D01*
X9295780Y5239915D01*
X9285179Y5229315D01*
X9284863Y5230078D01*
X9273611Y5241331D01*
X9258909Y5247420D01*
X9242996D01*
X9228295Y5241331D01*
X9217043Y5230078D01*
X9210953Y5215377D01*
Y5199464D01*
X9217043Y5184762D01*
X9228295Y5173510D01*
X9242996Y5167420D01*
X9258909D01*
X9273611Y5173510D01*
X9284212Y5184111D01*
X9284528Y5183347D01*
X9295780Y5172095D01*
X9310482Y5166005D01*
X9326395D01*
X9341096Y5172095D01*
X9352348Y5183347D01*
X9353439Y5185979D01*
X9363151Y5176267D01*
X9377852Y5170178D01*
X9393766D01*
X9408467Y5176267D01*
X9419719Y5187519D01*
X9425627Y5201781D01*
X9427590Y5197042D01*
X9438842Y5185790D01*
X9453543Y5179700D01*
X9469457D01*
X9484158Y5185790D01*
X9495410Y5197042D01*
X9501500Y5211743D01*
Y5227657D01*
X9495410Y5242358D01*
X9484158Y5253610D01*
X9469457Y5259700D01*
D02*
G37*
G36*
X11258274Y5281936D02*
X11242361D01*
X11227659Y5275846D01*
X11216407Y5264594D01*
X11210317Y5249893D01*
Y5233980D01*
X11216407Y5219278D01*
X11227659Y5208026D01*
X11242361Y5201936D01*
X11258274D01*
X11272975Y5208026D01*
X11284228Y5219278D01*
X11290317Y5233980D01*
Y5249893D01*
X11284228Y5264594D01*
X11272975Y5275846D01*
X11258274Y5281936D01*
D02*
G37*
G36*
X8483170Y5105817D02*
X8467257D01*
X8452555Y5099727D01*
X8441303Y5088475D01*
X8435214Y5073773D01*
Y5057860D01*
X8441303Y5043159D01*
X8452555Y5031906D01*
X8467257Y5025817D01*
X8483170D01*
X8497871Y5031906D01*
X8509124Y5043159D01*
X8515213Y5057860D01*
Y5073773D01*
X8509124Y5088475D01*
X8497871Y5099727D01*
X8483170Y5105817D01*
D02*
G37*
G36*
X8694757Y5107300D02*
X8678843D01*
X8664142Y5101210D01*
X8652890Y5089958D01*
X8646800Y5075257D01*
Y5059343D01*
X8652890Y5044642D01*
X8664142Y5033390D01*
X8678843Y5027300D01*
X8694757D01*
X8709458Y5033390D01*
X8710300Y5034232D01*
Y5033943D01*
X8716390Y5019242D01*
X8727642Y5007990D01*
X8742343Y5001900D01*
X8758257D01*
X8772958Y5007990D01*
X8784210Y5019242D01*
X8790300Y5033943D01*
Y5049857D01*
X8784210Y5064558D01*
X8772958Y5075810D01*
X8758257Y5081900D01*
X8742343D01*
X8727642Y5075810D01*
X8726800Y5074968D01*
Y5075257D01*
X8720710Y5089958D01*
X8709458Y5101210D01*
X8694757Y5107300D01*
D02*
G37*
G36*
X9520257Y5043800D02*
X9504343D01*
X9489642Y5037710D01*
X9478390Y5026458D01*
X9472300Y5011757D01*
Y4995843D01*
X9478390Y4981142D01*
X9489642Y4969890D01*
X9504343Y4963800D01*
X9520257D01*
X9534958Y4969890D01*
X9546210Y4981142D01*
X9552300Y4995843D01*
Y5011757D01*
X9546210Y5026458D01*
X9534958Y5037710D01*
X9520257Y5043800D01*
D02*
G37*
G36*
X9088457Y5031100D02*
X9072543D01*
X9057842Y5025010D01*
X9046590Y5013758D01*
X9040500Y4999057D01*
Y4983143D01*
X9046590Y4968442D01*
X9057842Y4957190D01*
X9072543Y4951100D01*
X9088457D01*
X9103158Y4957190D01*
X9114410Y4968442D01*
X9120500Y4983143D01*
Y4999057D01*
X9114410Y5013758D01*
X9103158Y5025010D01*
X9088457Y5031100D01*
D02*
G37*
G36*
X9786957Y5005700D02*
X9771043D01*
X9756342Y4999610D01*
X9745090Y4988358D01*
X9739000Y4973657D01*
Y4957743D01*
X9745090Y4943042D01*
X9756342Y4931790D01*
X9771043Y4925700D01*
X9786957D01*
X9801658Y4931790D01*
X9812910Y4943042D01*
X9819000Y4957743D01*
Y4973657D01*
X9812910Y4988358D01*
X9801658Y4999610D01*
X9786957Y5005700D01*
D02*
G37*
G36*
X11260157Y4523100D02*
X11244243D01*
X11229542Y4517010D01*
X11218290Y4505758D01*
X11212200Y4491057D01*
Y4475143D01*
X11218290Y4460442D01*
X11229542Y4449190D01*
X11244243Y4443100D01*
X11260157D01*
X11274858Y4449190D01*
X11286110Y4460442D01*
X11292200Y4475143D01*
Y4491057D01*
X11286110Y4505758D01*
X11274858Y4517010D01*
X11260157Y4523100D01*
D02*
G37*
G36*
X11006157D02*
X10990243D01*
X10975542Y4517010D01*
X10964290Y4505758D01*
X10958200Y4491057D01*
Y4475143D01*
X10964290Y4460442D01*
X10975542Y4449190D01*
X10990243Y4443100D01*
X11006157D01*
X11020858Y4449190D01*
X11032110Y4460442D01*
X11038200Y4475143D01*
Y4491057D01*
X11032110Y4505758D01*
X11020858Y4517010D01*
X11006157Y4523100D01*
D02*
G37*
G36*
X10879157D02*
X10863243D01*
X10848542Y4517010D01*
X10837290Y4505758D01*
X10831200Y4491057D01*
Y4475143D01*
X10837290Y4460442D01*
X10848542Y4449190D01*
X10863243Y4443100D01*
X10879157D01*
X10893858Y4449190D01*
X10905110Y4460442D01*
X10911200Y4475143D01*
Y4491057D01*
X10905110Y4505758D01*
X10893858Y4517010D01*
X10879157Y4523100D01*
D02*
G37*
G36*
X8832823Y4450040D02*
X8816910D01*
X8802208Y4443951D01*
X8790956Y4432699D01*
X8784866Y4417997D01*
Y4402084D01*
X8790956Y4387382D01*
X8802208Y4376130D01*
X8816910Y4370041D01*
X8832823D01*
X8847524Y4376130D01*
X8858777Y4387382D01*
X8864866Y4402084D01*
Y4417997D01*
X8858777Y4432699D01*
X8847524Y4443951D01*
X8832823Y4450040D01*
D02*
G37*
G36*
X9393257Y4446900D02*
X9377343D01*
X9362642Y4440810D01*
X9351390Y4429558D01*
X9345300Y4414857D01*
Y4398943D01*
X9351390Y4384242D01*
X9362642Y4372990D01*
X9377343Y4366900D01*
X9393257D01*
X9407958Y4372990D01*
X9419210Y4384242D01*
X9425300Y4398943D01*
Y4414857D01*
X9419210Y4429558D01*
X9407958Y4440810D01*
X9393257Y4446900D01*
D02*
G37*
G36*
X9193449Y3967692D02*
X9177536D01*
X9162834Y3961603D01*
X9151582Y3950350D01*
X9145493Y3935649D01*
Y3919736D01*
X9151582Y3905034D01*
X9162834Y3893782D01*
X9177536Y3887693D01*
X9193449D01*
X9208150Y3893782D01*
X9219403Y3905034D01*
X9225492Y3919736D01*
Y3935649D01*
X9219403Y3950350D01*
X9208150Y3961603D01*
X9193449Y3967692D01*
D02*
G37*
G36*
X9405957Y3659500D02*
X9390043D01*
X9375342Y3653410D01*
X9364090Y3642158D01*
X9358000Y3627457D01*
Y3611543D01*
X9364090Y3596842D01*
X9375342Y3585590D01*
X9390043Y3579500D01*
X9405957D01*
X9420658Y3585590D01*
X9431910Y3596842D01*
X9438000Y3611543D01*
Y3627457D01*
X9431910Y3642158D01*
X9420658Y3653410D01*
X9405957Y3659500D01*
D02*
G37*
G36*
X8872557Y3646800D02*
X8856643D01*
X8841942Y3640710D01*
X8830690Y3629458D01*
X8824600Y3614757D01*
Y3598843D01*
X8830690Y3584142D01*
X8841942Y3572890D01*
X8856643Y3566800D01*
X8872557D01*
X8887258Y3572890D01*
X8898510Y3584142D01*
X8904600Y3598843D01*
Y3614757D01*
X8898510Y3629458D01*
X8887258Y3640710D01*
X8872557Y3646800D01*
D02*
G37*
G36*
X8974157Y3621400D02*
X8958243D01*
X8943542Y3615310D01*
X8932290Y3604058D01*
X8926200Y3589357D01*
Y3573443D01*
X8932290Y3558742D01*
X8943542Y3547490D01*
X8958243Y3541400D01*
X8974157D01*
X8988858Y3547490D01*
X9000110Y3558742D01*
X9006200Y3573443D01*
Y3589357D01*
X9000110Y3604058D01*
X8988858Y3615310D01*
X8974157Y3621400D01*
D02*
G37*
G36*
X8529657Y3338300D02*
X8513743D01*
X8499042Y3332210D01*
X8487790Y3320958D01*
X8481700Y3306257D01*
Y3290343D01*
X8487790Y3275642D01*
X8499042Y3264390D01*
X8513743Y3258300D01*
X8529657D01*
X8544358Y3264390D01*
X8555610Y3275642D01*
X8561700Y3290343D01*
Y3306257D01*
X8555610Y3320958D01*
X8544358Y3332210D01*
X8529657Y3338300D01*
D02*
G37*
G36*
X8440757Y3329300D02*
X8424843D01*
X8410142Y3323210D01*
X8398890Y3311958D01*
X8392800Y3297257D01*
Y3281343D01*
X8398890Y3266642D01*
X8410142Y3255390D01*
X8424843Y3249300D01*
X8440757D01*
X8455458Y3255390D01*
X8466710Y3266642D01*
X8472800Y3281343D01*
Y3297257D01*
X8466710Y3311958D01*
X8455458Y3323210D01*
X8440757Y3329300D01*
D02*
G37*
G36*
X8783657Y3303900D02*
X8767743D01*
X8753042Y3297810D01*
X8741790Y3286558D01*
X8735700Y3271857D01*
Y3255943D01*
X8741790Y3241242D01*
X8753042Y3229990D01*
X8767743Y3223900D01*
X8783657D01*
X8798358Y3229990D01*
X8809610Y3241242D01*
X8815700Y3255943D01*
Y3271857D01*
X8809610Y3286558D01*
X8798358Y3297810D01*
X8783657Y3303900D01*
D02*
G37*
G36*
X9875857Y3227700D02*
X9859943D01*
X9845242Y3221610D01*
X9833990Y3210358D01*
X9827900Y3195657D01*
Y3179743D01*
X9833990Y3165042D01*
X9845242Y3153790D01*
X9859943Y3147700D01*
X9875857D01*
X9890558Y3153790D01*
X9901810Y3165042D01*
X9907900Y3179743D01*
Y3195657D01*
X9901810Y3210358D01*
X9890558Y3221610D01*
X9875857Y3227700D01*
D02*
G37*
%LPD*%
D69*
X9447663Y12755400D02*
X9448800D01*
X9034805Y12762666D02*
X9440397D01*
X9447663Y12755400D01*
D70*
X7747000Y10083800D02*
X8122337Y10459137D01*
X8147737D01*
X8153400Y10464800D01*
D74*
X9473983Y11565677D02*
Y11589001D01*
Y11565677D02*
X10054159Y10985500D01*
X10172700D01*
X8998202Y12064782D02*
X9473983Y11589001D01*
X8978900Y12407900D02*
Y12417950D01*
Y12407900D02*
X9080500Y12306300D01*
Y12153900D02*
Y12306300D01*
Y12153900D02*
X10431900Y10802500D01*
X10495400D01*
X10502900Y10795000D01*
D75*
X5988800Y8064500D02*
D03*
X7388800D02*
D03*
X5638800D02*
D03*
X7038800D02*
D03*
X6688800D02*
D03*
X6338800D02*
D03*
X7738800D02*
D03*
X13258800D02*
D03*
X11158800D02*
D03*
X11508800D02*
D03*
X11858800D02*
D03*
X12208800D02*
D03*
X12558800D02*
D03*
X12908800D02*
D03*
D76*
X5288800D02*
D03*
X10808800D02*
D03*
D77*
X8316779Y8875579D02*
D03*
X10223500Y7251700D02*
D03*
D78*
X8458200Y9017000D02*
D03*
X10223500Y8877300D02*
D03*
X10082079Y7110279D02*
D03*
X8316779Y7253421D02*
D03*
D79*
X10936505Y10911105D02*
D03*
D80*
X10756900Y10731500D02*
D03*
D81*
X9705000Y12909399D02*
D03*
X8841000D02*
D03*
D82*
X9705000Y13327400D02*
D03*
X8841000D02*
D03*
D83*
X9562000Y12959399D02*
D03*
X8984000D02*
D03*
D84*
X10082079Y9018721D02*
D03*
X8458200Y7112000D02*
D03*
D85*
X9766300Y11010900D02*
D03*
X9944100Y11163300D02*
D03*
X8229600Y11607800D02*
D03*
X9639300Y10985500D02*
D03*
X8953500Y10922000D02*
D03*
X7759700Y10502900D02*
D03*
X9207500Y6210300D02*
D03*
X9787669Y5984946D02*
D03*
X9783308Y6087858D02*
D03*
X9655104Y6089602D02*
D03*
X9649871Y5957910D02*
D03*
X9525000Y6540500D02*
D03*
X10325100Y5892800D02*
D03*
X9740900Y5854700D02*
D03*
X9652000Y4876800D02*
D03*
X10744200Y4483100D02*
D03*
X9652000Y4699000D02*
D03*
X9588500Y4978400D02*
D03*
X9156700Y6946900D02*
D03*
X8763000Y5397500D02*
D03*
X8394700Y5486400D02*
D03*
X8534400Y5384800D02*
D03*
X8978900Y5241100D02*
D03*
X8623300Y3476100D02*
D03*
X9969500Y10477500D02*
D03*
X8978900Y12417950D02*
D03*
X8966200Y12312550D02*
D03*
X11250317Y5241936D02*
D03*
X9283700Y5867400D02*
D03*
X9341389Y6937978D02*
D03*
X8027600Y9423400D02*
D03*
X8064500Y9525000D02*
D03*
X7696200Y10655300D02*
D03*
X8153400Y10464800D02*
D03*
X8699500Y11404600D02*
D03*
X7556500Y10601325D02*
D03*
X10172700Y10985500D02*
D03*
X8998202Y12064782D02*
D03*
X10515600Y10998200D02*
D03*
X9042400Y12115800D02*
D03*
X9356060Y11977550D02*
D03*
X9145446Y12195506D02*
D03*
X9323246D02*
D03*
X9234346D02*
D03*
X9475646Y11878006D02*
D03*
X10502900Y10795000D02*
D03*
X11290300Y11417300D02*
D03*
X10248900Y12661900D02*
D03*
X7234450Y9232900D02*
D03*
Y8902700D02*
D03*
X7226300Y9859640D02*
D03*
X7035800Y9613900D02*
D03*
X8788400Y6261100D02*
D03*
X8864600D02*
D03*
X8702345Y5726157D02*
D03*
X8726836Y5805625D02*
D03*
X9116550Y5856408D02*
D03*
X8978900Y5816600D02*
D03*
X9119132Y5788909D02*
D03*
X8724900Y5981700D02*
D03*
X8769033Y5736600D02*
D03*
X8064500Y6019800D02*
D03*
Y6090591D02*
D03*
X8978900Y5596700D02*
D03*
X8381989Y5672339D02*
D03*
X8978900Y5664200D02*
D03*
X10020300Y10071100D02*
D03*
X9185492Y3927692D02*
D03*
X8864600Y3606800D02*
D03*
X9398000Y3619500D02*
D03*
X8966200Y3581400D02*
D03*
X8775700Y3263900D02*
D03*
X8521700Y3298300D02*
D03*
X9867900Y3187700D02*
D03*
X8432800Y3289300D02*
D03*
X9385300Y4406900D02*
D03*
X8824866Y4410040D02*
D03*
X9080500Y4991100D02*
D03*
X9955100Y11557000D02*
D03*
X9791700Y12776200D02*
D03*
X10706100Y10541000D02*
D03*
X9715500Y12536600D02*
D03*
X9652000Y13220700D02*
D03*
Y12788900D02*
D03*
X9468353Y12185631D02*
D03*
X9577246Y11573206D02*
D03*
X9323246Y12373306D02*
D03*
X9234346Y12284406D02*
D03*
X9323246D02*
D03*
X9234346Y12373306D02*
D03*
X12244546Y7112491D02*
D03*
X12246900Y6527800D02*
D03*
X11513907Y6892493D02*
D03*
X12056400Y6413500D02*
D03*
X10998200Y4483100D02*
D03*
X11252200D02*
D03*
X10871200D02*
D03*
X10147300Y5918200D02*
D03*
Y6019800D02*
D03*
X10731500Y5892800D02*
D03*
X9855200Y5727700D02*
D03*
X9512300Y5003800D02*
D03*
X9779000Y4965700D02*
D03*
X8915400Y13233400D02*
D03*
X8890000Y12788900D02*
D03*
X8763000D02*
D03*
X9145446Y12284406D02*
D03*
Y12373306D02*
D03*
X8839200Y12230100D02*
D03*
X8928100Y12026900D02*
D03*
X8115300Y12928600D02*
D03*
X8131648Y12763500D02*
D03*
X8142232Y12565004D02*
D03*
X8105358Y12386600D02*
D03*
X7454900Y8788400D02*
D03*
X7015907Y7117273D02*
D03*
X6279307Y6901373D02*
D03*
X9118600Y6616700D02*
D03*
X8978900Y5511800D02*
D03*
Y5308600D02*
D03*
X8750300Y5041900D02*
D03*
X8686800Y5067300D02*
D03*
X7012696Y6531581D02*
D03*
X6825407Y6418773D02*
D03*
X8475213Y5065817D02*
D03*
X10896600Y9461500D02*
D03*
X11061700Y9296400D02*
D03*
X11849100Y9283700D02*
D03*
X11658600Y9448800D02*
D03*
Y9283700D02*
D03*
X11480800Y9448800D02*
D03*
X11468100Y9283700D02*
D03*
X11264900Y9448800D02*
D03*
Y9283700D02*
D03*
X11074400Y9448800D02*
D03*
X10871200Y9296400D02*
D03*
X10731500Y9385300D02*
D03*
Y9601200D02*
D03*
X10591800Y9512300D02*
D03*
X10566400Y9766300D02*
D03*
X10401300Y9715500D02*
D03*
X10388600Y9944100D02*
D03*
X10223500Y9880600D02*
D03*
X10210800Y10109200D02*
D03*
X10058400Y10274300D02*
D03*
X9842500D02*
D03*
X7251700Y9537700D02*
D03*
X7226300Y9652000D02*
D03*
X7810500Y9728200D02*
D03*
X7721600D02*
D03*
X7632700D02*
D03*
X7810500Y9817100D02*
D03*
X7416800Y10058400D02*
D03*
X10083800Y11544300D02*
D03*
X9639300Y10477500D02*
D03*
Y10579100D02*
D03*
X9740900D02*
D03*
X9855200D02*
D03*
X9969500D02*
D03*
X9740900Y10477500D02*
D03*
X9855200D02*
D03*
X11446800Y6832600D02*
D03*
X11366629Y7085534D02*
D03*
X11357900Y7251700D02*
D03*
X6114207Y7079173D02*
D03*
X6223000Y6823300D02*
D03*
X6118000Y7302500D02*
D03*
X10934700Y5410200D02*
D03*
X9461500Y5219700D02*
D03*
X10883900Y5359400D02*
D03*
X9385809Y5210178D02*
D03*
X10248900Y12331700D02*
D03*
X9309100Y12547600D02*
D03*
X9620753Y12581367D02*
D03*
X9525000Y12560300D02*
D03*
X9537700Y12725400D02*
D03*
X10274300Y12992101D02*
D03*
X9318438Y5206005D02*
D03*
X9250953Y5207420D02*
D03*
X7620000Y11087100D02*
D03*
X7747000D02*
D03*
X7874000D02*
D03*
Y11214100D02*
D03*
X7747000D02*
D03*
X7620000D02*
D03*
X7493000D02*
D03*
Y11341100D02*
D03*
X7620000D02*
D03*
X7747000D02*
D03*
X7874000D02*
D03*
Y11468100D02*
D03*
X7747000D02*
D03*
X7620000D02*
D03*
X7493000Y11087100D02*
D03*
Y11468100D02*
D03*
X7632700Y9906000D02*
D03*
Y9817100D02*
D03*
X7721600D02*
D03*
Y9906000D02*
D03*
X7810500D02*
D03*
X7747000Y10083800D02*
D03*
X9829800Y11823700D02*
D03*
X9499689Y12366029D02*
D03*
X9613900Y12674600D02*
D03*
X9486900Y12649200D02*
D03*
X9448800Y12755400D02*
D03*
X9034805Y12762666D02*
D03*
X9359900Y12953999D02*
D03*
X9245600D02*
D03*
D86*
X7729152Y5609565D02*
D03*
Y5711165D02*
D03*
X7602152D02*
D03*
Y5609565D02*
D03*
X7703752Y3933165D02*
D03*
X7589452D02*
D03*
X7703752Y3831565D02*
D03*
X7589452D02*
D03*
X7221152Y5647665D02*
D03*
X6776652Y5139665D02*
D03*
X6751252Y5241265D02*
D03*
X6929052Y5355565D02*
D03*
X6827452D02*
D03*
X6725852D02*
D03*
X6827452Y5469865D02*
D03*
X6725852D02*
D03*
X6929052D02*
D03*
X12166019Y9767251D02*
D03*
X12080741Y9769784D02*
D03*
X12661900Y9093200D02*
D03*
X12585700D02*
D03*
X11849100Y8966200D02*
D03*
X11925300D02*
D03*
X11760200D02*
D03*
X6459152Y5253965D02*
D03*
Y5165065D02*
D03*
X7259252Y4923765D02*
D03*
X7254418Y4831992D02*
D03*
X6459152Y5076165D02*
D03*
X6598852Y4428465D02*
D03*
Y4352265D02*
D03*
X12458119Y9818051D02*
D03*
X13169901Y10083800D02*
D03*
X12814301Y9893300D02*
D03*
X13055600Y10083800D02*
D03*
X12869859Y9435128D02*
D03*
X12890500Y9893300D02*
D03*
X12777202Y9431696D02*
D03*
X12458119Y9741851D02*
D03*
X11366500Y9613900D02*
D03*
Y9728200D02*
D03*
X13169901Y10223500D02*
D03*
X13050957Y10224853D02*
D03*
X11274234Y10232359D02*
D03*
X11388534Y10105359D02*
D03*
X11390375Y10229991D02*
D03*
X11274234Y10105359D02*
D03*
X7233852Y4568165D02*
D03*
X7310052D02*
D03*
X7376380Y4109844D02*
D03*
X7373552Y4187165D02*
D03*
X6916352Y4225265D02*
D03*
Y4136365D02*
D03*
X7119552Y5647665D02*
D03*
%TF.MD5,5fbeac5f77f1f82e37e6c637030910a4*%
M02*
