%TF.GenerationSoftware,Altium Limited,Altium Designer,26.3.0 (6)*%
G04 Layer_Color=0*
%FSLAX45Y45*%
%MOMM*%
%TF.SameCoordinates,DA275D67-A494-4C23-8084-13E0AEFBB134*%
%TF.FilePolarity,Positive*%
%TF.FileFunction,NonPlated,1,4,NPTH,Drill*%
%TF.Part,Single*%
G01*
G75*
%TA.AperFunction,ComponentDrill*%
%ADD154C,0.65000*%
G36*
X8271000Y8064500D02*
Y8015373D01*
X8280630Y7917592D01*
X8299799Y7821227D01*
X8328320Y7727204D01*
X8365920Y7636429D01*
X8412237Y7549777D01*
X8466824Y7468082D01*
X8529155Y7392131D01*
X8598631Y7322655D01*
X8674582Y7260324D01*
X8756277Y7205737D01*
X8842929Y7159420D01*
X8933704Y7121820D01*
X9027727Y7093299D01*
X9124092Y7074130D01*
X9221873Y7064500D01*
X9271000D01*
X9320127D01*
X9417907Y7074130D01*
X9514273Y7093299D01*
X9608296Y7121820D01*
X9699071Y7159420D01*
X9785723Y7205737D01*
X9867418Y7260324D01*
X9943369Y7322655D01*
X10012845Y7392131D01*
X10075176Y7468082D01*
X10129763Y7549777D01*
X10176079Y7636429D01*
X10213679Y7727204D01*
X10242201Y7821227D01*
X10261369Y7917592D01*
X10271000Y8015373D01*
Y8064500D01*
Y8113627D01*
X10261369Y8211407D01*
X10242201Y8307773D01*
X10213679Y8401796D01*
X10176079Y8492571D01*
X10129763Y8579223D01*
X10075176Y8660918D01*
X10012845Y8736869D01*
X9943369Y8806345D01*
X9867418Y8868676D01*
X9785723Y8923263D01*
X9699071Y8969579D01*
X9608296Y9007179D01*
X9514273Y9035701D01*
X9417907Y9054869D01*
X9320127Y9064500D01*
X9271000D01*
X9221873D01*
X9124092Y9054869D01*
X9027727Y9035701D01*
X8933704Y9007179D01*
X8842929Y8969579D01*
X8756277Y8923263D01*
X8674582Y8868676D01*
X8598631Y8806345D01*
X8529155Y8736869D01*
X8466824Y8660918D01*
X8412237Y8579223D01*
X8365920Y8492571D01*
X8328320Y8401796D01*
X8299799Y8307773D01*
X8280630Y8211407D01*
X8271000Y8113627D01*
Y8064500D01*
D01*
D02*
G37*
D154*
X9562000Y12959399D02*
D03*
X8984000D02*
D03*
%TF.MD5,682a6d9eee7def992d6cc253b1707153*%
M02*
