%TF.GenerationSoftware,Altium Limited,Altium Designer,26.3.0 (6)*%
G04 Layer_Physical_Order=4*
G04 Layer_Color=16711680*
%FSLAX45Y45*%
%MOMM*%
%TF.SameCoordinates,AC495875-709F-4CC1-A7F9-E779AF489CC5*%
%TF.FilePolarity,Positive*%
%TF.FileFunction,Copper,L4,Bot,Signal*%
%TF.Part,Single*%
G01*
G75*
%TA.AperFunction,SMDPad,CuDef*%
%ADD14R,1.20000X0.90000*%
%ADD29R,1.35000X1.05000*%
%TA.AperFunction,Conductor*%
%ADD68C,0.25400*%
%ADD70C,0.11042*%
%ADD72C,0.12500*%
%TA.AperFunction,ComponentPad*%
%ADD74P,1.62635X4X90.0*%
%ADD75C,1.15000*%
%ADD76C,0.65000*%
%ADD77O,1.00000X2.10000*%
%ADD78O,1.00000X1.80000*%
%ADD79C,4.50000*%
%ADD80C,1.65000*%
%ADD81R,1.65000X1.65000*%
%ADD82C,1.20000*%
%ADD83P,1.69706X4X90.0*%
%ADD84P,1.69706X4X360.0*%
%TA.AperFunction,ViaPad*%
%ADD85C,0.55000*%
%TA.AperFunction,SMDPad,CuDef*%
%ADD86R,0.45000X1.40000*%
G36*
X-1282700Y3403600D02*
X-1155700D01*
Y2946400D01*
X-1295400D01*
X-1346200Y2895600D01*
X-1783100D01*
X-1831200Y2943700D01*
X-1828800Y2947500D01*
Y3407500D01*
X-1827500D01*
X-1780000Y3454400D01*
X-1333500D01*
X-1282700Y3403600D01*
D02*
G37*
G36*
X-1269653Y2374483D02*
X-1129953Y2158583D01*
Y1206083D01*
X-926753Y1002883D01*
Y901283D01*
X-812592Y799891D01*
X-853401Y759082D01*
X-965584Y646899D01*
X-1142653Y741378D01*
Y812383D01*
X-1637953Y1307683D01*
X-2006253D01*
X-2133253Y1434683D01*
Y1626219D01*
X-2037987Y1721485D01*
X-2027257Y1717040D01*
X-2011343D01*
X-1996642Y1723130D01*
X-1985390Y1734382D01*
X-1979300Y1749084D01*
Y1764997D01*
X-1985390Y1779698D01*
X-1996642Y1790950D01*
X-2011343Y1797040D01*
X-2027257D01*
X-2041958Y1790950D01*
X-2053210Y1779698D01*
X-2059300Y1764997D01*
Y1754243D01*
X-2133253Y1680291D01*
Y1993483D01*
X-1701453Y2425283D01*
X-1269653D01*
Y2374483D01*
D02*
G37*
G36*
X875000Y2690000D02*
Y2324100D01*
X878400D01*
X1427500Y1775000D01*
X2700000D01*
X2762500Y1712500D01*
Y1575000D01*
X2687500Y1500000D01*
X1056718D01*
X239977Y2324100D01*
X170000Y2394077D01*
Y2692500D01*
X216685Y2739185D01*
X825815D01*
X875000Y2690000D01*
D02*
G37*
G36*
X1402500Y970000D02*
Y-1057500D01*
X1319425Y-1140575D01*
X1313850Y-1146150D01*
X1158850D01*
X781255Y-768555D01*
X803293Y-746517D01*
X804697Y-744415D01*
X806652Y-742810D01*
X868984Y-666859D01*
X870176Y-664629D01*
X871964Y-662840D01*
X926551Y-581145D01*
X927518Y-578810D01*
X929123Y-576855D01*
X975440Y-490202D01*
X976174Y-487782D01*
X977578Y-485680D01*
X1015178Y-394905D01*
X1015672Y-392425D01*
X1016864Y-390195D01*
X1045386Y-296172D01*
X1045633Y-293655D01*
X1046601Y-291319D01*
X1065769Y-194953D01*
Y-192424D01*
X1066503Y-190004D01*
X1076134Y-92224D01*
X1075886Y-89707D01*
X1076380Y-87227D01*
Y-38100D01*
Y11027D01*
X1075886Y13506D01*
X1076134Y16024D01*
X1066504Y113804D01*
X1065770Y116224D01*
Y118753D01*
X1046601Y215119D01*
X1045633Y217454D01*
X1045386Y219972D01*
X1016864Y313995D01*
X1015672Y316225D01*
X1015178Y318705D01*
X977578Y409479D01*
X976174Y411582D01*
X975440Y414002D01*
X929123Y500654D01*
X927519Y502609D01*
X926551Y504945D01*
X871964Y586640D01*
X870176Y588428D01*
X868984Y590659D01*
X806652Y666610D01*
X804698Y668214D01*
X803293Y670317D01*
X733817Y739793D01*
X731715Y741197D01*
X730110Y743152D01*
X654159Y805484D01*
X651929Y806676D01*
X650140Y808464D01*
X568445Y863051D01*
X566109Y864018D01*
X564154Y865623D01*
X477502Y911940D01*
X475082Y912674D01*
X472979Y914078D01*
X382205Y951678D01*
X379725Y952172D01*
X377495Y953364D01*
X283472Y981886D01*
X280954Y982133D01*
X278619Y983101D01*
X182253Y1002269D01*
X179724D01*
X177304Y1003003D01*
X79524Y1012634D01*
X77006Y1012386D01*
X74527Y1012880D01*
X-23727D01*
X-26207Y1012386D01*
X-28724Y1012634D01*
X-126504Y1003004D01*
X-128924Y1002270D01*
X-131453D01*
X-227819Y983101D01*
X-230155Y982133D01*
X-232672Y981886D01*
X-326695Y953364D01*
X-328925Y952172D01*
X-331405Y951678D01*
X-422180Y914078D01*
X-424282Y912674D01*
X-426702Y911940D01*
X-513355Y865623D01*
X-515309Y864019D01*
X-517646Y863051D01*
X-599340Y808464D01*
X-601128Y806676D01*
X-603359Y805484D01*
X-679310Y743152D01*
X-680914Y741198D01*
X-683017Y739793D01*
X-752493Y670317D01*
X-753897Y668215D01*
X-755852Y666610D01*
X-818184Y590659D01*
X-819376Y588429D01*
X-821164Y586640D01*
X-875751Y504945D01*
X-876719Y502609D01*
X-878323Y500654D01*
X-924640Y414002D01*
X-925374Y411582D01*
X-926779Y409479D01*
X-964379Y318705D01*
X-964872Y316225D01*
X-966064Y313995D01*
X-994586Y219972D01*
X-994834Y217454D01*
X-995801Y215119D01*
X-1014970Y118753D01*
Y116225D01*
X-1015704Y113804D01*
X-1025334Y16023D01*
X-1025086Y13506D01*
X-1025580Y11027D01*
Y-38100D01*
Y-87227D01*
X-1025086Y-89707D01*
X-1025334Y-92224D01*
X-1015704Y-190004D01*
X-1014970Y-192424D01*
Y-194953D01*
X-995801Y-291319D01*
X-994834Y-293655D01*
X-994586Y-296172D01*
X-966064Y-390195D01*
X-964872Y-392425D01*
X-964379Y-394905D01*
X-926779Y-485680D01*
X-925374Y-487782D01*
X-924640Y-490202D01*
X-878323Y-576855D01*
X-876719Y-578809D01*
X-875751Y-581146D01*
X-821164Y-662840D01*
X-819377Y-664628D01*
X-818184Y-666859D01*
X-755852Y-742810D01*
X-753898Y-744414D01*
X-752493Y-746517D01*
X-736805Y-762205D01*
X-1013550Y-1038950D01*
X-1105000Y-1037500D01*
X-1365000Y-777500D01*
Y955000D01*
X-1334702Y985298D01*
X-1156183Y806779D01*
Y741378D01*
X-1155397Y739482D01*
X-1155597Y737441D01*
X-1153490Y734877D01*
X-1152220Y731811D01*
X-1150324Y731025D01*
X-1149022Y729441D01*
X-971953Y634962D01*
X-968649Y634639D01*
X-965584Y633369D01*
X-963688Y634154D01*
X-961647Y633955D01*
X-959082Y636062D01*
X-956016Y637332D01*
X-843834Y749515D01*
X-803025Y790324D01*
X-802861Y790720D01*
X-802475Y790907D01*
X-800902Y795450D01*
X-799062Y799891D01*
X-799225Y800287D01*
X-799086Y800692D01*
X-801185Y805016D01*
X-803025Y809459D01*
X-803420Y809622D01*
X-803607Y810008D01*
X-913222Y907363D01*
Y1002883D01*
X-917185Y1012451D01*
X-1112367Y1207633D01*
X-1030000Y1290000D01*
X1060937D01*
X1071718Y1300781D01*
X1402500Y970000D01*
D02*
G37*
G36*
X-161464Y-1072500D02*
X-133607Y-1100357D01*
X99643Y-1100357D01*
X127500Y-1128214D01*
Y-1183400D01*
X126400D01*
Y-1346100D01*
X120000Y-1352500D01*
X7500D01*
X2500Y-1347500D01*
Y-1182700D01*
X-4904Y-1175000D01*
X-77500D01*
X-100000Y-1197500D01*
X-262500Y-1197500D01*
X-275000Y-1185000D01*
Y-1082500D01*
X-265000Y-1072500D01*
X-161464D01*
D01*
D02*
G37*
G36*
X-12500Y-1205000D02*
Y-1355000D01*
X10000Y-1377500D01*
X337500D01*
X347500Y-1367500D01*
X385000D01*
X405000Y-1387500D01*
Y-1550000D01*
X362500Y-1592500D01*
X-22500D01*
X-267500Y-1347500D01*
X-272500Y-1342500D01*
Y-1237500D01*
X-262500Y-1227500D01*
X-102500D01*
X-70000Y-1195000D01*
X-22500D01*
X-12500Y-1205000D01*
D02*
G37*
%LPC*%
G36*
X-1490643Y2021200D02*
X-1506557D01*
X-1521258Y2015110D01*
X-1532510Y2003858D01*
X-1538600Y1989157D01*
Y1973243D01*
X-1532510Y1958542D01*
X-1521258Y1947290D01*
X-1506557Y1941200D01*
X-1490643D01*
X-1475942Y1947290D01*
X-1464690Y1958542D01*
X-1458600Y1973243D01*
Y1989157D01*
X-1464690Y2003858D01*
X-1475942Y2015110D01*
X-1490643Y2021200D01*
D02*
G37*
G36*
X977900Y847826D02*
X958974Y845334D01*
X941337Y838029D01*
X926192Y826408D01*
X914571Y811263D01*
X907266Y793626D01*
X904774Y774700D01*
X907266Y755774D01*
X914571Y738137D01*
X926192Y722992D01*
X941337Y711371D01*
X958974Y704066D01*
X977900Y701574D01*
X996826Y704066D01*
X1014463Y711371D01*
X1029608Y722992D01*
X1041229Y738137D01*
X1048534Y755774D01*
X1051026Y774700D01*
X1048534Y793626D01*
X1041229Y811263D01*
X1029608Y826408D01*
X1014463Y838029D01*
X996826Y845334D01*
X977900Y847826D01*
D02*
G37*
%LPD*%
D14*
X317500Y-1467300D02*
D03*
Y-1257300D02*
D03*
D29*
X-205000Y-1277500D02*
D03*
Y-1132500D02*
D03*
D68*
X35546Y4445000D02*
X43433D01*
X107133Y4381300D01*
X-6350Y-4324350D02*
Y-3270250D01*
X-165100Y-3111500D02*
X-6350Y-3270250D01*
Y-4324350D02*
X152400Y-4483100D01*
X31400Y-1821100D02*
Y-1705900D01*
X-438812Y-2291312D02*
X31400Y-1821100D01*
X-513100Y-2291312D02*
X-438812D01*
X-518764Y-2296975D02*
X-513100Y-2291312D01*
X-421229Y-2366000D02*
X96400Y-1848371D01*
X-476567Y-2366000D02*
X-421229D01*
X96400Y-1848371D02*
Y-1705900D01*
X-266700Y-2286000D02*
X161400Y-1857900D01*
Y-1705900D01*
X-40041Y-1795041D02*
Y-1712341D01*
X-365900Y-2120900D02*
X-40041Y-1795041D01*
X-520700Y-2120900D02*
X-365900D01*
X-40041Y-1712341D02*
X-33600Y-1705900D01*
X309425Y-1475375D02*
X317500Y-1467300D01*
X-381000Y-4495800D02*
X-60108Y-4174908D01*
X1003300Y4559300D02*
X2085000Y3477600D01*
Y2865000D02*
Y3477600D01*
X520500Y4381300D02*
X1028700Y4889500D01*
X107133Y4381300D02*
X520500D01*
X889000Y4343400D02*
X1003300Y4229100D01*
X-152400Y4343400D02*
X889000D01*
X-283300Y4212500D02*
X-152400Y4343400D01*
X-502500Y4212500D02*
X-283300D01*
X95789Y-1164622D02*
X96400Y-1165233D01*
X88900Y3721100D02*
X584200D01*
X-203200Y4013200D02*
X88900Y3721100D01*
X-1358900Y2489200D02*
X-546100Y3302000D01*
X-1676400Y2489200D02*
X-1358900D01*
X393700Y2997200D02*
X838200Y3441700D01*
X393700Y2882900D02*
Y2997200D01*
X-1549400Y2552700D02*
X-1409700D01*
X-1003300Y2959100D01*
X-1016000Y3234495D02*
Y3505200D01*
Y3234495D02*
X-1003300Y3221795D01*
Y2959100D02*
Y3221795D01*
X-325456Y2822082D02*
X-294782D01*
X-292100Y2819400D01*
X-785339Y2362200D02*
X-325456Y2822082D01*
X-1092200Y2362200D02*
X-785339D01*
X308900Y-1265900D02*
X317500Y-1257300D01*
X161400Y-1265900D02*
X308900D01*
D70*
X46979Y4847500D02*
X50000Y4844479D01*
X-47500Y4847500D02*
X46979D01*
D72*
X355600Y-2743200D02*
X1638300D01*
X215900Y-2882900D02*
X355600Y-2743200D01*
X-321500Y-2451100D02*
X-266700Y-2505900D01*
X-1143179Y-2085286D02*
X-777365Y-2451100D01*
X-1178614Y-2085286D02*
X-1143179D01*
X-1181100Y-2082800D02*
X-1178614Y-2085286D01*
X-777365Y-2451100D02*
X-321500D01*
X140209Y-2892422D02*
X340231Y-2692400D01*
X1689100D01*
X-1181100Y-2012009D02*
X-770416Y-2422693D01*
X-314551D02*
X-306976Y-2430268D01*
X-274832D01*
X-266700Y-2438400D01*
X-770416Y-2422693D02*
X-314551D01*
X-2209800Y1447800D02*
Y1511300D01*
X-2070100Y-152400D02*
Y1308100D01*
Y-152400D02*
X-381000Y-1841500D01*
X-2209800Y1447800D02*
X-2070100Y1308100D01*
X-2256050Y1530457D02*
X-2029467Y1757040D01*
X-2019300D01*
X-2256050Y1422800D02*
Y1530457D01*
X-2105550Y-193150D02*
X-457200Y-1841500D01*
X-2105550Y-193150D02*
Y1272299D01*
X-2256050Y1422800D02*
X-2105550Y1272299D01*
X1716407Y-2654300D02*
X1798354D01*
X1708257Y-2646150D02*
X1716407Y-2654300D01*
X1798354D02*
X2004717Y-2860664D01*
X1669943Y-2646150D02*
X1708257D01*
X1661793Y-2654300D02*
X1669943Y-2646150D01*
X457200Y-2654300D02*
X1661793D01*
X38100Y-2235200D02*
X457200Y-2654300D01*
D74*
X1545198Y2632698D02*
D03*
D75*
X1724802Y2812302D02*
D03*
D76*
X-261600Y4856800D02*
D03*
X316400D02*
D03*
D77*
X459400Y4806800D02*
D03*
X-404600D02*
D03*
D78*
X459400Y5224800D02*
D03*
X-404600D02*
D03*
D79*
X-3062500Y3485000D02*
D03*
X-3137500Y-3590000D02*
D03*
X3150000Y-3587500D02*
D03*
X-4982500Y-62500D02*
D03*
X3105000Y3495000D02*
D03*
X5042500Y-42500D02*
D03*
D80*
X4013200Y-38100D02*
D03*
X-1506800D02*
D03*
X-2906800D02*
D03*
X-2556800D02*
D03*
X-2206800D02*
D03*
X-3606800D02*
D03*
X-1856800D02*
D03*
X-3256800D02*
D03*
X3663200D02*
D03*
X3313200D02*
D03*
X2963200D02*
D03*
X2613200D02*
D03*
X2263200D02*
D03*
X1913200D02*
D03*
D81*
X-3956800D02*
D03*
X1563200D02*
D03*
D82*
X-787400Y914400D02*
D03*
X836479Y-992321D02*
D03*
X977900Y774700D02*
D03*
X-928821Y-849179D02*
D03*
D83*
Y772979D02*
D03*
X977900Y-850900D02*
D03*
D84*
X836479Y916121D02*
D03*
X-787400Y-990600D02*
D03*
D85*
X-2580000Y-2332500D02*
D03*
X-2345000D02*
D03*
X-2455000D02*
D03*
X-2697500D02*
D03*
X-2580000Y-2427500D02*
D03*
X-2345000D02*
D03*
X-2455000D02*
D03*
X-2697500D02*
D03*
X-2580000Y-2522500D02*
D03*
X-2345000D02*
D03*
X-2455000D02*
D03*
X-2697500D02*
D03*
X-2527607Y-3662112D02*
D03*
X-2535106Y-3584612D02*
D03*
X-2537607Y-3507112D02*
D03*
X-2612607Y-3657112D02*
D03*
X-2615107Y-3584612D02*
D03*
X-2617607Y-3509612D02*
D03*
X-2702606Y-3657112D02*
D03*
X-2705107Y-3584612D02*
D03*
X-2702500Y-3512500D02*
D03*
X333900Y2459900D02*
D03*
X331400Y2567400D02*
D03*
X326400Y2677400D02*
D03*
X670000Y2465000D02*
D03*
X1202100Y1567400D02*
D03*
X505000Y2360000D02*
D03*
X467100Y2204900D02*
D03*
X687500Y2177500D02*
D03*
X782500Y2267500D02*
D03*
X580000Y2082500D02*
D03*
X795000Y2082500D02*
D03*
X890000Y2172500D02*
D03*
X687500Y1987500D02*
D03*
X885000Y1990000D02*
D03*
X980000Y2080000D02*
D03*
X777500Y1895000D02*
D03*
X982500Y1897500D02*
D03*
X1077500Y1987500D02*
D03*
X875000Y1802500D02*
D03*
X1080000Y1805000D02*
D03*
X1175000Y1895000D02*
D03*
X972500Y1710000D02*
D03*
X1372500Y1707500D02*
D03*
Y1565000D02*
D03*
X1507500Y1707500D02*
D03*
Y1565000D02*
D03*
X1640000Y1707500D02*
D03*
Y1565000D02*
D03*
X1765000Y1710000D02*
D03*
Y1567500D02*
D03*
X1882500Y1710000D02*
D03*
Y1567500D02*
D03*
X2005000Y1710000D02*
D03*
Y1567500D02*
D03*
X-292500Y3932500D02*
D03*
X222500Y4617500D02*
D03*
X-210795Y4660066D02*
D03*
X222500Y4547500D02*
D03*
X315000Y4550000D02*
D03*
X310000Y4620000D02*
D03*
X227500Y4472500D02*
D03*
X320000Y4475000D02*
D03*
X50000Y4844479D02*
D03*
X-47500Y4847500D02*
D03*
X35546Y4445000D02*
D03*
X-4075100Y-325100D02*
D03*
X-3972600D02*
D03*
X-3865100Y-322600D02*
D03*
X-3750100D02*
D03*
X-3177500Y-855000D02*
D03*
X-3177600Y-942600D02*
D03*
X-3175100Y-1047600D02*
D03*
X-3172600Y-1247600D02*
D03*
Y-1337600D02*
D03*
X-3750100Y-230100D02*
D03*
X-3865100D02*
D03*
X-3972600Y-232600D02*
D03*
X-4075100D02*
D03*
X-1925000Y650000D02*
D03*
X-1810000D02*
D03*
X-1670000D02*
D03*
X2500000Y-2347500D02*
D03*
X2617500D02*
D03*
X2842500D02*
D03*
X2732500D02*
D03*
X2102500Y-692500D02*
D03*
X2070000Y-1295000D02*
D03*
Y-1382500D02*
D03*
X1692500Y-192500D02*
D03*
X1577500D02*
D03*
X1472500D02*
D03*
X1587500Y180000D02*
D03*
X1692500Y177500D02*
D03*
X1477500Y182500D02*
D03*
X-165100Y-3111500D02*
D03*
X152400Y-4483100D02*
D03*
X1638300Y-2743200D02*
D03*
X215900Y-2882900D02*
D03*
X-266700Y-2505900D02*
D03*
X-1181100Y-2082800D02*
D03*
X-518764Y-2296975D02*
D03*
X-476567Y-2366000D02*
D03*
X-266700Y-2286000D02*
D03*
X140209Y-2892422D02*
D03*
X1689100Y-2692400D02*
D03*
X-266700Y-2438400D02*
D03*
X-1181100Y-2012009D02*
D03*
X-520700Y-2120900D02*
D03*
X-2697500Y-2617500D02*
D03*
X-2455000D02*
D03*
X-2345000D02*
D03*
X-2580000D02*
D03*
X409504Y-2012998D02*
D03*
X537708Y-2014742D02*
D03*
X1079500Y-2209800D02*
D03*
X542069Y-2117654D02*
D03*
X495300Y-2247900D02*
D03*
X404271Y-2144690D02*
D03*
X452500Y-3167500D02*
D03*
X450000Y-3280000D02*
D03*
X1498600Y-3619500D02*
D03*
X457500Y-3402500D02*
D03*
X279400Y-1562100D02*
D03*
X-850900Y-2616200D02*
D03*
X-482600Y-2705100D02*
D03*
X-711200Y-2717800D02*
D03*
X-257500Y-2865000D02*
D03*
X-737500Y-4445000D02*
D03*
X72838Y-2896595D02*
D03*
X-381000Y-1841500D02*
D03*
X-2209800Y1511300D02*
D03*
X5353Y-2895180D02*
D03*
X-457200Y-1841500D02*
D03*
X-2019300Y1757040D02*
D03*
X-381000Y-4495800D02*
D03*
X-60108Y-4174908D02*
D03*
X2004717Y-2860664D02*
D03*
X38100Y-2235200D02*
D03*
X2942500Y1952500D02*
D03*
X2860000D02*
D03*
X3805000Y2480000D02*
D03*
X3810000Y2365000D02*
D03*
X3812500Y2250000D02*
D03*
X3732500Y2620000D02*
D03*
X3630000Y2622500D02*
D03*
X3537500D02*
D03*
X2097500Y2247500D02*
D03*
X2095000Y2350000D02*
D03*
X2092500Y2452500D02*
D03*
X2090000Y2557500D02*
D03*
Y2662500D02*
D03*
Y2760000D02*
D03*
X2172500Y2762500D02*
D03*
X2252500D02*
D03*
X2332500Y2765000D02*
D03*
X2412500D02*
D03*
X2492500Y2767500D02*
D03*
X2085000Y2865000D02*
D03*
X2167500Y2867500D02*
D03*
X2247500D02*
D03*
X2327500Y2870000D02*
D03*
X2407500D02*
D03*
X2487500Y2872500D02*
D03*
X-1470000Y-2317500D02*
D03*
X-1597500Y-2320000D02*
D03*
X-1722500D02*
D03*
X-905000Y-2485000D02*
D03*
X-912500Y-2392500D02*
D03*
X-2002500Y-2602500D02*
D03*
X-1322500Y-2315000D02*
D03*
X-1080000Y-2317500D02*
D03*
X-1200000D02*
D03*
X-2085000Y-2602500D02*
D03*
X-1915000Y-2605000D02*
D03*
X-1672500Y-2602500D02*
D03*
X-1782500D02*
D03*
X-2060000Y-3285000D02*
D03*
X-2142500D02*
D03*
X-2792500Y-3655000D02*
D03*
X-2795000Y-3585000D02*
D03*
X-2797500Y-3510000D02*
D03*
X427500Y-4807500D02*
D03*
X315000D02*
D03*
X200000D02*
D03*
X92500D02*
D03*
X-17500D02*
D03*
X-260000D02*
D03*
X-150000D02*
D03*
X-385000D02*
D03*
X-502500D02*
D03*
X-1132500Y-4122500D02*
D03*
X-1242500D02*
D03*
X-1485000D02*
D03*
X-1375000D02*
D03*
X-1610000D02*
D03*
X-1727500D02*
D03*
X-1832500Y-4127500D02*
D03*
X-1945000D02*
D03*
X-2060000D02*
D03*
X-2167500D02*
D03*
X-2277500D02*
D03*
X-2520000D02*
D03*
X-2410000D02*
D03*
X-2645000D02*
D03*
X-2762500D02*
D03*
X4172500Y935000D02*
D03*
X4060000D02*
D03*
X3932500Y932500D02*
D03*
X3822500Y935000D02*
D03*
X3695000D02*
D03*
X3475000D02*
D03*
X3585000D02*
D03*
X3360000D02*
D03*
X3242500D02*
D03*
X4170000Y1032500D02*
D03*
X4060000D02*
D03*
X3817500D02*
D03*
X3927500D02*
D03*
X3692500D02*
D03*
X3575000D02*
D03*
X3467500Y1035000D02*
D03*
X3355000D02*
D03*
X3240000D02*
D03*
X3132500D02*
D03*
X3022500D02*
D03*
X2780000D02*
D03*
X2890000D02*
D03*
X2655000D02*
D03*
X2537500D02*
D03*
X2397500D02*
D03*
X2282500D02*
D03*
X2297500Y3590000D02*
D03*
Y3510000D02*
D03*
Y3427500D02*
D03*
Y3345000D02*
D03*
Y3262500D02*
D03*
X3227500Y2757500D02*
D03*
X3147500Y2755000D02*
D03*
X3067500D02*
D03*
X2987500Y2752500D02*
D03*
X2907500D02*
D03*
X2825000Y2750000D02*
D03*
X907500Y4557500D02*
D03*
X-350000Y5037500D02*
D03*
X-572500Y5205000D02*
D03*
X610000Y5217500D02*
D03*
X570000Y4625000D02*
D03*
X642500D02*
D03*
X-571100Y5033100D02*
D03*
X-753600Y5303100D02*
D03*
X-961100Y5105600D02*
D03*
X-1146100Y4920600D02*
D03*
X-556100Y3773100D02*
D03*
X-762500Y3772500D02*
D03*
X-963600Y3775600D02*
D03*
X-1056100Y3868100D02*
D03*
X-1141100Y3968100D02*
D03*
X-1146100Y4168100D02*
D03*
Y4350600D02*
D03*
Y4540600D02*
D03*
X-1148600Y4758100D02*
D03*
X-362500Y4310242D02*
D03*
X-502500Y4212500D02*
D03*
X245000Y-1860000D02*
D03*
X-2229693Y-1300327D02*
D03*
Y-1192827D02*
D03*
X-2227193Y-1080327D02*
D03*
X-2212904Y-1628519D02*
D03*
X-2210000Y-1540000D02*
D03*
X-2357500Y-1697500D02*
D03*
X-2255404Y-1696019D02*
D03*
X2110000Y-1015000D02*
D03*
X2107017Y-915295D02*
D03*
X1640000Y-1900000D02*
D03*
Y-2035000D02*
D03*
X1637500Y-2150000D02*
D03*
X586700Y-3161300D02*
D03*
X689200Y-3071300D02*
D03*
X686700Y-2988800D02*
D03*
X-205000Y-2775000D02*
D03*
X-770387Y-3036783D02*
D03*
X-558800Y-3035300D02*
D03*
X-495300Y-3060700D02*
D03*
X-266700Y-2590800D02*
D03*
X-2229693Y-985327D02*
D03*
X-100154Y4270706D02*
D03*
Y4181806D02*
D03*
X266700Y-3098800D02*
D03*
X901700Y-2082800D02*
D03*
Y-2184400D02*
D03*
X1625600Y-3619500D02*
D03*
X2006600D02*
D03*
X1752600D02*
D03*
X-11254Y4270706D02*
D03*
X77646Y4181806D02*
D03*
X-11254D02*
D03*
X77646Y4270706D02*
D03*
X331646Y3470606D02*
D03*
X222753Y4083031D02*
D03*
X469900Y4434000D02*
D03*
X1460500Y2438400D02*
D03*
X709500Y3454400D02*
D03*
X-420734Y-3692560D02*
D03*
X-975000Y-4965000D02*
D03*
X622300Y-4914900D02*
D03*
X-872500Y-4965000D02*
D03*
X-772500D02*
D03*
X-279400Y-4521200D02*
D03*
X230046Y3775406D02*
D03*
X-11254Y4092906D02*
D03*
X77646D02*
D03*
X-100154D02*
D03*
X95789Y-1164622D02*
D03*
X698500Y3060700D02*
D03*
X520700Y2908300D02*
D03*
X1270000Y2895600D02*
D03*
X927100Y2882900D02*
D03*
X1003300Y4229100D02*
D03*
X584200Y3721100D02*
D03*
X-203200Y4013200D02*
D03*
X-1689100Y2498725D02*
D03*
X-546100Y3302000D02*
D03*
X1257300Y2692400D02*
D03*
X838200Y3441700D02*
D03*
X393700Y2882900D02*
D03*
X1028700Y4889500D02*
D03*
X-1549400Y2552700D02*
D03*
X-1016000Y3505200D02*
D03*
X-292100Y2819400D02*
D03*
X-1485900Y2400300D02*
D03*
X677500Y2367500D02*
D03*
X-1218000Y1320800D02*
D03*
X-1181100Y1422400D02*
D03*
X-1092200Y2362200D02*
D03*
X1003300Y4559300D02*
D03*
X1070000Y1617500D02*
D03*
X2125000Y1570000D02*
D03*
Y1712500D02*
D03*
X1272500Y1802500D02*
D03*
X1177500Y1712500D02*
D03*
X-1993900Y1435100D02*
D03*
X-2019300Y1549400D02*
D03*
X-1435100Y1625600D02*
D03*
X-1524000D02*
D03*
X-1612900D02*
D03*
X-1435100Y1714500D02*
D03*
X-1828800Y1955800D02*
D03*
X337500Y2355000D02*
D03*
X240000Y2565000D02*
D03*
X237500Y2675000D02*
D03*
X242500Y2460000D02*
D03*
X497500Y2462500D02*
D03*
X2105000Y-817500D02*
D03*
X-3172500Y-1150000D02*
D03*
X-3175000Y-767500D02*
D03*
X-1625600Y2984500D02*
D03*
X-1498600D02*
D03*
X-1371600D02*
D03*
Y3111500D02*
D03*
X-1498600D02*
D03*
X-1625600D02*
D03*
X-1752600D02*
D03*
Y3238500D02*
D03*
X-1625600D02*
D03*
X-1498600D02*
D03*
X-1371600D02*
D03*
Y3365500D02*
D03*
X-1498600D02*
D03*
X-1625600D02*
D03*
X-1752600Y2984500D02*
D03*
Y3365500D02*
D03*
X-1612900Y1803400D02*
D03*
Y1714500D02*
D03*
X-1524000D02*
D03*
Y1803400D02*
D03*
X-1435100D02*
D03*
X-1498600Y1981200D02*
D03*
D86*
X31400Y-1705900D02*
D03*
X96400D02*
D03*
X161400D02*
D03*
X-33600D02*
D03*
Y-1265900D02*
D03*
X161400D02*
D03*
X31400D02*
D03*
X96400D02*
D03*
%TF.MD5,ceb6f31c2ff4defd09dc2fed937ca5d3*%
M02*
