%TF.GenerationSoftware,Altium Limited,Altium Designer,26.3.0 (6)*%
G04 Layer_Color=8388736*
%FSLAX45Y45*%
%MOMM*%
%TF.SameCoordinates,AC495875-709F-4CC1-A7F9-E779AF489CC5*%
%TF.FilePolarity,Negative*%
%TF.FileFunction,Soldermask,Top*%
%TF.Part,Single*%
G01*
G75*
%TA.AperFunction,SMDPad,CuDef*%
G04:AMPARAMS|DCode=12|XSize=0.23928mm|YSize=0.70606mm|CornerRadius=0.11964mm|HoleSize=0mm|Usage=FLASHONLY|Rotation=270.000|XOffset=0mm|YOffset=0mm|HoleType=Round|Shape=RoundedRectangle|*
%AMROUNDEDRECTD12*
21,1,0.23928,0.46678,0,0,270.0*
21,1,0.00000,0.70606,0,0,270.0*
1,1,0.23928,-0.23339,0.00000*
1,1,0.23928,-0.23339,0.00000*
1,1,0.23928,0.23339,0.00000*
1,1,0.23928,0.23339,0.00000*
%
%ADD12ROUNDEDRECTD12*%
%ADD13R,0.80000X1.05000*%
%ADD14R,1.20000X0.90000*%
%ADD15R,0.23928X0.70606*%
G04:AMPARAMS|DCode=16|XSize=0.70606mm|YSize=0.23928mm|CornerRadius=0.11964mm|HoleSize=0mm|Usage=FLASHONLY|Rotation=270.000|XOffset=0mm|YOffset=0mm|HoleType=Round|Shape=RoundedRectangle|*
%AMROUNDEDRECTD16*
21,1,0.70606,0.00000,0,0,270.0*
21,1,0.46678,0.23928,0,0,270.0*
1,1,0.23928,0.00000,-0.23339*
1,1,0.23928,0.00000,0.23339*
1,1,0.23928,0.00000,0.23339*
1,1,0.23928,0.00000,-0.23339*
%
%ADD16ROUNDEDRECTD16*%
%ADD17R,2.80000X2.80000*%
%ADD19R,0.30000X1.20000*%
%ADD20R,1.20000X0.30000*%
%ADD25R,0.95000X1.35000*%
%ADD26R,1.02000X3.56000*%
%ADD28R,1.40000X0.95000*%
%ADD30R,2.79000X1.90500*%
%ADD31R,1.36213X1.05814*%
%ADD33R,2.70000X1.20000*%
%ADD35R,0.90000X1.20000*%
%ADD37R,2.70000X1.00000*%
%ADD38R,1.35000X0.95000*%
%ADD42R,1.40574X1.50822*%
%ADD45R,1.30822X0.75872*%
%ADD47R,1.05524X1.36213*%
%ADD52R,2.70000X5.60000*%
%ADD53R,0.95000X1.70000*%
%ADD58R,0.95606X1.60981*%
%ADD59R,1.07950X1.32080*%
%ADD60R,1.25523X1.55620*%
%ADD61R,1.35464X1.46213*%
%ADD62R,1.35000X1.00000*%
%ADD63R,1.05814X1.36213*%
%ADD64R,1.50822X1.40574*%
%ADD65R,1.32080X1.07950*%
%ADD66R,0.95000X1.40000*%
%ADD67R,1.55620X1.25523*%
%TA.AperFunction,ComponentPad*%
%ADD74P,1.62635X4X90.0*%
%ADD75C,1.15000*%
%TA.AperFunction,ConnectorPad*%
%ADD93R,0.40000X1.24000*%
%ADD94R,0.70000X1.24000*%
%TA.AperFunction,SMDPad,CuDef*%
%ADD95R,1.15000X1.45000*%
%ADD96R,0.90000X1.60000*%
%ADD97R,1.10000X0.95000*%
%ADD98R,0.55000X1.57500*%
%ADD99R,0.75000X2.86000*%
%ADD100R,1.10000X1.45000*%
%ADD101R,1.45000X1.15000*%
%ADD102R,1.65000X1.60000*%
%ADD103R,0.95000X0.40000*%
%ADD104R,1.00000X1.10000*%
%ADD105R,1.65000X2.15000*%
%ADD106R,1.35000X0.70000*%
%ADD107R,1.80000X0.65000*%
%ADD108R,2.10000X1.90000*%
%ADD109R,0.90000X1.35000*%
%ADD110R,1.30000X1.55000*%
%ADD111R,4.00000X4.95000*%
%ADD112R,1.50000X2.00000*%
%ADD113R,1.40000X1.50000*%
%ADD114R,0.40000X0.95000*%
%ADD115R,2.73000X2.73000*%
%ADD116R,2.90000X1.30000*%
%ADD117R,1.00000X1.50000*%
%ADD118R,1.62500X0.80000*%
%TA.AperFunction,ComponentPad*%
%ADD119C,0.75000*%
%ADD120O,1.10000X2.20000*%
%ADD121O,1.10000X1.90000*%
%ADD122C,4.60000*%
%ADD123C,1.75000*%
%ADD124R,1.75000X1.75000*%
%ADD125C,1.30000*%
%ADD126P,1.83848X4X90.0*%
%ADD127P,1.83848X4X360.0*%
D12*
X179049Y4256806D02*
D03*
Y4306806D02*
D03*
Y4206806D02*
D03*
Y4156806D02*
D03*
X-201557Y4056806D02*
D03*
Y4106806D02*
D03*
Y4156806D02*
D03*
Y4206806D02*
D03*
Y4256806D02*
D03*
Y4306806D02*
D03*
X179049Y4056806D02*
D03*
Y4106806D02*
D03*
D13*
X278744Y4342722D02*
D03*
X463744D02*
D03*
X186446Y3838906D02*
D03*
X1446D02*
D03*
D14*
X-567500Y4730000D02*
D03*
X635000Y4947100D02*
D03*
X3360000Y1430000D02*
D03*
Y1640000D02*
D03*
X-1676400Y-3800700D02*
D03*
Y-3590700D02*
D03*
X635000Y4737100D02*
D03*
X-567500Y4940000D02*
D03*
X2201200Y-1364800D02*
D03*
X-3022600Y-1368200D02*
D03*
X2201200Y-1574800D02*
D03*
X-3022600Y-1578200D02*
D03*
D15*
X113746Y4372109D02*
D03*
D16*
X63746D02*
D03*
X-136254Y3991503D02*
D03*
X-86254D02*
D03*
X113746D02*
D03*
X63746D02*
D03*
X13746D02*
D03*
X-36254D02*
D03*
X-136254Y4372109D02*
D03*
X-86254D02*
D03*
X13746D02*
D03*
X-36254D02*
D03*
D17*
X-11254Y4181806D02*
D03*
D19*
X288900Y-2146300D02*
D03*
X238900D02*
D03*
X188900D02*
D03*
X138900D02*
D03*
X88900D02*
D03*
X238900Y-2996300D02*
D03*
X-211100Y-2146300D02*
D03*
X88900Y-2996300D02*
D03*
X38900D02*
D03*
X-161100Y-2146300D02*
D03*
X-111100D02*
D03*
X-61100D02*
D03*
X-11100D02*
D03*
X38900D02*
D03*
X138900Y-2996300D02*
D03*
X188900D02*
D03*
X-11100D02*
D03*
X-61100D02*
D03*
X-111100D02*
D03*
X-211100D02*
D03*
X-161100D02*
D03*
X338900D02*
D03*
Y-2146300D02*
D03*
X288900Y-2996300D02*
D03*
D20*
X-361100Y-2546300D02*
D03*
Y-2746300D02*
D03*
X488900D02*
D03*
Y-2396300D02*
D03*
X-361100Y-2296300D02*
D03*
Y-2396300D02*
D03*
Y-2346300D02*
D03*
Y-2496300D02*
D03*
Y-2446300D02*
D03*
X488900D02*
D03*
Y-2796300D02*
D03*
Y-2696300D02*
D03*
Y-2846300D02*
D03*
Y-2596300D02*
D03*
Y-2546300D02*
D03*
Y-2496300D02*
D03*
Y-2646300D02*
D03*
X-361100Y-2846300D02*
D03*
Y-2646300D02*
D03*
Y-2696300D02*
D03*
X488900Y-2296300D02*
D03*
Y-2346300D02*
D03*
X-361100Y-2596300D02*
D03*
Y-2796300D02*
D03*
D25*
X650095Y-2027883D02*
D03*
X800095D02*
D03*
X-469900Y4038600D02*
D03*
X-1917700Y1435100D02*
D03*
X-1767700D02*
D03*
X-319900Y4038600D02*
D03*
X-1348600Y2095500D02*
D03*
X-1498600D02*
D03*
X-1446600Y1346200D02*
D03*
X-1296600D02*
D03*
D26*
X1085900Y-1993900D02*
D03*
X1285900Y-2196900D02*
D03*
X1485900Y-1993900D02*
D03*
D28*
X-736600Y-2594400D02*
D03*
X-596900Y-2755900D02*
D03*
X-821187Y-2766483D02*
D03*
Y-2951483D02*
D03*
X-596900Y-2940900D02*
D03*
X-736600Y-2409400D02*
D03*
X-1168400Y1680000D02*
D03*
Y1495000D02*
D03*
X-1181100Y2013800D02*
D03*
Y1828800D02*
D03*
D30*
X-2489200Y-2767350D02*
D03*
Y-3252450D02*
D03*
D31*
X-1384300Y-2985701D02*
D03*
X3610000Y2227699D02*
D03*
Y2052301D02*
D03*
X-1384300Y-3161099D02*
D03*
D33*
X-2019300Y-2987500D02*
D03*
X-1676400D02*
D03*
X2967500Y2482500D02*
D03*
Y2222500D02*
D03*
X3305000Y2482500D02*
D03*
Y2222500D02*
D03*
X-2019300Y-2727500D02*
D03*
X-1676400D02*
D03*
D35*
X1390200Y-2311400D02*
D03*
X1600200D02*
D03*
X-1010000Y4765000D02*
D03*
X-800000D02*
D03*
X-1222600Y2197100D02*
D03*
X-1012600D02*
D03*
X2194400Y-812800D02*
D03*
X-3038700D02*
D03*
X2404400D02*
D03*
X-2828700D02*
D03*
D37*
X2600000Y1352500D02*
D03*
Y1652500D02*
D03*
X-2387600Y-3883800D02*
D03*
Y-3583800D02*
D03*
D38*
X3362500Y2025000D02*
D03*
Y1875000D02*
D03*
X-1638300Y-3188900D02*
D03*
Y-3338900D02*
D03*
D42*
X-370579Y3813506D02*
D03*
X185249Y3644900D02*
D03*
X-185330Y3813506D02*
D03*
X0Y3644900D02*
D03*
D45*
X1371600Y2393829D02*
D03*
Y2559171D02*
D03*
D47*
X-1012548Y4552500D02*
D03*
X-827452D02*
D03*
D52*
X530000Y3225800D02*
D03*
X0D02*
D03*
D53*
X381000Y3721100D02*
D03*
X661000D02*
D03*
D58*
X-755784Y1651000D02*
D03*
X-1016000D02*
D03*
X-755784Y1993900D02*
D03*
X-1016000D02*
D03*
D59*
X-2051050Y1651000D02*
D03*
X-1892300D02*
D03*
D60*
X-901700Y3556000D02*
D03*
X-696604D02*
D03*
D61*
X1121622Y4445000D02*
D03*
X1316778D02*
D03*
X1121622Y4673600D02*
D03*
X1316778D02*
D03*
D62*
X1371600Y2894000D02*
D03*
Y2694000D02*
D03*
D63*
X1092200Y3441700D02*
D03*
X916801D02*
D03*
D64*
X382446Y3953206D02*
D03*
Y4138455D02*
D03*
D65*
X-1689100Y2390775D02*
D03*
Y2232025D02*
D03*
D66*
X-1848700Y2057400D02*
D03*
X-1663700D02*
D03*
D67*
X-292100Y2920052D02*
D03*
Y3125148D02*
D03*
D74*
X1545198Y2632698D02*
D03*
D75*
X1724802Y2812302D02*
D03*
D93*
X2400Y4749800D02*
D03*
X52400D02*
D03*
X-97600D02*
D03*
X152400D02*
D03*
X202400D02*
D03*
X-147600D02*
D03*
X102400D02*
D03*
X-47600D02*
D03*
D94*
X347400D02*
D03*
X-292600D02*
D03*
X267400D02*
D03*
X-212600D02*
D03*
D95*
X652063Y-2243459D02*
D03*
X797063D02*
D03*
X431800Y-3035300D02*
D03*
X576800D02*
D03*
X-1349900Y2298700D02*
D03*
X-1494900D02*
D03*
D96*
X158700Y-4592800D02*
D03*
X-61300Y-4632800D02*
D03*
X-171300Y-4612800D02*
D03*
X-391300D02*
D03*
X48700D02*
D03*
X-281300Y-4632800D02*
D03*
X268700Y-4612800D02*
D03*
X-501300D02*
D03*
D97*
X-282300Y-3555300D02*
D03*
D98*
X2743200Y-1576500D02*
D03*
X-2812793Y-1571227D02*
D03*
X-2617793D02*
D03*
X-2682793D02*
D03*
X2678200Y-1576500D02*
D03*
X2483200D02*
D03*
X-2747793Y-1571227D02*
D03*
X-2487793D02*
D03*
X-2552793D02*
D03*
X2613200Y-1576500D02*
D03*
X2548200D02*
D03*
X2418200D02*
D03*
X2808200D02*
D03*
X2873200D02*
D03*
X2938200D02*
D03*
X2873200Y-988900D02*
D03*
X2938200D02*
D03*
X-2292793Y-983627D02*
D03*
X-2357793D02*
D03*
X-2292793Y-1571227D02*
D03*
X-2357793D02*
D03*
X-2422793D02*
D03*
X-2877793Y-983627D02*
D03*
X-2812793D02*
D03*
X-2747793D02*
D03*
X-2682793D02*
D03*
X-2617793D02*
D03*
X-2552793D02*
D03*
X-2487793D02*
D03*
X-2422793D02*
D03*
X-2877793Y-1571227D02*
D03*
X2353200Y-988900D02*
D03*
Y-1576500D02*
D03*
X2808200Y-988900D02*
D03*
X2743200D02*
D03*
X2678200D02*
D03*
X2613200D02*
D03*
X2548200D02*
D03*
X2483200D02*
D03*
X2418200D02*
D03*
D99*
X1752600Y-3048000D02*
D03*
X1498600Y-3452000D02*
D03*
Y-3048000D02*
D03*
X2006600D02*
D03*
X1625600D02*
D03*
X2006600Y-3452000D02*
D03*
X1752600D02*
D03*
X1625600D02*
D03*
X2133600Y-3048000D02*
D03*
Y-3452000D02*
D03*
X1371600Y-3048000D02*
D03*
Y-3452000D02*
D03*
X1879600D02*
D03*
Y-3048000D02*
D03*
D100*
X319700Y-3225800D02*
D03*
X317500Y-3403600D02*
D03*
X139700Y-3225800D02*
D03*
X137500Y-3403600D02*
D03*
D101*
X-533400Y-2603500D02*
D03*
X-393700Y-2937400D02*
D03*
X-749300Y-4575700D02*
D03*
X88900Y-2006600D02*
D03*
X-393700Y-3082400D02*
D03*
X-3015000Y-1125000D02*
D03*
X88900Y-1861600D02*
D03*
X2217500Y-1155000D02*
D03*
X-749300Y-4720700D02*
D03*
X-533400Y-2458500D02*
D03*
X-520700Y2953800D02*
D03*
Y3098800D02*
D03*
X2217500Y-1010000D02*
D03*
X-3015000Y-980000D02*
D03*
D102*
X-927100Y-4558200D02*
D03*
Y-4738200D02*
D03*
D103*
X-1719000Y1789500D02*
D03*
Y1739500D02*
D03*
X-1329000Y1839500D02*
D03*
Y1789500D02*
D03*
Y1739500D02*
D03*
Y1689500D02*
D03*
Y1639500D02*
D03*
Y1589500D02*
D03*
X-1719000D02*
D03*
Y1639500D02*
D03*
Y1689500D02*
D03*
Y1839500D02*
D03*
D104*
X2812500Y-2705000D02*
D03*
X2402500D02*
D03*
X2812500Y-2545000D02*
D03*
X2402500D02*
D03*
D105*
X2507500Y1945000D02*
D03*
Y2455000D02*
D03*
D106*
X2900000Y1845000D02*
D03*
Y1750000D02*
D03*
Y1655000D02*
D03*
X3150000D02*
D03*
Y1750000D02*
D03*
Y1845000D02*
D03*
X-2106200Y-3397500D02*
D03*
Y-3492500D02*
D03*
Y-3587500D02*
D03*
X-1856200D02*
D03*
Y-3492500D02*
D03*
Y-3397500D02*
D03*
X433800Y2610100D02*
D03*
Y2705100D02*
D03*
X683800D02*
D03*
Y2610100D02*
D03*
X433800Y2800100D02*
D03*
X683800D02*
D03*
D107*
X2607500Y-2482500D02*
D03*
D108*
X2048100Y3441700D02*
D03*
X1308100D02*
D03*
D109*
X-1010000Y4350000D02*
D03*
X-850000D02*
D03*
D110*
X-1032500Y4172500D02*
D03*
X-832500D02*
D03*
D111*
X-1797500Y965000D02*
D03*
X-1377500D02*
D03*
D112*
X-581300Y-4900800D02*
D03*
X733700Y-4997800D02*
D03*
D113*
X-421300Y-3582800D02*
D03*
X148700D02*
D03*
D114*
X-1599000Y1519500D02*
D03*
X-1399000D02*
D03*
X-1449000D02*
D03*
X-1499000D02*
D03*
X-1549000D02*
D03*
X-1649000D02*
D03*
Y1909500D02*
D03*
X-1599000D02*
D03*
X-1549000D02*
D03*
X-1499000D02*
D03*
X-1449000D02*
D03*
X-1399000D02*
D03*
D115*
X-1524000Y1714500D02*
D03*
D116*
X673100Y4196300D02*
D03*
Y3906300D02*
D03*
D117*
X1124200Y4229100D02*
D03*
X1314200D02*
D03*
X1124200Y4889500D02*
D03*
X1314200D02*
D03*
D118*
X-694000Y3238500D02*
D03*
Y2984500D02*
D03*
Y3111500D02*
D03*
Y3365500D02*
D03*
X-1236400D02*
D03*
Y3238500D02*
D03*
Y3111500D02*
D03*
Y2984500D02*
D03*
D119*
X-261600Y4856800D02*
D03*
X316400D02*
D03*
D120*
X459400Y4806800D02*
D03*
X-404600D02*
D03*
D121*
X459400Y5224800D02*
D03*
X-404600D02*
D03*
D122*
X-3062500Y3485000D02*
D03*
X-3137500Y-3590000D02*
D03*
X3150000Y-3587500D02*
D03*
X-4982500Y-62500D02*
D03*
X3105000Y3495000D02*
D03*
X5042500Y-42500D02*
D03*
D123*
X4013200Y-38100D02*
D03*
X-1506800D02*
D03*
X-2906800D02*
D03*
X-2556800D02*
D03*
X-2206800D02*
D03*
X-3606800D02*
D03*
X-1856800D02*
D03*
X-3256800D02*
D03*
X3663200D02*
D03*
X3313200D02*
D03*
X2963200D02*
D03*
X2613200D02*
D03*
X2263200D02*
D03*
X1913200D02*
D03*
D124*
X-3956800D02*
D03*
X1563200D02*
D03*
D125*
X-787400Y914400D02*
D03*
X836479Y-992321D02*
D03*
X977900Y774700D02*
D03*
X-928821Y-849179D02*
D03*
D126*
Y772979D02*
D03*
X977900Y-850900D02*
D03*
D127*
X836479Y916121D02*
D03*
X-787400Y-990600D02*
D03*
%TF.MD5,696ef9d959ea5b71b8f9745cea4cf29e*%
M02*
