%TF.GenerationSoftware,Altium Limited,Altium Designer,26.3.0 (6)*%
G04 Layer_Color=8421504*
%FSLAX45Y45*%
%MOMM*%
%TF.SameCoordinates,73886CEE-9EAD-4E58-9AAB-BE34D080F3A0*%
%TF.FilePolarity,Positive*%
%TF.FileFunction,Paste,Top*%
%TF.Part,Single*%
G01*
G75*
%TA.AperFunction,SMDPad,CuDef*%
%ADD10R,0.90000X0.80000*%
%ADD11R,0.90000X1.00000*%
%ADD12R,1.70000X0.55000*%
%ADD13R,2.70000X1.20000*%
%ADD14R,1.36213X1.05814*%
%ADD15R,1.35000X0.95000*%
%ADD16R,1.20000X0.90000*%
%ADD17R,2.70000X1.00000*%
%ADD18R,2.79000X1.90500*%
%ADD19R,1.25000X0.60000*%
%ADD20R,1.30981X0.90606*%
%ADD21R,1.10000X0.95000*%
%ADD22R,1.20000X1.20000*%
%ADD23R,3.56000X1.02000*%
%ADD24R,0.65000X2.76000*%
%ADD25O,2.10000X0.30000*%
%ADD26O,0.30000X2.10000*%
%ADD27R,0.80000X0.90000*%
%ADD28R,0.90606X1.30981*%
%ADD29R,1.55000X2.05000*%
%ADD30R,1.20000X1.20000*%
D10*
X14320520Y6998900D02*
D03*
Y7148900D02*
D03*
X14516100Y6971100D02*
D03*
X16103600Y7252900D02*
D03*
X16319501D02*
D03*
X14516100Y6821100D02*
D03*
X16103600Y7402900D02*
D03*
X16319501D02*
D03*
D11*
X14169920Y6343640D02*
D03*
Y6183640D02*
D03*
X13759920D02*
D03*
Y6343640D02*
D03*
D12*
X13964920Y6406140D02*
D03*
D13*
X12240260Y8150400D02*
D03*
Y8410400D02*
D03*
X12585700Y8147860D02*
D03*
Y8407860D02*
D03*
X12209780Y6136180D02*
D03*
X12542520D02*
D03*
X12209780Y6396180D02*
D03*
X12542520D02*
D03*
D14*
X11945620Y8408601D02*
D03*
Y8583999D02*
D03*
X11927840Y6396921D02*
D03*
Y6572319D02*
D03*
D15*
X12181840Y8576240D02*
D03*
Y8726240D02*
D03*
X12174220Y6593840D02*
D03*
Y6743840D02*
D03*
D16*
X12194540Y9188040D02*
D03*
Y8978040D02*
D03*
X12184380Y7178900D02*
D03*
Y6968900D02*
D03*
D17*
X12956540Y8996540D02*
D03*
Y9296540D02*
D03*
X12933681Y6974700D02*
D03*
Y7274700D02*
D03*
D18*
X13053059Y8665190D02*
D03*
Y8180090D02*
D03*
D19*
X12414440Y8790940D02*
D03*
Y8885940D02*
D03*
X12664440Y8980940D02*
D03*
Y8885940D02*
D03*
Y8790940D02*
D03*
X12414440Y8980940D02*
D03*
X12389580Y6870700D02*
D03*
X12639580Y6965700D02*
D03*
Y6775700D02*
D03*
Y6870700D02*
D03*
X12389580Y6965700D02*
D03*
Y6775700D02*
D03*
D20*
X15443201Y7913508D02*
D03*
Y7758292D02*
D03*
D21*
X14744701Y6968600D02*
D03*
Y6823600D02*
D03*
D22*
X15272160Y5778500D02*
D03*
X15482159D02*
D03*
D23*
X16408600Y8480400D02*
D03*
Y8080400D02*
D03*
X16611600Y8280400D02*
D03*
D24*
X15481300Y9230500D02*
D03*
X15354300D02*
D03*
X15100301D02*
D03*
X15608299D02*
D03*
X15227299Y8826500D02*
D03*
Y9230500D02*
D03*
X15735300D02*
D03*
Y8826500D02*
D03*
X15608299D02*
D03*
X15481300D02*
D03*
X15354300D02*
D03*
X14973300Y9230500D02*
D03*
X15100301Y8826500D02*
D03*
X14973300D02*
D03*
D25*
X15019020Y6939000D02*
D03*
X15839020Y7239000D02*
D03*
X15019020Y6889000D02*
D03*
Y7289000D02*
D03*
X15839020D02*
D03*
X15019020Y6739000D02*
D03*
X15839020Y7189000D02*
D03*
Y7139000D02*
D03*
Y7089000D02*
D03*
Y7039000D02*
D03*
Y6989000D02*
D03*
Y6939000D02*
D03*
Y6889000D02*
D03*
Y6839000D02*
D03*
Y6789000D02*
D03*
Y6739000D02*
D03*
X15019020Y6789000D02*
D03*
Y6839000D02*
D03*
Y6989000D02*
D03*
Y7039000D02*
D03*
Y7089000D02*
D03*
Y7139000D02*
D03*
Y7189000D02*
D03*
Y7239000D02*
D03*
D26*
X15654021Y6604000D02*
D03*
X15204021Y7424000D02*
D03*
X15154021D02*
D03*
X15704021Y6604000D02*
D03*
X15254021Y7424000D02*
D03*
X15304021D02*
D03*
X15354021D02*
D03*
X15404021D02*
D03*
X15454021D02*
D03*
X15504021D02*
D03*
X15554021D02*
D03*
X15604021D02*
D03*
X15654021D02*
D03*
X15704021D02*
D03*
X15604021Y6604000D02*
D03*
X15554021D02*
D03*
X15504021D02*
D03*
X15454021D02*
D03*
X15404021D02*
D03*
X15354021D02*
D03*
X15304021D02*
D03*
X15254021D02*
D03*
X15204021D02*
D03*
X15154021D02*
D03*
D27*
X15636240Y6245860D02*
D03*
X15200700Y7683500D02*
D03*
X15201900Y7899400D02*
D03*
X15050700Y7683500D02*
D03*
X15051900Y7899400D02*
D03*
X15786240Y6245860D02*
D03*
D28*
X15816856Y5775960D02*
D03*
X15817989Y6037580D02*
D03*
X15661639Y5775960D02*
D03*
X15662772Y6037580D02*
D03*
D29*
X13047980Y6209300D02*
D03*
Y6719300D02*
D03*
D30*
X15477080Y6032500D02*
D03*
X15267081D02*
D03*
%TF.MD5,0564bd9ba1506380d5228a06e7dabcc4*%
M02*
