%TF.GenerationSoftware,Altium Limited,Altium Designer,26.3.0 (6)*%
G04 Layer_Color=0*
%FSLAX45Y45*%
%MOMM*%
%TF.SameCoordinates,73886CEE-9EAD-4E58-9AAB-BE34D080F3A0*%
%TF.FilePolarity,Positive*%
%TF.FileFunction,Plated,1,4,PTH,Drill*%
%TF.Part,Single*%
G01*
G75*
%TA.AperFunction,ComponentDrill*%
%ADD65C,1.10000*%
%ADD66C,1.30000*%
%ADD67C,3.20000*%
%TA.AperFunction,ViaDrill,NotFilled*%
%ADD68C,0.30000*%
%ADD69C,0.45000*%
D65*
X17449800Y6096000D02*
D03*
Y7378700D02*
D03*
Y8915400D02*
D03*
Y7886700D02*
D03*
Y9169400D02*
D03*
Y8661400D02*
D03*
Y7632700D02*
D03*
Y6350000D02*
D03*
Y6604000D02*
D03*
D66*
X11963400Y10129900D02*
D03*
X17233900Y10121900D02*
D03*
Y10621900D02*
D03*
X11963400Y10629900D02*
D03*
D67*
X11823700Y11417300D02*
D03*
X17386301Y5549900D02*
D03*
X11836400Y5537200D02*
D03*
X17386301Y11417300D02*
D03*
D68*
X15118080Y5773420D02*
D03*
X15097760Y9413240D02*
D03*
X15481300Y9418320D02*
D03*
X15349220Y9425940D02*
D03*
X16276320Y9192260D02*
D03*
X16484599Y8669020D02*
D03*
X14010640Y5958840D02*
D03*
X13878560Y5956300D02*
D03*
X13754100Y5958840D02*
D03*
X12636500Y7995920D02*
D03*
X12512040D02*
D03*
X12392660Y7993380D02*
D03*
X12263120D02*
D03*
X12148820D02*
D03*
X13253720Y7995920D02*
D03*
X13121640Y7998460D02*
D03*
X12999719D02*
D03*
X12895580D02*
D03*
X12791440D02*
D03*
X11991340Y8001000D02*
D03*
X11884660D02*
D03*
X14696440Y7216140D02*
D03*
X15100301Y8602980D02*
D03*
X13307060Y8915400D02*
D03*
X12621260Y8676640D02*
D03*
X12705080D02*
D03*
X12956540Y9438640D02*
D03*
X12232640Y9311640D02*
D03*
X13301981Y8999220D02*
D03*
X13200380D02*
D03*
X13045441Y9438640D02*
D03*
X12156440Y9311640D02*
D03*
X12867641Y9438640D02*
D03*
X13200380Y8915400D02*
D03*
X13360400Y6908800D02*
D03*
X13238480Y6911340D02*
D03*
X13241020Y7015480D02*
D03*
X13355321D02*
D03*
X12793980Y7406640D02*
D03*
X12593320D02*
D03*
X12166600Y7404100D02*
D03*
X11960860Y7401560D02*
D03*
X12679680Y6664960D02*
D03*
X12598400D02*
D03*
X12372340Y5979160D02*
D03*
X12644120D02*
D03*
X12509500D02*
D03*
X12242800D02*
D03*
X12128500Y5981700D02*
D03*
X17208501Y8915400D02*
D03*
X16891000Y8877300D02*
D03*
Y8953500D02*
D03*
X17233900Y7378700D02*
D03*
X16916400Y7340600D02*
D03*
Y7416800D02*
D03*
X17081500Y6096000D02*
D03*
X16992599D02*
D03*
X17208501D02*
D03*
X16916400Y6057900D02*
D03*
Y6134100D02*
D03*
X15552420Y6342380D02*
D03*
X13134340Y7406640D02*
D03*
X13294360D02*
D03*
X12961620D02*
D03*
X12390120D02*
D03*
X15351759Y8036560D02*
D03*
X15478760Y8039100D02*
D03*
X15554961Y6248400D02*
D03*
X14257021Y6830060D02*
D03*
X14358620D02*
D03*
X14361160Y6715760D02*
D03*
X14257021D02*
D03*
X15209520Y8036560D02*
D03*
X16347440Y7170420D02*
D03*
X16217900D02*
D03*
X16095979D02*
D03*
X16659860Y8669020D02*
D03*
X16697960Y7874000D02*
D03*
X16553180D02*
D03*
X16405859Y7871460D02*
D03*
X16245840D02*
D03*
X14500861Y6703060D02*
D03*
X15951199Y5869940D02*
D03*
X15946120Y6017260D02*
D03*
X15608299Y9550400D02*
D03*
X15946120Y6159500D02*
D03*
X16860519Y7871460D02*
D03*
X17226280Y7879080D02*
D03*
X17007840Y7871460D02*
D03*
X14922501Y7363460D02*
D03*
Y7510780D02*
D03*
Y7978140D02*
D03*
Y7835900D02*
D03*
X15941040Y6652260D02*
D03*
Y6489700D02*
D03*
X15943581Y6311900D02*
D03*
X14605000Y6705600D02*
D03*
X14927580Y7670800D02*
D03*
X14693900Y6705600D02*
D03*
X16334740Y7485380D02*
D03*
X16215359D02*
D03*
X16095979D02*
D03*
X15971519Y7482840D02*
D03*
X15859760Y7480300D02*
D03*
X14831059Y6403340D02*
D03*
X17221201Y7620000D02*
D03*
X15882620Y7581900D02*
D03*
X15259982Y6408082D02*
D03*
X16080740Y7063740D02*
D03*
X15430499Y7627620D02*
D03*
X14744701Y6405880D02*
D03*
X17208501Y6400800D02*
D03*
X16103600Y8280400D02*
D03*
D69*
X12255500Y10210800D02*
D03*
X12242800Y9982200D02*
D03*
X12458700Y9779000D02*
D03*
X11760200Y10185400D02*
D03*
X11836400Y9779000D02*
D03*
X12242800D02*
D03*
X12039600D02*
D03*
X12458700Y9982200D02*
D03*
X12661900Y10210800D02*
D03*
Y9982200D02*
D03*
Y9779000D02*
D03*
X13360400Y10210800D02*
D03*
Y10007600D02*
D03*
Y9779000D02*
D03*
X14439900Y10210800D02*
D03*
Y9994900D02*
D03*
Y9766300D02*
D03*
X15582899Y9994900D02*
D03*
X15595599Y9766300D02*
D03*
X16548100Y10210800D02*
D03*
Y9994900D02*
D03*
Y9779000D02*
D03*
X16789400Y10210800D02*
D03*
Y10007600D02*
D03*
Y9779000D02*
D03*
X17030701Y10210800D02*
D03*
Y10007600D02*
D03*
Y9779000D02*
D03*
X17335500Y9791700D02*
D03*
X15582899Y10210800D02*
D03*
X11836400Y9969500D02*
D03*
X12039600D02*
D03*
X12458700Y10210800D02*
D03*
X17310100Y10972800D02*
D03*
X17030701Y10782300D02*
D03*
Y10985500D02*
D03*
X17310100Y10782300D02*
D03*
X16814799Y10985500D02*
D03*
X16548100Y10807700D02*
D03*
X16814799Y10769600D02*
D03*
X16548100Y10591800D02*
D03*
X17030701D02*
D03*
X16814799D02*
D03*
X16548100Y10985500D02*
D03*
X15570200Y10807700D02*
D03*
Y10985500D02*
D03*
Y10591800D02*
D03*
X14427200Y10985500D02*
D03*
Y10807700D02*
D03*
X13347701Y10795000D02*
D03*
X14427200Y10591800D02*
D03*
X13347701D02*
D03*
Y10972800D02*
D03*
X12661900D02*
D03*
Y10591800D02*
D03*
Y10795000D02*
D03*
X12242800Y10972800D02*
D03*
Y10795000D02*
D03*
X12026900D02*
D03*
X12458700D02*
D03*
X12242800Y10591800D02*
D03*
X12026900Y10972800D02*
D03*
X11785600D02*
D03*
X11798300Y10795000D02*
D03*
X12471400Y10591800D02*
D03*
%TF.MD5,0c29c0308ee6335039855d4aa9e79a01*%
M02*
