%TF.GenerationSoftware,Altium Limited,Altium Designer,26.3.0 (6)*%
G04 Layer_Physical_Order=3*
G04 Layer_Color=16440176*
%FSLAX45Y45*%
%MOMM*%
%TF.SameCoordinates,73886CEE-9EAD-4E58-9AAB-BE34D080F3A0*%
%TF.FilePolarity,Positive*%
%TF.FileFunction,Copper,L3,Inr,Signal*%
%TF.Part,Single*%
G01*
G75*
%TA.AperFunction,ComponentPad*%
%ADD33C,1.95000*%
%ADD34R,1.95000X1.95000*%
%ADD35C,4.50000*%
%ADD36R,1.65000X1.65000*%
%ADD37C,1.65000*%
%ADD38C,0.55000*%
%TA.AperFunction,ViaPad*%
%ADD39C,0.60000*%
%ADD40C,0.80000*%
G36*
X16306799Y9247285D02*
X16294299Y9238932D01*
X16286266Y9242260D01*
X16266374D01*
X16247997Y9234648D01*
X16233932Y9220583D01*
X16226320Y9202206D01*
Y9182314D01*
X16233932Y9163937D01*
X16247997Y9149872D01*
X16266374Y9142260D01*
X16286266D01*
X16294299Y9145588D01*
X16306799Y9137235D01*
Y8293100D01*
X16294099Y8280400D01*
X16306799Y8267700D01*
X17627600D01*
Y5816600D01*
X17614900Y5803900D01*
X15158311D01*
X15146404Y5815808D01*
X15128026Y5823420D01*
X15108134D01*
X15089757Y5815808D01*
X15077849Y5803900D01*
X11582400D01*
Y9474200D01*
X12816158D01*
X12823071Y9461700D01*
X12817641Y9448586D01*
Y9428694D01*
X12825252Y9410317D01*
X12839317Y9396252D01*
X12857693Y9388640D01*
X12877586D01*
X12895963Y9396252D01*
X12903925Y9404213D01*
X12912090Y9409086D01*
X12920256Y9404213D01*
X12928217Y9396252D01*
X12946594Y9388640D01*
X12966486D01*
X12984863Y9396252D01*
X12992824Y9404213D01*
X13000990Y9409086D01*
X13009155Y9404213D01*
X13017117Y9396252D01*
X13035493Y9388640D01*
X13055386D01*
X13073763Y9396252D01*
X13087828Y9410317D01*
X13095441Y9428694D01*
Y9448586D01*
X13090009Y9461700D01*
X13096922Y9474200D01*
X13957300D01*
X14160500Y9677400D01*
X16306799D01*
Y9247285D01*
D02*
G37*
%LPC*%
G36*
X15359166Y9475940D02*
X15339275D01*
X15320897Y9468328D01*
X15306831Y9454263D01*
X15299220Y9435886D01*
Y9415994D01*
X15306831Y9397617D01*
X15320897Y9383552D01*
X15339275Y9375940D01*
X15359166D01*
X15377544Y9383552D01*
X15391608Y9397617D01*
X15399220Y9415994D01*
Y9435886D01*
X15391608Y9454263D01*
X15377544Y9468328D01*
X15359166Y9475940D01*
D02*
G37*
G36*
X15491246Y9468320D02*
X15471355D01*
X15452977Y9460708D01*
X15438911Y9446643D01*
X15431300Y9428266D01*
Y9408374D01*
X15438911Y9389997D01*
X15452977Y9375932D01*
X15471355Y9368320D01*
X15491246D01*
X15509624Y9375932D01*
X15523688Y9389997D01*
X15531300Y9408374D01*
Y9428266D01*
X15523688Y9446643D01*
X15509624Y9460708D01*
X15491246Y9468320D01*
D02*
G37*
G36*
X15107706Y9463240D02*
X15087814D01*
X15069437Y9455628D01*
X15055373Y9441563D01*
X15047760Y9423186D01*
Y9403294D01*
X15055373Y9384917D01*
X15069437Y9370852D01*
X15087814Y9363240D01*
X15107706D01*
X15126083Y9370852D01*
X15140147Y9384917D01*
X15147760Y9403294D01*
Y9423186D01*
X15140147Y9441563D01*
X15126083Y9455628D01*
X15107706Y9463240D01*
D02*
G37*
G36*
X12242586Y9361640D02*
X12222694D01*
X12204317Y9354028D01*
X12194540Y9344251D01*
X12184763Y9354028D01*
X12166386Y9361640D01*
X12146494D01*
X12128117Y9354028D01*
X12114052Y9339963D01*
X12106440Y9321586D01*
Y9301694D01*
X12114052Y9283317D01*
X12128117Y9269252D01*
X12146494Y9261640D01*
X12166386D01*
X12184763Y9269252D01*
X12194540Y9279029D01*
X12204317Y9269252D01*
X12222694Y9261640D01*
X12242586D01*
X12260963Y9269252D01*
X12275028Y9283317D01*
X12282640Y9301694D01*
Y9321586D01*
X12275028Y9339963D01*
X12260963Y9354028D01*
X12242586Y9361640D01*
D02*
G37*
G36*
X13311926Y9049220D02*
X13292033D01*
X13273657Y9041608D01*
X13259592Y9027543D01*
X13257945Y9023567D01*
X13244415D01*
X13242767Y9027543D01*
X13228703Y9041608D01*
X13210326Y9049220D01*
X13190434D01*
X13172057Y9041608D01*
X13157993Y9027543D01*
X13150380Y9009166D01*
Y8989274D01*
X13157993Y8970897D01*
X13171579Y8957310D01*
X13157993Y8943723D01*
X13150380Y8925346D01*
Y8905454D01*
X13157993Y8887077D01*
X13172057Y8873012D01*
X13190434Y8865400D01*
X13210326D01*
X13228703Y8873012D01*
X13242767Y8887077D01*
X13246954Y8897186D01*
X13260484D01*
X13264671Y8887077D01*
X13278737Y8873012D01*
X13297115Y8865400D01*
X13317006D01*
X13335384Y8873012D01*
X13349448Y8887077D01*
X13357060Y8905454D01*
Y8925346D01*
X13349448Y8943723D01*
X13335384Y8957788D01*
X13334698Y8961228D01*
X13344368Y8970897D01*
X13351981Y8989274D01*
Y9009166D01*
X13344368Y9027543D01*
X13330302Y9041608D01*
X13311926Y9049220D01*
D02*
G37*
G36*
X12715026Y8726640D02*
X12695134D01*
X12676757Y8719028D01*
X12663170Y8705441D01*
X12649583Y8719028D01*
X12631206Y8726640D01*
X12611314D01*
X12592937Y8719028D01*
X12578872Y8704963D01*
X12571260Y8686586D01*
Y8666694D01*
X12578872Y8648317D01*
X12592937Y8634252D01*
X12611314Y8626640D01*
X12631206D01*
X12649583Y8634252D01*
X12663170Y8647839D01*
X12676757Y8634252D01*
X12695134Y8626640D01*
X12715026D01*
X12733403Y8634252D01*
X12747468Y8648317D01*
X12755080Y8666694D01*
Y8686586D01*
X12747468Y8704963D01*
X12733403Y8719028D01*
X12715026Y8726640D01*
D02*
G37*
G36*
X15110246Y8652980D02*
X15090353D01*
X15071977Y8645368D01*
X15057912Y8631303D01*
X15050301Y8612926D01*
Y8593034D01*
X15057912Y8574657D01*
X15071977Y8560592D01*
X15090353Y8552980D01*
X15110246D01*
X15128622Y8560592D01*
X15142688Y8574657D01*
X15150301Y8593034D01*
Y8612926D01*
X15142688Y8631303D01*
X15128622Y8645368D01*
X15110246Y8652980D01*
D02*
G37*
G36*
X16113547Y8330400D02*
X16093654D01*
X16075278Y8322788D01*
X16061212Y8308723D01*
X16053600Y8290346D01*
Y8270454D01*
X16061212Y8252077D01*
X16075278Y8238012D01*
X16093654Y8230400D01*
X16113547D01*
X16131923Y8238012D01*
X16145988Y8252077D01*
X16153600Y8270454D01*
Y8290346D01*
X16145988Y8308723D01*
X16131923Y8322788D01*
X16113547Y8330400D01*
D02*
G37*
G36*
X15488705Y8089100D02*
X15468814D01*
X15450436Y8081488D01*
X15436372Y8067423D01*
X15428760Y8049046D01*
Y8029154D01*
X15436372Y8010777D01*
X15450436Y7996712D01*
X15468814Y7989100D01*
X15488705D01*
X15507083Y7996712D01*
X15521149Y8010777D01*
X15528760Y8029154D01*
Y8049046D01*
X15521149Y8067423D01*
X15507083Y8081488D01*
X15488705Y8089100D01*
D02*
G37*
G36*
X15361707Y8086560D02*
X15341814D01*
X15323438Y8078948D01*
X15309372Y8064883D01*
X15301759Y8046506D01*
Y8026614D01*
X15309372Y8008237D01*
X15323438Y7994172D01*
X15341814Y7986560D01*
X15361707D01*
X15380083Y7994172D01*
X15394148Y8008237D01*
X15401759Y8026614D01*
Y8046506D01*
X15394148Y8064883D01*
X15380083Y8078948D01*
X15361707Y8086560D01*
D02*
G37*
G36*
X15219466D02*
X15199574D01*
X15181197Y8078948D01*
X15167133Y8064883D01*
X15159520Y8046506D01*
Y8026614D01*
X15167133Y8008237D01*
X15181197Y7994172D01*
X15199574Y7986560D01*
X15219466D01*
X15237843Y7994172D01*
X15251907Y8008237D01*
X15259520Y8026614D01*
Y8046506D01*
X15251907Y8064883D01*
X15237843Y8078948D01*
X15219466Y8086560D01*
D02*
G37*
G36*
X12646446Y8045920D02*
X12626554D01*
X12608177Y8038308D01*
X12594112Y8024243D01*
X12586500Y8005866D01*
Y7985974D01*
X12594112Y7967597D01*
X12608177Y7953532D01*
X12626554Y7945920D01*
X12646446D01*
X12664823Y7953532D01*
X12678888Y7967597D01*
X12686500Y7985974D01*
Y8005866D01*
X12678888Y8024243D01*
X12664823Y8038308D01*
X12646446Y8045920D01*
D02*
G37*
G36*
X12521986D02*
X12502094D01*
X12483717Y8038308D01*
X12469652Y8024243D01*
X12462040Y8005866D01*
Y7985974D01*
X12469652Y7967597D01*
X12483717Y7953532D01*
X12502094Y7945920D01*
X12521986D01*
X12540363Y7953532D01*
X12554428Y7967597D01*
X12562040Y7985974D01*
Y8005866D01*
X12554428Y8024243D01*
X12540363Y8038308D01*
X12521986Y8045920D01*
D02*
G37*
G36*
X12402606Y8043380D02*
X12382714D01*
X12364337Y8035768D01*
X12350272Y8021703D01*
X12342660Y8003326D01*
Y7983434D01*
X12350272Y7965057D01*
X12364337Y7950992D01*
X12382714Y7943380D01*
X12402606D01*
X12420983Y7950992D01*
X12435048Y7965057D01*
X12442660Y7983434D01*
Y8003326D01*
X12435048Y8021703D01*
X12420983Y8035768D01*
X12402606Y8043380D01*
D02*
G37*
G36*
X12273066D02*
X12253174D01*
X12234797Y8035768D01*
X12220732Y8021703D01*
X12213120Y8003326D01*
Y7983434D01*
X12220732Y7965057D01*
X12234797Y7950992D01*
X12253174Y7943380D01*
X12273066D01*
X12291443Y7950992D01*
X12305508Y7965057D01*
X12313120Y7983434D01*
Y8003326D01*
X12305508Y8021703D01*
X12291443Y8035768D01*
X12273066Y8043380D01*
D02*
G37*
G36*
X12158766D02*
X12138874D01*
X12120497Y8035768D01*
X12106432Y8021703D01*
X12098820Y8003326D01*
Y7983434D01*
X12106432Y7965057D01*
X12120497Y7950992D01*
X12138874Y7943380D01*
X12158766D01*
X12177143Y7950992D01*
X12191208Y7965057D01*
X12198820Y7983434D01*
Y8003326D01*
X12191208Y8021703D01*
X12177143Y8035768D01*
X12158766Y8043380D01*
D02*
G37*
G36*
X15440446Y7677620D02*
X15420554D01*
X15402177Y7670008D01*
X15388112Y7655943D01*
X15380499Y7637566D01*
Y7617674D01*
X15388112Y7599297D01*
X15402177Y7585232D01*
X15420554Y7577620D01*
X15440446D01*
X15458823Y7585232D01*
X15472888Y7599297D01*
X15480499Y7617674D01*
Y7637566D01*
X15472888Y7655943D01*
X15458823Y7670008D01*
X15440446Y7677620D01*
D02*
G37*
G36*
X17231146Y7670000D02*
X17211253D01*
X17192877Y7662388D01*
X17178812Y7648323D01*
X17171201Y7629946D01*
Y7610054D01*
X17178812Y7591677D01*
X17192877Y7577612D01*
X17211253Y7570000D01*
X17231146D01*
X17249522Y7577612D01*
X17263588Y7591677D01*
X17271201Y7610054D01*
Y7629946D01*
X17263588Y7648323D01*
X17249522Y7662388D01*
X17231146Y7670000D01*
D02*
G37*
G36*
X17462308Y7727700D02*
X17437292D01*
X17413132Y7721226D01*
X17391469Y7708719D01*
X17373781Y7691031D01*
X17361275Y7669369D01*
X17354800Y7645207D01*
Y7620193D01*
X17361275Y7596031D01*
X17373781Y7574369D01*
X17391469Y7556681D01*
X17413132Y7544174D01*
X17437292Y7537700D01*
X17462308D01*
X17486469Y7544174D01*
X17508131Y7556681D01*
X17525819Y7574369D01*
X17538326Y7596031D01*
X17544800Y7620193D01*
Y7645207D01*
X17538326Y7669369D01*
X17525819Y7691031D01*
X17508131Y7708719D01*
X17486469Y7721226D01*
X17462308Y7727700D01*
D02*
G37*
G36*
X15892566Y7631900D02*
X15872675D01*
X15854297Y7624288D01*
X15840231Y7610223D01*
X15832620Y7591846D01*
Y7571954D01*
X15840231Y7553577D01*
X15854297Y7539512D01*
X15872675Y7531900D01*
X15892566D01*
X15910944Y7539512D01*
X15925008Y7553577D01*
X15932620Y7571954D01*
Y7591846D01*
X15925008Y7610223D01*
X15910944Y7624288D01*
X15892566Y7631900D01*
D02*
G37*
G36*
X13304306Y7456640D02*
X13284415D01*
X13266037Y7449028D01*
X13251971Y7434963D01*
X13244360Y7416586D01*
Y7396694D01*
X13251971Y7378317D01*
X13266037Y7364252D01*
X13284415Y7356640D01*
X13304306D01*
X13322684Y7364252D01*
X13336748Y7378317D01*
X13344360Y7396694D01*
Y7416586D01*
X13336748Y7434963D01*
X13322684Y7449028D01*
X13304306Y7456640D01*
D02*
G37*
G36*
X13144286D02*
X13124394D01*
X13106017Y7449028D01*
X13091953Y7434963D01*
X13084340Y7416586D01*
Y7396694D01*
X13091953Y7378317D01*
X13106017Y7364252D01*
X13124394Y7356640D01*
X13144286D01*
X13162663Y7364252D01*
X13176727Y7378317D01*
X13184340Y7396694D01*
Y7416586D01*
X13176727Y7434963D01*
X13162663Y7449028D01*
X13144286Y7456640D01*
D02*
G37*
G36*
X12971565D02*
X12951674D01*
X12933298Y7449028D01*
X12919232Y7434963D01*
X12911620Y7416586D01*
Y7396694D01*
X12919232Y7378317D01*
X12933298Y7364252D01*
X12951674Y7356640D01*
X12971565D01*
X12989943Y7364252D01*
X13004008Y7378317D01*
X13011620Y7396694D01*
Y7416586D01*
X13004008Y7434963D01*
X12989943Y7449028D01*
X12971565Y7456640D01*
D02*
G37*
G36*
X12803926D02*
X12784034D01*
X12765657Y7449028D01*
X12751592Y7434963D01*
X12743980Y7416586D01*
Y7396694D01*
X12751592Y7378317D01*
X12765657Y7364252D01*
X12784034Y7356640D01*
X12803926D01*
X12822302Y7364252D01*
X12836368Y7378317D01*
X12843980Y7396694D01*
Y7416586D01*
X12836368Y7434963D01*
X12822302Y7449028D01*
X12803926Y7456640D01*
D02*
G37*
G36*
X12603266D02*
X12583374D01*
X12564997Y7449028D01*
X12550932Y7434963D01*
X12543320Y7416586D01*
Y7396694D01*
X12550932Y7378317D01*
X12564997Y7364252D01*
X12583374Y7356640D01*
X12603266D01*
X12621643Y7364252D01*
X12635708Y7378317D01*
X12643320Y7396694D01*
Y7416586D01*
X12635708Y7434963D01*
X12621643Y7449028D01*
X12603266Y7456640D01*
D02*
G37*
G36*
X12400066D02*
X12380174D01*
X12361797Y7449028D01*
X12347732Y7434963D01*
X12340120Y7416586D01*
Y7396694D01*
X12347732Y7378317D01*
X12361797Y7364252D01*
X12380174Y7356640D01*
X12400066D01*
X12418443Y7364252D01*
X12432508Y7378317D01*
X12440120Y7396694D01*
Y7416586D01*
X12432508Y7434963D01*
X12418443Y7449028D01*
X12400066Y7456640D01*
D02*
G37*
G36*
X12176546Y7454100D02*
X12156654D01*
X12138277Y7446488D01*
X12124212Y7432423D01*
X12116600Y7414046D01*
Y7394154D01*
X12124212Y7375777D01*
X12138277Y7361712D01*
X12156654Y7354100D01*
X12176546D01*
X12194923Y7361712D01*
X12208988Y7375777D01*
X12216600Y7394154D01*
Y7414046D01*
X12208988Y7432423D01*
X12194923Y7446488D01*
X12176546Y7454100D01*
D02*
G37*
G36*
X11970806Y7451560D02*
X11950914D01*
X11932537Y7443948D01*
X11918472Y7429883D01*
X11910860Y7411506D01*
Y7391614D01*
X11918472Y7373237D01*
X11932537Y7359172D01*
X11950914Y7351560D01*
X11970806D01*
X11989183Y7359172D01*
X12003248Y7373237D01*
X12010860Y7391614D01*
Y7411506D01*
X12003248Y7429883D01*
X11989183Y7443948D01*
X11970806Y7451560D01*
D02*
G37*
G36*
X17243846Y7428700D02*
X17223953D01*
X17205577Y7421088D01*
X17191512Y7407023D01*
X17183900Y7388646D01*
Y7368754D01*
X17191512Y7350377D01*
X17205577Y7336312D01*
X17223953Y7328700D01*
X17243846D01*
X17262222Y7336312D01*
X17276288Y7350377D01*
X17283900Y7368754D01*
Y7388646D01*
X17276288Y7407023D01*
X17262222Y7421088D01*
X17243846Y7428700D01*
D02*
G37*
G36*
X16926346Y7466800D02*
X16906454D01*
X16888077Y7459188D01*
X16874013Y7445123D01*
X16866400Y7426746D01*
Y7406854D01*
X16874013Y7388477D01*
X16883789Y7378700D01*
X16874013Y7368923D01*
X16866400Y7350546D01*
Y7330654D01*
X16874013Y7312277D01*
X16888077Y7298212D01*
X16906454Y7290600D01*
X16926346D01*
X16944724Y7298212D01*
X16958788Y7312277D01*
X16966400Y7330654D01*
Y7350546D01*
X16958788Y7368923D01*
X16949011Y7378700D01*
X16958788Y7388477D01*
X16966400Y7406854D01*
Y7426746D01*
X16958788Y7445123D01*
X16944724Y7459188D01*
X16926346Y7466800D01*
D02*
G37*
G36*
X17544800Y7473700D02*
X17354800D01*
Y7283700D01*
X17544800D01*
Y7473700D01*
D02*
G37*
G36*
X14706386Y7266140D02*
X14686494D01*
X14668117Y7258528D01*
X14654053Y7244463D01*
X14646440Y7226086D01*
Y7206194D01*
X14654053Y7187817D01*
X14668117Y7173752D01*
X14686494Y7166140D01*
X14706386D01*
X14724763Y7173752D01*
X14738828Y7187817D01*
X14746440Y7206194D01*
Y7226086D01*
X14738828Y7244463D01*
X14724763Y7258528D01*
X14706386Y7266140D01*
D02*
G37*
G36*
X16357385Y7220420D02*
X16337494D01*
X16319118Y7212808D01*
X16305052Y7198743D01*
X16297440Y7180366D01*
Y7160474D01*
X16305052Y7142097D01*
X16319118Y7128032D01*
X16337494Y7120420D01*
X16357385D01*
X16375763Y7128032D01*
X16389828Y7142097D01*
X16397440Y7160474D01*
Y7180366D01*
X16389828Y7198743D01*
X16375763Y7212808D01*
X16357385Y7220420D01*
D02*
G37*
G36*
X16227846D02*
X16207954D01*
X16189577Y7212808D01*
X16175513Y7198743D01*
X16167900Y7180366D01*
Y7160474D01*
X16175513Y7142097D01*
X16189577Y7128032D01*
X16207954Y7120420D01*
X16227846D01*
X16246223Y7128032D01*
X16260287Y7142097D01*
X16267900Y7160474D01*
Y7180366D01*
X16260287Y7198743D01*
X16246223Y7212808D01*
X16227846Y7220420D01*
D02*
G37*
G36*
X16105927D02*
X16086034D01*
X16067657Y7212808D01*
X16053592Y7198743D01*
X16045979Y7180366D01*
Y7160474D01*
X16053592Y7142097D01*
X16067657Y7128032D01*
X16071983Y7126240D01*
X16071001Y7115916D01*
X16070146Y7113471D01*
X16052417Y7106128D01*
X16038351Y7092063D01*
X16030740Y7073686D01*
Y7053794D01*
X16038351Y7035417D01*
X16052417Y7021352D01*
X16070795Y7013740D01*
X16090686D01*
X16109064Y7021352D01*
X16123128Y7035417D01*
X16130740Y7053794D01*
Y7073686D01*
X16123128Y7092063D01*
X16109064Y7106128D01*
X16104736Y7107920D01*
X16105719Y7118244D01*
X16106573Y7120689D01*
X16124303Y7128032D01*
X16138368Y7142097D01*
X16145979Y7160474D01*
Y7180366D01*
X16138368Y7198743D01*
X16124303Y7212808D01*
X16105927Y7220420D01*
D02*
G37*
G36*
X13250966Y7065480D02*
X13231075D01*
X13212697Y7057868D01*
X13198631Y7043803D01*
X13191020Y7025426D01*
Y7005534D01*
X13198631Y6987157D01*
X13212697Y6973092D01*
X13218469Y6970701D01*
Y6957171D01*
X13210156Y6953728D01*
X13196092Y6939663D01*
X13188480Y6921286D01*
Y6901394D01*
X13196092Y6883017D01*
X13210156Y6868952D01*
X13228534Y6861340D01*
X13248425D01*
X13266803Y6868952D01*
X13280869Y6883017D01*
X13288480Y6901394D01*
Y6921286D01*
X13280869Y6939663D01*
X13266803Y6953728D01*
X13261031Y6956119D01*
Y6969649D01*
X13269344Y6973092D01*
X13283408Y6987157D01*
X13291020Y7005534D01*
Y7025426D01*
X13283408Y7043803D01*
X13269344Y7057868D01*
X13250966Y7065480D01*
D02*
G37*
G36*
X13365266D02*
X13345374D01*
X13326997Y7057868D01*
X13312932Y7043803D01*
X13305321Y7025426D01*
Y7005534D01*
X13312932Y6987157D01*
X13326997Y6973092D01*
X13339645Y6967853D01*
Y6954323D01*
X13332077Y6951188D01*
X13318011Y6937123D01*
X13310400Y6918746D01*
Y6898854D01*
X13318011Y6880477D01*
X13332077Y6866412D01*
X13350455Y6858800D01*
X13370346D01*
X13388724Y6866412D01*
X13402788Y6880477D01*
X13410400Y6898854D01*
Y6918746D01*
X13402788Y6937123D01*
X13388724Y6951188D01*
X13376074Y6956427D01*
Y6969957D01*
X13383643Y6973092D01*
X13397708Y6987157D01*
X13405321Y7005534D01*
Y7025426D01*
X13397708Y7043803D01*
X13383643Y7057868D01*
X13365266Y7065480D01*
D02*
G37*
G36*
X14368565Y6880060D02*
X14348674D01*
X14330296Y6872448D01*
X14316232Y6858383D01*
X14314584Y6854407D01*
X14301054D01*
X14299408Y6858383D01*
X14285342Y6872448D01*
X14266966Y6880060D01*
X14247073D01*
X14228697Y6872448D01*
X14214632Y6858383D01*
X14207021Y6840006D01*
Y6820114D01*
X14214632Y6801737D01*
X14228697Y6787672D01*
X14247073Y6780060D01*
X14266966D01*
X14285342Y6787672D01*
X14299408Y6801737D01*
X14301054Y6805713D01*
X14314584D01*
X14316232Y6801737D01*
X14330296Y6787672D01*
X14348674Y6780060D01*
X14368565D01*
X14386943Y6787672D01*
X14401009Y6801737D01*
X14408620Y6820114D01*
Y6840006D01*
X14401009Y6858383D01*
X14386943Y6872448D01*
X14368565Y6880060D01*
D02*
G37*
G36*
X14371106Y6765760D02*
X14351215D01*
X14332837Y6758148D01*
X14318771Y6744083D01*
X14315855Y6737040D01*
X14302325D01*
X14299408Y6744083D01*
X14285342Y6758148D01*
X14266966Y6765760D01*
X14247073D01*
X14228697Y6758148D01*
X14214632Y6744083D01*
X14207021Y6725706D01*
Y6705814D01*
X14214632Y6687437D01*
X14228697Y6673372D01*
X14247073Y6665760D01*
X14266966D01*
X14285342Y6673372D01*
X14299408Y6687437D01*
X14302325Y6694480D01*
X14315855D01*
X14318771Y6687437D01*
X14332837Y6673372D01*
X14351215Y6665760D01*
X14371106D01*
X14389484Y6673372D01*
X14403548Y6687437D01*
X14411160Y6705814D01*
Y6725706D01*
X14403548Y6744083D01*
X14389484Y6758148D01*
X14371106Y6765760D01*
D02*
G37*
G36*
X12689626Y6714960D02*
X12669734D01*
X12651357Y6707348D01*
X12639040Y6695031D01*
X12626723Y6707348D01*
X12608346Y6714960D01*
X12588454D01*
X12570077Y6707348D01*
X12556012Y6693283D01*
X12548400Y6674906D01*
Y6655014D01*
X12556012Y6636637D01*
X12570077Y6622572D01*
X12588454Y6614960D01*
X12608346D01*
X12626723Y6622572D01*
X12639040Y6634889D01*
X12651357Y6622572D01*
X12669734Y6614960D01*
X12689626D01*
X12708003Y6622572D01*
X12722068Y6636637D01*
X12729680Y6655014D01*
Y6674906D01*
X12722068Y6693283D01*
X12708003Y6707348D01*
X12689626Y6714960D01*
D02*
G37*
G36*
X17462308Y6699000D02*
X17437292D01*
X17413132Y6692526D01*
X17391469Y6680019D01*
X17373781Y6662331D01*
X17361275Y6640669D01*
X17354800Y6616507D01*
Y6591493D01*
X17361275Y6567331D01*
X17373781Y6545669D01*
X17391469Y6527981D01*
X17413132Y6515474D01*
X17437292Y6509000D01*
X17462308D01*
X17486469Y6515474D01*
X17508131Y6527981D01*
X17525819Y6545669D01*
X17538326Y6567331D01*
X17544800Y6591493D01*
Y6616507D01*
X17538326Y6640669D01*
X17525819Y6662331D01*
X17508131Y6680019D01*
X17486469Y6692526D01*
X17462308Y6699000D01*
D02*
G37*
G36*
X15269928Y6458082D02*
X15250037D01*
X15231660Y6450470D01*
X15217593Y6436405D01*
X15209982Y6418028D01*
Y6398137D01*
X15217593Y6379759D01*
X15231660Y6365694D01*
X15250037Y6358082D01*
X15269928D01*
X15288306Y6365694D01*
X15302370Y6379759D01*
X15309982Y6398137D01*
Y6418028D01*
X15302370Y6436405D01*
X15288306Y6450470D01*
X15269928Y6458082D01*
D02*
G37*
G36*
X14754646Y6455880D02*
X14734753D01*
X14716377Y6448268D01*
X14702312Y6434203D01*
X14694701Y6415826D01*
Y6395934D01*
X14702312Y6377557D01*
X14716377Y6363492D01*
X14734753Y6355880D01*
X14754646D01*
X14773022Y6363492D01*
X14778444Y6368913D01*
X14788672Y6375017D01*
X14794775Y6368913D01*
X14802737Y6360952D01*
X14821114Y6353340D01*
X14841006D01*
X14859383Y6360952D01*
X14873448Y6375017D01*
X14881059Y6393394D01*
Y6413286D01*
X14873448Y6431663D01*
X14859383Y6445728D01*
X14841006Y6453340D01*
X14821114D01*
X14802737Y6445728D01*
X14797316Y6440307D01*
X14787088Y6434203D01*
X14780984Y6440307D01*
X14773022Y6448268D01*
X14754646Y6455880D01*
D02*
G37*
G36*
X17218446Y6450800D02*
X17198553D01*
X17180177Y6443188D01*
X17166112Y6429123D01*
X17158501Y6410746D01*
Y6390854D01*
X17166112Y6372477D01*
X17180177Y6358412D01*
X17198553Y6350800D01*
X17218446D01*
X17236823Y6358412D01*
X17250888Y6372477D01*
X17258501Y6390854D01*
Y6410746D01*
X17250888Y6429123D01*
X17236823Y6443188D01*
X17218446Y6450800D01*
D02*
G37*
G36*
X17462308Y6445000D02*
X17437292D01*
X17413132Y6438526D01*
X17391469Y6426019D01*
X17373781Y6408331D01*
X17361275Y6386669D01*
X17354800Y6362507D01*
Y6337493D01*
X17361275Y6313331D01*
X17373781Y6291669D01*
X17391469Y6273981D01*
X17413132Y6261474D01*
X17437292Y6255000D01*
X17462308D01*
X17486469Y6261474D01*
X17508131Y6273981D01*
X17525819Y6291669D01*
X17538326Y6313331D01*
X17544800Y6337493D01*
Y6362507D01*
X17538326Y6386669D01*
X17525819Y6408331D01*
X17508131Y6426019D01*
X17486469Y6438526D01*
X17462308Y6445000D01*
D02*
G37*
G36*
X15562366Y6392380D02*
X15542474D01*
X15524097Y6384768D01*
X15510033Y6370703D01*
X15502420Y6352326D01*
Y6332434D01*
X15510033Y6314057D01*
X15521803Y6302286D01*
X15523848Y6297423D01*
X15522833Y6286985D01*
X15512572Y6276723D01*
X15504961Y6258346D01*
Y6238454D01*
X15512572Y6220077D01*
X15526637Y6206012D01*
X15545013Y6198400D01*
X15564906D01*
X15583282Y6206012D01*
X15597348Y6220077D01*
X15604961Y6238454D01*
Y6258346D01*
X15597348Y6276723D01*
X15585577Y6288494D01*
X15583533Y6293357D01*
X15584546Y6303795D01*
X15594807Y6314057D01*
X15602420Y6332434D01*
Y6352326D01*
X15594807Y6370703D01*
X15580743Y6384768D01*
X15562366Y6392380D01*
D02*
G37*
G36*
X17218446Y6146000D02*
X17198553D01*
X17180177Y6138388D01*
X17166112Y6124323D01*
X17158501Y6105946D01*
Y6086054D01*
X17166112Y6067677D01*
X17180177Y6053612D01*
X17198553Y6046000D01*
X17218446D01*
X17236823Y6053612D01*
X17250888Y6067677D01*
X17258501Y6086054D01*
Y6105946D01*
X17250888Y6124323D01*
X17236823Y6138388D01*
X17218446Y6146000D01*
D02*
G37*
G36*
X16926346Y6184100D02*
X16906454D01*
X16888077Y6176488D01*
X16874013Y6162423D01*
X16866400Y6144046D01*
Y6124154D01*
X16874013Y6105777D01*
X16883789Y6096000D01*
X16874013Y6086223D01*
X16866400Y6067846D01*
Y6047954D01*
X16874013Y6029577D01*
X16888077Y6015512D01*
X16906454Y6007900D01*
X16926346D01*
X16944724Y6015512D01*
X16958788Y6029577D01*
X16963773Y6041613D01*
X16977950Y6047949D01*
X16982654Y6046000D01*
X17002547D01*
X17020923Y6053612D01*
X17028883Y6061573D01*
X17037050Y6066446D01*
X17045216Y6061573D01*
X17053177Y6053612D01*
X17071555Y6046000D01*
X17091446D01*
X17109824Y6053612D01*
X17123888Y6067677D01*
X17131500Y6086054D01*
Y6105946D01*
X17123888Y6124323D01*
X17109824Y6138388D01*
X17091446Y6146000D01*
X17071555D01*
X17053177Y6138388D01*
X17045216Y6130427D01*
X17037050Y6125554D01*
X17028883Y6130427D01*
X17020923Y6138388D01*
X17002547Y6146000D01*
X16982654D01*
X16977950Y6144051D01*
X16963773Y6150387D01*
X16958788Y6162423D01*
X16944724Y6176488D01*
X16926346Y6184100D01*
D02*
G37*
G36*
X17544800Y6191000D02*
X17354800D01*
Y6001000D01*
X17544800D01*
Y6191000D01*
D02*
G37*
G36*
X12138446Y6031700D02*
X12118554D01*
X12100177Y6024088D01*
X12086112Y6010023D01*
X12078500Y5991646D01*
Y5971754D01*
X12086112Y5953377D01*
X12100177Y5939312D01*
X12118554Y5931700D01*
X12138446D01*
X12156823Y5939312D01*
X12170888Y5953377D01*
X12178500Y5971754D01*
Y5991646D01*
X12170888Y6010023D01*
X12156823Y6024088D01*
X12138446Y6031700D01*
D02*
G37*
G36*
X12654066Y6029160D02*
X12634174D01*
X12615797Y6021548D01*
X12601732Y6007483D01*
X12594120Y5989106D01*
Y5969214D01*
X12601732Y5950837D01*
X12615797Y5936772D01*
X12634174Y5929160D01*
X12654066D01*
X12672443Y5936772D01*
X12686508Y5950837D01*
X12694120Y5969214D01*
Y5989106D01*
X12686508Y6007483D01*
X12672443Y6021548D01*
X12654066Y6029160D01*
D02*
G37*
G36*
X12519446D02*
X12499554D01*
X12481177Y6021548D01*
X12467112Y6007483D01*
X12459500Y5989106D01*
Y5969214D01*
X12467112Y5950837D01*
X12481177Y5936772D01*
X12499554Y5929160D01*
X12519446D01*
X12537823Y5936772D01*
X12551888Y5950837D01*
X12559500Y5969214D01*
Y5989106D01*
X12551888Y6007483D01*
X12537823Y6021548D01*
X12519446Y6029160D01*
D02*
G37*
G36*
X12382286D02*
X12362394D01*
X12344017Y6021548D01*
X12329952Y6007483D01*
X12322340Y5989106D01*
Y5969214D01*
X12329952Y5950837D01*
X12344017Y5936772D01*
X12362394Y5929160D01*
X12382286D01*
X12400663Y5936772D01*
X12414728Y5950837D01*
X12422340Y5969214D01*
Y5989106D01*
X12414728Y6007483D01*
X12400663Y6021548D01*
X12382286Y6029160D01*
D02*
G37*
G36*
X12252746D02*
X12232854D01*
X12214477Y6021548D01*
X12200412Y6007483D01*
X12192800Y5989106D01*
Y5969214D01*
X12200412Y5950837D01*
X12214477Y5936772D01*
X12232854Y5929160D01*
X12252746D01*
X12271123Y5936772D01*
X12285188Y5950837D01*
X12292800Y5969214D01*
Y5989106D01*
X12285188Y6007483D01*
X12271123Y6021548D01*
X12252746Y6029160D01*
D02*
G37*
G36*
X14020586Y6008840D02*
X14000694D01*
X13982317Y6001228D01*
X13968253Y5987163D01*
X13960640Y5968786D01*
Y5948894D01*
X13968253Y5930517D01*
X13982317Y5916452D01*
X14000694Y5908840D01*
X14020586D01*
X14038963Y5916452D01*
X14053027Y5930517D01*
X14060640Y5948894D01*
Y5968786D01*
X14053027Y5987163D01*
X14038963Y6001228D01*
X14020586Y6008840D01*
D02*
G37*
G36*
X13764046D02*
X13744154D01*
X13725777Y6001228D01*
X13711713Y5987163D01*
X13704100Y5968786D01*
Y5948894D01*
X13711713Y5930517D01*
X13725777Y5916452D01*
X13744154Y5908840D01*
X13764046D01*
X13782423Y5916452D01*
X13796487Y5930517D01*
X13804100Y5948894D01*
Y5968786D01*
X13796487Y5987163D01*
X13782423Y6001228D01*
X13764046Y6008840D01*
D02*
G37*
G36*
X13888506Y6006300D02*
X13868614D01*
X13850237Y5998688D01*
X13836172Y5984623D01*
X13828560Y5966246D01*
Y5946354D01*
X13836172Y5927977D01*
X13850237Y5913912D01*
X13868614Y5906300D01*
X13888506D01*
X13906883Y5913912D01*
X13920947Y5927977D01*
X13928560Y5946354D01*
Y5966246D01*
X13920947Y5984623D01*
X13906883Y5998688D01*
X13888506Y6006300D01*
D02*
G37*
%LPD*%
D33*
X11963400Y10129900D02*
D03*
X17233900Y10621900D02*
D03*
D34*
Y10121900D02*
D03*
X11963400Y10629900D02*
D03*
D35*
X11823700Y11417300D02*
D03*
X17386301Y5549900D02*
D03*
X11836400Y5537200D02*
D03*
X17386301Y11417300D02*
D03*
D36*
X17449800Y6096000D02*
D03*
Y7378700D02*
D03*
Y8661400D02*
D03*
D37*
Y8915400D02*
D03*
Y7886700D02*
D03*
Y9169400D02*
D03*
Y7632700D02*
D03*
Y6350000D02*
D03*
Y6604000D02*
D03*
D38*
X17703799Y9169400D02*
D03*
Y8915400D02*
D03*
Y8661400D02*
D03*
Y7886700D02*
D03*
Y7632700D02*
D03*
Y7378700D02*
D03*
Y6096000D02*
D03*
Y6350000D02*
D03*
Y6604000D02*
D03*
D39*
X15118080Y5773420D02*
D03*
X15097760Y9413240D02*
D03*
X15481300Y9418320D02*
D03*
X15349220Y9425940D02*
D03*
X16276320Y9192260D02*
D03*
X16484599Y8669020D02*
D03*
X14010640Y5958840D02*
D03*
X13878560Y5956300D02*
D03*
X13754100Y5958840D02*
D03*
X12636500Y7995920D02*
D03*
X12512040D02*
D03*
X12392660Y7993380D02*
D03*
X12263120D02*
D03*
X12148820D02*
D03*
X13253720Y7995920D02*
D03*
X13121640Y7998460D02*
D03*
X12999719D02*
D03*
X12895580D02*
D03*
X12791440D02*
D03*
X11991340Y8001000D02*
D03*
X11884660D02*
D03*
X14696440Y7216140D02*
D03*
X15100301Y8602980D02*
D03*
X13307060Y8915400D02*
D03*
X12621260Y8676640D02*
D03*
X12705080D02*
D03*
X12956540Y9438640D02*
D03*
X12232640Y9311640D02*
D03*
X13301981Y8999220D02*
D03*
X13200380D02*
D03*
X13045441Y9438640D02*
D03*
X12156440Y9311640D02*
D03*
X12867641Y9438640D02*
D03*
X13200380Y8915400D02*
D03*
X13360400Y6908800D02*
D03*
X13238480Y6911340D02*
D03*
X13241020Y7015480D02*
D03*
X13355321D02*
D03*
X12793980Y7406640D02*
D03*
X12593320D02*
D03*
X12166600Y7404100D02*
D03*
X11960860Y7401560D02*
D03*
X12679680Y6664960D02*
D03*
X12598400D02*
D03*
X12372340Y5979160D02*
D03*
X12644120D02*
D03*
X12509500D02*
D03*
X12242800D02*
D03*
X12128500Y5981700D02*
D03*
X17208501Y8915400D02*
D03*
X16891000Y8877300D02*
D03*
Y8953500D02*
D03*
X17233900Y7378700D02*
D03*
X16916400Y7340600D02*
D03*
Y7416800D02*
D03*
X17081500Y6096000D02*
D03*
X16992599D02*
D03*
X17208501D02*
D03*
X16916400Y6057900D02*
D03*
Y6134100D02*
D03*
X15552420Y6342380D02*
D03*
X13134340Y7406640D02*
D03*
X13294360D02*
D03*
X12961620D02*
D03*
X12390120D02*
D03*
X15351759Y8036560D02*
D03*
X15478760Y8039100D02*
D03*
X15554961Y6248400D02*
D03*
X14257021Y6830060D02*
D03*
X14358620D02*
D03*
X14361160Y6715760D02*
D03*
X14257021D02*
D03*
X15209520Y8036560D02*
D03*
X16347440Y7170420D02*
D03*
X16217900D02*
D03*
X16095979D02*
D03*
X16659860Y8669020D02*
D03*
X16697960Y7874000D02*
D03*
X16553180D02*
D03*
X16405859Y7871460D02*
D03*
X16245840D02*
D03*
X14500861Y6703060D02*
D03*
X15951199Y5869940D02*
D03*
X15946120Y6017260D02*
D03*
X15608299Y9550400D02*
D03*
X15946120Y6159500D02*
D03*
X16860519Y7871460D02*
D03*
X17226280Y7879080D02*
D03*
X17007840Y7871460D02*
D03*
X14922501Y7363460D02*
D03*
Y7510780D02*
D03*
Y7978140D02*
D03*
Y7835900D02*
D03*
X15941040Y6652260D02*
D03*
Y6489700D02*
D03*
X15943581Y6311900D02*
D03*
X14605000Y6705600D02*
D03*
X14927580Y7670800D02*
D03*
X14693900Y6705600D02*
D03*
X16334740Y7485380D02*
D03*
X16215359D02*
D03*
X16095979D02*
D03*
X15971519Y7482840D02*
D03*
X15859760Y7480300D02*
D03*
X14831059Y6403340D02*
D03*
X17221201Y7620000D02*
D03*
X15882620Y7581900D02*
D03*
X15259982Y6408082D02*
D03*
X16080740Y7063740D02*
D03*
X15430499Y7627620D02*
D03*
X14744701Y6405880D02*
D03*
X17208501Y6400800D02*
D03*
X16103600Y8280400D02*
D03*
D40*
X12255500Y10210800D02*
D03*
X12242800Y9982200D02*
D03*
X12458700Y9779000D02*
D03*
X11760200Y10185400D02*
D03*
X11836400Y9779000D02*
D03*
X12242800D02*
D03*
X12039600D02*
D03*
X12458700Y9982200D02*
D03*
X12661900Y10210800D02*
D03*
Y9982200D02*
D03*
Y9779000D02*
D03*
X13360400Y10210800D02*
D03*
Y10007600D02*
D03*
Y9779000D02*
D03*
X14439900Y10210800D02*
D03*
Y9994900D02*
D03*
Y9766300D02*
D03*
X15582899Y9994900D02*
D03*
X15595599Y9766300D02*
D03*
X16548100Y10210800D02*
D03*
Y9994900D02*
D03*
Y9779000D02*
D03*
X16789400Y10210800D02*
D03*
Y10007600D02*
D03*
Y9779000D02*
D03*
X17030701Y10210800D02*
D03*
Y10007600D02*
D03*
Y9779000D02*
D03*
X17335500Y9791700D02*
D03*
X15582899Y10210800D02*
D03*
X11836400Y9969500D02*
D03*
X12039600D02*
D03*
X12458700Y10210800D02*
D03*
X17310100Y10972800D02*
D03*
X17030701Y10782300D02*
D03*
Y10985500D02*
D03*
X17310100Y10782300D02*
D03*
X16814799Y10985500D02*
D03*
X16548100Y10807700D02*
D03*
X16814799Y10769600D02*
D03*
X16548100Y10591800D02*
D03*
X17030701D02*
D03*
X16814799D02*
D03*
X16548100Y10985500D02*
D03*
X15570200Y10807700D02*
D03*
Y10985500D02*
D03*
Y10591800D02*
D03*
X14427200Y10985500D02*
D03*
Y10807700D02*
D03*
X13347701Y10795000D02*
D03*
X14427200Y10591800D02*
D03*
X13347701D02*
D03*
Y10972800D02*
D03*
X12661900D02*
D03*
Y10591800D02*
D03*
Y10795000D02*
D03*
X12242800Y10972800D02*
D03*
Y10795000D02*
D03*
X12026900D02*
D03*
X12458700D02*
D03*
X12242800Y10591800D02*
D03*
X12026900Y10972800D02*
D03*
X11785600D02*
D03*
X11798300Y10795000D02*
D03*
X12471400Y10591800D02*
D03*
%TF.MD5,bb3ac93b66d1bfa5ccac3c19397342dd*%
M02*
