%TF.GenerationSoftware,Altium Limited,Altium Designer,26.3.0 (6)*%
G04 Layer_Color=65535*
%FSLAX45Y45*%
%MOMM*%
%TF.SameCoordinates,73886CEE-9EAD-4E58-9AAB-BE34D080F3A0*%
%TF.FilePolarity,Positive*%
%TF.FileFunction,Legend,Top*%
%TF.Part,Single*%
G01*
G75*
%TA.AperFunction,NonConductor*%
%ADD41C,0.20000*%
%ADD42C,0.60000*%
%ADD43C,0.25000*%
%ADD44C,0.10000*%
%ADD45C,0.40000*%
%ADD46C,0.25400*%
D41*
X17449800Y8451400D02*
G03*
X17449800Y8461400I0J5000D01*
G01*
D02*
G03*
X17449800Y8451400I0J-5000D01*
G01*
D02*
G03*
X17449800Y8461400I0J5000D01*
G01*
Y7168700D02*
G03*
X17449800Y7178700I0J5000D01*
G01*
D02*
G03*
X17449800Y7168700I0J-5000D01*
G01*
D02*
G03*
X17449800Y7178700I0J5000D01*
G01*
X17238901Y9786900D02*
G03*
X17238901Y9786900I-5000J0D01*
G01*
X17449800Y5886000D02*
G03*
X17449800Y5896000I0J5000D01*
G01*
D02*
G03*
X17449800Y5886000I0J-5000D01*
G01*
D02*
G03*
X17449800Y5896000I0J5000D01*
G01*
X11968400Y10964900D02*
G03*
X11968400Y10964900I-5000J0D01*
G01*
X14235519Y6988900D02*
Y7158900D01*
X14405521Y6988900D02*
Y7158900D01*
X12376260Y8247900D02*
Y8312900D01*
X12104260Y8247900D02*
Y8312900D01*
X12053727Y8355693D02*
Y8636907D01*
X11837513Y8355693D02*
Y8636907D01*
X12076840Y8541240D02*
Y8761240D01*
X12286840Y8541240D02*
Y8761240D01*
X12721700Y8245360D02*
Y8310360D01*
X12449700Y8245360D02*
Y8310360D01*
X12127040Y9060540D02*
Y9105540D01*
X12262040Y9060540D02*
Y9105540D01*
X12816541Y9084040D02*
Y9209040D01*
X13096539Y9084040D02*
Y9209040D01*
X13324760Y8150940D02*
Y8694340D01*
X12781360Y8150940D02*
X12876060D01*
X13230060D02*
X13324760D01*
X12781360D02*
Y8694340D01*
X12876060D01*
X13230060D02*
X13324760D01*
X12601940Y8725940D02*
X12726940D01*
X12566940Y8740940D02*
Y9030940D01*
X12511940D02*
X12566940D01*
X12511940Y8740940D02*
Y9030940D01*
Y8740940D02*
X12566940D01*
X17759801Y8751400D02*
Y8811400D01*
Y8991400D02*
Y9081400D01*
Y9261400D02*
Y9319400D01*
X17139799D02*
X17759801D01*
X17139799Y8511400D02*
Y9319400D01*
Y8511400D02*
X17759801D01*
Y8571400D01*
Y7468700D02*
Y7528700D01*
Y7708700D02*
Y7798700D01*
Y7978700D02*
Y8036700D01*
X17139799D02*
X17759801D01*
X17139799Y7228700D02*
Y8036700D01*
Y7228700D02*
X17759801D01*
Y7288700D01*
X12777980Y6164300D02*
Y6764300D01*
X13317979Y6164300D02*
Y6764300D01*
X16404500Y7242900D02*
Y7412900D01*
X16234500Y7242900D02*
Y7412900D01*
X15164020Y6749000D02*
X15694020D01*
X15164020Y7279000D02*
X15694020D01*
Y6749000D02*
Y7279000D01*
X15164020Y6749000D02*
Y7279000D01*
X15616338Y5885960D02*
X15862160D01*
X15616338Y5665960D02*
X15862160D01*
X15333200Y7712989D02*
Y7958811D01*
X15553200Y7712989D02*
Y7958811D01*
X15617468Y5927580D02*
X15863290D01*
X15617468Y6147580D02*
X15863290D01*
X14601100Y6811100D02*
Y6981100D01*
X14431100Y6811100D02*
Y6981100D01*
X12069220Y6558840D02*
Y6778840D01*
X12279220Y6558840D02*
Y6778840D01*
X13073680Y7062200D02*
Y7187200D01*
X12793680Y7062200D02*
Y7187200D01*
X12073780Y6233680D02*
Y6298680D01*
X12345780Y6233680D02*
Y6298680D01*
X15372060Y5716000D02*
X15382260D01*
X15372060Y5841000D02*
X15382260D01*
X15367081Y5967500D02*
X15377080D01*
X15367081Y6097500D02*
X15377080D01*
X12487080Y6725700D02*
X12542080D01*
X12487080D02*
Y7015700D01*
X12542080D01*
Y6725700D02*
Y7015700D01*
X12577080Y6710700D02*
X12702080D01*
X16404700Y7980400D02*
X16615500D01*
X16404700Y8580400D02*
X16615500D01*
X16123801Y8768500D02*
Y9288500D01*
X15801300Y8768500D02*
X16123801D01*
X15801300Y9288500D02*
X16123801D01*
X14584801Y8768500D02*
Y9288500D01*
Y8768500D02*
X14907300D01*
X14584801Y9288500D02*
X14907300D01*
X12035947Y6344013D02*
Y6625227D01*
X11819733Y6344013D02*
Y6625227D01*
X12251880Y7051400D02*
Y7096400D01*
X12116880Y7051400D02*
Y7096400D01*
X12406520Y6233680D02*
Y6298680D01*
X12678520Y6233680D02*
Y6298680D01*
X15626241Y6330860D02*
X15796240D01*
X15626241Y6160860D02*
X15796240D01*
X15040700Y7598500D02*
X15210699D01*
X15040700Y7768500D02*
X15210699D01*
X15041901Y7814400D02*
X15211900D01*
X15041901Y7984400D02*
X15211900D01*
X16018600Y7242900D02*
Y7412900D01*
X16188600Y7242900D02*
Y7412900D01*
X17759801Y5946000D02*
Y6006000D01*
X17139799Y5946000D02*
X17759801D01*
X17139799D02*
Y6754000D01*
X17759801D01*
Y6696000D02*
Y6754000D01*
Y6426000D02*
Y6516000D01*
Y6186000D02*
Y6246000D01*
D42*
X15294020Y7179000D02*
G03*
X15294020Y7179000I-30000J0D01*
G01*
D43*
X15031520Y7359000D02*
G03*
X15031520Y7359000I-12500J0D01*
G01*
X16186349Y8080400D02*
G03*
X16186349Y8080400I-12500J0D01*
G01*
X15748801Y9413500D02*
G03*
X15748801Y9413500I-12500J0D01*
G01*
D44*
X15222079Y6122500D02*
G03*
X15222079Y6122500I-5000J0D01*
G01*
X16633900Y9871900D02*
Y10871900D01*
X17753900D01*
Y9871900D02*
Y10871900D01*
X16633900Y9871900D02*
X17753900D01*
X12563400Y9879900D02*
Y10879900D01*
X11443400Y9879900D02*
X12563400D01*
X11443400D02*
Y10879900D01*
X12563400D01*
D45*
X15161259Y5715000D02*
Y5842000D01*
D46*
X11620500Y11671300D02*
X12026900D01*
X11569700Y11620500D02*
X11620500Y11671300D01*
X11569700Y11214100D02*
Y11620500D01*
Y11214100D02*
X11620500Y11163300D01*
X12014200D01*
X12026900Y11671300D02*
X12077700Y11620500D01*
Y11226800D02*
Y11620500D01*
X12014200Y11163300D02*
X12077700Y11226800D01*
X17576801Y5295900D02*
X17640300Y5359400D01*
Y5753100D01*
X17589500Y5803900D02*
X17640300Y5753100D01*
X17183099Y5295900D02*
X17576801D01*
X17132300Y5346700D02*
X17183099Y5295900D01*
X17132300Y5346700D02*
Y5753100D01*
X17183099Y5803900D01*
X17589500D01*
X11633200Y5791200D02*
X12039600D01*
X11582400Y5740400D02*
X11633200Y5791200D01*
X11582400Y5334000D02*
Y5740400D01*
Y5334000D02*
X11633200Y5283200D01*
X12026900D01*
X12039600Y5791200D02*
X12090400Y5740400D01*
Y5346700D02*
Y5740400D01*
X12026900Y5283200D02*
X12090400Y5346700D01*
X17576801Y11163300D02*
X17640300Y11226800D01*
Y11620500D01*
X17589500Y11671300D02*
X17640300Y11620500D01*
X17183099Y11163300D02*
X17576801D01*
X17132300Y11214100D02*
X17183099Y11163300D01*
X17132300Y11214100D02*
Y11620500D01*
X17183099Y11671300D01*
X17589500D01*
X13820107Y6659839D02*
X13794714Y6685231D01*
X13743932D01*
X13718539Y6659839D01*
Y6634447D01*
X13743932Y6609055D01*
X13794714D01*
X13820107Y6583663D01*
Y6558272D01*
X13794714Y6532880D01*
X13743932D01*
X13718539Y6558272D01*
X13870891Y6685231D02*
Y6532880D01*
X13921674Y6583663D01*
X13972458Y6532880D01*
Y6685231D01*
X14023241Y6532880D02*
X14074025D01*
X14048633D01*
Y6685231D01*
X14023241Y6659839D01*
X12369800Y11417283D02*
Y11569634D01*
X12420583Y11518851D01*
X12471367Y11569634D01*
Y11417283D01*
X12547543D02*
X12598326D01*
X12623718Y11442675D01*
Y11493459D01*
X12598326Y11518851D01*
X12547543D01*
X12522151Y11493459D01*
Y11442675D01*
X12547543Y11417283D01*
X12699893Y11544242D02*
Y11518851D01*
X12674501D01*
X12725285D01*
X12699893D01*
Y11442675D01*
X12725285Y11417283D01*
X12826852D02*
X12877637D01*
X12903027Y11442675D01*
Y11493459D01*
X12877637Y11518851D01*
X12826852D01*
X12801460Y11493459D01*
Y11442675D01*
X12826852Y11417283D01*
X12953812Y11518851D02*
Y11417283D01*
Y11468067D01*
X12979202Y11493459D01*
X13004594Y11518851D01*
X13029987D01*
X13106161Y11417283D02*
X13182336D01*
X13207729Y11442675D01*
X13182336Y11468067D01*
X13131554D01*
X13106161Y11493459D01*
X13131554Y11518851D01*
X13207729D01*
X13283904Y11544242D02*
Y11518851D01*
X13258511D01*
X13309296D01*
X13283904D01*
Y11442675D01*
X13309296Y11417283D01*
X13461647D02*
X13410863D01*
X13385471Y11442675D01*
Y11493459D01*
X13410863Y11518851D01*
X13461647D01*
X13487039Y11493459D01*
Y11468067D01*
X13385471D01*
X13537822Y11518851D02*
Y11442675D01*
X13563214Y11417283D01*
X13639389D01*
Y11518851D01*
X13766348Y11417283D02*
X13715565D01*
X13690173Y11442675D01*
Y11493459D01*
X13715565Y11518851D01*
X13766348D01*
X13791740Y11493459D01*
Y11468067D01*
X13690173D01*
X13842523Y11518851D02*
Y11417283D01*
Y11468067D01*
X13867915Y11493459D01*
X13893307Y11518851D01*
X13918700D01*
X13994875D02*
Y11442675D01*
X14020267Y11417283D01*
X14096442D01*
Y11518851D01*
X14147224Y11417283D02*
Y11518851D01*
X14223399D01*
X14248792Y11493459D01*
Y11417283D01*
X14350359Y11366500D02*
X14375751D01*
X14401143Y11391892D01*
Y11518851D01*
X14324968D01*
X14299576Y11493459D01*
Y11442675D01*
X14324968Y11417283D01*
X14401143D01*
X16068082Y5976645D02*
Y6128995D01*
X16144257D01*
X16169649Y6103603D01*
Y6052820D01*
X16144257Y6027428D01*
X16068082D01*
X16118864D02*
X16169649Y5976645D01*
X16220432Y6128995D02*
X16321999D01*
Y6103603D01*
X16220432Y6002037D01*
Y5976645D01*
X16060461Y5704865D02*
Y5857215D01*
X16136636D01*
X16162029Y5831823D01*
Y5781040D01*
X16136636Y5755648D01*
X16060461D01*
X16111246D02*
X16162029Y5704865D01*
X16314378Y5857215D02*
X16212811D01*
Y5781040D01*
X16263596Y5806432D01*
X16288988D01*
X16314378Y5781040D01*
Y5730257D01*
X16288988Y5704865D01*
X16238203D01*
X16212811Y5730257D01*
X15316241Y8115325D02*
Y8267675D01*
X15392416D01*
X15417809Y8242283D01*
Y8191500D01*
X15392416Y8166108D01*
X15316241D01*
X15367026D02*
X15417809Y8115325D01*
X15468591Y8242283D02*
X15493983Y8267675D01*
X15544768D01*
X15570158Y8242283D01*
Y8216892D01*
X15544768Y8191500D01*
X15519376D01*
X15544768D01*
X15570158Y8166108D01*
Y8140717D01*
X15544768Y8115325D01*
X15493983D01*
X15468591Y8140717D01*
X17157709Y8356575D02*
X17106924D01*
X17132317D01*
Y8229617D01*
X17106924Y8204225D01*
X17081532D01*
X17056142Y8229617D01*
X17310059Y8356575D02*
X17259274Y8331183D01*
X17208492Y8280400D01*
Y8229617D01*
X17233884Y8204225D01*
X17284666D01*
X17310059Y8229617D01*
Y8255008D01*
X17284666Y8280400D01*
X17208492D01*
X17170409Y9626575D02*
X17119624D01*
X17145016D01*
Y9499617D01*
X17119624Y9474225D01*
X17094234D01*
X17068842Y9499617D01*
X17322758Y9626575D02*
X17221191D01*
Y9550400D01*
X17271976Y9575792D01*
X17297366D01*
X17322758Y9550400D01*
Y9499617D01*
X17297366Y9474225D01*
X17246584D01*
X17221191Y9499617D01*
X17157709Y7073875D02*
X17106924D01*
X17132317D01*
Y6946917D01*
X17106924Y6921525D01*
X17081532D01*
X17056142Y6946917D01*
X17284666Y6921525D02*
Y7073875D01*
X17208492Y6997700D01*
X17310059D01*
X14616653Y7556475D02*
Y7429517D01*
X14642046Y7404125D01*
X14692828D01*
X14718221Y7429517D01*
Y7556475D01*
X14769003Y7404125D02*
X14819788D01*
X14794395D01*
Y7556475D01*
X14769003Y7531083D01*
X11676442Y7086625D02*
Y7238975D01*
X11752617D01*
X11778009Y7213583D01*
Y7162800D01*
X11752617Y7137408D01*
X11676442D01*
X11727225D02*
X11778009Y7086625D01*
X11828792D02*
X11879576D01*
X11854184D01*
Y7238975D01*
X11828792Y7213583D01*
X11955751Y7112017D02*
X11981143Y7086625D01*
X12031927D01*
X12057319Y7112017D01*
Y7213583D01*
X12031927Y7238975D01*
X11981143D01*
X11955751Y7213583D01*
Y7188192D01*
X11981143Y7162800D01*
X12057319D01*
X11508781Y6408445D02*
Y6560795D01*
X11584957D01*
X11610348Y6535403D01*
Y6484620D01*
X11584957Y6459228D01*
X11508781D01*
X11559565D02*
X11610348Y6408445D01*
X11737307D02*
Y6560795D01*
X11661132Y6484620D01*
X11762699D01*
X11478301Y9146565D02*
Y9298915D01*
X11554477D01*
X11579868Y9273523D01*
Y9222740D01*
X11554477Y9197348D01*
X11478301D01*
X11529085D02*
X11579868Y9146565D01*
X11732219D02*
X11630652D01*
X11732219Y9248132D01*
Y9273523D01*
X11706827Y9298915D01*
X11656044D01*
X11630652Y9273523D01*
X11584973Y8397265D02*
Y8549615D01*
X11661148D01*
X11686540Y8524223D01*
Y8473440D01*
X11661148Y8448048D01*
X11584973D01*
X11635757D02*
X11686540Y8397265D01*
X11737324D02*
X11788107D01*
X11762716D01*
Y8549615D01*
X11737324Y8524223D01*
X14592332Y9423425D02*
Y9575775D01*
X14668507D01*
X14693900Y9550383D01*
Y9499600D01*
X14668507Y9474208D01*
X14592332D01*
X14744684Y9423425D02*
X14795467D01*
X14770076D01*
Y9575775D01*
X14744684Y9550383D01*
X13152161Y5880075D02*
Y5727725D01*
X13253728D01*
X13406079D02*
X13304512D01*
X13406079Y5829292D01*
Y5854683D01*
X13380687Y5880075D01*
X13329904D01*
X13304512Y5854683D01*
X13540773Y8290535D02*
Y8138185D01*
X13642340D01*
X13693124D02*
X13743907D01*
X13718517D01*
Y8290535D01*
X13693124Y8265143D01*
X16713208Y11264875D02*
X16662425D01*
X16687817D01*
Y11137917D01*
X16662425Y11112525D01*
X16637033D01*
X16611641Y11137917D01*
X16763992Y11239483D02*
X16789384Y11264875D01*
X16840167D01*
X16865559Y11239483D01*
Y11214092D01*
X16840167Y11188700D01*
X16814775D01*
X16840167D01*
X16865559Y11163308D01*
Y11137917D01*
X16840167Y11112525D01*
X16789384D01*
X16763992Y11137917D01*
X12230108Y11252175D02*
X12179325D01*
X12204717D01*
Y11125217D01*
X12179325Y11099825D01*
X12153933D01*
X12128541Y11125217D01*
X12382459Y11099825D02*
X12280892D01*
X12382459Y11201392D01*
Y11226783D01*
X12357067Y11252175D01*
X12306284D01*
X12280892Y11226783D01*
X16332201Y8801075D02*
X16281416D01*
X16306808D01*
Y8674117D01*
X16281416Y8648725D01*
X16256026D01*
X16230634Y8674117D01*
X16382983Y8648725D02*
X16433768D01*
X16408376D01*
Y8801075D01*
X16382983Y8775683D01*
X12311442Y7251675D02*
X12362225D01*
X12336834D01*
Y7099325D01*
X12311442D01*
X12362225D01*
X12539968Y7226283D02*
X12514576Y7251675D01*
X12463792D01*
X12438401Y7226283D01*
Y7124717D01*
X12463792Y7099325D01*
X12514576D01*
X12539968Y7124717D01*
X12692319Y7099325D02*
X12590751D01*
X12692319Y7200892D01*
Y7226283D01*
X12666927Y7251675D01*
X12616143D01*
X12590751Y7226283D01*
X12372394Y9248115D02*
X12423177D01*
X12397785D01*
Y9095765D01*
X12372394D01*
X12423177D01*
X12600920Y9222723D02*
X12575528Y9248115D01*
X12524744D01*
X12499352Y9222723D01*
Y9121157D01*
X12524744Y9095765D01*
X12575528D01*
X12600920Y9121157D01*
X12651703Y9095765D02*
X12702487D01*
X12677095D01*
Y9248115D01*
X12651703Y9222723D01*
X15090230Y5613375D02*
Y5461025D01*
X15191798D01*
X15344148Y5613375D02*
X15242581D01*
Y5461025D01*
X15344148D01*
X15242581Y5537200D02*
X15293365D01*
X15394933Y5613375D02*
Y5461025D01*
X15471107D01*
X15496500Y5486417D01*
Y5587983D01*
X15471107Y5613375D01*
X15394933D01*
X15648849Y5461025D02*
X15547282D01*
X15648849Y5562592D01*
Y5587983D01*
X15623457Y5613375D01*
X15572675D01*
X15547282Y5587983D01*
X14600002Y6116295D02*
Y5963945D01*
X14701570D01*
X14853920Y6116295D02*
X14752353D01*
Y5963945D01*
X14853920D01*
X14752353Y6040120D02*
X14803137D01*
X14904704Y6116295D02*
Y5963945D01*
X14980879D01*
X15006271Y5989337D01*
Y6090903D01*
X14980879Y6116295D01*
X14904704D01*
X15057054Y5963945D02*
X15107838D01*
X15082446D01*
Y6116295D01*
X15057054Y6090903D01*
X14208789Y7416783D02*
X14183397Y7442175D01*
X14132614D01*
X14107222Y7416783D01*
Y7315217D01*
X14132614Y7289825D01*
X14183397D01*
X14208789Y7315217D01*
X14259572Y7289825D02*
X14310356D01*
X14284964D01*
Y7442175D01*
X14259572Y7416783D01*
X14488100Y7442175D02*
X14437315Y7416783D01*
X14386531Y7366000D01*
Y7315217D01*
X14411923Y7289825D01*
X14462708D01*
X14488100Y7315217D01*
Y7340608D01*
X14462708Y7366000D01*
X14386531D01*
X12237749Y5849603D02*
X12212357Y5874995D01*
X12161574D01*
X12136182Y5849603D01*
Y5748037D01*
X12161574Y5722645D01*
X12212357D01*
X12237749Y5748037D01*
X12288532Y5722645D02*
X12339316D01*
X12313924D01*
Y5874995D01*
X12288532Y5849603D01*
X12517059Y5874995D02*
X12415491D01*
Y5798820D01*
X12466275Y5824212D01*
X12491667D01*
X12517059Y5798820D01*
Y5748037D01*
X12491667Y5722645D01*
X12440883D01*
X12415491Y5748037D01*
X13218188Y7269463D02*
X13192796Y7294855D01*
X13142014D01*
X13116621Y7269463D01*
Y7167897D01*
X13142014Y7142505D01*
X13192796D01*
X13218188Y7167897D01*
X13268971Y7142505D02*
X13319756D01*
X13294363D01*
Y7294855D01*
X13268971Y7269463D01*
X13472107Y7142505D02*
Y7294855D01*
X13395930Y7218680D01*
X13497499D01*
X12710189Y5857223D02*
X12684797Y5882615D01*
X12634014D01*
X12608622Y5857223D01*
Y5755657D01*
X12634014Y5730265D01*
X12684797D01*
X12710189Y5755657D01*
X12760972Y5730265D02*
X12811755D01*
X12786364D01*
Y5882615D01*
X12760972Y5857223D01*
X12887930D02*
X12913322Y5882615D01*
X12964107D01*
X12989499Y5857223D01*
Y5831832D01*
X12964107Y5806440D01*
X12938715D01*
X12964107D01*
X12989499Y5781048D01*
Y5755657D01*
X12964107Y5730265D01*
X12913322D01*
X12887930Y5755657D01*
X11724669Y6812263D02*
X11699277Y6837655D01*
X11648494D01*
X11623102Y6812263D01*
Y6710697D01*
X11648494Y6685305D01*
X11699277D01*
X11724669Y6710697D01*
X11775452Y6685305D02*
X11826236D01*
X11800844D01*
Y6837655D01*
X11775452Y6812263D01*
X12003979Y6685305D02*
X11902411D01*
X12003979Y6786872D01*
Y6812263D01*
X11978587Y6837655D01*
X11927803D01*
X11902411Y6812263D01*
X12522221Y7894303D02*
X12496829Y7919695D01*
X12446045D01*
X12420654Y7894303D01*
Y7792737D01*
X12446045Y7767345D01*
X12496829D01*
X12522221Y7792737D01*
X12573004Y7767345D02*
X12623788D01*
X12598396D01*
Y7919695D01*
X12573004Y7894303D01*
X12699963Y7767345D02*
X12750747D01*
X12725355D01*
Y7919695D01*
X12699963Y7894303D01*
X13312169Y9311623D02*
X13286777Y9337015D01*
X13235994D01*
X13210602Y9311623D01*
Y9210057D01*
X13235994Y9184665D01*
X13286777D01*
X13312169Y9210057D01*
X13362952Y9184665D02*
X13413736D01*
X13388344D01*
Y9337015D01*
X13362952Y9311623D01*
X13489911D02*
X13515303Y9337015D01*
X13566087D01*
X13591479Y9311623D01*
Y9210057D01*
X13566087Y9184665D01*
X13515303D01*
X13489911Y9210057D01*
Y9311623D01*
X14457687Y6619223D02*
X14432297Y6644615D01*
X14381512D01*
X14356120Y6619223D01*
Y6517657D01*
X14381512Y6492265D01*
X14432297D01*
X14457687Y6517657D01*
X14508472D02*
X14533864Y6492265D01*
X14584647D01*
X14610039Y6517657D01*
Y6619223D01*
X14584647Y6644615D01*
X14533864D01*
X14508472Y6619223D01*
Y6593832D01*
X14533864Y6568440D01*
X14610039D01*
X16400787Y7739363D02*
X16375397Y7764755D01*
X16324612D01*
X16299220Y7739363D01*
Y7637797D01*
X16324612Y7612405D01*
X16375397D01*
X16400787Y7637797D01*
X16451572Y7739363D02*
X16476964Y7764755D01*
X16527747D01*
X16553139Y7739363D01*
Y7713972D01*
X16527747Y7688580D01*
X16553139Y7663188D01*
Y7637797D01*
X16527747Y7612405D01*
X16476964D01*
X16451572Y7637797D01*
Y7663188D01*
X16476964Y7688580D01*
X16451572Y7713972D01*
Y7739363D01*
X16476964Y7688580D02*
X16527747D01*
X16062968Y7731743D02*
X16037576Y7757135D01*
X15986794D01*
X15961401Y7731743D01*
Y7630177D01*
X15986794Y7604785D01*
X16037576D01*
X16062968Y7630177D01*
X16113753Y7757135D02*
X16215318D01*
Y7731743D01*
X16113753Y7630177D01*
Y7604785D01*
X14554208Y7937483D02*
X14528818Y7962875D01*
X14478033D01*
X14452641Y7937483D01*
Y7835917D01*
X14478033Y7810525D01*
X14528818D01*
X14554208Y7835917D01*
X14706560Y7962875D02*
X14655775Y7937483D01*
X14604993Y7886700D01*
Y7835917D01*
X14630383Y7810525D01*
X14681168D01*
X14706560Y7835917D01*
Y7861308D01*
X14681168Y7886700D01*
X14604993D01*
X14554208Y7734283D02*
X14528818Y7759675D01*
X14478033D01*
X14452641Y7734283D01*
Y7632717D01*
X14478033Y7607325D01*
X14528818D01*
X14554208Y7632717D01*
X14706560Y7759675D02*
X14604993D01*
Y7683500D01*
X14655775Y7708892D01*
X14681168D01*
X14706560Y7683500D01*
Y7632717D01*
X14681168Y7607325D01*
X14630383D01*
X14604993Y7632717D01*
X16148128Y6299183D02*
X16122737Y6324575D01*
X16071953D01*
X16046561Y6299183D01*
Y6197617D01*
X16071953Y6172225D01*
X16122737D01*
X16148128Y6197617D01*
X16275087Y6172225D02*
Y6324575D01*
X16198912Y6248400D01*
X16300479D01*
X14559288Y6339823D02*
X14533897Y6365215D01*
X14483113D01*
X14457721Y6339823D01*
Y6238257D01*
X14483113Y6212865D01*
X14533897D01*
X14559288Y6238257D01*
X14610072Y6339823D02*
X14635464Y6365215D01*
X14686247D01*
X14711639Y6339823D01*
Y6314432D01*
X14686247Y6289040D01*
X14660855D01*
X14686247D01*
X14711639Y6263648D01*
Y6238257D01*
X14686247Y6212865D01*
X14635464D01*
X14610072Y6238257D01*
X12212328Y7899383D02*
X12186937Y7924775D01*
X12136153D01*
X12110761Y7899383D01*
Y7797817D01*
X12136153Y7772425D01*
X12186937D01*
X12212328Y7797817D01*
X12364679Y7772425D02*
X12263112D01*
X12364679Y7873992D01*
Y7899383D01*
X12339287Y7924775D01*
X12288504D01*
X12263112Y7899383D01*
X11915140Y8849343D02*
X11889748Y8874735D01*
X11838965D01*
X11813573Y8849343D01*
Y8747777D01*
X11838965Y8722385D01*
X11889748D01*
X11915140Y8747777D01*
X11965924Y8722385D02*
X12016707D01*
X11991316D01*
Y8874735D01*
X11965924Y8849343D01*
%TF.MD5,218cf69ac11a50392b35e86551a92ca1*%
M02*
