%TF.GenerationSoftware,Altium Limited,Altium Designer,26.3.0 (6)*%
G04 Layer_Color=0*
%FSLAX45Y45*%
%MOMM*%
%TF.SameCoordinates,F650EF1A-6A8E-4984-9C3B-7DEA357092AC*%
%TF.FilePolarity,Positive*%
%TF.FileFunction,Plated,1,2,PTH,Drill*%
%TF.Part,Single*%
G01*
G75*
%TA.AperFunction,ComponentDrill*%
%ADD29C,1.10000*%
%ADD30C,5.20000*%
%TA.AperFunction,ViaDrill,NotFilled*%
%ADD31C,0.45000*%
D29*
X1800000Y11300000D02*
D03*
Y10950000D02*
D03*
Y10600000D02*
D03*
Y10250000D02*
D03*
Y9900000D02*
D03*
Y9550000D02*
D03*
Y9200000D02*
D03*
Y8850000D02*
D03*
D30*
X3500000Y13100000D02*
D03*
X3507124Y10013538D02*
D03*
X3500000Y7000000D02*
D03*
D31*
X14081232Y6877556D02*
D03*
X12874844Y6873293D02*
D03*
X11676985Y6881819D02*
D03*
X10479121Y6869031D02*
D03*
X9276998Y6877556D02*
D03*
X8079136Y6869030D02*
D03*
X6881272Y6877556D02*
D03*
X5674884Y6860504D02*
D03*
X14081236Y8092471D02*
D03*
X12874847D02*
D03*
X11672722Y8092471D02*
D03*
X10479124Y8083946D02*
D03*
X9276997Y8096734D02*
D03*
X8079138D02*
D03*
X6877012Y8092471D02*
D03*
X5679150Y8075420D02*
D03*
X14080951Y9269718D02*
D03*
X12876888D02*
D03*
X11679611Y9266324D02*
D03*
X10475554Y9273107D02*
D03*
X9278277Y9276498D02*
D03*
X8077610Y9266323D02*
D03*
X6876942Y9273107D02*
D03*
X5676273Y9276499D02*
D03*
X14076088Y10494344D02*
D03*
X12873798Y10498469D02*
D03*
X11675630Y10496407D02*
D03*
X10477464Y10496406D02*
D03*
X9275175D02*
D03*
X8072883Y10496402D02*
D03*
X6875639Y10495382D02*
D03*
X5675544Y10499548D02*
D03*
X14079268Y11686983D02*
D03*
X12876601D02*
D03*
X11676332Y11686985D02*
D03*
X10476068Y11684591D02*
D03*
X9275802Y11686987D02*
D03*
X8075533Y11684592D02*
D03*
X6877662Y11672614D02*
D03*
X5674998Y11677405D02*
D03*
X5678122Y12856975D02*
D03*
X14077708Y12881827D02*
D03*
X12875826Y12864780D02*
D03*
X11673947Y12875433D02*
D03*
X10478459Y12877567D02*
D03*
X9275255Y12878506D02*
D03*
X8079237Y12883655D02*
D03*
X6878622Y12860326D02*
D03*
%TF.MD5,81d1d4639617ec3a581b3b8c5bff9712*%
M02*
