%TF.GenerationSoftware,Altium Limited,Altium Designer,26.3.0 (6)*%
G04 Layer_Physical_Order=1*
G04 Layer_Color=255*
%FSLAX45Y45*%
%MOMM*%
%TF.SameCoordinates,F650EF1A-6A8E-4984-9C3B-7DEA357092AC*%
%TF.FilePolarity,Positive*%
%TF.FileFunction,Copper,L1,Top,Signal*%
%TF.Part,Single*%
G01*
G75*
%TA.AperFunction,SMDPad,CuDef*%
%ADD10R,1.35000X1.55000*%
%ADD11R,1.50000X0.90000*%
%TA.AperFunction,Conductor*%
%ADD12C,0.25400*%
%TA.AperFunction,ComponentPad*%
%ADD13C,1.65000*%
%ADD14R,1.65000X1.65000*%
%ADD15C,6.50000*%
%TA.AperFunction,ViaPad*%
%ADD16C,0.80000*%
G36*
X14458337Y13992314D02*
X14494736Y13977237D01*
X14527492Y13955350D01*
X14555350Y13927492D01*
X14577238Y13894736D01*
X14592314Y13858337D01*
X14600000Y13819698D01*
Y13800000D01*
Y6300000D01*
Y6280302D01*
X14592314Y6241662D01*
X14577238Y6205264D01*
X14555350Y6172507D01*
X14527492Y6144650D01*
X14494736Y6122762D01*
X14458337Y6107686D01*
X14419698Y6100000D01*
X1700000D01*
Y8500000D01*
X1400000D01*
Y11600000D01*
X1700000D01*
Y14000000D01*
X14419698D01*
X14458337Y13992314D01*
D02*
G37*
%LPC*%
G36*
X7500213Y13393231D02*
X7490380Y13391275D01*
X7482044Y13385706D01*
X7476475Y13377370D01*
X7474519Y13367537D01*
X7476475Y13357706D01*
X7482044Y13349368D01*
X7484582Y13346832D01*
X7492917Y13341261D01*
X7502750Y13339307D01*
X7512583Y13341261D01*
X7520918Y13346832D01*
X7526488Y13355167D01*
X7528444Y13364999D01*
X7526488Y13374834D01*
X7520918Y13383168D01*
X7518381Y13385706D01*
X7510045Y13391275D01*
X7500213Y13393231D01*
D02*
G37*
G36*
X6222700Y13422993D02*
X6212867Y13421037D01*
X6204531Y13415466D01*
X6198962Y13407132D01*
X6197006Y13397299D01*
X6198962Y13387466D01*
X6204531Y13379131D01*
X6236832Y13346831D01*
X6245167Y13341261D01*
X6255000Y13339305D01*
X6264833Y13341261D01*
X6273168Y13346831D01*
X6278738Y13355167D01*
X6280694Y13364999D01*
X6278738Y13374832D01*
X6273168Y13383167D01*
X6240868Y13415466D01*
X6232532Y13421037D01*
X6222700Y13422993D01*
D02*
G37*
G36*
X5055000Y13390694D02*
X5045167Y13388737D01*
X5036832Y13383168D01*
X5032648Y13378986D01*
X5027079Y13370650D01*
X5025123Y13360817D01*
X5027079Y13350984D01*
X5032648Y13342648D01*
X5040984Y13337077D01*
X5050817Y13335123D01*
X5060649Y13337077D01*
X5068985Y13342648D01*
X5073168Y13346832D01*
X5078738Y13355167D01*
X5080694Y13364999D01*
X5078738Y13374834D01*
X5073168Y13383168D01*
X5064833Y13388737D01*
X5055000Y13390694D01*
D02*
G37*
G36*
X14032500Y13422501D02*
X13857500D01*
Y13307500D01*
X14032500D01*
Y13422501D01*
D02*
G37*
G36*
X11632500Y13422501D02*
X11457500D01*
Y13307501D01*
X11632500D01*
Y13339307D01*
X11884357D01*
X12167500Y13056165D01*
Y12977501D01*
X12342500D01*
Y13092500D01*
X12203837D01*
X11913168Y13383170D01*
X11904833Y13388739D01*
X11895000Y13390695D01*
X11632500D01*
Y13422501D01*
D02*
G37*
G36*
X10432500Y13422499D02*
X10257500D01*
Y13307500D01*
X10432500D01*
Y13339305D01*
X10684359D01*
X10967500Y13056165D01*
Y12977501D01*
X11142500D01*
Y13092500D01*
X11003837D01*
X10713171Y13383167D01*
X10704835Y13388737D01*
X10695002Y13390694D01*
X10432500D01*
Y13422499D01*
D02*
G37*
G36*
X12832500Y13422501D02*
X12657500D01*
Y13307501D01*
X12832500D01*
Y13339307D01*
X13084357D01*
X13367500Y13056163D01*
Y12977499D01*
X13542500D01*
Y13092500D01*
X13403838D01*
X13113168Y13383170D01*
X13104832Y13388739D01*
X13095000Y13390695D01*
X12832500D01*
Y13422501D01*
D02*
G37*
G36*
X8032500Y13422501D02*
X7857500D01*
Y13307500D01*
X8032500D01*
Y13339307D01*
X8284357D01*
X8567500Y13056163D01*
Y12977499D01*
X8742500D01*
Y13092500D01*
X8603837D01*
X8313169Y13383168D01*
X8304833Y13388737D01*
X8295000Y13390694D01*
X8032500D01*
Y13422501D01*
D02*
G37*
G36*
X6832500Y13422499D02*
X6657500D01*
Y13307500D01*
X6832500D01*
Y13339305D01*
X7084358D01*
X7367500Y13056165D01*
Y12977499D01*
X7542500D01*
Y13092500D01*
X7403837D01*
X7113170Y13383167D01*
X7104834Y13388737D01*
X7095001Y13390694D01*
X6832500D01*
Y13422499D01*
D02*
G37*
G36*
X9232500Y13422501D02*
X9057500D01*
Y13307500D01*
X9232500D01*
Y13339307D01*
X9484356D01*
X9767500Y13056161D01*
Y12977499D01*
X9942500D01*
Y13092499D01*
X9803837D01*
X9513168Y13383168D01*
X9504832Y13388737D01*
X9494999Y13390694D01*
X9232500D01*
Y13422501D01*
D02*
G37*
G36*
X5632500D02*
X5457500D01*
Y13307500D01*
X5632500D01*
Y13339307D01*
X5884356D01*
X6167500Y13056161D01*
Y12977499D01*
X6342500D01*
Y13092499D01*
X6203837D01*
X5913167Y13383168D01*
X5904832Y13388737D01*
X5894999Y13390694D01*
X5632500D01*
Y13422501D01*
D02*
G37*
G36*
X8032500Y13092500D02*
X7857500D01*
Y12977499D01*
X7996163D01*
X8034103Y12939561D01*
Y12910605D01*
X8029783Y12904140D01*
X8025708Y12883655D01*
X8028561Y12869316D01*
X7892500Y12733255D01*
X7880000Y12738433D01*
Y12789999D01*
X7720000D01*
Y12609999D01*
X7880000D01*
Y12674305D01*
X7895580D01*
X7905413Y12676261D01*
X7913749Y12681831D01*
X8064897Y12832979D01*
X8079237Y12830127D01*
X8099721Y12834201D01*
X8117087Y12845805D01*
X8128690Y12863171D01*
X8132765Y12883655D01*
X8128690Y12904140D01*
X8117087Y12921506D01*
X8099721Y12933109D01*
X8085490Y12935941D01*
Y12950204D01*
X8083535Y12960036D01*
X8077965Y12968372D01*
X8032500Y13013837D01*
Y13092500D01*
D02*
G37*
G36*
X14032500D02*
X13857500D01*
Y12977499D01*
X13996162D01*
X14032574Y12941087D01*
Y12908777D01*
X14028255Y12902312D01*
X14024181Y12881827D01*
X14027032Y12867488D01*
X13892500Y12732955D01*
X13880000Y12738133D01*
Y12790000D01*
X13720000D01*
Y12610000D01*
X13880000D01*
Y12674306D01*
X13895882D01*
X13905714Y12676262D01*
X13914050Y12681832D01*
X14063370Y12831151D01*
X14077708Y12828299D01*
X14098193Y12832375D01*
X14115559Y12843977D01*
X14127164Y12861343D01*
X14131238Y12881827D01*
X14127164Y12902312D01*
X14115559Y12919678D01*
X14098193Y12931281D01*
X14083963Y12934113D01*
Y12951730D01*
X14082007Y12961565D01*
X14076437Y12969899D01*
X14032500Y13013837D01*
Y13092500D01*
D02*
G37*
G36*
X9232500D02*
X9057500D01*
Y12977499D01*
X9196163D01*
X9230121Y12943542D01*
Y12905457D01*
X9225801Y12898991D01*
X9221727Y12878506D01*
X9224579Y12864168D01*
X9092500Y12732089D01*
X9080000Y12737267D01*
Y12790000D01*
X8920000D01*
Y12610000D01*
X9080000D01*
Y12674306D01*
X9096748D01*
X9106580Y12676262D01*
X9114916Y12681832D01*
X9260916Y12827831D01*
X9275255Y12824979D01*
X9295739Y12829053D01*
X9313105Y12840657D01*
X9324709Y12858023D01*
X9328783Y12878506D01*
X9324709Y12898991D01*
X9313105Y12916357D01*
X9295739Y12927962D01*
X9281509Y12930792D01*
Y12954185D01*
X9279553Y12964018D01*
X9273983Y12972354D01*
X9232500Y13013837D01*
Y13092500D01*
D02*
G37*
G36*
X10432500Y13092499D02*
X10257500D01*
Y12977499D01*
X10396163D01*
X10433325Y12940337D01*
Y12904517D01*
X10429005Y12898051D01*
X10424931Y12877567D01*
X10427783Y12863226D01*
X10292500Y12727944D01*
X10280000Y12731130D01*
Y12789998D01*
X10120000D01*
Y12609998D01*
X10280000D01*
Y12674304D01*
X10300891D01*
X10310723Y12676260D01*
X10319059Y12681830D01*
X10464120Y12826891D01*
X10478459Y12824039D01*
X10498943Y12828113D01*
X10516309Y12839716D01*
X10527913Y12857082D01*
X10531988Y12877567D01*
X10527913Y12898051D01*
X10516309Y12915417D01*
X10498943Y12927020D01*
X10484713Y12929851D01*
Y12950980D01*
X10482757Y12960812D01*
X10477187Y12969148D01*
X10432500Y13013837D01*
Y13092499D01*
D02*
G37*
G36*
X11632500Y13092500D02*
X11457500D01*
Y12977501D01*
X11596163D01*
X11628813Y12944852D01*
Y12902383D01*
X11624493Y12895918D01*
X11620418Y12875433D01*
X11623271Y12861095D01*
X11492500Y12730324D01*
X11480000Y12735502D01*
Y12789998D01*
X11320000D01*
Y12609998D01*
X11480000D01*
Y12674304D01*
X11498511D01*
X11508344Y12676260D01*
X11516679Y12681830D01*
X11659607Y12824757D01*
X11673947Y12821906D01*
X11694431Y12825980D01*
X11711797Y12837582D01*
X11723400Y12854948D01*
X11727475Y12875433D01*
X11723400Y12895918D01*
X11711797Y12913284D01*
X11694431Y12924889D01*
X11680200Y12927718D01*
Y12955495D01*
X11678245Y12965327D01*
X11672675Y12973663D01*
X11632500Y13013838D01*
Y13092500D01*
D02*
G37*
G36*
X12832500D02*
X12657500D01*
Y12977501D01*
X12796163D01*
X12830692Y12942972D01*
Y12891730D01*
X12826372Y12885265D01*
X12822298Y12864780D01*
X12825150Y12850441D01*
X12700403Y12725694D01*
X12680000D01*
Y12790000D01*
X12520000D01*
Y12610000D01*
X12680000D01*
Y12674306D01*
X12711046D01*
X12720879Y12676262D01*
X12729214Y12681832D01*
X12861487Y12814104D01*
X12875826Y12811250D01*
X12896310Y12815326D01*
X12913676Y12826930D01*
X12925281Y12844296D01*
X12929353Y12864780D01*
X12925281Y12885265D01*
X12913676Y12902631D01*
X12896310Y12914233D01*
X12882080Y12917064D01*
Y12953615D01*
X12880124Y12963448D01*
X12874554Y12971783D01*
X12832500Y13013838D01*
Y13092500D01*
D02*
G37*
G36*
X6832500Y13092499D02*
X6657500D01*
Y12977499D01*
X6796163D01*
X6833488Y12940173D01*
Y12887274D01*
X6829168Y12880809D01*
X6825094Y12860326D01*
X6827946Y12845985D01*
X6707654Y12725693D01*
X6680000D01*
Y12789999D01*
X6520000D01*
Y12609999D01*
X6680000D01*
Y12674305D01*
X6718296D01*
X6728129Y12676261D01*
X6736465Y12681831D01*
X6864283Y12809650D01*
X6878622Y12806796D01*
X6899107Y12810870D01*
X6916473Y12822475D01*
X6928076Y12839841D01*
X6932151Y12860326D01*
X6928076Y12880809D01*
X6916473Y12898175D01*
X6899107Y12909779D01*
X6884876Y12912608D01*
Y12950816D01*
X6882920Y12960649D01*
X6877350Y12968985D01*
X6832500Y13013837D01*
Y13092499D01*
D02*
G37*
G36*
X5632500Y13092500D02*
X5457500D01*
Y12977499D01*
X5596163D01*
X5632988Y12940675D01*
Y12883923D01*
X5628668Y12877460D01*
X5624593Y12856975D01*
X5627446Y12842636D01*
X5510503Y12725693D01*
X5480000D01*
Y12789999D01*
X5320000D01*
Y12609999D01*
X5480000D01*
Y12674305D01*
X5521146D01*
X5530978Y12676261D01*
X5539314Y12681831D01*
X5663782Y12806299D01*
X5678122Y12803447D01*
X5698606Y12807521D01*
X5715972Y12819125D01*
X5727576Y12836491D01*
X5731650Y12856975D01*
X5727576Y12877460D01*
X5715972Y12894826D01*
X5698606Y12906429D01*
X5684375Y12909259D01*
Y12951318D01*
X5682420Y12961151D01*
X5676850Y12969487D01*
X5632500Y13013837D01*
Y13092500D01*
D02*
G37*
G36*
X14032500Y12222500D02*
X13857500D01*
Y12107500D01*
X14032500D01*
Y12222500D01*
D02*
G37*
G36*
X11632500Y12222501D02*
X11457500D01*
Y12107501D01*
X11632500D01*
Y12139307D01*
X11884358D01*
X12167500Y11856165D01*
Y11777501D01*
X12342500D01*
Y11892501D01*
X12203837D01*
X11913169Y12183170D01*
X11904833Y12188739D01*
X11895001Y12190695D01*
X11632500D01*
Y12222501D01*
D02*
G37*
G36*
X10432500Y12222500D02*
X10257500D01*
Y12107500D01*
X10432500D01*
Y12139306D01*
X10684358D01*
X10967500Y11856165D01*
Y11777501D01*
X11142500D01*
Y11892501D01*
X11003836D01*
X10713169Y12183169D01*
X10704834Y12188738D01*
X10695001Y12190694D01*
X10432500D01*
Y12222500D01*
D02*
G37*
G36*
X12832500Y12222501D02*
X12657500D01*
Y12107501D01*
X12832500D01*
Y12139307D01*
X13084357D01*
X13367500Y11856164D01*
Y11777500D01*
X13542500D01*
Y11892500D01*
X13403838D01*
X13113168Y12183170D01*
X13104832Y12188739D01*
X13095000Y12190695D01*
X12832500D01*
Y12222501D01*
D02*
G37*
G36*
X9232499Y12222499D02*
X9057500D01*
Y12107499D01*
X9232499D01*
Y12139305D01*
X9484358D01*
X9767500Y11856164D01*
Y11777500D01*
X9942500D01*
Y11892500D01*
X9803837D01*
X9513170Y12183168D01*
X9504834Y12188737D01*
X9495001Y12190693D01*
X9232499D01*
Y12222499D01*
D02*
G37*
G36*
X5142500Y11892500D02*
X4967500D01*
Y11860694D01*
X4335000D01*
X4325168Y11858738D01*
X4316832Y11853169D01*
X3439357Y10975694D01*
X1892185D01*
X1882982Y10997910D01*
X1867755Y11017755D01*
X1847910Y11032983D01*
X1824800Y11042555D01*
X1800000Y11045820D01*
X1775200Y11042555D01*
X1752090Y11032983D01*
X1732245Y11017755D01*
X1717018Y10997910D01*
X1707445Y10974800D01*
X1704180Y10950000D01*
X1707445Y10925200D01*
X1717018Y10902090D01*
X1732245Y10882245D01*
X1752090Y10867018D01*
X1775200Y10857445D01*
X1800000Y10854180D01*
X1824800Y10857445D01*
X1847910Y10867018D01*
X1867755Y10882245D01*
X1882982Y10902090D01*
X1892184Y10924306D01*
X3450000D01*
X3459833Y10926262D01*
X3468168Y10931832D01*
X4345643Y11809306D01*
X4967500D01*
Y11777500D01*
X5142500D01*
Y11892500D01*
D02*
G37*
G36*
X8032500Y12222498D02*
X7857500D01*
Y12107498D01*
X8032500D01*
Y12139304D01*
X8284358D01*
X8567500Y11856163D01*
Y11777499D01*
X8742499D01*
Y11892499D01*
X8603836D01*
X8313169Y12183167D01*
X8304833Y12188736D01*
X8295001Y12190692D01*
X8032500D01*
Y12222498D01*
D02*
G37*
G36*
X5632500Y12222500D02*
X5457500D01*
Y12107500D01*
X5632500D01*
Y12139306D01*
X5884357D01*
X6167500Y11856163D01*
Y11777499D01*
X6342500D01*
Y11892499D01*
X6203836D01*
X5913168Y12183168D01*
X5904832Y12188738D01*
X5894999Y12190694D01*
X5632500D01*
Y12222500D01*
D02*
G37*
G36*
X6832500Y12222499D02*
X6657500D01*
Y12107499D01*
X6832500D01*
Y12139305D01*
X7084356D01*
X7367500Y11856162D01*
Y11777498D01*
X7542500D01*
Y11892498D01*
X7403837D01*
X7113167Y12183168D01*
X7104832Y12188737D01*
X7094999Y12190693D01*
X6832500D01*
Y12222499D01*
D02*
G37*
G36*
X9232499Y11892499D02*
X9057500D01*
Y11777499D01*
X9196163D01*
X9230668Y11742995D01*
Y11713936D01*
X9226348Y11707471D01*
X9222273Y11686987D01*
X9225126Y11672648D01*
X9142972Y11590494D01*
X9054800D01*
X9052318Y11590000D01*
X8920000D01*
Y11410000D01*
X9080000D01*
Y11539106D01*
X9153615D01*
X9163447Y11541062D01*
X9171783Y11546632D01*
X9261462Y11636311D01*
X9275802Y11633459D01*
X9296286Y11637533D01*
X9313652Y11649137D01*
X9325255Y11666503D01*
X9329330Y11686987D01*
X9325255Y11707471D01*
X9313652Y11724837D01*
X9296286Y11736441D01*
X9282055Y11739271D01*
Y11753637D01*
X9280100Y11763470D01*
X9274530Y11771806D01*
X9232499Y11813836D01*
Y11892499D01*
D02*
G37*
G36*
X11632500Y11892501D02*
X11457500D01*
Y11777501D01*
X11596163D01*
X11631198Y11742466D01*
Y11713934D01*
X11626878Y11707469D01*
X11622804Y11686985D01*
X11625656Y11672645D01*
X11543504Y11590494D01*
X11454800D01*
X11452318Y11590000D01*
X11320000D01*
Y11410000D01*
X11480000D01*
Y11539106D01*
X11554147D01*
X11563980Y11541062D01*
X11572316Y11546632D01*
X11661993Y11636309D01*
X11676332Y11633457D01*
X11696817Y11637531D01*
X11714183Y11649135D01*
X11725786Y11666501D01*
X11729861Y11686985D01*
X11725786Y11707469D01*
X11714183Y11724835D01*
X11696817Y11736439D01*
X11682586Y11739269D01*
Y11753109D01*
X11680630Y11762942D01*
X11675060Y11771277D01*
X11632500Y11813838D01*
Y11892501D01*
D02*
G37*
G36*
X14032500Y11892500D02*
X13857500D01*
Y11777500D01*
X13996162D01*
X14034134Y11739530D01*
Y11713932D01*
X14029814Y11707467D01*
X14025739Y11686983D01*
X14028592Y11672643D01*
X13892500Y11536552D01*
X13880000Y11541730D01*
Y11590000D01*
X13720000D01*
Y11410000D01*
X13880000D01*
Y11474306D01*
X13892285D01*
X13902116Y11476262D01*
X13910452Y11481832D01*
X14064928Y11636307D01*
X14079268Y11633455D01*
X14099751Y11637529D01*
X14117117Y11649133D01*
X14128722Y11666499D01*
X14132796Y11686983D01*
X14128722Y11707467D01*
X14117117Y11724833D01*
X14099751Y11736437D01*
X14087711Y11738832D01*
X14085522Y11750173D01*
X14083566Y11760005D01*
X14077995Y11768341D01*
X14032500Y11813837D01*
Y11892500D01*
D02*
G37*
G36*
X12832500Y11892501D02*
X12657500D01*
Y11777501D01*
X12796164D01*
X12831467Y11742198D01*
Y11713932D01*
X12827147Y11707467D01*
X12823073Y11686983D01*
X12825925Y11672644D01*
X12743775Y11590494D01*
X12654800D01*
X12652318Y11590000D01*
X12520000D01*
Y11410000D01*
X12680000D01*
Y11539106D01*
X12754418D01*
X12764251Y11541062D01*
X12772587Y11546632D01*
X12862262Y11636307D01*
X12876601Y11633455D01*
X12897086Y11637529D01*
X12914452Y11649133D01*
X12926054Y11666499D01*
X12930130Y11686983D01*
X12926054Y11707467D01*
X12914452Y11724833D01*
X12897086Y11736437D01*
X12882855Y11739267D01*
Y11752841D01*
X12880899Y11762674D01*
X12875330Y11771009D01*
X12832500Y11813838D01*
Y11892501D01*
D02*
G37*
G36*
X8032500Y11892498D02*
X7857500D01*
Y11777498D01*
X7996163D01*
X8030399Y11743262D01*
Y11711542D01*
X8026079Y11705077D01*
X8022005Y11684592D01*
X8024857Y11670253D01*
X7892500Y11537896D01*
X7880000Y11543074D01*
Y11590000D01*
X7720000D01*
Y11410000D01*
X7880000D01*
Y11474306D01*
X7890941D01*
X7900774Y11476262D01*
X7909109Y11481832D01*
X8061194Y11633916D01*
X8075533Y11631064D01*
X8096018Y11635139D01*
X8113384Y11646742D01*
X8124987Y11664108D01*
X8129062Y11684592D01*
X8124987Y11705077D01*
X8113384Y11722443D01*
X8096018Y11734046D01*
X8081787Y11736877D01*
Y11753905D01*
X8079831Y11763738D01*
X8074261Y11772073D01*
X8032500Y11813835D01*
Y11892498D01*
D02*
G37*
G36*
X10432500Y11892500D02*
X10257500D01*
Y11777500D01*
X10396163D01*
X10430934Y11742729D01*
Y11711541D01*
X10426615Y11705076D01*
X10422540Y11684591D01*
X10425392Y11670252D01*
X10292500Y11537360D01*
X10280000Y11542538D01*
Y11590000D01*
X10120000D01*
Y11410000D01*
X10280000D01*
Y11474306D01*
X10291477D01*
X10301310Y11476262D01*
X10309646Y11481832D01*
X10461729Y11633915D01*
X10476068Y11631063D01*
X10496553Y11635138D01*
X10513919Y11646741D01*
X10525522Y11664107D01*
X10529597Y11684591D01*
X10525522Y11705076D01*
X10513919Y11722442D01*
X10496553Y11734045D01*
X10482322Y11736876D01*
Y11753372D01*
X10480366Y11763205D01*
X10474797Y11771541D01*
X10432500Y11813837D01*
Y11892500D01*
D02*
G37*
G36*
X5632500Y11892500D02*
X5457500D01*
Y11777500D01*
X5596163D01*
X5629864Y11743800D01*
Y11704355D01*
X5625544Y11697889D01*
X5621469Y11677405D01*
X5624321Y11663066D01*
X5492500Y11531245D01*
X5480000Y11536422D01*
Y11590000D01*
X5320000D01*
Y11410000D01*
X5480000D01*
Y11474306D01*
X5497593D01*
X5507425Y11476262D01*
X5515761Y11481832D01*
X5660658Y11626729D01*
X5674998Y11623877D01*
X5695482Y11627951D01*
X5712848Y11639555D01*
X5724451Y11656921D01*
X5728526Y11677405D01*
X5724451Y11697889D01*
X5712848Y11715255D01*
X5695482Y11726859D01*
X5681251Y11729690D01*
Y11754443D01*
X5679295Y11764275D01*
X5673726Y11772611D01*
X5632500Y11813837D01*
Y11892500D01*
D02*
G37*
G36*
X6832500Y11892499D02*
X6657500D01*
Y11777499D01*
X6796163D01*
X6832528Y11741135D01*
Y11699563D01*
X6828208Y11693098D01*
X6824133Y11672614D01*
X6826986Y11658274D01*
X6694405Y11525694D01*
X6680000D01*
Y11590000D01*
X6520000D01*
Y11410000D01*
X6680000D01*
Y11474306D01*
X6705048D01*
X6714881Y11476262D01*
X6723217Y11481832D01*
X6863322Y11621938D01*
X6877662Y11619085D01*
X6898146Y11623160D01*
X6915512Y11634763D01*
X6927115Y11652129D01*
X6931190Y11672614D01*
X6927115Y11693098D01*
X6915512Y11710464D01*
X6898146Y11722067D01*
X6883915Y11724898D01*
Y11751777D01*
X6883916Y11751778D01*
X6881960Y11761610D01*
X6876390Y11769946D01*
X6832500Y11813836D01*
Y11892499D01*
D02*
G37*
G36*
X5142500Y13092500D02*
X4967500D01*
Y13013837D01*
X3279357Y11325694D01*
X1892185Y11325694D01*
X1882982Y11347910D01*
X1867755Y11367755D01*
X1847910Y11382982D01*
X1824800Y11392555D01*
X1800000Y11395820D01*
X1775200Y11392555D01*
X1752090Y11382982D01*
X1732245Y11367755D01*
X1717018Y11347910D01*
X1707445Y11324800D01*
X1704180Y11300000D01*
X1707445Y11275200D01*
X1717018Y11252090D01*
X1732245Y11232245D01*
X1752090Y11217018D01*
X1775200Y11207445D01*
X1800000Y11204180D01*
X1824800Y11207445D01*
X1847910Y11217018D01*
X1867755Y11232245D01*
X1882982Y11252090D01*
X1892184Y11274306D01*
X3290000Y11274306D01*
X3299833Y11276262D01*
X3308168Y11281832D01*
X5003837Y12977499D01*
X5142500D01*
Y13092500D01*
D02*
G37*
G36*
X14032500Y11022502D02*
X13857500D01*
Y10907502D01*
X14032500D01*
Y11022502D01*
D02*
G37*
G36*
X9232499Y11022503D02*
X9057500D01*
Y10907503D01*
X9232499D01*
Y10939309D01*
X9484358D01*
X9767500Y10656167D01*
Y10577504D01*
X9942500D01*
Y10692504D01*
X9803837D01*
X9513170Y10983171D01*
X9504834Y10988741D01*
X9495001Y10990697D01*
X9232499D01*
Y11022503D01*
D02*
G37*
G36*
X11632500D02*
X11457500D01*
Y10907503D01*
X11632500D01*
Y10939309D01*
X11884358D01*
X12167500Y10656166D01*
Y10577503D01*
X12342500D01*
Y10692503D01*
X12203837D01*
X11913169Y10983171D01*
X11904833Y10988741D01*
X11895001Y10990697D01*
X11632500D01*
Y11022503D01*
D02*
G37*
G36*
X10432500Y11022504D02*
X10257500D01*
Y10907504D01*
X10432500D01*
Y10939310D01*
X10684356D01*
X10967500Y10656166D01*
Y10577503D01*
X11142500D01*
Y10692503D01*
X11003837D01*
X10713167Y10983172D01*
X10704832Y10988742D01*
X10694999Y10990698D01*
X10432500D01*
Y11022504D01*
D02*
G37*
G36*
X8032500Y11022503D02*
X7857500D01*
Y10907503D01*
X8032500D01*
Y10939309D01*
X8284357D01*
X8567500Y10656166D01*
Y10577503D01*
X8742499D01*
Y10692503D01*
X8603836D01*
X8313168Y10983171D01*
X8304832Y10988741D01*
X8295000Y10990697D01*
X8032500D01*
Y11022503D01*
D02*
G37*
G36*
X6832500Y11022502D02*
X6657500D01*
Y10907502D01*
X6832500D01*
Y10939308D01*
X7084359D01*
X7367500Y10656166D01*
Y10577503D01*
X7542500D01*
Y10692503D01*
X7403837D01*
X7113170Y10983170D01*
X7104834Y10988740D01*
X7095002Y10990696D01*
X6832500D01*
Y11022502D01*
D02*
G37*
G36*
X12832500Y11022503D02*
X12657500D01*
Y10907503D01*
X12832500D01*
Y10939309D01*
X13084357D01*
X13367500Y10656165D01*
Y10577502D01*
X13542500D01*
Y10692502D01*
X13403838D01*
X13113168Y10983171D01*
X13104832Y10988741D01*
X13095000Y10990697D01*
X12832500D01*
Y11022503D01*
D02*
G37*
G36*
X5632500Y11022500D02*
X5457500D01*
Y10907500D01*
X5632500D01*
Y10939306D01*
X5884359D01*
X6167500Y10656165D01*
Y10577502D01*
X6342500D01*
Y10692502D01*
X6203837D01*
X5913171Y10983168D01*
X5904835Y10988738D01*
X5895002Y10990694D01*
X5632500D01*
Y11022500D01*
D02*
G37*
G36*
X1800000Y10695820D02*
X1775200Y10692555D01*
X1752090Y10682982D01*
X1732245Y10667755D01*
X1717018Y10647910D01*
X1707445Y10624800D01*
X1704180Y10600000D01*
X1707445Y10575200D01*
X1717018Y10552090D01*
X1732245Y10532245D01*
X1752090Y10517018D01*
X1775200Y10507445D01*
X1800000Y10504180D01*
X1824800Y10507445D01*
X1847910Y10517018D01*
X1867755Y10532245D01*
X1882982Y10552090D01*
X1892184Y10574306D01*
X4990000D01*
X4999833Y10576262D01*
X5001686Y10577500D01*
X5142500D01*
Y10692500D01*
X4967500D01*
Y10625694D01*
X1892185D01*
X1882982Y10647910D01*
X1867755Y10667755D01*
X1847910Y10682982D01*
X1824800Y10692555D01*
X1800000Y10695820D01*
D02*
G37*
G36*
X5632500Y10692500D02*
X5457500D01*
Y10577500D01*
X5596163D01*
X5630410Y10543253D01*
Y10526498D01*
X5626090Y10520033D01*
X5622016Y10499548D01*
X5624868Y10485209D01*
X5530153Y10390494D01*
X5454800D01*
X5452318Y10390000D01*
X5320000D01*
Y10210000D01*
X5480000D01*
Y10339106D01*
X5540796D01*
X5550628Y10341062D01*
X5558964Y10346632D01*
X5661205Y10448872D01*
X5675544Y10446020D01*
X5696028Y10450094D01*
X5713394Y10461698D01*
X5724998Y10479064D01*
X5729073Y10499548D01*
X5724998Y10520033D01*
X5713394Y10537399D01*
X5696028Y10549002D01*
X5681798Y10551833D01*
Y10553896D01*
X5679842Y10563729D01*
X5674272Y10572064D01*
X5632500Y10613837D01*
Y10692500D01*
D02*
G37*
G36*
X12832500Y10692503D02*
X12657500D01*
Y10577503D01*
X12796164D01*
X12828664Y10545003D01*
Y10525419D01*
X12824344Y10518954D01*
X12820270Y10498469D01*
X12823122Y10484130D01*
X12729486Y10390494D01*
X12654800D01*
X12652318Y10390000D01*
X12520000D01*
Y10210000D01*
X12680000D01*
Y10339106D01*
X12740129D01*
X12749961Y10341062D01*
X12758297Y10346632D01*
X12859459Y10447793D01*
X12873798Y10444941D01*
X12894283Y10449015D01*
X12911649Y10460619D01*
X12923251Y10477985D01*
X12927325Y10498469D01*
X12923251Y10518954D01*
X12911649Y10536320D01*
X12894283Y10547923D01*
X12880052Y10550754D01*
Y10555645D01*
X12878096Y10565478D01*
X12872527Y10573814D01*
X12832500Y10613840D01*
Y10692503D01*
D02*
G37*
G36*
X11632500D02*
X11457500D01*
Y10577503D01*
X11596163D01*
X11630496Y10543170D01*
Y10523356D01*
X11626176Y10516891D01*
X11622102Y10496407D01*
X11624954Y10482067D01*
X11533381Y10390494D01*
X11454800D01*
X11452318Y10390000D01*
X11320000D01*
Y10210000D01*
X11480000D01*
Y10339106D01*
X11544023D01*
X11553856Y10341062D01*
X11562192Y10346632D01*
X11661291Y10445731D01*
X11675630Y10442878D01*
X11696115Y10446953D01*
X11713481Y10458556D01*
X11725084Y10475922D01*
X11729159Y10496407D01*
X11725084Y10516891D01*
X11713481Y10534257D01*
X11696115Y10545861D01*
X11681884Y10548691D01*
Y10553813D01*
X11679928Y10563645D01*
X11674358Y10571981D01*
X11632500Y10613840D01*
Y10692503D01*
D02*
G37*
G36*
X10432500Y10692504D02*
X10257500D01*
Y10577504D01*
X10396163D01*
X10432330Y10541337D01*
Y10523355D01*
X10428011Y10516890D01*
X10423936Y10496406D01*
X10426788Y10482066D01*
X10335216Y10390494D01*
X10254800D01*
X10252318Y10390000D01*
X10120000D01*
Y10210000D01*
X10280000D01*
Y10339106D01*
X10345859D01*
X10355691Y10341062D01*
X10364027Y10346632D01*
X10463125Y10445730D01*
X10477464Y10442877D01*
X10497949Y10446952D01*
X10515315Y10458555D01*
X10526918Y10475921D01*
X10530993Y10496406D01*
X10526918Y10516890D01*
X10515315Y10534256D01*
X10497949Y10545860D01*
X10483718Y10548690D01*
Y10551980D01*
X10481762Y10561812D01*
X10476193Y10570148D01*
X10432500Y10613841D01*
Y10692504D01*
D02*
G37*
G36*
X9232499Y10692503D02*
X9057500D01*
Y10577503D01*
X9196163D01*
X9230041Y10543625D01*
Y10523355D01*
X9225721Y10516890D01*
X9221646Y10496406D01*
X9224499Y10482066D01*
X9132926Y10390494D01*
X9054800D01*
X9052318Y10390000D01*
X8920000D01*
Y10210000D01*
X9080000D01*
Y10339106D01*
X9143569D01*
X9153402Y10341062D01*
X9161737Y10346632D01*
X9260835Y10445730D01*
X9275175Y10442877D01*
X9295659Y10446952D01*
X9313025Y10458555D01*
X9324629Y10475921D01*
X9328703Y10496406D01*
X9324629Y10516890D01*
X9313025Y10534256D01*
X9295659Y10545860D01*
X9281428Y10548690D01*
Y10554268D01*
X9279473Y10564100D01*
X9273903Y10572436D01*
X9232499Y10613840D01*
Y10692503D01*
D02*
G37*
G36*
X8032500D02*
X7857500D01*
Y10577503D01*
X7996164D01*
X8027749Y10545917D01*
Y10523351D01*
X8023429Y10516886D01*
X8019355Y10496402D01*
X8022207Y10482062D01*
X7930638Y10390494D01*
X7854800D01*
X7852318Y10390000D01*
X7720000D01*
Y10210000D01*
X7880000D01*
Y10339106D01*
X7941281D01*
X7951114Y10341062D01*
X7959450Y10346632D01*
X8058544Y10445726D01*
X8072883Y10442873D01*
X8093367Y10446948D01*
X8110733Y10458551D01*
X8122337Y10475917D01*
X8126411Y10496402D01*
X8122337Y10516886D01*
X8110733Y10534252D01*
X8093367Y10545855D01*
X8079137Y10548686D01*
Y10556560D01*
X8077181Y10566393D01*
X8071611Y10574729D01*
X8032500Y10613840D01*
Y10692503D01*
D02*
G37*
G36*
X6832500Y10692502D02*
X6657500D01*
Y10577502D01*
X6796163D01*
X6830505Y10543161D01*
Y10522331D01*
X6826185Y10515866D01*
X6822110Y10495382D01*
X6824963Y10481042D01*
X6734415Y10390495D01*
X6654800D01*
X6652318Y10390001D01*
X6520000D01*
Y10210001D01*
X6680000D01*
Y10339107D01*
X6745058D01*
X6754890Y10341063D01*
X6763226Y10346632D01*
X6861299Y10444706D01*
X6875639Y10441853D01*
X6896123Y10445928D01*
X6913489Y10457531D01*
X6925093Y10474897D01*
X6929167Y10495382D01*
X6925093Y10515866D01*
X6913489Y10533232D01*
X6896123Y10544835D01*
X6881893Y10547666D01*
Y10553803D01*
X6879937Y10563636D01*
X6874367Y10571972D01*
X6832500Y10613839D01*
Y10692502D01*
D02*
G37*
G36*
X14032500D02*
X13857500D01*
Y10577502D01*
X13996162D01*
X14030954Y10542711D01*
Y10521294D01*
X14026634Y10514829D01*
X14022559Y10494344D01*
X14025412Y10480005D01*
X13935899Y10390494D01*
X13854800D01*
X13852318Y10390000D01*
X13720000D01*
Y10210000D01*
X13880000D01*
Y10339106D01*
X13946542D01*
X13956377Y10341062D01*
X13964713Y10346632D01*
X14061748Y10443668D01*
X14076088Y10440816D01*
X14096571Y10444890D01*
X14113937Y10456494D01*
X14125542Y10473860D01*
X14129616Y10494344D01*
X14125542Y10514829D01*
X14113937Y10532195D01*
X14096571Y10543798D01*
X14082341Y10546629D01*
Y10553354D01*
X14080386Y10563187D01*
X14074815Y10571523D01*
X14032500Y10613839D01*
Y10692502D01*
D02*
G37*
G36*
Y9822497D02*
X13857500D01*
Y9707497D01*
X14032500D01*
Y9822497D01*
D02*
G37*
G36*
X9232499Y9822500D02*
X9057500D01*
Y9707500D01*
X9232499D01*
Y9739306D01*
X9484358D01*
X9767500Y9456165D01*
Y9377501D01*
X9942500D01*
Y9492501D01*
X9803837D01*
X9513170Y9783168D01*
X9504834Y9788738D01*
X9495001Y9790694D01*
X9232499D01*
Y9822500D01*
D02*
G37*
G36*
X8032500D02*
X7857500D01*
Y9707500D01*
X8032500D01*
Y9739306D01*
X8284357D01*
X8567500Y9456163D01*
Y9377500D01*
X8742499D01*
Y9492500D01*
X8603836D01*
X8313168Y9783168D01*
X8304832Y9788738D01*
X8295000Y9790694D01*
X8032500D01*
Y9822500D01*
D02*
G37*
G36*
X6832500D02*
X6657500D01*
Y9707500D01*
X6832500D01*
Y9739306D01*
X7084358D01*
X7367500Y9456163D01*
Y9377500D01*
X7542500D01*
Y9492500D01*
X7403837D01*
X7113169Y9783168D01*
X7104833Y9788738D01*
X7095001Y9790694D01*
X6832500D01*
Y9822500D01*
D02*
G37*
G36*
X5632500D02*
X5457500D01*
Y9707500D01*
X5632500D01*
Y9739306D01*
X5884358D01*
X6167500Y9456163D01*
Y9377500D01*
X6342500D01*
Y9492500D01*
X6203837D01*
X5913169Y9783168D01*
X5904833Y9788738D01*
X5895000Y9790694D01*
X5632500D01*
Y9822500D01*
D02*
G37*
G36*
X10432500Y9822501D02*
X10257500D01*
Y9707501D01*
X10432500D01*
Y9739307D01*
X10684355D01*
X10967500Y9456163D01*
Y9377499D01*
X11142500D01*
Y9492499D01*
X11003836D01*
X10713166Y9783169D01*
X10704831Y9788739D01*
X10694998Y9790695D01*
X10432500D01*
Y9822501D01*
D02*
G37*
G36*
X11632500Y9822499D02*
X11457500D01*
Y9707499D01*
X11632500D01*
Y9739305D01*
X11884357D01*
X12167500Y9456161D01*
Y9377498D01*
X12342500D01*
Y9492498D01*
X12203837D01*
X11913168Y9783167D01*
X11904832Y9788737D01*
X11895000Y9790693D01*
X11632500D01*
Y9822499D01*
D02*
G37*
G36*
X12832500Y9822498D02*
X12657500D01*
Y9707498D01*
X12832500D01*
Y9739304D01*
X13084357D01*
X13367500Y9456160D01*
Y9377497D01*
X13542500D01*
Y9492497D01*
X13403838D01*
X13113168Y9783166D01*
X13104832Y9788736D01*
X13095000Y9790692D01*
X12832500D01*
Y9822498D01*
D02*
G37*
G36*
X1800000Y10345820D02*
X1775200Y10342555D01*
X1752090Y10332982D01*
X1732245Y10317755D01*
X1717018Y10297910D01*
X1707445Y10274800D01*
X1704180Y10250000D01*
X1707445Y10225200D01*
X1717018Y10202090D01*
X1732245Y10182245D01*
X1752090Y10167018D01*
X1775200Y10157445D01*
X1800000Y10154180D01*
X1824800Y10157445D01*
X1847910Y10167018D01*
X1867755Y10182245D01*
X1867917Y10182456D01*
X1880390Y10183274D01*
X2781832Y9281832D01*
X2790168Y9276262D01*
X2800000Y9274306D01*
X2800002Y9274306D01*
X4920000D01*
X4929832Y9276262D01*
X4938168Y9281832D01*
X5033837Y9377500D01*
X5142500D01*
Y9492500D01*
X4967500D01*
Y9383837D01*
X4909357Y9325694D01*
X2810643D01*
X1894880Y10241457D01*
X1894710Y10241571D01*
X1895820Y10250000D01*
X1892555Y10274800D01*
X1882982Y10297910D01*
X1867755Y10317755D01*
X1847910Y10332982D01*
X1824800Y10342555D01*
X1800000Y10345820D01*
D02*
G37*
G36*
X5632500Y9492500D02*
X5457500D01*
Y9377500D01*
X5596163D01*
X5631139Y9342524D01*
Y9303448D01*
X5626819Y9296983D01*
X5622745Y9276499D01*
X5625597Y9262159D01*
X5492501Y9129063D01*
X5480001Y9133828D01*
Y9190000D01*
X5320001D01*
Y9010000D01*
X5480001D01*
Y9074306D01*
X5499775D01*
X5509607Y9076262D01*
X5517943Y9081832D01*
X5661934Y9225823D01*
X5676273Y9222970D01*
X5696757Y9227045D01*
X5714123Y9238648D01*
X5725727Y9256014D01*
X5729802Y9276499D01*
X5725727Y9296983D01*
X5714123Y9314349D01*
X5696757Y9325952D01*
X5682527Y9328783D01*
Y9353167D01*
X5680571Y9363000D01*
X5675001Y9371336D01*
X5632500Y9413837D01*
Y9492500D01*
D02*
G37*
G36*
X9232499D02*
X9057500D01*
Y9377500D01*
X9196163D01*
X9233143Y9340520D01*
Y9303447D01*
X9228823Y9296982D01*
X9224748Y9276498D01*
X9227601Y9262158D01*
X9092500Y9127058D01*
X9080000Y9128987D01*
Y9190000D01*
X8920000D01*
Y9010000D01*
X9080000D01*
Y9074306D01*
X9101779D01*
X9111612Y9076262D01*
X9119947Y9081832D01*
X9263937Y9225822D01*
X9278277Y9222969D01*
X9298761Y9227044D01*
X9316127Y9238647D01*
X9327730Y9256013D01*
X9331805Y9276498D01*
X9327730Y9296982D01*
X9316127Y9314348D01*
X9298761Y9325951D01*
X9284530Y9328782D01*
Y9351163D01*
X9282575Y9360996D01*
X9277005Y9369332D01*
X9232499Y9413837D01*
Y9492500D01*
D02*
G37*
G36*
X10432500Y9492501D02*
X10257500D01*
Y9377501D01*
X10396163D01*
X10430420Y9343244D01*
Y9300057D01*
X10426101Y9293592D01*
X10422026Y9273107D01*
X10424878Y9258768D01*
X10292500Y9126390D01*
X10280000Y9127374D01*
Y9190000D01*
X10120000D01*
Y9010000D01*
X10280000D01*
Y9074306D01*
X10302447D01*
X10312280Y9076262D01*
X10320616Y9081832D01*
X10461215Y9222431D01*
X10475554Y9219579D01*
X10496039Y9223653D01*
X10513405Y9235257D01*
X10525008Y9252623D01*
X10529083Y9273107D01*
X10525008Y9293592D01*
X10513405Y9310958D01*
X10496039Y9322561D01*
X10481808Y9325392D01*
Y9353887D01*
X10479852Y9363720D01*
X10474283Y9372055D01*
X10432500Y9413838D01*
Y9492501D01*
D02*
G37*
G36*
X6832500Y9492500D02*
X6657500D01*
Y9377500D01*
X6796163D01*
X6831808Y9341855D01*
Y9300057D01*
X6827489Y9293592D01*
X6823414Y9273107D01*
X6826266Y9258768D01*
X6693193Y9125695D01*
X6679999D01*
Y9190001D01*
X6519999D01*
Y9010001D01*
X6679999D01*
Y9074307D01*
X6703836D01*
X6713669Y9076263D01*
X6722005Y9081833D01*
X6862603Y9222431D01*
X6876942Y9219579D01*
X6897427Y9223653D01*
X6914793Y9235257D01*
X6926396Y9252623D01*
X6930471Y9273107D01*
X6926396Y9293592D01*
X6914793Y9310958D01*
X6897427Y9322561D01*
X6883196Y9325392D01*
Y9352498D01*
X6881240Y9362331D01*
X6875671Y9370667D01*
X6832500Y9413837D01*
Y9492500D01*
D02*
G37*
G36*
X14032500Y9492497D02*
X13857500D01*
Y9377497D01*
X13996162D01*
X14035817Y9337843D01*
Y9296667D01*
X14031497Y9290202D01*
X14027423Y9269718D01*
X14030275Y9255378D01*
X13900591Y9125694D01*
X13880000D01*
Y9190000D01*
X13720000D01*
Y9010000D01*
X13880000D01*
Y9074306D01*
X13911234D01*
X13921066Y9076262D01*
X13929402Y9081832D01*
X14066612Y9219042D01*
X14080951Y9216189D01*
X14101436Y9220264D01*
X14118802Y9231867D01*
X14130405Y9249233D01*
X14134480Y9269718D01*
X14130405Y9290202D01*
X14118802Y9307568D01*
X14101436Y9319172D01*
X14087206Y9322002D01*
Y9348486D01*
X14085249Y9358319D01*
X14079678Y9366654D01*
X14032500Y9413834D01*
Y9492497D01*
D02*
G37*
G36*
X12832500Y9492498D02*
X12657500D01*
Y9377498D01*
X12796164D01*
X12831754Y9341908D01*
Y9296667D01*
X12827434Y9290202D01*
X12823360Y9269718D01*
X12826212Y9255378D01*
X12696527Y9125694D01*
X12680000D01*
Y9190000D01*
X12520000D01*
Y9010000D01*
X12680000D01*
Y9074306D01*
X12707170D01*
X12717003Y9076262D01*
X12725338Y9081832D01*
X12862547Y9219042D01*
X12876888Y9216189D01*
X12897372Y9220264D01*
X12914738Y9231867D01*
X12926341Y9249233D01*
X12930415Y9269718D01*
X12926341Y9290202D01*
X12914738Y9307568D01*
X12897372Y9319172D01*
X12883141Y9322002D01*
Y9352550D01*
X12883142Y9352551D01*
X12881186Y9362384D01*
X12875616Y9370719D01*
X12832500Y9413835D01*
Y9492498D01*
D02*
G37*
G36*
X11632500Y9492499D02*
X11457500D01*
Y9377499D01*
X11596163D01*
X11634477Y9339185D01*
Y9293274D01*
X11630157Y9286809D01*
X11626082Y9266324D01*
X11628935Y9251985D01*
X11502644Y9125694D01*
X11480000D01*
Y9190000D01*
X11320000D01*
Y9010000D01*
X11480000D01*
Y9074306D01*
X11513287D01*
X11523119Y9076262D01*
X11531455Y9081832D01*
X11665272Y9215648D01*
X11679611Y9212796D01*
X11700095Y9216871D01*
X11717461Y9228474D01*
X11729065Y9245840D01*
X11733139Y9266324D01*
X11729065Y9286809D01*
X11717461Y9304175D01*
X11700095Y9315778D01*
X11685865Y9318609D01*
Y9349827D01*
X11685865Y9349828D01*
X11683909Y9359661D01*
X11678339Y9367997D01*
X11632500Y9413836D01*
Y9492499D01*
D02*
G37*
G36*
X8032500Y9492500D02*
X7857500D01*
Y9377500D01*
X7996164D01*
X8032476Y9341188D01*
Y9293273D01*
X8028156Y9286808D01*
X8024081Y9266323D01*
X8026934Y9251984D01*
X7900644Y9125694D01*
X7880000D01*
Y9190000D01*
X7720000D01*
Y9010000D01*
X7880000D01*
Y9074306D01*
X7911287D01*
X7921119Y9076262D01*
X7929455Y9081832D01*
X8063271Y9215647D01*
X8077610Y9212795D01*
X8098094Y9216870D01*
X8115460Y9228473D01*
X8127064Y9245839D01*
X8131138Y9266323D01*
X8127064Y9286808D01*
X8115460Y9304174D01*
X8098094Y9315777D01*
X8083864Y9318608D01*
Y9351829D01*
X8083864Y9351831D01*
X8081908Y9361663D01*
X8076338Y9369999D01*
X8032500Y9413837D01*
Y9492500D01*
D02*
G37*
G36*
X1800000Y9295820D02*
X1775200Y9292555D01*
X1752090Y9282982D01*
X1732245Y9267755D01*
X1717018Y9247910D01*
X1707445Y9224800D01*
X1704180Y9200000D01*
X1707445Y9175200D01*
X1717018Y9152090D01*
X1732245Y9132245D01*
X1752090Y9117018D01*
X1775200Y9107445D01*
X1800000Y9104180D01*
X1824800Y9107445D01*
X1847910Y9117018D01*
X1867755Y9132245D01*
X1882982Y9152090D01*
X1892555Y9175200D01*
X1895820Y9200000D01*
X1892555Y9224800D01*
X1882982Y9247910D01*
X1867755Y9267755D01*
X1847910Y9282982D01*
X1824800Y9292555D01*
X1800000Y9295820D01*
D02*
G37*
G36*
X14032500Y8622500D02*
X13857500D01*
Y8507500D01*
X14032500D01*
Y8622500D01*
D02*
G37*
G36*
X8032500D02*
X7857500D01*
Y8507500D01*
X8032500D01*
Y8539306D01*
X8284357D01*
X8567500Y8256164D01*
Y8177501D01*
X8742499D01*
Y8292501D01*
X8603836D01*
X8313169Y8583168D01*
X8304833Y8588738D01*
X8295000Y8590694D01*
X8032500D01*
Y8622500D01*
D02*
G37*
G36*
X5632500Y8622500D02*
X5457500D01*
Y8507500D01*
X5632500D01*
Y8539306D01*
X5884358D01*
X6167500Y8256164D01*
Y8177501D01*
X6342500D01*
Y8292501D01*
X6203837D01*
X5913169Y8583169D01*
X5904833Y8588738D01*
X5895001Y8590694D01*
X5632500D01*
Y8622500D01*
D02*
G37*
G36*
X1800000Y9995820D02*
X1775200Y9992555D01*
X1752090Y9982982D01*
X1732245Y9967755D01*
X1717018Y9947910D01*
X1707445Y9924800D01*
X1704180Y9900000D01*
X1707445Y9875200D01*
X1717018Y9852090D01*
X1732245Y9832245D01*
X1752090Y9817018D01*
X1775200Y9807445D01*
X1800000Y9804180D01*
X1824800Y9807445D01*
X1847910Y9817018D01*
X1867755Y9832245D01*
X1874383Y9840883D01*
X1886856Y9841700D01*
X3511724Y8216832D01*
X3520060Y8211262D01*
X3529893Y8209306D01*
X4967500D01*
Y8177500D01*
X5142500D01*
Y8292500D01*
X4967500D01*
Y8260694D01*
X3540536D01*
X1895000Y9906230D01*
X1892555Y9924800D01*
X1882982Y9947910D01*
X1867755Y9967755D01*
X1847910Y9982982D01*
X1824800Y9992555D01*
X1800000Y9995820D01*
D02*
G37*
G36*
X12832500Y8622500D02*
X12657500D01*
Y8507500D01*
X12832500D01*
Y8539306D01*
X13084357D01*
X13367500Y8256163D01*
Y8177500D01*
X13542500D01*
Y8292500D01*
X13403838D01*
X13113168Y8583168D01*
X13104832Y8588738D01*
X13095000Y8590694D01*
X12832500D01*
Y8622500D01*
D02*
G37*
G36*
X11632500D02*
X11457500D01*
Y8507500D01*
X11632500D01*
Y8539306D01*
X11884357D01*
X12167500Y8256163D01*
Y8177500D01*
X12342500D01*
Y8292500D01*
X12203837D01*
X11913168Y8583168D01*
X11904833Y8588738D01*
X11895000Y8590694D01*
X11632500D01*
Y8622500D01*
D02*
G37*
G36*
X10432500D02*
X10257500D01*
Y8507500D01*
X10432500D01*
Y8539306D01*
X10684357D01*
X10967500Y8256163D01*
Y8177500D01*
X11142500D01*
Y8292500D01*
X11003837D01*
X10713168Y8583168D01*
X10704833Y8588738D01*
X10695000Y8590694D01*
X10432500D01*
Y8622500D01*
D02*
G37*
G36*
X9232499Y8622500D02*
X9057500D01*
Y8507500D01*
X9232499D01*
Y8539307D01*
X9484357D01*
X9767500Y8256163D01*
Y8177500D01*
X9942500D01*
Y8292500D01*
X9803837D01*
X9513168Y8583169D01*
X9504832Y8588738D01*
X9495000Y8590694D01*
X9232499D01*
Y8622500D01*
D02*
G37*
G36*
X6832500D02*
X6657500D01*
Y8507500D01*
X6832500D01*
Y8539307D01*
X7084357D01*
X7367500Y8256163D01*
Y8177500D01*
X7542500D01*
Y8292500D01*
X7403837D01*
X7113168Y8583169D01*
X7104832Y8588738D01*
X7095000Y8590694D01*
X6832500D01*
Y8622500D01*
D02*
G37*
G36*
X9232499Y8292501D02*
X9057500D01*
Y8177501D01*
X9196163D01*
X9231863Y8141800D01*
Y8123683D01*
X9227544Y8117218D01*
X9223469Y8096734D01*
X9226321Y8082394D01*
X9134421Y7990494D01*
X9054800D01*
X9052318Y7990000D01*
X8920000D01*
Y7810000D01*
X9080000D01*
Y7939106D01*
X9145064D01*
X9154896Y7941062D01*
X9163232Y7946632D01*
X9262658Y8046058D01*
X9276997Y8043205D01*
X9297482Y8047280D01*
X9314848Y8058883D01*
X9326451Y8076249D01*
X9330526Y8096734D01*
X9326451Y8117218D01*
X9314848Y8134584D01*
X9297482Y8146187D01*
X9283251Y8149018D01*
Y8152443D01*
X9281295Y8162275D01*
X9275726Y8170611D01*
X9232499Y8213837D01*
Y8292501D01*
D02*
G37*
G36*
X8032500Y8292500D02*
X7857500D01*
Y8177500D01*
X7996163D01*
X8034003Y8139660D01*
Y8123683D01*
X8029684Y8117218D01*
X8025609Y8096734D01*
X8028461Y8082394D01*
X7936561Y7990494D01*
X7854800D01*
X7852318Y7990000D01*
X7720000D01*
Y7810000D01*
X7880000D01*
Y7939106D01*
X7947204D01*
X7957036Y7941062D01*
X7965372Y7946632D01*
X8064798Y8046058D01*
X8079138Y8043205D01*
X8099622Y8047280D01*
X8116988Y8058883D01*
X8128591Y8076249D01*
X8132666Y8096734D01*
X8128591Y8117218D01*
X8116988Y8134584D01*
X8099622Y8146187D01*
X8096895Y8146730D01*
X8085392Y8150303D01*
X8083435Y8160135D01*
X8077866Y8168471D01*
X8032500Y8213837D01*
Y8292500D01*
D02*
G37*
G36*
X14032500D02*
X13857500D01*
Y8177500D01*
X13996162D01*
X14036102Y8137562D01*
Y8119421D01*
X14031783Y8112956D01*
X14027707Y8092471D01*
X14030560Y8078132D01*
X13942921Y7990494D01*
X13854800D01*
X13852318Y7990000D01*
X13720000D01*
Y7810000D01*
X13880000D01*
Y7939106D01*
X13953564D01*
X13963397Y7941062D01*
X13971733Y7946632D01*
X14066896Y8041795D01*
X14081236Y8038943D01*
X14101720Y8043018D01*
X14119086Y8054621D01*
X14130690Y8071987D01*
X14134764Y8092471D01*
X14130690Y8112956D01*
X14119086Y8130322D01*
X14101720Y8141925D01*
X14087489Y8144756D01*
Y8148204D01*
X14085535Y8158037D01*
X14079964Y8166373D01*
X14032500Y8213837D01*
Y8292500D01*
D02*
G37*
G36*
X12832500D02*
X12657500D01*
Y8177500D01*
X12796163D01*
X12829713Y8143950D01*
Y8119421D01*
X12825394Y8112956D01*
X12821320Y8092471D01*
X12824171Y8078132D01*
X12736533Y7990494D01*
X12654800D01*
X12652318Y7990000D01*
X12520000D01*
Y7810000D01*
X12680000D01*
Y7939106D01*
X12747176D01*
X12757009Y7941062D01*
X12765344Y7946632D01*
X12860509Y8041795D01*
X12874847Y8038943D01*
X12895332Y8043018D01*
X12912698Y8054621D01*
X12924301Y8071987D01*
X12928375Y8092471D01*
X12924301Y8112956D01*
X12912698Y8130322D01*
X12895332Y8141925D01*
X12885977Y8143786D01*
X12881100Y8154593D01*
X12879144Y8164425D01*
X12873576Y8172761D01*
X12873575Y8172761D01*
X12832500Y8213837D01*
Y8292500D01*
D02*
G37*
G36*
X6832500Y8292501D02*
X6657500D01*
Y8177501D01*
X6796163D01*
X6831878Y8141786D01*
Y8119421D01*
X6827559Y8112956D01*
X6823484Y8092471D01*
X6826336Y8078132D01*
X6738698Y7990494D01*
X6654799D01*
X6652317Y7990000D01*
X6519999D01*
Y7810000D01*
X6679999D01*
Y7939106D01*
X6749341D01*
X6759173Y7941062D01*
X6767509Y7946632D01*
X6862673Y8041795D01*
X6877012Y8038943D01*
X6897497Y8043018D01*
X6914863Y8054621D01*
X6926466Y8071987D01*
X6930541Y8092471D01*
X6926466Y8112956D01*
X6914863Y8130322D01*
X6897497Y8141925D01*
X6883266Y8144756D01*
Y8152428D01*
X6881310Y8162261D01*
X6875741Y8170597D01*
X6875740Y8170597D01*
X6832500Y8213837D01*
Y8292501D01*
D02*
G37*
G36*
X11632500Y8292500D02*
X11457500D01*
Y8177500D01*
X11596163D01*
X11627588Y8146075D01*
Y8119420D01*
X11623269Y8112955D01*
X11619194Y8092471D01*
X11622046Y8078132D01*
X11534408Y7990494D01*
X11454800D01*
X11452318Y7990000D01*
X11320000D01*
Y7810000D01*
X11480000D01*
Y7939106D01*
X11545051D01*
X11554884Y7941062D01*
X11563220Y7946632D01*
X11658383Y8041795D01*
X11672722Y8038943D01*
X11693207Y8043017D01*
X11710573Y8054621D01*
X11722176Y8071987D01*
X11726251Y8092471D01*
X11722176Y8112955D01*
X11710573Y8130321D01*
X11693207Y8141925D01*
X11678976Y8144755D01*
Y8156717D01*
X11677020Y8166550D01*
X11671451Y8174886D01*
X11632500Y8213837D01*
Y8292500D01*
D02*
G37*
G36*
X10432500D02*
X10257500D01*
Y8177500D01*
X10396163D01*
X10433990Y8139674D01*
Y8110895D01*
X10429670Y8104430D01*
X10425595Y8083946D01*
X10428448Y8069606D01*
X10292500Y7933659D01*
X10280000Y7938837D01*
Y7990000D01*
X10120000D01*
Y7810000D01*
X10280000D01*
Y7874306D01*
X10295178D01*
X10305010Y7876262D01*
X10313346Y7881832D01*
X10464784Y8033270D01*
X10479124Y8030417D01*
X10499608Y8034492D01*
X10516974Y8046095D01*
X10528577Y8063461D01*
X10532652Y8083946D01*
X10528577Y8104430D01*
X10516974Y8121796D01*
X10499608Y8133400D01*
X10485377Y8136230D01*
Y8150317D01*
X10483422Y8160150D01*
X10477852Y8168485D01*
X10432500Y8213837D01*
Y8292500D01*
D02*
G37*
G36*
X5632500Y8292500D02*
X5457500D01*
Y8177500D01*
X5596163D01*
X5634016Y8139648D01*
Y8102369D01*
X5629696Y8095904D01*
X5625621Y8075420D01*
X5628474Y8061081D01*
X5493087Y7925694D01*
X5480000D01*
Y7990000D01*
X5320000D01*
Y7810000D01*
X5480000D01*
Y7874306D01*
X5503730D01*
X5513563Y7876262D01*
X5521899Y7881832D01*
X5664811Y8024744D01*
X5679150Y8021891D01*
X5699634Y8025966D01*
X5717000Y8037570D01*
X5728604Y8054936D01*
X5732678Y8075420D01*
X5728604Y8095904D01*
X5717000Y8113270D01*
X5699634Y8124874D01*
X5685404Y8127704D01*
Y8150291D01*
X5683448Y8160123D01*
X5677878Y8168459D01*
X5677877Y8168459D01*
X5632500Y8213837D01*
Y8292500D01*
D02*
G37*
G36*
X14032500Y7422500D02*
X13857500D01*
Y7307500D01*
X14032500D01*
Y7422500D01*
D02*
G37*
G36*
X10432500Y7422500D02*
X10257500D01*
Y7307500D01*
X10432500D01*
Y7339306D01*
X10684357D01*
X10967500Y7056164D01*
Y6977500D01*
X11142500D01*
Y7092500D01*
X11003837D01*
X10713168Y7383169D01*
X10704833Y7388738D01*
X10695000Y7390694D01*
X10432500D01*
Y7422500D01*
D02*
G37*
G36*
X9232499D02*
X9057500D01*
Y7307500D01*
X9232499D01*
Y7339306D01*
X9484357D01*
X9767500Y7056164D01*
Y6977500D01*
X9942500D01*
Y7092500D01*
X9803837D01*
X9513169Y7383169D01*
X9504833Y7388738D01*
X9495000Y7390694D01*
X9232499D01*
Y7422500D01*
D02*
G37*
G36*
X8032500D02*
X7857500D01*
Y7307500D01*
X8032500D01*
Y7339306D01*
X8284357D01*
X8567500Y7056164D01*
Y6977500D01*
X8742499D01*
Y7092500D01*
X8603836D01*
X8313168Y7383169D01*
X8304832Y7388738D01*
X8295000Y7390694D01*
X8032500D01*
Y7422500D01*
D02*
G37*
G36*
X6832500D02*
X6657500D01*
Y7307500D01*
X6832500D01*
Y7339306D01*
X7084357D01*
X7367500Y7056164D01*
Y6977500D01*
X7542500D01*
Y7092500D01*
X7403837D01*
X7113168Y7383169D01*
X7104833Y7388738D01*
X7095000Y7390694D01*
X6832500D01*
Y7422500D01*
D02*
G37*
G36*
X5632500Y7422500D02*
X5457500D01*
Y7307500D01*
X5632500D01*
Y7339306D01*
X5884358D01*
X6167500Y7056164D01*
Y6977500D01*
X6342500D01*
Y7092500D01*
X6203837D01*
X5913169Y7383168D01*
X5904833Y7388738D01*
X5895001Y7390694D01*
X5632500D01*
Y7422500D01*
D02*
G37*
G36*
X12832500D02*
X12657500D01*
Y7307500D01*
X12832500D01*
Y7339306D01*
X13084357D01*
X13367500Y7056163D01*
Y6977500D01*
X13542500D01*
Y7092500D01*
X13403838D01*
X13113168Y7383168D01*
X13104832Y7388738D01*
X13095000Y7390694D01*
X12832500D01*
Y7422500D01*
D02*
G37*
G36*
X11632500Y7422500D02*
X11457500D01*
Y7307500D01*
X11632500D01*
Y7339306D01*
X11884357D01*
X12167500Y7056163D01*
Y6977500D01*
X12342500D01*
Y7092500D01*
X12203837D01*
X11913168Y7383169D01*
X11904832Y7388738D01*
X11895000Y7390694D01*
X11632500D01*
Y7422500D01*
D02*
G37*
G36*
X1800000Y9645820D02*
X1775200Y9642555D01*
X1752090Y9632983D01*
X1732245Y9617755D01*
X1717018Y9597910D01*
X1707445Y9574800D01*
X1704180Y9550000D01*
X1707445Y9525200D01*
X1717018Y9502090D01*
X1732245Y9482245D01*
X1752090Y9467018D01*
X1775200Y9457445D01*
X1800000Y9454180D01*
X1824800Y9457445D01*
X1847016Y9466648D01*
X4264531Y7049132D01*
X4272867Y7043562D01*
X4282700Y7041606D01*
X4967500D01*
Y6977500D01*
X5142500D01*
Y7092500D01*
X5025183D01*
X5022700Y7092994D01*
X4293343D01*
X1883353Y9502984D01*
X1892555Y9525200D01*
X1895820Y9550000D01*
X1892555Y9574800D01*
X1882982Y9597910D01*
X1867755Y9617755D01*
X1847910Y9632983D01*
X1824800Y9642555D01*
X1800000Y9645820D01*
D02*
G37*
G36*
X11632500Y7092500D02*
X11457500D01*
Y6977500D01*
X11596163D01*
X11631850Y6941813D01*
Y6908769D01*
X11627531Y6902303D01*
X11623456Y6881819D01*
X11626308Y6867480D01*
X11492500Y6733672D01*
X11480000Y6738849D01*
Y6790000D01*
X11320000D01*
Y6610000D01*
X11480000D01*
Y6674306D01*
X11495165D01*
X11504998Y6676262D01*
X11513334Y6681832D01*
X11662645Y6831143D01*
X11676985Y6828291D01*
X11697469Y6832365D01*
X11714835Y6843969D01*
X11726438Y6861335D01*
X11730513Y6881819D01*
X11726438Y6902303D01*
X11714835Y6919669D01*
X11697469Y6931273D01*
X11683238Y6934103D01*
Y6952456D01*
X11681282Y6962288D01*
X11675713Y6970624D01*
X11632500Y7013837D01*
Y7092500D01*
D02*
G37*
G36*
X14032500Y7092500D02*
X13857500D01*
Y6977500D01*
X13996162D01*
X14036098Y6937566D01*
Y6904505D01*
X14031778Y6898040D01*
X14027702Y6877556D01*
X14030556Y6863216D01*
X13893033Y6725694D01*
X13880000D01*
Y6790000D01*
X13720000D01*
Y6610000D01*
X13880000D01*
Y6674306D01*
X13903676D01*
X13913509Y6676262D01*
X13921844Y6681832D01*
X14066891Y6826880D01*
X14081232Y6824027D01*
X14101717Y6828102D01*
X14119083Y6839706D01*
X14130685Y6857072D01*
X14134760Y6877556D01*
X14130685Y6898040D01*
X14119083Y6915406D01*
X14101717Y6927010D01*
X14087485Y6929840D01*
Y6948209D01*
X14085530Y6958041D01*
X14079961Y6966377D01*
X14032500Y7013837D01*
Y7092500D01*
D02*
G37*
G36*
X9232499Y7092500D02*
X9057500D01*
Y6977500D01*
X9196163D01*
X9231864Y6941799D01*
Y6904505D01*
X9227545Y6898040D01*
X9223470Y6877556D01*
X9226322Y6863216D01*
X9092500Y6729394D01*
X9080000Y6734572D01*
Y6790000D01*
X8920000D01*
Y6610000D01*
X9080000D01*
Y6674306D01*
X9099443D01*
X9109275Y6676262D01*
X9117611Y6681832D01*
X9262659Y6826880D01*
X9276998Y6824027D01*
X9297483Y6828102D01*
X9314849Y6839706D01*
X9326452Y6857072D01*
X9330527Y6877556D01*
X9326452Y6898040D01*
X9314849Y6915406D01*
X9297483Y6927010D01*
X9283252Y6929840D01*
Y6952442D01*
X9281296Y6962274D01*
X9275727Y6970610D01*
X9232499Y7013837D01*
Y7092500D01*
D02*
G37*
G36*
X6832500D02*
X6657500D01*
Y6977500D01*
X6796163D01*
X6836138Y6937525D01*
Y6904505D01*
X6831819Y6898040D01*
X6827744Y6877556D01*
X6830596Y6863216D01*
X6693074Y6725694D01*
X6680000D01*
Y6790000D01*
X6520000D01*
Y6610000D01*
X6680000D01*
Y6674306D01*
X6703717D01*
X6713549Y6676262D01*
X6721885Y6681832D01*
X6866933Y6826880D01*
X6881272Y6824027D01*
X6901757Y6828102D01*
X6919123Y6839706D01*
X6930726Y6857072D01*
X6934801Y6877556D01*
X6930726Y6898040D01*
X6919123Y6915406D01*
X6901757Y6927010D01*
X6887526Y6929840D01*
Y6948167D01*
X6887526Y6948168D01*
X6885570Y6958001D01*
X6880001Y6966337D01*
X6832500Y7013837D01*
Y7092500D01*
D02*
G37*
G36*
X12832500Y7092500D02*
X12657500D01*
Y6977500D01*
X12796163D01*
X12829710Y6943953D01*
Y6900242D01*
X12825391Y6893777D01*
X12821317Y6873293D01*
X12824168Y6858954D01*
X12692500Y6727285D01*
X12680000Y6729536D01*
Y6790000D01*
X12520000D01*
Y6610000D01*
X12680000D01*
Y6674306D01*
X12701552D01*
X12711384Y6676262D01*
X12719720Y6681832D01*
X12860506Y6822617D01*
X12874844Y6819764D01*
X12895329Y6823839D01*
X12912695Y6835443D01*
X12924298Y6852808D01*
X12928374Y6873293D01*
X12924298Y6893777D01*
X12912695Y6911143D01*
X12895329Y6922747D01*
X12881097Y6925577D01*
Y6954594D01*
X12881097Y6954596D01*
X12879143Y6964428D01*
X12873573Y6972764D01*
X12873572Y6972765D01*
X12832500Y7013837D01*
Y7092500D01*
D02*
G37*
G36*
X10432500Y7092500D02*
X10257500D01*
Y6977500D01*
X10396163D01*
X10433986Y6939677D01*
Y6895980D01*
X10429667Y6889515D01*
X10425592Y6869031D01*
X10428444Y6854691D01*
X10299447Y6725694D01*
X10280000D01*
Y6790000D01*
X10120000D01*
Y6610000D01*
X10280000D01*
Y6674306D01*
X10310090D01*
X10319922Y6676262D01*
X10328258Y6681832D01*
X10464781Y6818355D01*
X10479121Y6815502D01*
X10499605Y6819577D01*
X10516971Y6831180D01*
X10528574Y6848546D01*
X10532649Y6869031D01*
X10528574Y6889515D01*
X10516971Y6906881D01*
X10499605Y6918485D01*
X10485374Y6921315D01*
Y6950320D01*
X10483418Y6960153D01*
X10477849Y6968488D01*
X10432500Y7013837D01*
Y7092500D01*
D02*
G37*
G36*
X8032500D02*
X7857500D01*
Y6977500D01*
X7996163D01*
X8034002Y6939661D01*
Y6895979D01*
X8029683Y6889514D01*
X8025608Y6869030D01*
X8028460Y6854690D01*
X7899464Y6725694D01*
X7880000D01*
Y6790000D01*
X7720000D01*
Y6610000D01*
X7880000D01*
Y6674306D01*
X7910107D01*
X7919939Y6676262D01*
X7928275Y6681832D01*
X8064797Y6818354D01*
X8079136Y6815501D01*
X8099621Y6819576D01*
X8116987Y6831179D01*
X8128590Y6848545D01*
X8132665Y6869030D01*
X8128590Y6889514D01*
X8116987Y6906880D01*
X8099621Y6918483D01*
X8085390Y6921314D01*
Y6950304D01*
X8083434Y6960136D01*
X8077865Y6968472D01*
X8032500Y7013837D01*
Y7092500D01*
D02*
G37*
G36*
X5632500Y7092500D02*
X5457500D01*
Y6977500D01*
X5596163D01*
X5629750Y6943913D01*
Y6887454D01*
X5625430Y6880989D01*
X5621356Y6860504D01*
X5624208Y6846165D01*
X5503737Y6725694D01*
X5480001D01*
Y6790000D01*
X5320001D01*
Y6610000D01*
X5480001D01*
Y6674306D01*
X5514380D01*
X5524212Y6676262D01*
X5532548Y6681832D01*
X5660545Y6809828D01*
X5674884Y6806976D01*
X5695369Y6811051D01*
X5712735Y6822654D01*
X5724338Y6840020D01*
X5728413Y6860504D01*
X5724338Y6880989D01*
X5712735Y6898355D01*
X5695369Y6909958D01*
X5681138Y6912789D01*
Y6954556D01*
X5679182Y6964389D01*
X5673612Y6972724D01*
X5632500Y7013837D01*
Y7092500D01*
D02*
G37*
%LPD*%
D10*
X13800000Y6700000D02*
D03*
X13600000D02*
D03*
X5400000Y12699999D02*
D03*
X5200000D02*
D03*
X6600000D02*
D03*
X6400000D02*
D03*
X7800000D02*
D03*
X7600000D02*
D03*
X9000000Y12700000D02*
D03*
X8800000D02*
D03*
X10200000Y12699998D02*
D03*
X10000000D02*
D03*
X11400000D02*
D03*
X11200000D02*
D03*
X12600000Y12700000D02*
D03*
X12400000D02*
D03*
X13800000D02*
D03*
X13600000D02*
D03*
X5200000Y11500000D02*
D03*
X5400000D02*
D03*
X6400000Y11500000D02*
D03*
X6600000D02*
D03*
X7600000Y11500000D02*
D03*
X7800000D02*
D03*
X8800000D02*
D03*
X9000000D02*
D03*
X10000000D02*
D03*
X10200000D02*
D03*
X11200000D02*
D03*
X11400000D02*
D03*
X12400000D02*
D03*
X12600000D02*
D03*
X13600000D02*
D03*
X13800000D02*
D03*
X5200000Y10300000D02*
D03*
X5400000D02*
D03*
X6400000Y10300001D02*
D03*
X6600000D02*
D03*
X7600000Y10300000D02*
D03*
X7800000D02*
D03*
X8800000D02*
D03*
X9000000D02*
D03*
X10000000D02*
D03*
X10200000D02*
D03*
X11200000D02*
D03*
X11400000D02*
D03*
X12400000D02*
D03*
X12600000D02*
D03*
X13600000D02*
D03*
X13800000D02*
D03*
X5200001Y9100000D02*
D03*
X5400001D02*
D03*
X6399999Y9100001D02*
D03*
X6599999D02*
D03*
X7600000Y9100000D02*
D03*
X7800000D02*
D03*
X8800000D02*
D03*
X9000000D02*
D03*
X10000000D02*
D03*
X10200000D02*
D03*
X11200000D02*
D03*
X11400000D02*
D03*
X12400000D02*
D03*
X12600000D02*
D03*
X13600000D02*
D03*
X13800000D02*
D03*
X5200000Y7900000D02*
D03*
X5400000D02*
D03*
X6399999Y7900000D02*
D03*
X6599999D02*
D03*
X7600000D02*
D03*
X7800000D02*
D03*
X8800000D02*
D03*
X9000000D02*
D03*
X10000000D02*
D03*
X10200000D02*
D03*
X11200000D02*
D03*
X11400000D02*
D03*
X12400000D02*
D03*
X12600000D02*
D03*
X13600000D02*
D03*
X13800000D02*
D03*
X5200001Y6700000D02*
D03*
X5400001D02*
D03*
X6400000D02*
D03*
X6600000D02*
D03*
X7600000D02*
D03*
X7800000D02*
D03*
X8800000D02*
D03*
X9000000D02*
D03*
X10000000D02*
D03*
X10200000D02*
D03*
X11200000D02*
D03*
X11400000D02*
D03*
X12400000D02*
D03*
X12600000D02*
D03*
D11*
X13455000Y7035000D02*
D03*
X13945000Y7365000D02*
D03*
Y7035000D02*
D03*
X13455000Y7365000D02*
D03*
X5055000Y13035001D02*
D03*
Y13364999D02*
D03*
X5545000D02*
D03*
Y13035001D02*
D03*
X6745000Y13364999D02*
D03*
Y13034999D02*
D03*
X6255000Y13364999D02*
D03*
Y13034999D02*
D03*
X7455000Y13035001D02*
D03*
X7945000Y13364999D02*
D03*
Y13035001D02*
D03*
X7455000Y13364999D02*
D03*
X8655000Y13035001D02*
D03*
X9145000Y13364999D02*
D03*
Y13035001D02*
D03*
X8655000Y13364999D02*
D03*
X9855000Y13034999D02*
D03*
X10345000Y13364999D02*
D03*
Y13034999D02*
D03*
X9855000Y13364999D02*
D03*
X11055000Y13365001D02*
D03*
X11545000Y13035001D02*
D03*
Y13365001D02*
D03*
X11055000Y13035001D02*
D03*
X12255000Y13365001D02*
D03*
X12745000Y13035001D02*
D03*
Y13365001D02*
D03*
X12255000Y13035001D02*
D03*
X13455000Y13364999D02*
D03*
X13945000Y13035001D02*
D03*
Y13364999D02*
D03*
X13455000Y13035001D02*
D03*
X5055000Y12165000D02*
D03*
X5545000Y11835000D02*
D03*
Y12165000D02*
D03*
X5055000Y11835000D02*
D03*
X6255000Y12164999D02*
D03*
X6745000Y11834999D02*
D03*
Y12164999D02*
D03*
X6255000Y11834999D02*
D03*
X7455000Y12164998D02*
D03*
X7945000Y11834998D02*
D03*
Y12164998D02*
D03*
X7455000Y11834998D02*
D03*
X8654999Y12164999D02*
D03*
X9144999Y11834999D02*
D03*
Y12164999D02*
D03*
X8654999Y11834999D02*
D03*
X9855000Y12165000D02*
D03*
X10345000Y11835000D02*
D03*
Y12165000D02*
D03*
X9855000Y11835000D02*
D03*
X11055000Y12165001D02*
D03*
X11545000Y11835001D02*
D03*
Y12165001D02*
D03*
X11055000Y11835001D02*
D03*
X12255000Y12165001D02*
D03*
X12745000Y11835001D02*
D03*
Y12165001D02*
D03*
X12255000Y11835001D02*
D03*
X13455000Y12165000D02*
D03*
X13945000Y11835000D02*
D03*
Y12165000D02*
D03*
X13455000Y11835000D02*
D03*
X5055000Y10965000D02*
D03*
X5545000Y10635000D02*
D03*
Y10965000D02*
D03*
X5055000Y10635000D02*
D03*
X6255000Y10965002D02*
D03*
X6745000Y10635002D02*
D03*
Y10965002D02*
D03*
X6255000Y10635002D02*
D03*
X7455000Y10965003D02*
D03*
X7945000Y10635003D02*
D03*
Y10965003D02*
D03*
X7455000Y10635003D02*
D03*
X8654999Y10965003D02*
D03*
X9144999Y10635003D02*
D03*
Y10965003D02*
D03*
X8654999Y10635003D02*
D03*
X9855000Y10965004D02*
D03*
X10345000Y10635004D02*
D03*
Y10965004D02*
D03*
X9855000Y10635004D02*
D03*
X11055000Y10965003D02*
D03*
X11545000Y10635003D02*
D03*
Y10965003D02*
D03*
X11055000Y10635003D02*
D03*
X12255000Y10965003D02*
D03*
X12745000Y10635003D02*
D03*
Y10965003D02*
D03*
X12255000Y10635003D02*
D03*
X13455000Y10965002D02*
D03*
X13945000Y10635002D02*
D03*
Y10965002D02*
D03*
X13455000Y10635002D02*
D03*
X5055000Y9765000D02*
D03*
X5545000Y9435000D02*
D03*
Y9765000D02*
D03*
X5055000Y9435000D02*
D03*
X6255000Y9765000D02*
D03*
X6745000Y9435000D02*
D03*
Y9765000D02*
D03*
X6255000Y9435000D02*
D03*
X7455000Y9765000D02*
D03*
X7945000Y9435000D02*
D03*
Y9765000D02*
D03*
X7455000Y9435000D02*
D03*
X8654999Y9765000D02*
D03*
X9144999Y9435000D02*
D03*
Y9765000D02*
D03*
X8654999Y9435000D02*
D03*
X9855000Y9765001D02*
D03*
X10345000Y9435001D02*
D03*
Y9765001D02*
D03*
X9855000Y9435001D02*
D03*
X11055000Y9764999D02*
D03*
X11545000Y9434999D02*
D03*
Y9764999D02*
D03*
X11055000Y9434999D02*
D03*
X12255000Y9764998D02*
D03*
X12745000Y9434998D02*
D03*
Y9764998D02*
D03*
X12255000Y9434998D02*
D03*
X13455000Y9764997D02*
D03*
X13945000Y9434997D02*
D03*
Y9764997D02*
D03*
X13455000Y9434997D02*
D03*
X5055000Y8565000D02*
D03*
X5545000Y8235000D02*
D03*
Y8565000D02*
D03*
X5055000Y8235000D02*
D03*
X6255000Y8565000D02*
D03*
X6745000Y8235001D02*
D03*
Y8565000D02*
D03*
X6255000Y8235001D02*
D03*
X7455000Y8565000D02*
D03*
X7945000Y8235000D02*
D03*
Y8565000D02*
D03*
X7455000Y8235000D02*
D03*
X8654999Y8565000D02*
D03*
X9144999Y8235001D02*
D03*
Y8565000D02*
D03*
X8654999Y8235001D02*
D03*
X9855000Y8565000D02*
D03*
X10345000Y8235000D02*
D03*
Y8565000D02*
D03*
X9855000Y8235000D02*
D03*
X11055000Y8565000D02*
D03*
X11545000Y8235000D02*
D03*
Y8565000D02*
D03*
X11055000Y8235000D02*
D03*
X12255000Y8565000D02*
D03*
X12745000Y8235000D02*
D03*
Y8565000D02*
D03*
X12255000Y8235000D02*
D03*
X13455000Y8565000D02*
D03*
X13945000Y8235000D02*
D03*
Y8565000D02*
D03*
X13455000Y8235000D02*
D03*
X5055000Y7365000D02*
D03*
X5545000Y7035000D02*
D03*
Y7365000D02*
D03*
X5055000Y7035000D02*
D03*
X6255000Y7365000D02*
D03*
X6745000Y7035000D02*
D03*
Y7365000D02*
D03*
X6255000Y7035000D02*
D03*
X7455000Y7365000D02*
D03*
X7945000Y7035000D02*
D03*
Y7365000D02*
D03*
X7455000Y7035000D02*
D03*
X8654999Y7365000D02*
D03*
X9144999Y7035000D02*
D03*
Y7365000D02*
D03*
X8654999Y7035000D02*
D03*
X9855000Y7365000D02*
D03*
X10345000Y7035000D02*
D03*
Y7365000D02*
D03*
X9855000Y7035000D02*
D03*
X11055000Y7365000D02*
D03*
X11545000Y7035000D02*
D03*
Y7365000D02*
D03*
X11055000Y7035000D02*
D03*
X12255000Y7365000D02*
D03*
X12745000Y7035000D02*
D03*
Y7365000D02*
D03*
X12255000Y7035000D02*
D03*
D12*
X1876712Y10223289D02*
X2800000Y9300000D01*
X4920000D01*
X1826711Y10223289D02*
X1876712D01*
X1800000Y10250000D02*
X1826711Y10223289D01*
X4920000Y9300000D02*
X5055000Y9435000D01*
X3529893Y8235000D02*
X5055000D01*
X1800000Y9550000D02*
Y9600000D01*
Y9550000D02*
X4282700Y7067300D01*
X1800000Y9964893D02*
X3529893Y8235000D01*
X5022700Y7067300D02*
X5055000Y7035000D01*
X4282700Y7067300D02*
X5022700D01*
X1800000Y10950000D02*
X3450000D01*
X1800000D02*
Y11019597D01*
Y11300000D02*
X3290000Y11300000D01*
X1800000Y10600000D02*
X4990000D01*
X5025000Y10635000D01*
X5055000D01*
X3450000Y10950000D02*
X4335000Y11835000D01*
X5055000D01*
X3290000Y11300000D02*
X5025000Y13035001D01*
X5055000D01*
X13945000Y7035000D02*
X13975000D01*
X14061792Y6948209D01*
Y6896996D02*
Y6948209D01*
Y6896996D02*
X14081232Y6877556D01*
X13903676Y6700000D02*
X14081232Y6877556D01*
X13800000Y6700000D02*
X13903676D01*
X12745000Y7035000D02*
X12775000D01*
X12855405Y6954596D01*
Y6892733D02*
Y6954596D01*
Y6892733D02*
X12874844Y6873293D01*
X12701552Y6700000D02*
X12874844Y6873293D01*
X12600000Y6700000D02*
X12701552D01*
X11545000Y7035000D02*
X11575000D01*
X11657544Y6952456D01*
Y6901259D02*
Y6952456D01*
Y6901259D02*
X11676985Y6881819D01*
X11495165Y6700000D02*
X11676985Y6881819D01*
X11400000Y6700000D02*
X11495165D01*
X10345000Y7035000D02*
X10375000D01*
X10459680Y6950320D01*
Y6888471D02*
Y6950320D01*
Y6888471D02*
X10479121Y6869031D01*
X10310090Y6700000D02*
X10479121Y6869031D01*
X10200000Y6700000D02*
X10310090D01*
X9144999Y7035000D02*
X9174999D01*
X9257558Y6952442D01*
Y6896996D02*
Y6952442D01*
Y6896996D02*
X9276998Y6877556D01*
X9099443Y6700000D02*
X9276998Y6877556D01*
X9000000Y6700000D02*
X9099443D01*
X7945000Y7035000D02*
X7975000D01*
X8059696Y6950304D01*
Y6888470D02*
Y6950304D01*
Y6888470D02*
X8079136Y6869030D01*
X7910107Y6700000D02*
X8079136Y6869030D01*
X7800000Y6700000D02*
X7910107D01*
X6745000Y7035000D02*
X6775000D01*
X6861832Y6948168D01*
Y6896996D02*
Y6948168D01*
Y6896996D02*
X6881272Y6877556D01*
X6703717Y6700000D02*
X6881272Y6877556D01*
X6600000Y6700000D02*
X6703717D01*
X5545000Y7035000D02*
X5575000D01*
X5655444Y6954556D01*
Y6879945D02*
Y6954556D01*
Y6879945D02*
X5674884Y6860504D01*
X5514380Y6700000D02*
X5674884Y6860504D01*
X5400001Y6700000D02*
X5514380D01*
X13945000Y8235000D02*
X13975000D01*
X14061797Y8148204D01*
Y8111912D02*
Y8148204D01*
Y8111912D02*
X14081236Y8092471D01*
X13953564Y7964800D02*
X14081236Y8092471D01*
X13854800Y7964800D02*
X13953564D01*
X13800000Y7910000D02*
X13854800Y7964800D01*
X13800000Y7900000D02*
Y7910000D01*
X12745000Y8235000D02*
X12775000D01*
X12855408Y8154593D01*
Y8111912D02*
Y8154593D01*
Y8111912D02*
X12874847Y8092471D01*
X12747176Y7964800D02*
X12874847Y8092471D01*
X12654800Y7964800D02*
X12747176D01*
X12600000Y7910000D02*
X12654800Y7964800D01*
X12600000Y7900000D02*
Y7910000D01*
X11545000Y8235000D02*
X11575000D01*
X11653282Y8156717D01*
Y8111911D02*
Y8156717D01*
Y8111911D02*
X11672722Y8092471D01*
X11545051Y7964800D02*
X11672722Y8092471D01*
X11454800Y7964800D02*
X11545051D01*
X11400000Y7910000D02*
X11454800Y7964800D01*
X11400000Y7900000D02*
Y7910000D01*
X10345000Y8235000D02*
X10375000D01*
X10459683Y8150317D01*
Y8103386D02*
Y8150317D01*
Y8103386D02*
X10479124Y8083946D01*
X10295178Y7900000D02*
X10479124Y8083946D01*
X10200000Y7900000D02*
X10295178D01*
X9144999Y8235001D02*
X9174999D01*
X9257557Y8152443D01*
Y8116174D02*
Y8152443D01*
Y8116174D02*
X9276997Y8096734D01*
X9145064Y7964800D02*
X9276997Y8096734D01*
X9054800Y7964800D02*
X9145064D01*
X9000000Y7910000D02*
X9054800Y7964800D01*
X9000000Y7900000D02*
Y7910000D01*
X7945000Y8235000D02*
X7975000D01*
X8059697Y8150302D01*
Y8116174D02*
Y8150302D01*
Y8116174D02*
X8079138Y8096734D01*
X7947204Y7964800D02*
X8079138Y8096734D01*
X7854800Y7964800D02*
X7947204D01*
X7800000Y7910000D02*
X7854800Y7964800D01*
X7800000Y7900000D02*
Y7910000D01*
X6745000Y8235001D02*
X6775000D01*
X6857572Y8152428D01*
Y8111912D02*
Y8152428D01*
Y8111912D02*
X6877012Y8092471D01*
X6749341Y7964800D02*
X6877012Y8092471D01*
X6654799Y7964800D02*
X6749341D01*
X6599999Y7910000D02*
X6654799Y7964800D01*
X6599999Y7900000D02*
Y7910000D01*
X5545000Y8235000D02*
X5575000D01*
X5659710Y8150291D01*
Y8094860D02*
Y8150291D01*
Y8094860D02*
X5679150Y8075420D01*
X5503730Y7900000D02*
X5679150Y8075420D01*
X5400000Y7900000D02*
X5503730D01*
X13945000Y9434997D02*
X13975000D01*
X14061511Y9348486D01*
Y9289158D02*
Y9348486D01*
Y9289158D02*
X14080951Y9269718D01*
X13911234Y9100000D02*
X14080951Y9269718D01*
X13800000Y9100000D02*
X13911234D01*
X12745000Y9434998D02*
X12775000D01*
X12857446Y9352551D01*
Y9289158D02*
Y9352551D01*
Y9289158D02*
X12876888Y9269718D01*
X12707170Y9100000D02*
X12876888Y9269718D01*
X12600000Y9100000D02*
X12707170D01*
X11545000Y9434999D02*
X11575000D01*
X11660171Y9349828D01*
Y9285765D02*
Y9349828D01*
Y9285765D02*
X11679611Y9266324D01*
X11513287Y9100000D02*
X11679611Y9266324D01*
X11400000Y9100000D02*
X11513287D01*
X10345000Y9435001D02*
X10375000D01*
X10456114Y9353887D01*
Y9292547D02*
Y9353887D01*
Y9292547D02*
X10475554Y9273107D01*
X10302447Y9100000D02*
X10475554Y9273107D01*
X10200000Y9100000D02*
X10302447D01*
X9144999Y9435000D02*
X9174999D01*
X9258836Y9351163D01*
Y9295938D02*
Y9351163D01*
Y9295938D02*
X9278277Y9276498D01*
X9101779Y9100000D02*
X9278277Y9276498D01*
X9000000Y9100000D02*
X9101779D01*
X7945000Y9435000D02*
X7975000D01*
X8058170Y9351831D01*
Y9285763D02*
Y9351831D01*
Y9285763D02*
X8077610Y9266323D01*
X7911287Y9100000D02*
X8077610Y9266323D01*
X7800000Y9100000D02*
X7911287D01*
X6745000Y9435000D02*
X6775000D01*
X6857502Y9352498D01*
Y9292547D02*
Y9352498D01*
Y9292547D02*
X6876942Y9273107D01*
X6703836Y9100001D02*
X6876942Y9273107D01*
X6599999Y9100001D02*
X6703836D01*
X5545000Y9435000D02*
X5575000D01*
X5656833Y9353167D01*
Y9295939D02*
Y9353167D01*
Y9295939D02*
X5676273Y9276499D01*
X5499775Y9100000D02*
X5676273Y9276499D01*
X5400001Y9100000D02*
X5499775D01*
X13945000Y10635002D02*
X13975000D01*
X14056648Y10553354D01*
Y10513784D02*
Y10553354D01*
Y10513784D02*
X14076088Y10494344D01*
X13946542Y10364800D02*
X14076088Y10494344D01*
X13854800Y10364800D02*
X13946542D01*
X13800000Y10310000D02*
X13854800Y10364800D01*
X13800000Y10300000D02*
Y10310000D01*
X12745000Y10635003D02*
X12775000D01*
X12854358Y10555645D01*
Y10517909D02*
Y10555645D01*
Y10517909D02*
X12873798Y10498469D01*
X12740129Y10364800D02*
X12873798Y10498469D01*
X12654800Y10364800D02*
X12740129D01*
X12600000Y10310000D02*
X12654800Y10364800D01*
X12600000Y10300000D02*
Y10310000D01*
X11545000Y10635003D02*
X11575000D01*
X11656190Y10553813D01*
Y10515847D02*
Y10553813D01*
Y10515847D02*
X11675630Y10496407D01*
X11544023Y10364800D02*
X11675630Y10496407D01*
X11454800Y10364800D02*
X11544023D01*
X11400000Y10310000D02*
X11454800Y10364800D01*
X11400000Y10300000D02*
Y10310000D01*
X10345000Y10635004D02*
X10375000D01*
X10458024Y10551980D01*
Y10515846D02*
Y10551980D01*
Y10515846D02*
X10477464Y10496406D01*
X10345859Y10364800D02*
X10477464Y10496406D01*
X10254800Y10364800D02*
X10345859D01*
X10200000Y10310000D02*
X10254800Y10364800D01*
X10200000Y10300000D02*
Y10310000D01*
X9144999Y10635003D02*
X9174999D01*
X9255735Y10554268D01*
Y10515846D02*
Y10554268D01*
Y10515846D02*
X9275175Y10496406D01*
X9143569Y10364800D02*
X9275175Y10496406D01*
X9054800Y10364800D02*
X9143569D01*
X9000000Y10310000D02*
X9054800Y10364800D01*
X9000000Y10300000D02*
Y10310000D01*
X7945000Y10635003D02*
X7975000D01*
X8053443Y10556560D01*
Y10515842D02*
Y10556560D01*
Y10515842D02*
X8072883Y10496402D01*
X7941281Y10364800D02*
X8072883Y10496402D01*
X7854800Y10364800D02*
X7941281D01*
X7800000Y10310000D02*
X7854800Y10364800D01*
X7800000Y10300000D02*
Y10310000D01*
X6745000Y10635002D02*
X6775000D01*
X6856199Y10553803D01*
Y10514822D02*
Y10553803D01*
Y10514822D02*
X6875639Y10495382D01*
X6745058Y10364801D02*
X6875639Y10495382D01*
X6654800Y10364801D02*
X6745058D01*
X6600000Y10310001D02*
X6654800Y10364801D01*
X6600000Y10300001D02*
Y10310001D01*
X5545000Y10635000D02*
X5575000D01*
X5656104Y10553896D01*
Y10518988D02*
Y10553896D01*
Y10518988D02*
X5675544Y10499548D01*
X5540796Y10364800D02*
X5675544Y10499548D01*
X5454800Y10364800D02*
X5540796D01*
X5400000Y10310000D02*
X5454800Y10364800D01*
X5400000Y10300000D02*
Y10310000D01*
X5545000Y11835000D02*
X5575000D01*
X5655557Y11754443D01*
Y11696845D02*
Y11754443D01*
Y11696845D02*
X5674998Y11677405D01*
X5497593Y11500000D02*
X5674998Y11677405D01*
X5400000Y11500000D02*
X5497593D01*
X13945000Y11835000D02*
X13975000D01*
X14059828Y11750173D01*
Y11706423D02*
Y11750173D01*
Y11706423D02*
X14079268Y11686983D01*
X13892285Y11500000D02*
X14079268Y11686983D01*
X13800000Y11500000D02*
X13892285D01*
X12745000Y11835001D02*
X12775000D01*
X12857161Y11752841D01*
Y11706423D02*
Y11752841D01*
Y11706423D02*
X12876601Y11686983D01*
X12754418Y11564800D02*
X12876601Y11686983D01*
X12654800Y11564800D02*
X12754418D01*
X12600000Y11510000D02*
X12654800Y11564800D01*
X12600000Y11500000D02*
Y11510000D01*
X11545000Y11835001D02*
X11575000D01*
X11656892Y11753109D01*
Y11706425D02*
Y11753109D01*
Y11706425D02*
X11676332Y11686985D01*
X11554147Y11564800D02*
X11676332Y11686985D01*
X11454800Y11564800D02*
X11554147D01*
X11400000Y11510000D02*
X11454800Y11564800D01*
X11400000Y11500000D02*
Y11510000D01*
X10345000Y11835000D02*
X10375000D01*
X10456628Y11753372D01*
Y11704031D02*
Y11753372D01*
Y11704031D02*
X10476068Y11684591D01*
X10291477Y11500000D02*
X10476068Y11684591D01*
X10200000Y11500000D02*
X10291477D01*
X9144999Y11834999D02*
X9174999D01*
X9256361Y11753637D01*
Y11706427D02*
Y11753637D01*
Y11706427D02*
X9275802Y11686987D01*
X9153615Y11564800D02*
X9275802Y11686987D01*
X9054800Y11564800D02*
X9153615D01*
X9000000Y11510000D02*
X9054800Y11564800D01*
X9000000Y11500000D02*
Y11510000D01*
X7945000Y11834998D02*
X7975000D01*
X8056093Y11753905D01*
Y11704032D02*
Y11753905D01*
Y11704032D02*
X8075533Y11684592D01*
X7890941Y11500000D02*
X8075533Y11684592D01*
X7800000Y11500000D02*
X7890941D01*
X6745000Y11834999D02*
X6775000D01*
X6858221Y11751778D01*
Y11692054D02*
Y11751778D01*
Y11692054D02*
X6877662Y11672614D01*
X6705048Y11500000D02*
X6877662Y11672614D01*
X6600000Y11500000D02*
X6705048D01*
X13425000Y7035000D02*
X13455000D01*
X13095000Y7365000D02*
X13425000Y7035000D01*
X12745000Y7365000D02*
X13095000D01*
X12225000Y7035000D02*
X12255000D01*
X11895000Y7365000D02*
X12225000Y7035000D01*
X11545000Y7365000D02*
X11895000D01*
X11025000Y7035000D02*
X11055000D01*
X10695000Y7365000D02*
X11025000Y7035000D01*
X10345000Y7365000D02*
X10695000D01*
X9825000Y7035000D02*
X9855000D01*
X9495000Y7365000D02*
X9825000Y7035000D01*
X9144999Y7365000D02*
X9495000D01*
X8625000Y7035000D02*
X8654999D01*
X8295000Y7365000D02*
X8625000Y7035000D01*
X7945000Y7365000D02*
X8295000D01*
X7425000Y7035000D02*
X7455000D01*
X7095000Y7365000D02*
X7425000Y7035000D01*
X6745000Y7365000D02*
X7095000D01*
X6225000Y7035000D02*
X6255000D01*
X5895001Y7365000D02*
X6225000Y7035000D01*
X5545000Y7365000D02*
X5895001D01*
X13425000Y8235000D02*
X13455000D01*
X13095000Y8565000D02*
X13425000Y8235000D01*
X12745000Y8565000D02*
X13095000D01*
X12225000Y8235000D02*
X12255000D01*
X11895000Y8565000D02*
X12225000Y8235000D01*
X11545000Y8565000D02*
X11895000D01*
X11025000Y8235000D02*
X11055000D01*
X10695000Y8565000D02*
X11025000Y8235000D01*
X10345000Y8565000D02*
X10695000D01*
X9825000Y8235000D02*
X9855000D01*
X9495000Y8565000D02*
X9825000Y8235000D01*
X9144999Y8565000D02*
X9495000D01*
X8625000Y8235001D02*
X8654999D01*
X8295000Y8565000D02*
X8625000Y8235001D01*
X7945000Y8565000D02*
X8295000D01*
X7425000Y8235000D02*
X7455000D01*
X7095000Y8565000D02*
X7425000Y8235000D01*
X6745000Y8565000D02*
X7095000D01*
X6225000Y8235001D02*
X6255000D01*
X5895001Y8565000D02*
X6225000Y8235001D01*
X5545000Y8565000D02*
X5895001D01*
X13425000Y9434997D02*
X13455000D01*
X13095000Y9764998D02*
X13425000Y9434997D01*
X12745000Y9764998D02*
X13095000D01*
X12225000Y9434998D02*
X12255000D01*
X11895000Y9764999D02*
X12225000Y9434998D01*
X11545000Y9764999D02*
X11895000D01*
X11025000Y9434999D02*
X11055000D01*
X10694998Y9765001D02*
X11025000Y9434999D01*
X10345000Y9765001D02*
X10694998D01*
X9825000Y9435001D02*
X9855000D01*
X9495001Y9765000D02*
X9825000Y9435001D01*
X9144999Y9765000D02*
X9495001D01*
X8625000Y9435000D02*
X8654999D01*
X8295000Y9765000D02*
X8625000Y9435000D01*
X7945000Y9765000D02*
X8295000D01*
X7425000Y9435000D02*
X7455000D01*
X7095001Y9765000D02*
X7425000Y9435000D01*
X6745000Y9765000D02*
X7095001D01*
X6225000Y9435000D02*
X6255000D01*
X5895000Y9765000D02*
X6225000Y9435000D01*
X5545000Y9765000D02*
X5895000D01*
X13425000Y10635002D02*
X13455000D01*
X13095000Y10965003D02*
X13425000Y10635002D01*
X12745000Y10965003D02*
X13095000D01*
X12225000Y10635003D02*
X12255000D01*
X11895001Y10965003D02*
X12225000Y10635003D01*
X11545000Y10965003D02*
X11895001D01*
X11025000Y10635003D02*
X11055000D01*
X10694999Y10965004D02*
X11025000Y10635003D01*
X10345000Y10965004D02*
X10694999D01*
X9825000Y10635004D02*
X9855000D01*
X9495001Y10965003D02*
X9825000Y10635004D01*
X9144999Y10965003D02*
X9495001D01*
X8625000Y10635003D02*
X8654999D01*
X8295000Y10965003D02*
X8625000Y10635003D01*
X7945000Y10965003D02*
X8295000D01*
X7425000Y10635003D02*
X7455000D01*
X7095002Y10965002D02*
X7425000Y10635003D01*
X6745000Y10965002D02*
X7095002D01*
X6225000Y10635002D02*
X6255000D01*
X5895002Y10965000D02*
X6225000Y10635002D01*
X5545000Y10965000D02*
X5895002D01*
X5658682Y12876414D02*
Y12951318D01*
X5521146Y12699999D02*
X5678122Y12856975D01*
X5575000Y13035001D02*
X5658682Y12951318D01*
X5400000Y12699999D02*
X5521146D01*
X5658682Y12876414D02*
X5678122Y12856975D01*
X13425000Y11835000D02*
X13455000D01*
X13095000Y12165001D02*
X13425000Y11835000D01*
X12745000Y12165001D02*
X13095000D01*
X12225000Y11835001D02*
X12255000D01*
X11895001Y12165001D02*
X12225000Y11835001D01*
X11545000Y12165001D02*
X11895001D01*
X11025000Y11835001D02*
X11055000D01*
X10695001Y12165000D02*
X11025000Y11835001D01*
X10345000Y12165000D02*
X10695001D01*
X9825000Y11835000D02*
X9855000D01*
X9495001Y12164999D02*
X9825000Y11835000D01*
X9144999Y12164999D02*
X9495001D01*
X8625000Y11834999D02*
X8654999D01*
X8295001Y12164998D02*
X8625000Y11834999D01*
X7945000Y12164998D02*
X8295001D01*
X7425000Y11834998D02*
X7455000D01*
X7094999Y12164999D02*
X7425000Y11834998D01*
X6745000Y12164999D02*
X7094999D01*
X6225000Y11834999D02*
X6255000D01*
X5894999Y12165000D02*
X6225000Y11834999D01*
X5545000Y12165000D02*
X5894999D01*
X7800000Y12699999D02*
X7895580D01*
X8079237Y12883655D01*
X13425000Y13035001D02*
X13455000D01*
X13095000Y13365001D02*
X13425000Y13035001D01*
X12745000Y13365001D02*
X13095000D01*
X12225000Y13035001D02*
X12255000D01*
X11895000Y13365001D02*
X12225000Y13035001D01*
X11545000Y13365001D02*
X11895000D01*
X11025000Y13035001D02*
X11055000D01*
X10695002Y13364999D02*
X11025000Y13035001D01*
X10345000Y13364999D02*
X10695002D01*
X9825000Y13034999D02*
X9855000D01*
X9494999Y13364999D02*
X9825000Y13034999D01*
X9145000Y13364999D02*
X9494999D01*
X8625000Y13035001D02*
X8655000D01*
X8295000Y13364999D02*
X8625000Y13035001D01*
X7945000Y13364999D02*
X8295000D01*
X13945000Y13035001D02*
X13975000D01*
X14058269Y12951730D01*
Y12901268D02*
Y12951730D01*
Y12901268D02*
X14077708Y12881827D01*
X13895882Y12700000D02*
X14077708Y12881827D01*
X13800000Y12700000D02*
X13895882D01*
X12745000Y13035001D02*
X12775000D01*
X12856386Y12953615D01*
Y12884219D02*
Y12953615D01*
Y12884219D02*
X12875826Y12864780D01*
X12711046Y12700000D02*
X12875826Y12864780D01*
X12600000Y12700000D02*
X12711046D01*
X11545000Y13035001D02*
X11575000D01*
X11654507Y12955495D01*
Y12894875D02*
Y12955495D01*
Y12894875D02*
X11673947Y12875433D01*
X11498511Y12699998D02*
X11673947Y12875433D01*
X11400000Y12699998D02*
X11498511D01*
X10345000Y13034999D02*
X10375000D01*
X10459019Y12950980D01*
Y12897006D02*
Y12950980D01*
Y12897006D02*
X10478459Y12877567D01*
X10300891Y12699998D02*
X10478459Y12877567D01*
X10200000Y12699998D02*
X10300891D01*
X9145000Y13035001D02*
X9175000D01*
X9255815Y12954185D01*
Y12897948D02*
Y12954185D01*
Y12897948D02*
X9275255Y12878506D01*
X9096748Y12700000D02*
X9275255Y12878506D01*
X9000000Y12700000D02*
X9096748D01*
X8059796Y12903094D02*
X8079237Y12883655D01*
X8059796Y12903094D02*
Y12950204D01*
X7975000Y13035001D02*
X8059796Y12950204D01*
X7945000Y13035001D02*
X7975000D01*
X7425000D02*
X7455000D01*
X7095001Y13364999D02*
X7425000Y13035001D01*
X6745000Y13364999D02*
X7095001D01*
X6225000Y13034999D02*
X6255000D01*
X5894999Y13364999D02*
X6225000Y13034999D01*
X5545000Y13364999D02*
X5894999D01*
X6745000Y13034999D02*
X6775000D01*
X6859182Y12950816D01*
Y12879765D02*
Y12950816D01*
Y12879765D02*
X6878622Y12860326D01*
X6718296Y12699999D02*
X6878622Y12860326D01*
X6600000Y12699999D02*
X6718296D01*
X5545000Y13035001D02*
X5575000D01*
X6222700Y13397299D02*
X6255000Y13364999D01*
X5050817Y13360817D02*
X5055000Y13364999D01*
X7500213Y13367537D02*
X7502750Y13364999D01*
D13*
X1800000Y11300000D02*
D03*
Y10950000D02*
D03*
Y10600000D02*
D03*
Y10250000D02*
D03*
Y9900000D02*
D03*
Y9550000D02*
D03*
Y9200000D02*
D03*
D14*
Y8850000D02*
D03*
D15*
X3500000Y13100000D02*
D03*
X3507124Y10013538D02*
D03*
X3500000Y7000000D02*
D03*
D16*
X14081232Y6877556D02*
D03*
X12874844Y6873293D02*
D03*
X11676985Y6881819D02*
D03*
X10479121Y6869031D02*
D03*
X9276998Y6877556D02*
D03*
X8079136Y6869030D02*
D03*
X6881272Y6877556D02*
D03*
X5674884Y6860504D02*
D03*
X14081236Y8092471D02*
D03*
X12874847D02*
D03*
X11672722Y8092471D02*
D03*
X10479124Y8083946D02*
D03*
X9276997Y8096734D02*
D03*
X8079138D02*
D03*
X6877012Y8092471D02*
D03*
X5679150Y8075420D02*
D03*
X14080951Y9269718D02*
D03*
X12876888D02*
D03*
X11679611Y9266324D02*
D03*
X10475554Y9273107D02*
D03*
X9278277Y9276498D02*
D03*
X8077610Y9266323D02*
D03*
X6876942Y9273107D02*
D03*
X5676273Y9276499D02*
D03*
X14076088Y10494344D02*
D03*
X12873798Y10498469D02*
D03*
X11675630Y10496407D02*
D03*
X10477464Y10496406D02*
D03*
X9275175D02*
D03*
X8072883Y10496402D02*
D03*
X6875639Y10495382D02*
D03*
X5675544Y10499548D02*
D03*
X14079268Y11686983D02*
D03*
X12876601D02*
D03*
X11676332Y11686985D02*
D03*
X10476068Y11684591D02*
D03*
X9275802Y11686987D02*
D03*
X8075533Y11684592D02*
D03*
X6877662Y11672614D02*
D03*
X5674998Y11677405D02*
D03*
X5678122Y12856975D02*
D03*
X14077708Y12881827D02*
D03*
X12875826Y12864780D02*
D03*
X11673947Y12875433D02*
D03*
X10478459Y12877567D02*
D03*
X9275255Y12878506D02*
D03*
X8079237Y12883655D02*
D03*
X6878622Y12860326D02*
D03*
%TF.MD5,30137635040204059642ec7eb7e52b60*%
M02*
