%TF.GenerationSoftware,Altium Limited,Altium Designer,26.3.0 (6)*%
G04 Layer_Color=65535*
%FSLAX45Y45*%
%MOMM*%
%TF.SameCoordinates,A9FF2591-E71A-4425-8218-020843E58D9A*%
%TF.FilePolarity,Positive*%
%TF.FileFunction,Legend,Top*%
%TF.Part,Single*%
G01*
G75*
%TA.AperFunction,NonConductor*%
%ADD17C,0.25000*%
%ADD18C,0.20000*%
%ADD19C,0.25400*%
%ADD20C,0.10000*%
D17*
X5687500Y11835000D02*
G03*
X5687500Y11835000I-12500J0D01*
G01*
X14087500Y7035000D02*
G03*
X14087500Y7035000I-12500J0D01*
G01*
X12887500D02*
G03*
X12887500Y7035000I-12500J0D01*
G01*
X11687500Y7035000D02*
G03*
X11687500Y7035000I-12500J0D01*
G01*
X10487500D02*
G03*
X10487500Y7035000I-12500J0D01*
G01*
X9287500D02*
G03*
X9287500Y7035000I-12500J0D01*
G01*
X8087500D02*
G03*
X8087500Y7035000I-12500J0D01*
G01*
X5687500Y7035000D02*
G03*
X5687500Y7035000I-12500J0D01*
G01*
X14087500Y8235000D02*
G03*
X14087500Y8235000I-12500J0D01*
G01*
X12887500D02*
G03*
X12887500Y8235000I-12500J0D01*
G01*
X11687500D02*
G03*
X11687500Y8235000I-12500J0D01*
G01*
X10487500D02*
G03*
X10487500Y8235000I-12500J0D01*
G01*
X9287500Y8235001D02*
G03*
X9287500Y8235001I-12500J0D01*
G01*
X8087500Y8235000D02*
G03*
X8087500Y8235000I-12500J0D01*
G01*
X6887500Y8235001D02*
G03*
X6887500Y8235001I-12500J0D01*
G01*
X5687500Y8235000D02*
G03*
X5687500Y8235000I-12500J0D01*
G01*
X14087500Y9434997D02*
G03*
X14087500Y9434997I-12500J0D01*
G01*
X12887502Y9434998D02*
G03*
X12887502Y9434998I-12500J0D01*
G01*
X11687500Y9434999D02*
G03*
X11687500Y9434999I-12500J0D01*
G01*
X10487500Y9435001D02*
G03*
X10487500Y9435001I-12500J0D01*
G01*
X9287500Y9435000D02*
G03*
X9287500Y9435000I-12500J0D01*
G01*
X8087500D02*
G03*
X8087500Y9435000I-12500J0D01*
G01*
X6887500D02*
G03*
X6887500Y9435000I-12500J0D01*
G01*
X5687500D02*
G03*
X5687500Y9435000I-12500J0D01*
G01*
X14087500Y10635002D02*
G03*
X14087500Y10635002I-12500J0D01*
G01*
X12887502Y10635003D02*
G03*
X12887502Y10635003I-12500J0D01*
G01*
X11687500D02*
G03*
X11687500Y10635003I-12500J0D01*
G01*
X10487500Y10635004D02*
G03*
X10487500Y10635004I-12500J0D01*
G01*
X9287500Y10635003D02*
G03*
X9287500Y10635003I-12500J0D01*
G01*
X8087500D02*
G03*
X8087500Y10635003I-12500J0D01*
G01*
X6887500Y10635002D02*
G03*
X6887500Y10635002I-12500J0D01*
G01*
X5687500Y10635000D02*
G03*
X5687500Y10635000I-12500J0D01*
G01*
X6887500Y11834999D02*
G03*
X6887500Y11834999I-12500J0D01*
G01*
X8087500Y11834998D02*
G03*
X8087500Y11834998I-12500J0D01*
G01*
X9287500Y11834999D02*
G03*
X9287500Y11834999I-12500J0D01*
G01*
X10487500Y11835000D02*
G03*
X10487500Y11835000I-12500J0D01*
G01*
X11687500Y11835001D02*
G03*
X11687500Y11835001I-12500J0D01*
G01*
X12887502D02*
G03*
X12887502Y11835001I-12500J0D01*
G01*
X14087500Y11835000D02*
G03*
X14087500Y11835000I-12500J0D01*
G01*
X6887500Y7035000D02*
G03*
X6887500Y7035000I-12500J0D01*
G01*
X10487500Y13034999D02*
G03*
X10487500Y13034999I-12500J0D01*
G01*
X11687500Y13035001D02*
G03*
X11687500Y13035001I-12500J0D01*
G01*
X12887500D02*
G03*
X12887500Y13035001I-12500J0D01*
G01*
X5687500Y13035001D02*
G03*
X5687500Y13035001I-12500J0D01*
G01*
X6887500Y13034999D02*
G03*
X6887500Y13034999I-12500J0D01*
G01*
X14087500Y13035001D02*
G03*
X14087500Y13035001I-12500J0D01*
G01*
X8087500D02*
G03*
X8087500Y13035001I-12500J0D01*
G01*
X9287500D02*
G03*
X9287500Y13035001I-12500J0D01*
G01*
D18*
X1805000Y8545000D02*
G03*
X1805000Y8545000I-5000J0D01*
G01*
X5050000Y11920000D02*
Y12080000D01*
X5550000Y11920000D02*
Y12080000D01*
Y11750000D02*
Y11755000D01*
X5050000Y11750000D02*
Y11755000D01*
Y12245000D02*
Y12250000D01*
X5550000Y12245000D02*
Y12250000D01*
X5050000D02*
X5550000D01*
X5050000Y11750000D02*
X5550000D01*
X13450000Y7120000D02*
Y7280000D01*
X13950000Y7120000D02*
Y7280000D01*
Y6950000D02*
Y6955000D01*
X13450000Y6950000D02*
Y6955000D01*
Y7445000D02*
Y7450000D01*
X13950000Y7445000D02*
Y7450000D01*
X13450000D02*
X13950000D01*
X13450000Y6950000D02*
X13950000D01*
X12250000D02*
X12750000D01*
X12250000Y7450000D02*
X12750000D01*
Y7445000D02*
Y7450000D01*
X12250000Y7445000D02*
Y7450000D01*
Y6950000D02*
Y6955000D01*
X12750000Y6950000D02*
Y6955000D01*
Y7120000D02*
Y7280000D01*
X12250000Y7120000D02*
Y7280000D01*
X11050000Y6950000D02*
X11550000D01*
X11050000Y7450000D02*
X11550000D01*
Y7445000D02*
Y7450000D01*
X11050000Y7445000D02*
Y7450000D01*
Y6950000D02*
Y6955000D01*
X11550000Y6950000D02*
Y6955000D01*
Y7120000D02*
Y7280000D01*
X11050000Y7120000D02*
Y7280000D01*
X9850000Y6950000D02*
X10350000D01*
X9850000Y7450000D02*
X10350000D01*
Y7445000D02*
Y7450000D01*
X9850000Y7445000D02*
Y7450000D01*
Y6950000D02*
Y6955000D01*
X10350000Y6950000D02*
Y6955000D01*
Y7120000D02*
Y7280000D01*
X9850000Y7120000D02*
Y7280000D01*
X8649999Y6950000D02*
X9149999D01*
X8649999Y7450000D02*
X9149999D01*
Y7445000D02*
Y7450000D01*
X8649999Y7445000D02*
Y7450000D01*
Y6950000D02*
Y6955000D01*
X9149999Y6950000D02*
Y6955000D01*
Y7120000D02*
Y7280000D01*
X8649999Y7120000D02*
Y7280000D01*
X7450000Y6950000D02*
X7950000D01*
X7450000Y7450000D02*
X7950000D01*
Y7445000D02*
Y7450000D01*
X7450000Y7445000D02*
Y7450000D01*
Y6950000D02*
Y6955000D01*
X7950000Y6950000D02*
Y6955000D01*
Y7120000D02*
Y7280000D01*
X7450000Y7120000D02*
Y7280000D01*
X5050000Y6950000D02*
X5550000D01*
X5050000Y7450000D02*
X5550000D01*
Y7445000D02*
Y7450000D01*
X5050000Y7445000D02*
Y7450000D01*
Y6950000D02*
Y6955000D01*
X5550000Y6950000D02*
Y6955000D01*
Y7120000D02*
Y7280000D01*
X5050000Y7120000D02*
Y7280000D01*
X13450000Y8150000D02*
X13950000D01*
X13450000Y8650000D02*
X13950000D01*
Y8645000D02*
Y8650000D01*
X13450000Y8645000D02*
Y8650000D01*
Y8150000D02*
Y8155000D01*
X13950000Y8150000D02*
Y8155000D01*
Y8320000D02*
Y8480000D01*
X13450000Y8320000D02*
Y8480000D01*
X12250000Y8150000D02*
X12750000D01*
X12250000Y8650000D02*
X12750000D01*
Y8645000D02*
Y8650000D01*
X12250000Y8645000D02*
Y8650000D01*
Y8150000D02*
Y8155000D01*
X12750000Y8150000D02*
Y8155000D01*
Y8320000D02*
Y8480000D01*
X12250000Y8320000D02*
Y8480000D01*
X11050000Y8150000D02*
X11550000D01*
X11050000Y8650000D02*
X11550000D01*
Y8645000D02*
Y8650000D01*
X11050000Y8645000D02*
Y8650000D01*
Y8150000D02*
Y8155000D01*
X11550000Y8150000D02*
Y8155000D01*
Y8320000D02*
Y8480000D01*
X11050000Y8320000D02*
Y8480000D01*
X9850000Y8150000D02*
X10350000D01*
X9850000Y8650000D02*
X10350000D01*
Y8645000D02*
Y8650000D01*
X9850000Y8645000D02*
Y8650000D01*
Y8150000D02*
Y8155000D01*
X10350000Y8150000D02*
Y8155000D01*
Y8320000D02*
Y8480000D01*
X9850000Y8320000D02*
Y8480000D01*
X8649999Y8150000D02*
X9149999D01*
X8649999Y8650000D02*
X9149999D01*
Y8645000D02*
Y8650000D01*
X8649999Y8645000D02*
Y8650000D01*
Y8150000D02*
Y8155000D01*
X9149999Y8150000D02*
Y8155000D01*
Y8320000D02*
Y8480001D01*
X8649999Y8320000D02*
Y8480001D01*
X7450000Y8150000D02*
X7950000D01*
X7450000Y8650000D02*
X7950000D01*
Y8645000D02*
Y8650000D01*
X7450000Y8645000D02*
Y8650000D01*
Y8150000D02*
Y8155000D01*
X7950000Y8150000D02*
Y8155000D01*
Y8320000D02*
Y8480000D01*
X7450000Y8320000D02*
Y8480000D01*
X6250000Y8150000D02*
X6750000D01*
X6250000Y8650000D02*
X6750000D01*
Y8645000D02*
Y8650000D01*
X6250000Y8645000D02*
Y8650000D01*
Y8150000D02*
Y8155000D01*
X6750000Y8150000D02*
Y8155000D01*
Y8320000D02*
Y8480001D01*
X6250000Y8320000D02*
Y8480001D01*
X5050000Y8150000D02*
X5550000D01*
X5050000Y8650000D02*
X5550000D01*
Y8645000D02*
Y8650000D01*
X5050000Y8645000D02*
Y8650000D01*
Y8150000D02*
Y8155000D01*
X5550000Y8150000D02*
Y8155000D01*
Y8320000D02*
Y8480000D01*
X5050000Y8320000D02*
Y8480000D01*
X13450000Y9349997D02*
X13950000D01*
X13450000Y9849997D02*
X13950000D01*
Y9844997D02*
Y9849997D01*
X13450000Y9844997D02*
Y9849997D01*
Y9349997D02*
Y9354997D01*
X13950000Y9349997D02*
Y9354997D01*
Y9519997D02*
Y9679997D01*
X13450000Y9519997D02*
Y9679997D01*
X12250000Y9349998D02*
X12750000D01*
X12250000Y9849998D02*
X12750000D01*
Y9844998D02*
Y9849998D01*
X12250000Y9844998D02*
Y9849998D01*
Y9349998D02*
Y9354998D01*
X12750000Y9349998D02*
Y9354998D01*
Y9519998D02*
Y9679998D01*
X12250000Y9519998D02*
Y9679998D01*
X11050000Y9349999D02*
X11550000D01*
X11050000Y9849999D02*
X11550000D01*
Y9844999D02*
Y9849999D01*
X11050000Y9844999D02*
Y9849999D01*
Y9349999D02*
Y9354999D01*
X11550000Y9349999D02*
Y9354999D01*
Y9519999D02*
Y9679999D01*
X11050000Y9519999D02*
Y9679999D01*
X9850000Y9350001D02*
X10350000D01*
X9850000Y9850001D02*
X10350000D01*
Y9845001D02*
Y9850001D01*
X9850000Y9845001D02*
Y9850001D01*
Y9350001D02*
Y9355001D01*
X10350000Y9350001D02*
Y9355001D01*
Y9520001D02*
Y9680001D01*
X9850000Y9520001D02*
Y9680001D01*
X8649999Y9350000D02*
X9149999D01*
X8649999Y9850000D02*
X9149999D01*
Y9845000D02*
Y9850000D01*
X8649999Y9845000D02*
Y9850000D01*
Y9350000D02*
Y9355000D01*
X9149999Y9350000D02*
Y9355000D01*
Y9520000D02*
Y9680000D01*
X8649999Y9520000D02*
Y9680000D01*
X7450000Y9350000D02*
X7950000D01*
X7450000Y9850000D02*
X7950000D01*
Y9845000D02*
Y9850000D01*
X7450000Y9845000D02*
Y9850000D01*
Y9350000D02*
Y9355000D01*
X7950000Y9350000D02*
Y9355000D01*
Y9520000D02*
Y9680000D01*
X7450000Y9520000D02*
Y9680000D01*
X6250000Y9350000D02*
X6750000D01*
X6250000Y9850000D02*
X6750000D01*
Y9845000D02*
Y9850000D01*
X6250000Y9845000D02*
Y9850000D01*
Y9350000D02*
Y9355000D01*
X6750000Y9350000D02*
Y9355000D01*
Y9520000D02*
Y9680000D01*
X6250000Y9520000D02*
Y9680000D01*
X5050000Y9350000D02*
X5550000D01*
X5050000Y9850000D02*
X5550000D01*
Y9845000D02*
Y9850000D01*
X5050000Y9845000D02*
Y9850000D01*
Y9350000D02*
Y9355000D01*
X5550000Y9350000D02*
Y9355000D01*
Y9520000D02*
Y9680000D01*
X5050000Y9520000D02*
Y9680000D01*
X13450000Y10550002D02*
X13950000D01*
X13450000Y11050002D02*
X13950000D01*
Y11045002D02*
Y11050002D01*
X13450000Y11045002D02*
Y11050002D01*
Y10550002D02*
Y10555002D01*
X13950000Y10550002D02*
Y10555002D01*
Y10720002D02*
Y10880002D01*
X13450000Y10720002D02*
Y10880002D01*
X12250000Y10550003D02*
X12750000D01*
X12250000Y11050003D02*
X12750000D01*
Y11045003D02*
Y11050003D01*
X12250000Y11045003D02*
Y11050003D01*
Y10550003D02*
Y10555003D01*
X12750000Y10550003D02*
Y10555003D01*
Y10720003D02*
Y10880003D01*
X12250000Y10720003D02*
Y10880003D01*
X11050000Y10550003D02*
X11550000D01*
X11050000Y11050003D02*
X11550000D01*
Y11045003D02*
Y11050003D01*
X11050000Y11045003D02*
Y11050003D01*
Y10550003D02*
Y10555003D01*
X11550000Y10550003D02*
Y10555003D01*
Y10720003D02*
Y10880003D01*
X11050000Y10720003D02*
Y10880003D01*
X9850000Y10550004D02*
X10350000D01*
X9850000Y11050004D02*
X10350000D01*
Y11045004D02*
Y11050004D01*
X9850000Y11045004D02*
Y11050004D01*
Y10550004D02*
Y10555004D01*
X10350000Y10550004D02*
Y10555004D01*
Y10720004D02*
Y10880004D01*
X9850000Y10720004D02*
Y10880004D01*
X8649999Y10550003D02*
X9149999D01*
X8649999Y11050003D02*
X9149999D01*
Y11045003D02*
Y11050003D01*
X8649999Y11045003D02*
Y11050003D01*
Y10550003D02*
Y10555003D01*
X9149999Y10550003D02*
Y10555003D01*
Y10720003D02*
Y10880003D01*
X8649999Y10720003D02*
Y10880003D01*
X7450000Y10550003D02*
X7950000D01*
X7450000Y11050003D02*
X7950000D01*
Y11045003D02*
Y11050003D01*
X7450000Y11045003D02*
Y11050003D01*
Y10550003D02*
Y10555003D01*
X7950000Y10550003D02*
Y10555003D01*
Y10720003D02*
Y10880003D01*
X7450000Y10720003D02*
Y10880003D01*
X6250000Y10550002D02*
X6750000D01*
X6250000Y11050002D02*
X6750000D01*
Y11045002D02*
Y11050002D01*
X6250000Y11045002D02*
Y11050002D01*
Y10550002D02*
Y10555002D01*
X6750000Y10550002D02*
Y10555002D01*
Y10720002D02*
Y10880002D01*
X6250000Y10720002D02*
Y10880002D01*
X5050000Y10550000D02*
X5550000D01*
X5050000Y11050000D02*
X5550000D01*
Y11045000D02*
Y11050000D01*
X5050000Y11045000D02*
Y11050000D01*
Y10550000D02*
Y10555000D01*
X5550000Y10550000D02*
Y10555000D01*
Y10720000D02*
Y10880000D01*
X5050000Y10720000D02*
Y10880000D01*
X6250000Y11749999D02*
X6750000D01*
X6250000Y12249999D02*
X6750000D01*
Y12244999D02*
Y12249999D01*
X6250000Y12244999D02*
Y12249999D01*
Y11749999D02*
Y11754999D01*
X6750000Y11749999D02*
Y11754999D01*
Y11919999D02*
Y12079999D01*
X6250000Y11919999D02*
Y12079999D01*
X7450000Y11749998D02*
X7950000D01*
X7450000Y12249998D02*
X7950000D01*
Y12244998D02*
Y12249998D01*
X7450000Y12244998D02*
Y12249998D01*
Y11749998D02*
Y11754998D01*
X7950000Y11749998D02*
Y11754998D01*
Y11919998D02*
Y12079998D01*
X7450000Y11919998D02*
Y12079998D01*
X8649999Y11749999D02*
X9149999D01*
X8649999Y12249999D02*
X9149999D01*
Y12244999D02*
Y12249999D01*
X8649999Y12244999D02*
Y12249999D01*
Y11749999D02*
Y11754999D01*
X9149999Y11749999D02*
Y11754999D01*
Y11919999D02*
Y12079999D01*
X8649999Y11919999D02*
Y12079999D01*
X9850000Y11750000D02*
X10350000D01*
X9850000Y12250000D02*
X10350000D01*
Y12245000D02*
Y12250000D01*
X9850000Y12245000D02*
Y12250000D01*
Y11750000D02*
Y11755000D01*
X10350000Y11750000D02*
Y11755000D01*
Y11920000D02*
Y12080000D01*
X9850000Y11920000D02*
Y12080000D01*
X11050000Y11750001D02*
X11550000D01*
X11050000Y12250001D02*
X11550000D01*
Y12245001D02*
Y12250001D01*
X11050000Y12245001D02*
Y12250001D01*
Y11750001D02*
Y11755001D01*
X11550000Y11750001D02*
Y11755001D01*
Y11920001D02*
Y12080001D01*
X11050000Y11920001D02*
Y12080001D01*
X12250000Y11750001D02*
X12750000D01*
X12250000Y12250001D02*
X12750000D01*
Y12245001D02*
Y12250001D01*
X12250000Y12245001D02*
Y12250001D01*
Y11750001D02*
Y11755001D01*
X12750000Y11750001D02*
Y11755001D01*
Y11920001D02*
Y12080001D01*
X12250000Y11920001D02*
Y12080001D01*
X13450000Y11750000D02*
X13950000D01*
X13450000Y12250000D02*
X13950000D01*
Y12245000D02*
Y12250000D01*
X13450000Y12245000D02*
Y12250000D01*
Y11750000D02*
Y11755000D01*
X13950000Y11750000D02*
Y11755000D01*
Y11920000D02*
Y12080000D01*
X13450000Y11920000D02*
Y12080000D01*
X7695000Y6632499D02*
X7705000D01*
X7695000Y6767499D02*
X7705000D01*
X6250000Y7120000D02*
Y7280000D01*
X6750000Y7120000D02*
Y7280000D01*
Y6950000D02*
Y6955000D01*
X6250000Y6950000D02*
Y6955000D01*
Y7445000D02*
Y7450000D01*
X6750000Y7445000D02*
Y7450000D01*
X6250000D02*
X6750000D01*
X6250000Y6950000D02*
X6750000D01*
X13695000Y6767499D02*
X13705000D01*
X13695000Y6632499D02*
X13705000D01*
X9850000Y12949998D02*
X10350000D01*
X9850000Y13449998D02*
X10350000D01*
Y13445000D02*
Y13449998D01*
X9850000Y13445000D02*
Y13449998D01*
Y12949998D02*
Y12954999D01*
X10350000Y12949998D02*
Y12954999D01*
Y13120000D02*
Y13279999D01*
X9850000Y13120000D02*
Y13279999D01*
X10095000Y7967499D02*
X10105000D01*
X10095000Y7832499D02*
X10105000D01*
X11050000Y13120001D02*
Y13280000D01*
X11550000Y13120001D02*
Y13280000D01*
Y12950002D02*
Y12955000D01*
X11050000Y12950002D02*
Y12955000D01*
Y13445001D02*
Y13450002D01*
X11550000Y13445001D02*
Y13450002D01*
X11050000D02*
X11550000D01*
X11050000Y12950002D02*
X11550000D01*
X12495000Y7967499D02*
X12505000D01*
X12495000Y7832499D02*
X12505000D01*
X13695000Y9167496D02*
X13705000D01*
X13695000Y9032496D02*
X13705000D01*
X7695000Y7967499D02*
X7705000D01*
X7695000Y7832499D02*
X7705000D01*
X8894999Y9167499D02*
X8904999D01*
X8894999Y9032499D02*
X8904999D01*
X11295000Y9167498D02*
X11305000D01*
X11295000Y9032498D02*
X11305000D01*
X13695000Y12767499D02*
X13705000D01*
X13695000Y12632499D02*
X13705000D01*
X7695000Y12767499D02*
X7705000D01*
X7695000Y12632499D02*
X7705000D01*
X12250000Y13120001D02*
Y13280000D01*
X12750000Y13120001D02*
Y13280000D01*
Y12950002D02*
Y12955000D01*
X12250000Y12950002D02*
Y12955000D01*
Y13445001D02*
Y13450002D01*
X12750000Y13445001D02*
Y13450002D01*
X12250000D02*
X12750000D01*
X12250000Y12950002D02*
X12750000D01*
X10095000Y12767498D02*
X10105000D01*
X10095000Y12632498D02*
X10105000D01*
X11295000Y10367502D02*
X11305000D01*
X11295000Y10232502D02*
X11305000D01*
X5295000Y10367499D02*
X5305000D01*
X5295000Y10232499D02*
X5305000D01*
X13695000Y10367501D02*
X13705000D01*
X13695000Y10232501D02*
X13705000D01*
X8894999Y10367502D02*
X8904999D01*
X8894999Y10232502D02*
X8904999D01*
X8894999Y11567498D02*
X8904999D01*
X8894999Y11432498D02*
X8904999D01*
X13695000Y11567499D02*
X13705000D01*
X13695000Y11432499D02*
X13705000D01*
X6495000Y11567498D02*
X6505000D01*
X6495000Y11432498D02*
X6505000D01*
X11295000Y11567500D02*
X11305000D01*
X11295000Y11432500D02*
X11305000D01*
X12495000Y6632499D02*
X12505000D01*
X12495000Y6767499D02*
X12505000D01*
X10095000Y6632499D02*
X10105000D01*
X10095000Y6767499D02*
X10105000D01*
X7695000Y10232502D02*
X7705000D01*
X7695000Y10367502D02*
X7705000D01*
X6495000Y7832499D02*
X6505000D01*
X6495000Y7967499D02*
X6505000D01*
X13695000Y7967499D02*
X13705000D01*
X13695000Y7832499D02*
X13705000D01*
X5050000Y12950000D02*
X5550000D01*
X5050000Y13450000D02*
X5550000D01*
Y13445000D02*
Y13450000D01*
X5050000Y13445000D02*
Y13450000D01*
Y12950000D02*
Y12955000D01*
X5550000Y12950000D02*
Y12955000D01*
Y13120000D02*
Y13280000D01*
X5050000Y13120000D02*
Y13280000D01*
X5295000Y6767499D02*
X5305000D01*
X5295000Y6632499D02*
X5305000D01*
X11295000Y7967499D02*
X11305000D01*
X11295000Y7832499D02*
X11305000D01*
X8894999Y7967499D02*
X8904999D01*
X8894999Y7832499D02*
X8904999D01*
X6495000Y6767499D02*
X6505000D01*
X6495000Y6632499D02*
X6505000D01*
X6495000Y9167499D02*
X6505000D01*
X6495000Y9032499D02*
X6505000D01*
X6250000Y12949998D02*
X6750000D01*
X6250000Y13449998D02*
X6750000D01*
Y13445000D02*
Y13449998D01*
X6250000Y13445000D02*
Y13449998D01*
Y12949998D02*
Y12954999D01*
X6750000Y12949998D02*
Y12954999D01*
Y13120000D02*
Y13279999D01*
X6250000Y13120000D02*
Y13279999D01*
X12495000Y9167497D02*
X12505000D01*
X12495000Y9032497D02*
X12505000D01*
X5295000Y7967499D02*
X5305000D01*
X5295000Y7832499D02*
X5305000D01*
X7695000Y9167499D02*
X7705000D01*
X7695000Y9032499D02*
X7705000D01*
X10095000Y9167500D02*
X10105000D01*
X10095000Y9032500D02*
X10105000D01*
X8895000Y12767499D02*
X8905000D01*
X8895000Y12632499D02*
X8905000D01*
X11295000Y12767500D02*
X11305000D01*
X11295000Y12632500D02*
X11305000D01*
X5295000Y9167499D02*
X5305000D01*
X5295000Y9032499D02*
X5305000D01*
X6495000Y12767498D02*
X6505000D01*
X6495000Y12632498D02*
X6505000D01*
X13450000Y13120000D02*
Y13280000D01*
X13950000Y13120000D02*
Y13280000D01*
Y12950000D02*
Y12955000D01*
X13450000Y12950000D02*
Y12955000D01*
Y13445000D02*
Y13450000D01*
X13950000Y13445000D02*
Y13450000D01*
X13450000D02*
X13950000D01*
X13450000Y12950000D02*
X13950000D01*
X7450000D02*
X7950000D01*
X7450000Y13450000D02*
X7950000D01*
Y13445000D02*
Y13450000D01*
X7450000Y13445000D02*
Y13450000D01*
Y12950000D02*
Y12955000D01*
X7950000Y12950000D02*
Y12955000D01*
Y13120000D02*
Y13280000D01*
X7450000Y13120000D02*
Y13280000D01*
X10095000Y10367503D02*
X10105000D01*
X10095000Y10232503D02*
X10105000D01*
X6495000Y10367501D02*
X6505000D01*
X6495000Y10232501D02*
X6505000D01*
X5295000Y11567499D02*
X5305000D01*
X5295000Y11432499D02*
X5305000D01*
X12495000Y10367502D02*
X12505000D01*
X12495000Y10232502D02*
X12505000D01*
X12495000Y11567500D02*
X12505000D01*
X12495000Y11432500D02*
X12505000D01*
X7695000Y11567497D02*
X7705000D01*
X7695000Y11432497D02*
X7705000D01*
X10095000Y11567499D02*
X10105000D01*
X10095000Y11432499D02*
X10105000D01*
X11295000Y6632499D02*
X11305000D01*
X11295000Y6767499D02*
X11305000D01*
X5295000Y12632499D02*
X5305000D01*
X5295000Y12767499D02*
X5305000D01*
X12495000Y12632500D02*
X12505000D01*
X12495000Y12767500D02*
X12505000D01*
X8894999Y6632499D02*
X8904999D01*
X8894999Y6767499D02*
X8904999D01*
X8650000Y12950000D02*
X9150000D01*
X8650000Y13450000D02*
X9150000D01*
Y13445000D02*
Y13450000D01*
X8650000Y13445000D02*
Y13450000D01*
Y12950000D02*
Y12955000D01*
X9150000Y12950000D02*
Y12955000D01*
Y13120000D02*
Y13280000D01*
X8650000Y13120000D02*
Y13280000D01*
D19*
X3119000Y6466600D02*
X3868300D01*
X4033400Y6631700D01*
X2966600Y6619000D02*
Y7368300D01*
X3131700Y7533400D01*
X3868300D02*
X4033400Y7368300D01*
Y6631700D02*
Y7368300D01*
X2966600Y6619000D02*
X3119000Y6466600D01*
X3614300Y7533400D02*
X3868300D01*
X3131700D02*
X3614300D01*
X3126124Y9480138D02*
X3875424D01*
X4040524Y9645238D01*
X2973724Y9632538D02*
Y10381838D01*
X3138824Y10546938D01*
X3875424D02*
X4040524Y10381838D01*
Y9645238D02*
Y10381838D01*
X2973724Y9632538D02*
X3126124Y9480138D01*
X3621424Y10546938D02*
X3875424D01*
X3138824D02*
X3621424D01*
X3119000Y12566600D02*
X3868300D01*
X4033400Y12731700D01*
X2966600Y12719000D02*
Y13468300D01*
X3131700Y13633400D01*
X3868300D02*
X4033400Y13468300D01*
Y12731700D02*
Y13468300D01*
X2966600Y12719000D02*
X3119000Y12566600D01*
X3614300Y13633400D02*
X3868300D01*
X3131700D02*
X3614300D01*
X5049216Y12349217D02*
X5074608Y12323825D01*
X5125392D01*
X5150784Y12349217D01*
Y12450784D01*
X5125392Y12476175D01*
X5074608D01*
X5049216Y12450784D01*
Y12425392D01*
X5074608Y12400000D01*
X5150784D01*
X1478247Y11856671D02*
X1427463D01*
X1452855D01*
Y11729712D01*
X1427463Y11704320D01*
X1402072D01*
X1376680Y11729712D01*
X1529031Y11704320D02*
X1579814D01*
X1554423D01*
Y11856671D01*
X1529031Y11831279D01*
X8010683Y6686305D02*
X7985292Y6711697D01*
X7934508D01*
X7909116Y6686305D01*
Y6584738D01*
X7934508Y6559347D01*
X7985292D01*
X8010683Y6584738D01*
X8137642Y6559347D02*
Y6711697D01*
X8061467Y6635522D01*
X8163034D01*
X8213818Y6686305D02*
X8239210Y6711697D01*
X8289993D01*
X8315385Y6686305D01*
Y6660914D01*
X8289993Y6635522D01*
X8315385Y6610130D01*
Y6584738D01*
X8289993Y6559347D01*
X8239210D01*
X8213818Y6584738D01*
Y6610130D01*
X8239210Y6635522D01*
X8213818Y6660914D01*
Y6686305D01*
X8239210Y6635522D02*
X8289993D01*
X6810684Y6686305D02*
X6785292Y6711697D01*
X6734509D01*
X6709117Y6686305D01*
Y6584738D01*
X6734509Y6559347D01*
X6785292D01*
X6810684Y6584738D01*
X6937643Y6559347D02*
Y6711697D01*
X6861467Y6635522D01*
X6963035D01*
X7013818Y6711697D02*
X7115385D01*
Y6686305D01*
X7013818Y6584738D01*
Y6559347D01*
X5610684Y6686305D02*
X5585292Y6711697D01*
X5534508D01*
X5509116Y6686305D01*
Y6584738D01*
X5534508Y6559346D01*
X5585292D01*
X5610684Y6584738D01*
X5737643Y6559346D02*
Y6711697D01*
X5661467Y6635522D01*
X5763034D01*
X5915385Y6711697D02*
X5864601Y6686305D01*
X5813818Y6635522D01*
Y6584738D01*
X5839210Y6559346D01*
X5889993D01*
X5915385Y6584738D01*
Y6610130D01*
X5889993Y6635522D01*
X5813818D01*
X14010684Y7886305D02*
X13985292Y7911697D01*
X13934508D01*
X13909116Y7886305D01*
Y7784738D01*
X13934508Y7759346D01*
X13985292D01*
X14010684Y7784738D01*
X14137643Y7759346D02*
Y7911697D01*
X14061467Y7835522D01*
X14163034D01*
X14315385Y7911697D02*
X14213818D01*
Y7835522D01*
X14264601Y7860913D01*
X14289993D01*
X14315385Y7835522D01*
Y7784738D01*
X14289993Y7759346D01*
X14239211D01*
X14213818Y7784738D01*
X12810684Y7886305D02*
X12785292Y7911697D01*
X12734508D01*
X12709116Y7886305D01*
Y7784738D01*
X12734508Y7759346D01*
X12785292D01*
X12810684Y7784738D01*
X12937642Y7759346D02*
Y7911697D01*
X12861467Y7835522D01*
X12963034D01*
X13089993Y7759346D02*
Y7911697D01*
X13013818Y7835522D01*
X13115385D01*
X11610683Y7886305D02*
X11585292Y7911697D01*
X11534508D01*
X11509116Y7886305D01*
Y7784738D01*
X11534508Y7759346D01*
X11585292D01*
X11610683Y7784738D01*
X11737642Y7759346D02*
Y7911697D01*
X11661467Y7835522D01*
X11763034D01*
X11813818Y7886305D02*
X11839209Y7911697D01*
X11889993D01*
X11915385Y7886305D01*
Y7860913D01*
X11889993Y7835522D01*
X11864601D01*
X11889993D01*
X11915385Y7810130D01*
Y7784738D01*
X11889993Y7759346D01*
X11839209D01*
X11813818Y7784738D01*
X10410684Y7886305D02*
X10385292Y7911697D01*
X10334508D01*
X10309117Y7886305D01*
Y7784738D01*
X10334508Y7759346D01*
X10385292D01*
X10410684Y7784738D01*
X10537643Y7759346D02*
Y7911697D01*
X10461467Y7835522D01*
X10563034D01*
X10715385Y7759346D02*
X10613818D01*
X10715385Y7860913D01*
Y7886305D01*
X10689993Y7911697D01*
X10639210D01*
X10613818Y7886305D01*
X9236075Y7886306D02*
X9210683Y7911697D01*
X9159900D01*
X9134508Y7886306D01*
Y7784739D01*
X9159900Y7759347D01*
X9210683D01*
X9236075Y7784739D01*
X9363034Y7759347D02*
Y7911697D01*
X9286858Y7835522D01*
X9388426D01*
X9439209Y7759347D02*
X9489993D01*
X9464601D01*
Y7911697D01*
X9439209Y7886306D01*
X8010683Y7886305D02*
X7985292Y7911697D01*
X7934508D01*
X7909116Y7886305D01*
Y7784738D01*
X7934508Y7759346D01*
X7985292D01*
X8010683Y7784738D01*
X8137642Y7759346D02*
Y7911697D01*
X8061467Y7835522D01*
X8163034D01*
X8213818Y7886305D02*
X8239210Y7911697D01*
X8289993D01*
X8315385Y7886305D01*
Y7784738D01*
X8289993Y7759346D01*
X8239210D01*
X8213818Y7784738D01*
Y7886305D01*
X5610684Y7886305D02*
X5585292Y7911697D01*
X5534508D01*
X5509116Y7886305D01*
Y7784738D01*
X5534508Y7759346D01*
X5585292D01*
X5610684Y7784738D01*
X5661467Y7886305D02*
X5686859Y7911697D01*
X5737643D01*
X5763034Y7886305D01*
Y7860914D01*
X5737643Y7835522D01*
X5712251D01*
X5737643D01*
X5763034Y7810130D01*
Y7784738D01*
X5737643Y7759346D01*
X5686859D01*
X5661467Y7784738D01*
X5813818D02*
X5839210Y7759346D01*
X5889993D01*
X5915385Y7784738D01*
Y7886305D01*
X5889993Y7911697D01*
X5839210D01*
X5813818Y7886305D01*
Y7860914D01*
X5839210Y7835522D01*
X5915385D01*
X14010684Y9086302D02*
X13985292Y9111694D01*
X13934508D01*
X13909116Y9086302D01*
Y8984735D01*
X13934508Y8959343D01*
X13985292D01*
X14010684Y8984735D01*
X14061467Y9086302D02*
X14086859Y9111694D01*
X14137643D01*
X14163034Y9086302D01*
Y9060911D01*
X14137643Y9035519D01*
X14112251D01*
X14137643D01*
X14163034Y9010127D01*
Y8984735D01*
X14137643Y8959343D01*
X14086859D01*
X14061467Y8984735D01*
X14213818Y9086302D02*
X14239211Y9111694D01*
X14289993D01*
X14315385Y9086302D01*
Y9060911D01*
X14289993Y9035519D01*
X14315385Y9010127D01*
Y8984735D01*
X14289993Y8959343D01*
X14239211D01*
X14213818Y8984735D01*
Y9010127D01*
X14239211Y9035519D01*
X14213818Y9060911D01*
Y9086302D01*
X14239211Y9035519D02*
X14289993D01*
X12810684Y9086303D02*
X12785292Y9111695D01*
X12734509D01*
X12709117Y9086303D01*
Y8984736D01*
X12734509Y8959344D01*
X12785292D01*
X12810684Y8984736D01*
X12861469Y9086303D02*
X12886859Y9111695D01*
X12937643D01*
X12963036Y9086303D01*
Y9060912D01*
X12937643Y9035520D01*
X12912251D01*
X12937643D01*
X12963036Y9010128D01*
Y8984736D01*
X12937643Y8959344D01*
X12886859D01*
X12861469Y8984736D01*
X13013818Y9111695D02*
X13115385D01*
Y9086303D01*
X13013818Y8984736D01*
Y8959344D01*
X11610683Y9086304D02*
X11585292Y9111696D01*
X11534508D01*
X11509116Y9086304D01*
Y8984737D01*
X11534508Y8959345D01*
X11585292D01*
X11610683Y8984737D01*
X11661467Y9086304D02*
X11686859Y9111696D01*
X11737642D01*
X11763034Y9086304D01*
Y9060913D01*
X11737642Y9035521D01*
X11712250D01*
X11737642D01*
X11763034Y9010129D01*
Y8984737D01*
X11737642Y8959345D01*
X11686859D01*
X11661467Y8984737D01*
X11915385Y9111696D02*
X11864601Y9086304D01*
X11813818Y9035521D01*
Y8984737D01*
X11839209Y8959345D01*
X11889993D01*
X11915385Y8984737D01*
Y9010129D01*
X11889993Y9035521D01*
X11813818D01*
X10410684Y9086306D02*
X10385292Y9111698D01*
X10334508D01*
X10309117Y9086306D01*
Y8984739D01*
X10334508Y8959347D01*
X10385292D01*
X10410684Y8984739D01*
X10461467Y9086306D02*
X10486859Y9111698D01*
X10537643D01*
X10563034Y9086306D01*
Y9060915D01*
X10537643Y9035523D01*
X10512251D01*
X10537643D01*
X10563034Y9010131D01*
Y8984739D01*
X10537643Y8959347D01*
X10486859D01*
X10461467Y8984739D01*
X10715385Y9111698D02*
X10613818D01*
Y9035523D01*
X10664601Y9060915D01*
X10689993D01*
X10715385Y9035523D01*
Y8984739D01*
X10689993Y8959347D01*
X10639210D01*
X10613818Y8984739D01*
X9210683Y9086305D02*
X9185291Y9111697D01*
X9134508D01*
X9109116Y9086305D01*
Y8984738D01*
X9134508Y8959346D01*
X9185291D01*
X9210683Y8984738D01*
X9261467Y9086305D02*
X9286858Y9111697D01*
X9337642D01*
X9363034Y9086305D01*
Y9060914D01*
X9337642Y9035522D01*
X9312250D01*
X9337642D01*
X9363034Y9010130D01*
Y8984738D01*
X9337642Y8959346D01*
X9286858D01*
X9261467Y8984738D01*
X9489993Y8959346D02*
Y9111697D01*
X9413817Y9035522D01*
X9515385D01*
X8010684Y9086305D02*
X7985292Y9111697D01*
X7934509D01*
X7909117Y9086305D01*
Y8984738D01*
X7934509Y8959346D01*
X7985292D01*
X8010684Y8984738D01*
X8061467Y9086305D02*
X8086859Y9111697D01*
X8137643D01*
X8163035Y9086305D01*
Y9060914D01*
X8137643Y9035522D01*
X8112251D01*
X8137643D01*
X8163035Y9010130D01*
Y8984738D01*
X8137643Y8959346D01*
X8086859D01*
X8061467Y8984738D01*
X8213818Y9086305D02*
X8239210Y9111697D01*
X8289994D01*
X8315385Y9086305D01*
Y9060914D01*
X8289994Y9035522D01*
X8264602D01*
X8289994D01*
X8315385Y9010130D01*
Y8984738D01*
X8289994Y8959346D01*
X8239210D01*
X8213818Y8984738D01*
X6810684Y9086305D02*
X6785292Y9111697D01*
X6734509D01*
X6709117Y9086305D01*
Y8984738D01*
X6734509Y8959346D01*
X6785292D01*
X6810684Y8984738D01*
X6861467Y9086305D02*
X6886859Y9111697D01*
X6937643D01*
X6963035Y9086305D01*
Y9060914D01*
X6937643Y9035522D01*
X6912251D01*
X6937643D01*
X6963035Y9010130D01*
Y8984738D01*
X6937643Y8959346D01*
X6886859D01*
X6861467Y8984738D01*
X7115385Y8959346D02*
X7013818D01*
X7115385Y9060914D01*
Y9086305D01*
X7089993Y9111697D01*
X7039210D01*
X7013818Y9086305D01*
X5636076D02*
X5610684Y9111697D01*
X5559900D01*
X5534508Y9086305D01*
Y8984738D01*
X5559900Y8959346D01*
X5610684D01*
X5636076Y8984738D01*
X5686859Y9086305D02*
X5712251Y9111697D01*
X5763034D01*
X5788426Y9086305D01*
Y9060914D01*
X5763034Y9035522D01*
X5737643D01*
X5763034D01*
X5788426Y9010130D01*
Y8984738D01*
X5763034Y8959346D01*
X5712251D01*
X5686859Y8984738D01*
X5839210Y8959346D02*
X5889993D01*
X5864602D01*
Y9111697D01*
X5839210Y9086305D01*
X14010684Y12686305D02*
X13985292Y12711697D01*
X13934508D01*
X13909116Y12686305D01*
Y12584738D01*
X13934508Y12559346D01*
X13985292D01*
X14010684Y12584738D01*
X14061467Y12686305D02*
X14086859Y12711697D01*
X14137643D01*
X14163034Y12686305D01*
Y12660913D01*
X14137643Y12635522D01*
X14112251D01*
X14137643D01*
X14163034Y12610130D01*
Y12584738D01*
X14137643Y12559346D01*
X14086859D01*
X14061467Y12584738D01*
X14213818Y12686305D02*
X14239211Y12711697D01*
X14289993D01*
X14315385Y12686305D01*
Y12584738D01*
X14289993Y12559346D01*
X14239211D01*
X14213818Y12584738D01*
Y12686305D01*
X11610684Y12686306D02*
X11585292Y12711698D01*
X11534508D01*
X11509116Y12686306D01*
Y12584739D01*
X11534508Y12559347D01*
X11585292D01*
X11610684Y12584739D01*
X11763034Y12559347D02*
X11661467D01*
X11763034Y12660914D01*
Y12686306D01*
X11737643Y12711698D01*
X11686859D01*
X11661467Y12686306D01*
X11813818Y12584739D02*
X11839210Y12559347D01*
X11889993D01*
X11915385Y12584739D01*
Y12686306D01*
X11889993Y12711698D01*
X11839210D01*
X11813818Y12686306D01*
Y12660914D01*
X11839210Y12635523D01*
X11915385D01*
X10410684Y12686304D02*
X10385292Y12711696D01*
X10334508D01*
X10309117Y12686304D01*
Y12584737D01*
X10334508Y12559345D01*
X10385292D01*
X10410684Y12584737D01*
X10563034Y12559345D02*
X10461467D01*
X10563034Y12660912D01*
Y12686304D01*
X10537643Y12711696D01*
X10486859D01*
X10461467Y12686304D01*
X10613818D02*
X10639210Y12711696D01*
X10689993D01*
X10715385Y12686304D01*
Y12660912D01*
X10689993Y12635521D01*
X10715385Y12610129D01*
Y12584737D01*
X10689993Y12559345D01*
X10639210D01*
X10613818Y12584737D01*
Y12610129D01*
X10639210Y12635521D01*
X10613818Y12660912D01*
Y12686304D01*
X10639210Y12635521D02*
X10689993D01*
X9210684Y12686305D02*
X9185292Y12711697D01*
X9134508D01*
X9109116Y12686305D01*
Y12584738D01*
X9134508Y12559346D01*
X9185292D01*
X9210684Y12584738D01*
X9363034Y12559346D02*
X9261467D01*
X9363034Y12660913D01*
Y12686305D01*
X9337642Y12711697D01*
X9286859D01*
X9261467Y12686305D01*
X9413818Y12711697D02*
X9515385D01*
Y12686305D01*
X9413818Y12584738D01*
Y12559346D01*
X8010684Y12686305D02*
X7985292Y12711697D01*
X7934508D01*
X7909117Y12686305D01*
Y12584738D01*
X7934508Y12559346D01*
X7985292D01*
X8010684Y12584738D01*
X8163034Y12559346D02*
X8061467D01*
X8163034Y12660913D01*
Y12686305D01*
X8137643Y12711697D01*
X8086859D01*
X8061467Y12686305D01*
X8315385Y12711697D02*
X8264601Y12686305D01*
X8213818Y12635522D01*
Y12584738D01*
X8239210Y12559346D01*
X8289993D01*
X8315385Y12584738D01*
Y12610130D01*
X8289993Y12635522D01*
X8213818D01*
X6810684Y12686304D02*
X6785292Y12711696D01*
X6734508D01*
X6709116Y12686304D01*
Y12584737D01*
X6734508Y12559345D01*
X6785292D01*
X6810684Y12584737D01*
X6963034Y12559345D02*
X6861467D01*
X6963034Y12660912D01*
Y12686304D01*
X6937642Y12711696D01*
X6886859D01*
X6861467Y12686304D01*
X7115385Y12711696D02*
X7013818D01*
Y12635521D01*
X7064601Y12660912D01*
X7089993D01*
X7115385Y12635521D01*
Y12584737D01*
X7089993Y12559345D01*
X7039210D01*
X7013818Y12584737D01*
X14010684Y10286307D02*
X13985292Y10311699D01*
X13934508D01*
X13909116Y10286307D01*
Y10184740D01*
X13934508Y10159348D01*
X13985292D01*
X14010684Y10184740D01*
X14163034Y10159348D02*
X14061467D01*
X14163034Y10260915D01*
Y10286307D01*
X14137643Y10311699D01*
X14086859D01*
X14061467Y10286307D01*
X14289993Y10159348D02*
Y10311699D01*
X14213818Y10235523D01*
X14315385D01*
X12810684Y10286308D02*
X12785292Y10311700D01*
X12734509D01*
X12709117Y10286308D01*
Y10184741D01*
X12734509Y10159349D01*
X12785292D01*
X12810684Y10184741D01*
X12963036Y10159349D02*
X12861469D01*
X12963036Y10260916D01*
Y10286308D01*
X12937643Y10311700D01*
X12886859D01*
X12861469Y10286308D01*
X13013818D02*
X13039211Y10311700D01*
X13089993D01*
X13115385Y10286308D01*
Y10260916D01*
X13089993Y10235524D01*
X13064603D01*
X13089993D01*
X13115385Y10210132D01*
Y10184741D01*
X13089993Y10159349D01*
X13039211D01*
X13013818Y10184741D01*
X11610683Y10286308D02*
X11585292Y10311700D01*
X11534508D01*
X11509116Y10286308D01*
Y10184741D01*
X11534508Y10159349D01*
X11585292D01*
X11610683Y10184741D01*
X11763034Y10159349D02*
X11661467D01*
X11763034Y10260916D01*
Y10286308D01*
X11737642Y10311700D01*
X11686859D01*
X11661467Y10286308D01*
X11915385Y10159349D02*
X11813818D01*
X11915385Y10260916D01*
Y10286308D01*
X11889993Y10311700D01*
X11839209D01*
X11813818Y10286308D01*
X10436076Y10286309D02*
X10410684Y10311701D01*
X10359900D01*
X10334508Y10286309D01*
Y10184742D01*
X10359900Y10159350D01*
X10410684D01*
X10436076Y10184742D01*
X10588426Y10159350D02*
X10486859D01*
X10588426Y10260917D01*
Y10286309D01*
X10563034Y10311701D01*
X10512251D01*
X10486859Y10286309D01*
X10639210Y10159350D02*
X10689993D01*
X10664602D01*
Y10311701D01*
X10639210Y10286309D01*
X9210683Y10286308D02*
X9185291Y10311700D01*
X9134508D01*
X9109116Y10286308D01*
Y10184741D01*
X9134508Y10159349D01*
X9185291D01*
X9210683Y10184741D01*
X9363034Y10159349D02*
X9261467D01*
X9363034Y10260916D01*
Y10286308D01*
X9337642Y10311700D01*
X9286858D01*
X9261467Y10286308D01*
X9413817D02*
X9439209Y10311700D01*
X9489993D01*
X9515385Y10286308D01*
Y10184741D01*
X9489993Y10159349D01*
X9439209D01*
X9413817Y10184741D01*
Y10286308D01*
X6823380Y10286307D02*
X6797988Y10311699D01*
X6747204D01*
X6721813Y10286307D01*
Y10184740D01*
X6747204Y10159348D01*
X6797988D01*
X6823380Y10184740D01*
X6874163Y10159348D02*
X6924947D01*
X6899555D01*
Y10311699D01*
X6874163Y10286307D01*
X7001122Y10184740D02*
X7026514Y10159348D01*
X7077298D01*
X7102689Y10184740D01*
Y10286307D01*
X7077298Y10311699D01*
X7026514D01*
X7001122Y10286307D01*
Y10260915D01*
X7026514Y10235523D01*
X7102689D01*
X5623380Y10286305D02*
X5597988Y10311697D01*
X5547204D01*
X5521812Y10286305D01*
Y10184738D01*
X5547204Y10159346D01*
X5597988D01*
X5623380Y10184738D01*
X5674163Y10159346D02*
X5724947D01*
X5699555D01*
Y10311697D01*
X5674163Y10286305D01*
X5801122D02*
X5826514Y10311697D01*
X5877297D01*
X5902689Y10286305D01*
Y10260913D01*
X5877297Y10235522D01*
X5902689Y10210130D01*
Y10184738D01*
X5877297Y10159346D01*
X5826514D01*
X5801122Y10184738D01*
Y10210130D01*
X5826514Y10235522D01*
X5801122Y10260913D01*
Y10286305D01*
X5826514Y10235522D02*
X5877297D01*
X5623380Y11486305D02*
X5597988Y11511697D01*
X5547204D01*
X5521812Y11486305D01*
Y11384738D01*
X5547204Y11359346D01*
X5597988D01*
X5623380Y11384738D01*
X5674163Y11359346D02*
X5724947D01*
X5699555D01*
Y11511697D01*
X5674163Y11486305D01*
X5801122Y11511697D02*
X5902689D01*
Y11486305D01*
X5801122Y11384738D01*
Y11359346D01*
X6823380Y11486304D02*
X6797988Y11511696D01*
X6747204D01*
X6721812Y11486304D01*
Y11384737D01*
X6747204Y11359346D01*
X6797988D01*
X6823380Y11384737D01*
X6874163Y11359346D02*
X6924947D01*
X6899555D01*
Y11511696D01*
X6874163Y11486304D01*
X7102689Y11511696D02*
X7051905Y11486304D01*
X7001122Y11435521D01*
Y11384737D01*
X7026514Y11359346D01*
X7077297D01*
X7102689Y11384737D01*
Y11410129D01*
X7077297Y11435521D01*
X7001122D01*
X8023379Y11486303D02*
X7997988Y11511695D01*
X7947204D01*
X7921812Y11486303D01*
Y11384736D01*
X7947204Y11359345D01*
X7997988D01*
X8023379Y11384736D01*
X8074163Y11359345D02*
X8124946D01*
X8099555D01*
Y11511695D01*
X8074163Y11486303D01*
X8302689Y11511695D02*
X8201122D01*
Y11435520D01*
X8251905Y11460912D01*
X8277297D01*
X8302689Y11435520D01*
Y11384736D01*
X8277297Y11359345D01*
X8226514D01*
X8201122Y11384736D01*
X9223379Y11486304D02*
X9197987Y11511696D01*
X9147204D01*
X9121812Y11486304D01*
Y11384737D01*
X9147204Y11359346D01*
X9197987D01*
X9223379Y11384737D01*
X9274163Y11359346D02*
X9324946D01*
X9299554D01*
Y11511696D01*
X9274163Y11486304D01*
X9477297Y11359346D02*
Y11511696D01*
X9401121Y11435521D01*
X9502689D01*
X10423380Y11486305D02*
X10397988Y11511697D01*
X10347204D01*
X10321812Y11486305D01*
Y11384738D01*
X10347204Y11359347D01*
X10397988D01*
X10423380Y11384738D01*
X10474163Y11359347D02*
X10524947D01*
X10499555D01*
Y11511697D01*
X10474163Y11486305D01*
X10601122D02*
X10626514Y11511697D01*
X10677297D01*
X10702689Y11486305D01*
Y11460914D01*
X10677297Y11435522D01*
X10651906D01*
X10677297D01*
X10702689Y11410130D01*
Y11384738D01*
X10677297Y11359347D01*
X10626514D01*
X10601122Y11384738D01*
X11623379Y11486306D02*
X11597987Y11511698D01*
X11547204D01*
X11521812Y11486306D01*
Y11384739D01*
X11547204Y11359348D01*
X11597987D01*
X11623379Y11384739D01*
X11674163Y11359348D02*
X11724946D01*
X11699555D01*
Y11511698D01*
X11674163Y11486306D01*
X11902689Y11359348D02*
X11801122D01*
X11902689Y11460915D01*
Y11486306D01*
X11877297Y11511698D01*
X11826514D01*
X11801122Y11486306D01*
X12848772D02*
X12823380Y11511698D01*
X12772597D01*
X12747205Y11486306D01*
Y11384739D01*
X12772597Y11359348D01*
X12823380D01*
X12848772Y11384739D01*
X12899554Y11359348D02*
X12950339D01*
X12924947D01*
Y11511698D01*
X12899554Y11486306D01*
X13026514Y11359348D02*
X13077298D01*
X13051906D01*
Y11511698D01*
X13026514Y11486306D01*
X14023380Y11486305D02*
X13997987Y11511697D01*
X13947205D01*
X13921812Y11486305D01*
Y11384738D01*
X13947205Y11359347D01*
X13997987D01*
X14023380Y11384738D01*
X14074162Y11359347D02*
X14124947D01*
X14099554D01*
Y11511697D01*
X14074162Y11486305D01*
X14201122D02*
X14226514Y11511697D01*
X14277296D01*
X14302689Y11486305D01*
Y11384738D01*
X14277296Y11359347D01*
X14226514D01*
X14201122Y11384738D01*
Y11486305D01*
X14086859Y6686305D02*
X14061467Y6711697D01*
X14010684D01*
X13985292Y6686305D01*
Y6584738D01*
X14010684Y6559346D01*
X14061467D01*
X14086859Y6584738D01*
X14137643D02*
X14163034Y6559346D01*
X14213818D01*
X14239211Y6584738D01*
Y6686305D01*
X14213818Y6711697D01*
X14163034D01*
X14137643Y6686305D01*
Y6660914D01*
X14163034Y6635522D01*
X14239211D01*
X12886859Y6686305D02*
X12861467Y6711697D01*
X12810684D01*
X12785292Y6686305D01*
Y6584738D01*
X12810684Y6559346D01*
X12861467D01*
X12886859Y6584738D01*
X12937642Y6686305D02*
X12963034Y6711697D01*
X13013818D01*
X13039211Y6686305D01*
Y6660914D01*
X13013818Y6635522D01*
X13039211Y6610130D01*
Y6584738D01*
X13013818Y6559346D01*
X12963034D01*
X12937642Y6584738D01*
Y6610130D01*
X12963034Y6635522D01*
X12937642Y6660914D01*
Y6686305D01*
X12963034Y6635522D02*
X13013818D01*
X11686859Y6686305D02*
X11661467Y6711697D01*
X11610683D01*
X11585292Y6686305D01*
Y6584738D01*
X11610683Y6559347D01*
X11661467D01*
X11686859Y6584738D01*
X11737642Y6711697D02*
X11839209D01*
Y6686305D01*
X11737642Y6584738D01*
Y6559347D01*
X10486859Y6686305D02*
X10461467Y6711697D01*
X10410684D01*
X10385292Y6686305D01*
Y6584738D01*
X10410684Y6559347D01*
X10461467D01*
X10486859Y6584738D01*
X10639210Y6711697D02*
X10588426Y6686305D01*
X10537643Y6635522D01*
Y6584738D01*
X10563034Y6559347D01*
X10613818D01*
X10639210Y6584738D01*
Y6610130D01*
X10613818Y6635522D01*
X10537643D01*
X9286858Y6686305D02*
X9261467Y6711697D01*
X9210683D01*
X9185291Y6686305D01*
Y6584738D01*
X9210683Y6559347D01*
X9261467D01*
X9286858Y6584738D01*
X9439209Y6711697D02*
X9337642D01*
Y6635522D01*
X9388425Y6660914D01*
X9413817D01*
X9439209Y6635522D01*
Y6584738D01*
X9413817Y6559347D01*
X9363034D01*
X9337642Y6584738D01*
X6886859Y7886306D02*
X6861467Y7911697D01*
X6810684D01*
X6785292Y7886306D01*
Y7784739D01*
X6810684Y7759347D01*
X6861467D01*
X6886859Y7784739D01*
X7013818Y7759347D02*
Y7911697D01*
X6937643Y7835522D01*
X7039210D01*
X12886859Y12686306D02*
X12861467Y12711698D01*
X12810684D01*
X12785292Y12686306D01*
Y12584739D01*
X12810684Y12559347D01*
X12861467D01*
X12886859Y12584739D01*
X12937642Y12686306D02*
X12963034Y12711698D01*
X13013818D01*
X13039211Y12686306D01*
Y12660914D01*
X13013818Y12635523D01*
X12988426D01*
X13013818D01*
X13039211Y12610131D01*
Y12584739D01*
X13013818Y12559347D01*
X12963034D01*
X12937642Y12584739D01*
X8086859Y10286308D02*
X8061467Y10311700D01*
X8010684D01*
X7985292Y10286308D01*
Y10184741D01*
X8010684Y10159349D01*
X8061467D01*
X8086859Y10184741D01*
X8239210Y10159349D02*
X8137643D01*
X8239210Y10260916D01*
Y10286308D01*
X8213818Y10311700D01*
X8163035D01*
X8137643Y10286308D01*
X5712251Y12686305D02*
X5686859Y12711697D01*
X5636076D01*
X5610684Y12686305D01*
Y12584738D01*
X5636076Y12559346D01*
X5686859D01*
X5712251Y12584738D01*
X5763034Y12559346D02*
X5813818D01*
X5788426D01*
Y12711697D01*
X5763034Y12686305D01*
X13449216Y7523825D02*
Y7676175D01*
X13373041Y7600000D01*
X13474608D01*
X13525392Y7650784D02*
X13550784Y7676175D01*
X13601567D01*
X13626959Y7650784D01*
Y7625392D01*
X13601567Y7600000D01*
X13626959Y7574608D01*
Y7549217D01*
X13601567Y7523825D01*
X13550784D01*
X13525392Y7549217D01*
Y7574608D01*
X13550784Y7600000D01*
X13525392Y7625392D01*
Y7650784D01*
X13550784Y7600000D02*
X13601567D01*
X12249216Y7523825D02*
Y7676175D01*
X12173041Y7600000D01*
X12274608D01*
X12325392Y7676175D02*
X12426959D01*
Y7650784D01*
X12325392Y7549217D01*
Y7523825D01*
X11049216Y7523825D02*
Y7676176D01*
X10973041Y7600000D01*
X11074608D01*
X11226959Y7676176D02*
X11176175Y7650784D01*
X11125392Y7600000D01*
Y7549217D01*
X11150783Y7523825D01*
X11201567D01*
X11226959Y7549217D01*
Y7574608D01*
X11201567Y7600000D01*
X11125392D01*
X9849217Y7523825D02*
Y7676176D01*
X9773041Y7600000D01*
X9874608D01*
X10026959Y7676176D02*
X9925392D01*
Y7600000D01*
X9976175Y7625392D01*
X10001567D01*
X10026959Y7600000D01*
Y7549217D01*
X10001567Y7523825D01*
X9950784D01*
X9925392Y7549217D01*
X8649216Y7523825D02*
Y7676176D01*
X8573041Y7600000D01*
X8674608D01*
X8801567Y7523825D02*
Y7676176D01*
X8725391Y7600000D01*
X8826958D01*
X7449216Y7523825D02*
Y7676176D01*
X7373041Y7600000D01*
X7474608D01*
X7525392Y7650784D02*
X7550783Y7676176D01*
X7601567D01*
X7626959Y7650784D01*
Y7625392D01*
X7601567Y7600000D01*
X7576175D01*
X7601567D01*
X7626959Y7574608D01*
Y7549217D01*
X7601567Y7523825D01*
X7550783D01*
X7525392Y7549217D01*
X6249217Y7523825D02*
Y7676176D01*
X6173041Y7600000D01*
X6274608D01*
X6426959Y7523825D02*
X6325392D01*
X6426959Y7625392D01*
Y7650784D01*
X6401567Y7676176D01*
X6350784D01*
X6325392Y7650784D01*
X5074608Y7523825D02*
Y7676175D01*
X4998433Y7600000D01*
X5100000D01*
X5150784Y7523825D02*
X5201567D01*
X5176176D01*
Y7676175D01*
X5150784Y7650784D01*
X13449216Y8723825D02*
Y8876175D01*
X13373041Y8800000D01*
X13474608D01*
X13525392Y8850783D02*
X13550784Y8876175D01*
X13601567D01*
X13626959Y8850783D01*
Y8749216D01*
X13601567Y8723825D01*
X13550784D01*
X13525392Y8749216D01*
Y8850783D01*
X12173041D02*
X12198433Y8876175D01*
X12249216D01*
X12274608Y8850783D01*
Y8825392D01*
X12249216Y8800000D01*
X12223824D01*
X12249216D01*
X12274608Y8774608D01*
Y8749216D01*
X12249216Y8723825D01*
X12198433D01*
X12173041Y8749216D01*
X12325392D02*
X12350784Y8723825D01*
X12401567D01*
X12426959Y8749216D01*
Y8850783D01*
X12401567Y8876175D01*
X12350784D01*
X12325392Y8850783D01*
Y8825392D01*
X12350784Y8800000D01*
X12426959D01*
X10973041Y8850783D02*
X10998433Y8876175D01*
X11049216D01*
X11074608Y8850783D01*
Y8825392D01*
X11049216Y8800000D01*
X11023824D01*
X11049216D01*
X11074608Y8774608D01*
Y8749216D01*
X11049216Y8723825D01*
X10998433D01*
X10973041Y8749216D01*
X11125392Y8850783D02*
X11150783Y8876175D01*
X11201567D01*
X11226959Y8850783D01*
Y8825392D01*
X11201567Y8800000D01*
X11226959Y8774608D01*
Y8749216D01*
X11201567Y8723825D01*
X11150783D01*
X11125392Y8749216D01*
Y8774608D01*
X11150783Y8800000D01*
X11125392Y8825392D01*
Y8850783D01*
X11150783Y8800000D02*
X11201567D01*
X9773041Y8850783D02*
X9798433Y8876175D01*
X9849217D01*
X9874608Y8850783D01*
Y8825392D01*
X9849217Y8800000D01*
X9823825D01*
X9849217D01*
X9874608Y8774608D01*
Y8749216D01*
X9849217Y8723825D01*
X9798433D01*
X9773041Y8749216D01*
X9925392Y8876175D02*
X10026959D01*
Y8850783D01*
X9925392Y8749216D01*
Y8723825D01*
X8573041Y8850784D02*
X8598432Y8876176D01*
X8649216D01*
X8674608Y8850784D01*
Y8825392D01*
X8649216Y8800000D01*
X8623824D01*
X8649216D01*
X8674608Y8774609D01*
Y8749217D01*
X8649216Y8723825D01*
X8598432D01*
X8573041Y8749217D01*
X8826958Y8876176D02*
X8776175Y8850784D01*
X8725391Y8800000D01*
Y8749217D01*
X8750783Y8723825D01*
X8801567D01*
X8826958Y8749217D01*
Y8774609D01*
X8801567Y8800000D01*
X8725391D01*
X7373041Y8850783D02*
X7398433Y8876175D01*
X7449216D01*
X7474608Y8850783D01*
Y8825392D01*
X7449216Y8800000D01*
X7423824D01*
X7449216D01*
X7474608Y8774608D01*
Y8749216D01*
X7449216Y8723825D01*
X7398433D01*
X7373041Y8749216D01*
X7626959Y8876175D02*
X7525392D01*
Y8800000D01*
X7576175Y8825392D01*
X7601567D01*
X7626959Y8800000D01*
Y8749216D01*
X7601567Y8723825D01*
X7550783D01*
X7525392Y8749216D01*
X6173041Y8850784D02*
X6198433Y8876176D01*
X6249217D01*
X6274608Y8850784D01*
Y8825392D01*
X6249217Y8800000D01*
X6223825D01*
X6249217D01*
X6274608Y8774609D01*
Y8749217D01*
X6249217Y8723825D01*
X6198433D01*
X6173041Y8749217D01*
X6401567Y8723825D02*
Y8876176D01*
X6325392Y8800000D01*
X6426959D01*
X4973041Y8850784D02*
X4998433Y8876176D01*
X5049216D01*
X5074608Y8850784D01*
Y8825392D01*
X5049216Y8800000D01*
X5023825D01*
X5049216D01*
X5074608Y8774608D01*
Y8749217D01*
X5049216Y8723825D01*
X4998433D01*
X4973041Y8749217D01*
X5125392Y8850784D02*
X5150784Y8876176D01*
X5201567D01*
X5226959Y8850784D01*
Y8825392D01*
X5201567Y8800000D01*
X5176175D01*
X5201567D01*
X5226959Y8774608D01*
Y8749217D01*
X5201567Y8723825D01*
X5150784D01*
X5125392Y8749217D01*
X13373041Y10050781D02*
X13398433Y10076172D01*
X13449216D01*
X13474608Y10050781D01*
Y10025389D01*
X13449216Y9999997D01*
X13423825D01*
X13449216D01*
X13474608Y9974605D01*
Y9949214D01*
X13449216Y9923822D01*
X13398433D01*
X13373041Y9949214D01*
X13626959Y9923822D02*
X13525392D01*
X13626959Y10025389D01*
Y10050781D01*
X13601567Y10076172D01*
X13550784D01*
X13525392Y10050781D01*
X12198433Y10050782D02*
X12223825Y10076173D01*
X12274609D01*
X12300001Y10050782D01*
Y10025390D01*
X12274609Y9999998D01*
X12249217D01*
X12274609D01*
X12300001Y9974606D01*
Y9949215D01*
X12274609Y9923823D01*
X12223825D01*
X12198433Y9949215D01*
X12350784Y9923823D02*
X12401568D01*
X12376176D01*
Y10076173D01*
X12350784Y10050782D01*
X10973041Y10050783D02*
X10998433Y10076174D01*
X11049216D01*
X11074608Y10050783D01*
Y10025391D01*
X11049216Y9999999D01*
X11023824D01*
X11049216D01*
X11074608Y9974607D01*
Y9949216D01*
X11049216Y9923824D01*
X10998433D01*
X10973041Y9949216D01*
X11125392Y10050783D02*
X11150783Y10076174D01*
X11201567D01*
X11226959Y10050783D01*
Y9949216D01*
X11201567Y9923824D01*
X11150783D01*
X11125392Y9949216D01*
Y10050783D01*
X9874608Y9923826D02*
X9773041D01*
X9874608Y10025393D01*
Y10050785D01*
X9849217Y10076176D01*
X9798433D01*
X9773041Y10050785D01*
X9925392Y9949218D02*
X9950784Y9923826D01*
X10001567D01*
X10026959Y9949218D01*
Y10050785D01*
X10001567Y10076176D01*
X9950784D01*
X9925392Y10050785D01*
Y10025393D01*
X9950784Y10000001D01*
X10026959D01*
X8674608Y9923825D02*
X8573041D01*
X8674608Y10025392D01*
Y10050784D01*
X8649216Y10076175D01*
X8598432D01*
X8573041Y10050784D01*
X8725391D02*
X8750783Y10076175D01*
X8801567D01*
X8826958Y10050784D01*
Y10025392D01*
X8801567Y10000000D01*
X8826958Y9974608D01*
Y9949217D01*
X8801567Y9923825D01*
X8750783D01*
X8725391Y9949217D01*
Y9974608D01*
X8750783Y10000000D01*
X8725391Y10025392D01*
Y10050784D01*
X8750783Y10000000D02*
X8801567D01*
X7474609Y9923825D02*
X7373041D01*
X7474609Y10025392D01*
Y10050784D01*
X7449217Y10076175D01*
X7398433D01*
X7373041Y10050784D01*
X7525392Y10076175D02*
X7626959D01*
Y10050784D01*
X7525392Y9949217D01*
Y9923825D01*
X6274608D02*
X6173041D01*
X6274608Y10025392D01*
Y10050784D01*
X6249217Y10076175D01*
X6198433D01*
X6173041Y10050784D01*
X6426959Y10076175D02*
X6376175Y10050784D01*
X6325392Y10000000D01*
Y9949217D01*
X6350784Y9923825D01*
X6401567D01*
X6426959Y9949217D01*
Y9974608D01*
X6401567Y10000000D01*
X6325392D01*
X5074608Y9923825D02*
X4973041D01*
X5074608Y10025392D01*
Y10050784D01*
X5049216Y10076175D01*
X4998433D01*
X4973041Y10050784D01*
X5226959Y10076175D02*
X5125392D01*
Y10000000D01*
X5176175Y10025392D01*
X5201567D01*
X5226959Y10000000D01*
Y9949217D01*
X5201567Y9923825D01*
X5150784D01*
X5125392Y9949217D01*
X13474608Y11123826D02*
X13373041D01*
X13474608Y11225394D01*
Y11250785D01*
X13449216Y11276177D01*
X13398433D01*
X13373041Y11250785D01*
X13601567Y11123826D02*
Y11276177D01*
X13525392Y11200002D01*
X13626959D01*
X12274609Y11123827D02*
X12173041D01*
X12274609Y11225395D01*
Y11250786D01*
X12249217Y11276178D01*
X12198433D01*
X12173041Y11250786D01*
X12325392D02*
X12350784Y11276178D01*
X12401568D01*
X12426959Y11250786D01*
Y11225395D01*
X12401568Y11200003D01*
X12376176D01*
X12401568D01*
X12426959Y11174611D01*
Y11149219D01*
X12401568Y11123827D01*
X12350784D01*
X12325392Y11149219D01*
X11074608Y11123827D02*
X10973041D01*
X11074608Y11225395D01*
Y11250786D01*
X11049216Y11276178D01*
X10998433D01*
X10973041Y11250786D01*
X11226959Y11123827D02*
X11125392D01*
X11226959Y11225395D01*
Y11250786D01*
X11201567Y11276178D01*
X11150783D01*
X11125392Y11250786D01*
X9900000Y11123828D02*
X9798433D01*
X9900000Y11225396D01*
Y11250787D01*
X9874608Y11276179D01*
X9823825D01*
X9798433Y11250787D01*
X9950784Y11123828D02*
X10001567D01*
X9976176D01*
Y11276179D01*
X9950784Y11250787D01*
X8674608Y11123827D02*
X8573041D01*
X8674608Y11225395D01*
Y11250786D01*
X8649216Y11276178D01*
X8598432D01*
X8573041Y11250786D01*
X8725391D02*
X8750783Y11276178D01*
X8801567D01*
X8826958Y11250786D01*
Y11149219D01*
X8801567Y11123827D01*
X8750783D01*
X8725391Y11149219D01*
Y11250786D01*
X7385737Y11123827D02*
X7436521D01*
X7411129D01*
Y11276178D01*
X7385737Y11250786D01*
X7512696Y11149219D02*
X7538088Y11123827D01*
X7588872D01*
X7614263Y11149219D01*
Y11250786D01*
X7588872Y11276178D01*
X7538088D01*
X7512696Y11250786D01*
Y11225395D01*
X7538088Y11200003D01*
X7614263D01*
X6185737Y11123826D02*
X6236521D01*
X6211129D01*
Y11276177D01*
X6185737Y11250785D01*
X6312696D02*
X6338088Y11276177D01*
X6388871D01*
X6414263Y11250785D01*
Y11225394D01*
X6388871Y11200002D01*
X6414263Y11174610D01*
Y11149218D01*
X6388871Y11123826D01*
X6338088D01*
X6312696Y11149218D01*
Y11174610D01*
X6338088Y11200002D01*
X6312696Y11225394D01*
Y11250785D01*
X6338088Y11200002D02*
X6388871D01*
X4985737Y11123825D02*
X5036521D01*
X5011129D01*
Y11276175D01*
X4985737Y11250783D01*
X5112696Y11276175D02*
X5214263D01*
Y11250783D01*
X5112696Y11149216D01*
Y11123825D01*
X13385738Y12323825D02*
X13436520D01*
X13411130D01*
Y12476176D01*
X13385738Y12450784D01*
X13614262Y12476176D02*
X13563480Y12450784D01*
X13512695Y12400000D01*
Y12349217D01*
X13538087Y12323825D01*
X13588870D01*
X13614262Y12349217D01*
Y12374608D01*
X13588870Y12400000D01*
X13512695D01*
X12185737Y12323826D02*
X12236521D01*
X12211129D01*
Y12476177D01*
X12185737Y12450785D01*
X12414263Y12476177D02*
X12312696D01*
Y12400001D01*
X12363480Y12425393D01*
X12388872D01*
X12414263Y12400001D01*
Y12349218D01*
X12388872Y12323826D01*
X12338088D01*
X12312696Y12349218D01*
X10985737Y12323826D02*
X11036520D01*
X11011129D01*
Y12476177D01*
X10985737Y12450785D01*
X11188871Y12323826D02*
Y12476177D01*
X11112696Y12400001D01*
X11214263D01*
X9785737Y12323825D02*
X9836521D01*
X9811129D01*
Y12476176D01*
X9785737Y12450784D01*
X9912696D02*
X9938088Y12476176D01*
X9988871D01*
X10014263Y12450784D01*
Y12425392D01*
X9988871Y12400000D01*
X9963479D01*
X9988871D01*
X10014263Y12374608D01*
Y12349217D01*
X9988871Y12323825D01*
X9938088D01*
X9912696Y12349217D01*
X8585736Y12323824D02*
X8636520D01*
X8611128D01*
Y12476175D01*
X8585736Y12450783D01*
X8814263Y12323824D02*
X8712695D01*
X8814263Y12425391D01*
Y12450783D01*
X8788871Y12476175D01*
X8738087D01*
X8712695Y12450783D01*
X7411129Y12323823D02*
X7461912D01*
X7436521D01*
Y12476174D01*
X7411129Y12450782D01*
X7538088Y12323823D02*
X7588871D01*
X7563479D01*
Y12476174D01*
X7538088Y12450782D01*
X6185737Y12323824D02*
X6236520D01*
X6211129D01*
Y12476175D01*
X6185737Y12450783D01*
X6312696D02*
X6338088Y12476175D01*
X6388871D01*
X6414263Y12450783D01*
Y12349216D01*
X6388871Y12323824D01*
X6338088D01*
X6312696Y12349216D01*
Y12450783D01*
X13449216Y13650783D02*
X13474608Y13676175D01*
X13525392D01*
X13550784Y13650783D01*
Y13625392D01*
X13525392Y13600000D01*
X13550784Y13574608D01*
Y13549216D01*
X13525392Y13523825D01*
X13474608D01*
X13449216Y13549216D01*
Y13574608D01*
X13474608Y13600000D01*
X13449216Y13625392D01*
Y13650783D01*
X13474608Y13600000D02*
X13525392D01*
X12249216Y13676176D02*
X12350784D01*
Y13650784D01*
X12249216Y13549219D01*
Y13523827D01*
X11150784Y13676176D02*
X11100000Y13650784D01*
X11049216Y13600002D01*
Y13549219D01*
X11074608Y13523827D01*
X11125392D01*
X11150784Y13549219D01*
Y13574609D01*
X11125392Y13600002D01*
X11049216D01*
X9950784Y13676173D02*
X9849217D01*
Y13599998D01*
X9900000Y13625391D01*
X9925392D01*
X9950784Y13599998D01*
Y13549216D01*
X9925392Y13523824D01*
X9874608D01*
X9849217Y13549216D01*
X8725392Y13523825D02*
Y13676175D01*
X8649216Y13600000D01*
X8750784D01*
X7449216Y13650783D02*
X7474608Y13676175D01*
X7525392D01*
X7550784Y13650783D01*
Y13625392D01*
X7525392Y13600000D01*
X7500000D01*
X7525392D01*
X7550784Y13574608D01*
Y13549216D01*
X7525392Y13523825D01*
X7474608D01*
X7449216Y13549216D01*
X6350784Y13523824D02*
X6249216D01*
X6350784Y13625391D01*
Y13650781D01*
X6325392Y13676173D01*
X6274608D01*
X6249216Y13650781D01*
X5074608Y13523825D02*
X5125392D01*
X5100000D01*
Y13676175D01*
X5074608Y13650783D01*
D20*
X2145000Y8625000D02*
Y11525000D01*
X1455000Y8625000D02*
X2145000D01*
X1455000D02*
Y11525000D01*
X2145000D01*
%TF.MD5,d6fbde3a3a61bada5b3549ee1f52f25c*%
M02*
